<mxfile host="app.diagrams.net" agent="Mozilla/5.0 (Windows NT 10.0; Win64; x64) AppleWebKit/537.36 (KHTML, like Gecko) Chrome/130.0.0.0 Safari/537.36 Edg/130.0.0.0" version="24.8.2">
  <diagram id="C5RBs43oDa-KdzZeNtuy" name="Page-1">
    <mxGraphModel dx="1908" dy="1294" grid="1" gridSize="10" guides="1" tooltips="1" connect="1" arrows="1" fold="1" page="1" pageScale="1" pageWidth="827" pageHeight="1169" math="0" shadow="0">
      <root>
        <mxCell id="WIyWlLk6GJQsqaUBKTNV-0" />
        <mxCell id="WIyWlLk6GJQsqaUBKTNV-1" parent="WIyWlLk6GJQsqaUBKTNV-0" />
        <mxCell id="_7vB9Jlh5lAf1GoCw8tS-0" value="" style="edgeStyle=orthogonalEdgeStyle;rounded=0;orthogonalLoop=1;jettySize=auto;html=1;" edge="1" parent="WIyWlLk6GJQsqaUBKTNV-1" source="ttBeq1UxZRL0ylQ9z-ZB-3" target="ttBeq1UxZRL0ylQ9z-ZB-10">
          <mxGeometry relative="1" as="geometry" />
        </mxCell>
        <mxCell id="N3tuldMV24hy1_GBqyLN-80" style="edgeStyle=orthogonalEdgeStyle;rounded=0;orthogonalLoop=1;jettySize=auto;html=1;entryX=0.5;entryY=0;entryDx=0;entryDy=0;entryPerimeter=0;textShadow=1;" parent="WIyWlLk6GJQsqaUBKTNV-1" source="zklYke0HYy3J-oZaXSR5-0" target="ttBeq1UxZRL0ylQ9z-ZB-45" edge="1">
          <mxGeometry relative="1" as="geometry" />
        </mxCell>
        <mxCell id="N3tuldMV24hy1_GBqyLN-4" style="edgeStyle=orthogonalEdgeStyle;rounded=0;orthogonalLoop=1;jettySize=auto;html=1;entryX=0.5;entryY=1;entryDx=0;entryDy=0;exitX=0.5;exitY=1;exitDx=0;exitDy=0;shadow=1;textShadow=1;" parent="WIyWlLk6GJQsqaUBKTNV-1" source="N3tuldMV24hy1_GBqyLN-30" target="0slJHiL-0B2PbUMmb_t5-52" edge="1">
          <mxGeometry relative="1" as="geometry">
            <mxPoint x="1130" y="1080" as="sourcePoint" />
            <Array as="points">
              <mxPoint x="1000" y="1080" />
              <mxPoint x="350" y="1080" />
            </Array>
          </mxGeometry>
        </mxCell>
        <mxCell id="N3tuldMV24hy1_GBqyLN-5" value="Data Center" style="swimlane;whiteSpace=wrap;html=1;shadow=1;rotation=0;direction=east;flipH=1;flipV=0;textShadow=1;" parent="WIyWlLk6GJQsqaUBKTNV-1" vertex="1">
          <mxGeometry x="760" y="600" width="770" height="400" as="geometry" />
        </mxCell>
        <mxCell id="N3tuldMV24hy1_GBqyLN-50" style="edgeStyle=orthogonalEdgeStyle;rounded=0;orthogonalLoop=1;jettySize=auto;html=1;textShadow=1;" parent="N3tuldMV24hy1_GBqyLN-5" source="N3tuldMV24hy1_GBqyLN-30" edge="1">
          <mxGeometry relative="1" as="geometry">
            <mxPoint x="-50" y="480" as="targetPoint" />
            <Array as="points">
              <mxPoint x="240" y="480" />
              <mxPoint x="-50" y="480" />
            </Array>
          </mxGeometry>
        </mxCell>
        <mxCell id="N3tuldMV24hy1_GBqyLN-6" value="" style="shape=image;imageAspect=0;aspect=fixed;verticalLabelPosition=bottom;verticalAlign=top;image=data:image/jpeg,/9j/4AAQSkZJRgABAQAAAQABAAD/2wBDAAsJCQcJCQcJCQkJCwkJCQkJCQsJCwsMCwsLDA0QDBEODQ4MEhkSJRodJR0ZHxwpKRYlNzU2GioyPi0pMBk7IRP/2wBDAQcICAsJCxULCxUsHRkdLCwsLCwsLCwsLCwsLCwsLCwsLCwsLCwsLCwsLCwsLCwsLCwsLCwsLCwsLCwsLCwsLCz/wAARCAFsAdQDASIAAhEBAxEB/8QAHAABAAIDAQEBAAAAAAAAAAAAAAEFAwQGAgcI/8QAVRAAAQQBAgMFBAYFCQQEDQUAAQACAwQRBSEGEjETQVFhcRQiMoEHFSNCkaEWUrHB0SQzU2JykqLh8DRDgpMlVFWyFyY1RGNkc3SDlKPC0idFhOLx/8QAGwEBAAMBAQEBAAAAAAAAAAAAAAECBAMFBgf/xAA1EQEAAgIBAwIDBQcDBQAAAAAAAQIDEQQSITETQQVRYSJxgZGhFBUyQrHB0VLh8CMzQ5Lx/9oADAMBAAIRAxEAPwD65um6bpugbpum6boG6bpum6Bum6bpugjdTuo3U7oG6bpum6Bum6bpugbpum6boG6bpum6Bum6bpugbpum6boG6bpum6Bum6bpugbpum6boG6bpum6Bum6bpugbpum6boG6jdTuo3QTuo3U7qN0E7pum6boG6bpum6Bum6bpugbpum6boG6bpum6Bum6bpugbpum6boG6bpum6Bum6bpugbpum6boG6JuiBum6IgbpuiIG6boiBum6hSgjdTuoUoG6boiBum6IgbpuiIG6boiBum6IgbpuiIG6boiBum6IgbpuiIG6boiBum6IgbpuiIG6jdSoQTuo3UqEE7puiIG6boiBum6IgbpuiIG6boiBum6IgbpuiIG6bqFKBum6IgbpuiIG6IiAoUogIiIIRFKCFKhSghSoUoIUoiAiIghSiIIUoiAoUqEBERAREQFKhSgKFKIChSiAoUogKFKhBKhSoQSoUqEEqFKhBKhSiAiIgKFKICIiCEREBEUoIRFKAiIgIiICIiCEUoghSiIIRFKCERSghEUoIRSiCEQrFLMyIbnc9yDKpWKKUStyPmsqCEUogKFKhAREQEREBSoUoIRSiAoUoghFKIChSoQSoUqEEqFKhARSoQSoUoghFKIIRSiCFKIghERARFKCERSghFKIIRSiCEUogKFKICIiCEUoghSoUoIUqFKCFKKCg8yODGlxPTp6qnmkdI5xJO63LsmCGfitHCDLVnMT8OPunYq3BBAIOQeioiFu05JyS0NywdSeg9EQsFKjKlEihSiCEUoghFKIIUoiAoUogKFKIChSiAoUqEEqFqP1PSInujl1GhHIDgskswteD5tc7KDU9Jd8N+kf7NmA/wD3INxQtcXtPO4uVd+n28X/AOSyMsVpSRHNC84zhj2OOB5NKDKoREEqFP8Aroo/10QSijITKCVCb/6CpJuK+EoJHxS6zQEjDyvDJe05XDuJYCPzQXalUbeK+EX9Na0/fb3pmtP4Owso4k4WPTWtMz/71F/FBbIscE9ezFHPXljmhkBdHJE5r2PGcZa5uyyICKUQQiKUBERAREQEREBQpRAREQQilEEKUUE4QFKxcxz5LJ1CAh6FSvLtkFNNIXyPPmvIKyWojFKT91/vNP7VhyiGaKJ0r2tGcdXHwCtmMaxrWtGAB/orBTj7OPJ2c/3j5DuW0g8nI6KMkdV6WCeZsLC7q47MHnjqfJEsjpY2/E4D1O/4L017HfC4H5qie6R7i97iXHqc7egUB8jejj5dUF+ipo71hh3JIHcd1YVrQnbnlwBtnuPoUGyiDywpQQpREBQpRAUJlP8AXRBKhQ57W/E5o9SB+1Y/aav9PB/zGfxQZly/Ht2ehwprk0Ejo5nRwwMfG4te3tpWRnlI3zgldGLFZxw2aEnwEjCfyK476T3hvCVtuf525QYPP7UP/cg+SwU4JRlupaLVOAHM1HmMznY3e52Cd/VbQ0yXI5NS4Pk6dZ3tJ+XKmmx2pYx2dbhaduMg6sY22AOmDzkLbm54DFDPoHDckthwirDSxHLPJL1wwNdgY8SdlIxdlSpQvk1COiTFntXVBmN+fhbGTuSVhqvvQznVI70mjSTs7GtHVe2IiDI2eXdSeqv6fCGrydnd1avzSA81ShHJEWMJ6OkPNufyUz8F2ZrTbOoOdYcCOypVHRco/ql3N08Ss+TJMzqr0+LjxVjrzd5n28a+sqy9q3FlarNaj4n1Y8nLyiSYAP5j0HKufPGPGv8A2/qf/wAw9drb4QtXZYW3i6JgJENSmY39n3ZleDjK0bn0e2GzRQ0IZH5YTMZ5oeSIZwCXZ6nrhMd58WObTFe3Vx4iI+/3+5yp4u4zPXXtTP8A/Jk/ivUPEXGliaBkOs6o+YvBjAsybHxO+F18P0dQ8xZPJJLOGlzhE+JrG49TutmrwXPRa+vTjzYlz296V0XLXjP6o5vi8MfNTbLHt5ccXGibR6kxEEHGfGsLBRF2jYmjjBs3J6w5quB8JLXBjnerVWT6jxNqj3PdxTeeeb4ajmxRNPhyQEBW7uEZ7ED6dcPr1ATzubJEbVpwOS5xLunesP6Iakwv0vT63s9YBrrV10sTpZA5vRvvbFcotefD1enh1nvSJj73NUtU15zeKmS61qMzKul2BGTZlcxxdIyLmwXef5rbhfptaOvB+k0WmPjr12vrHTDYax/ZtcXGRo3JzkrPZ4bfo+kcYWGMmMAp04RNN2Y53OtMB5Q09Fkr3bcTAyHX+HKzWtZivqdYOmjwwe6X9m4/mtUeHgX/AI57PcLoZnsircbaVNNJlsbHaLhznY6Ze1dBFDTMZikiqvc+J0Mkns8beZzmcheBjI8Qq/OvRkMvQ6VOx8LLUdvTKbY44oTjDnTFjRh2cD/NZ4HvOORkrhjq1ji3HjnCsouOB9f0XTtEg0bU7tWhf0uWzBJFdkbAJGOlc9ksbpMNIOe49349dFrvDszmsi1jSpHvc1jWRXa7nOc7oA0PzkrhGdnPy9rXbLgA/aQh+M9+XNWpqNarNe4HqRQV2GfiGGZzo42NJZXaHkZaMpofWAiDv9SpUCEUogIiICIiAiIgIiICIiAihSgKCilBjwpb4L0VgmnjgALiS49GN6nz9EGcnAWInK0hec53vsAaf1SdvXK22vY8ZaQQf1T+0IEkbJWFjhseh72nxVaK0rJo43Alrjs7uIG+6s8j+K070zmGKNhIcD2hI6jPQKBYD8hgD0Uqtiv9BMM7fE3r8wt2OWKQAxuDvTY/h1UjLkDJOwAz+CqZpTNI52dgcNz3BbtuXkhdj4n+4Pn1VYCgkheeVesqQCSANyTjHjlEJr1u3fg55G7uI2+WVaBjWNa1oAaNgB3KYYhFG1oGDjLvVesIl4Bc0+SytcHeCxkdVgsWG1wM+9Idw0ftKgbqLWrWGzt3wHjqP4LZUgqvXNb03QaL711zi3mEUEMQ5prM7vhiib3kqzK+b6ldgu8S63qlwj6t4RibTpNdgs+sJWdpNNynbLfhHoFyzZIxUm8rUr1Tps9pxrrn217UTw9Rk3io6c1kmomMgcpmsPHun0A9FI4Q0eb+e1biG077xn1SfLvkML5frPF+u6lNL7PNJVqcx7NkTiHub3Oe7rkrFpPFevabMx0lmWevzDtI5nOccd5aSvPmvMtHVuI+jRE4vD6ieCOCSSZK1mRwOD21+0ST5++p/QrgDf8A6Nb/APN2s/8AfW3Uu19UpwXoHAiSMOOO9p8R4he/9bLxMnxDNS3TPt9W2vHpMbhWv4H4Ge0iOrJE77r47ljIPju9VNzhuxDFPSoatYdGcOfQ1R/tdOZrd24Dtx5ELqFzXEMj47lR0bnMcK+5Bx984Wnh/EcmTJ0S2cXg0zX9OY8uWkpUYHGpPoNePUgHONezNMG2mgZLqUzXAE/1TlV1fTpdQLphAKOmwPy95LmuaRsY4i/3vVdXLZr6nX9j1RjnMzzQ2GACevINg9jvELC+3DLDPS12zYFnTYw5j6cAlZqFTo2ct5m+8z734r6CuTrjszcn4fPBv15I3X2UVTS6dn2m52U8dCIOEXNNJzShnxSkk/ILxFo7oq8163FbcyQ81enA9/OGP+EuwSVcnX+FDX9kGpagIOVrA1mnRt90HPUSrOeKeHOXkGqXmjHLlumxh2PXtVE0ye0qxyuPqN0/+uefUghdVEmkai19o4gYbZD3HzHUfMLLa0SWCsTHVsT2JXFrGxTSGKDbvycnHmeqsG6zwe2dtn6z1J07XczXyUGO3O2d5VsnifhsvEn1tqXM3oBp0Yafl2uFNqX3GpVry8MxMWrH5KCtodiu0G+2WWxKMV6UMrg5xP3pXA7NCyWNDtQ1wyKrZs3Jdy+OVwhhz90b5OFdM4k4YjfJI3VNQ7SQ5e46ZET8syqX8S8NvbynWNRAPUs05jXD5iXKjoybTHI4sU6OlQVdCsQFv1iZXzyjlhpQynnI/WkcDs0L3a0azC1lapWtzXJ8vMjZJRDC3Pwg5x+Ktq+t8H1pnTx6jeMrmFjnS6e1+QTnvl6rPNxLwzO0sdqt6ON2cth05jc57nES5Sa5erateRx4xTWad/8Anv8ANVtoCjw5xU18z57PJpbZ3te50MZdaZ7je4kd62689f8Ak0MtDTJQ+SCNz7FWN7yHOa333Hfx71kvano1rhjiCtQtzyiObSj2clQV2tabA35mvJPQqpY8jBb1Ba5p7stw4efcu9InXdhz3pa32I1D6bxe2KKjDBC3UOSrFzw1YW9nplYMbtYsygbtYPgbzbnG222enNfp6XpRgD2D6quvDnxtxPK+L2qItLvDOFyuva3V1WjTijksFz2ROmgdalNdkjAM5rcoZnbbMhA8MrIziW85tphijcyWOKOEOe8tqiOD2bMI8xuduqu4OwvXr8EFwh7Oydp1c84DHB8zpBHNy8o25dwFyUL+04p+j+PuFnUZMeGIMD9iy2NedcgfB7HXh5ohGXRudzfGJXOIO2SRlaWnv5uL+Bh4P1I58cwlRI+whSoRQJRQpQEREBERAREQEREBERAXh7wwZJHUD8V6Pqqy7Y5ncjTs3bY9fRBZZTK1ak/asDSffZ7pHecd62c+PRB4nmbEzm6k7NHiVUvc57i5xJJ3J/cF7sTGaQu+6MtYPId6x5RCCNka57CCxxB8jt+C9LLBAZ34/wB234j4+SDLBZnfsIufGxc0gD55WpNBa53vkYSXHJLPeHl0Vy1jWANaMNHTbZCESoDnv2PmpB3Bz07wcFXT42O+JrT45atGzHSi5eYEP2PJHucZ7wUQzQQiaBnbl7icuZknIB2UOoNPwSEf2xn9iRX6zyGkGLoGh2C3A6bhbmQRnIx3Y6EeKJVr6tiMHDeYDvYf3KajOacZBxGOZ2R39wKsgSq+ey9tg9kQAwBrsj4j35QWYRasFyKXDXe48/gT5FbKDHNI2GNzz3fCPEqlkLnuc9xJcev8At67IXSCMH3WDLvNxWphB5he6J7SDsruORsjWuHf1VIR5Kxo8/KQc8p/BEN3w9R+1fD9UfL9ScZgF3NJxhqDZz3kc+wJ8ML7ec7L5bqGnD66410GTlY3V2xa7pzugL3DlfjP9Yb+qycudY+qfaY/q74e99PlXYnuH+sJ2J8PTz8lZy1pYJZYZmFk0T3RyNcCCC0kb5XjkGDnGPHwWmLxPePC0007P6O7UhZeoPJLIntdGCc4bJnIC7LGCR4Ej8CVy3AlF0Edq/KOVk27MjH2cf3t+5dIyxFI4hrt9zv3Z3XxfxKa2zWmv1/s9LBExWNspVBqVdtvWqVd/wDN+y80p/VY3mcSSr/bvz1XOapOGXdXDTh406GBp78l2XY+S4cPfXuPk9Xg79SZr50onsMb5Y3dWPc3fwadvxXi3BLLHUfGGm3XAs0jI0Oa/Bw6B+duVwyF7e973F8hy4gZPTYDAyFsPHNSoyN6xSS13uHcSe0Z+9fSxeccxt9DyMVctPTyeJ/qoLeq1YzFPDoOhezWQSwPpnmikbtJC/3+oPTyWNmsVDjOg6D/APJn/wDNZ9Qrxfavf7ta65oscuMV7Y2jsNHgejlzju1gllhlHLJG4seB0yO8eq9elotG35zyuNfi5ZxX9nSs1Oi7GdB0H5VP/wC67LgbTeHeIPr91/QtJ/kdqCKAQ1+QBr2EkH3j4L5hFL03X1P6JnZZxX/71UP+B6vLK6/9CuCP+wdP/wCV/mn6FcEf9g6d/wAr/NdCEVRz36FcEf8AYOnf8r/NQeCuCNv+gdP/AOX/AJrolBQfOeOdA4f0rhq2dO06rVfZv6ZFI6BmHPAm6Z/FUDNF0wkltWdwycHM5BAONiDhdj9JTT+i8z98R6hpsjvIdsG/vWLSNauw6Zq4a2Es0uoySvlh94ue749ws2be4jenqcGv2LW6Yt3jy5lukaU0713AjYgySAjHiMraZpek7fyf/wCpIf3q+m06vMLD5rn/AExJW+srELR9mxhw5zQ053A81FihpTIKT6VqeWfUHtbTa8e68GQNc44AxjuWeYy+1m+bcaf5dfgqmaZpIP8As4/vyfxWD2arX4u+j7sI+QPfqXNuTnERHeV0L9Oijuz1+0c6IUJbML2kZc6L3SPkVz7nc3FX0eO7+31AfjDlXxWvFtWll5Fcc45mj6n4Ig6KVueMIiICIiAiIgIiIG6boiBuoKHbfwVbbukZZHt4+KDJattYCxh37yqskuJJ3JOV4LnO3JJKkFEMjHvjcHtcQ4H5H1W+62ZK8vK1wk2Y/AyAD1Krcq3qxdjE3m+J/vPz+xBVg7fs9FOVZS068mS33Hd5b0PyWo+nYZ0Ae0fqdceiDG0OeWtaMucQAriGNsTAxvdufMlaNGJwe+R7cFgDWg9cnvVhv+5B6woIQHdHuaxjnuPutGSiWvZnELdt5HD3B3D+sVUP5nFznEknck75KzySOle57s7k48h3BYyEQwFvoskFmeuRynmj72OOR8kIWWvVfOc9Iwd3d5PgEG57dD2Jew/aH3WsJHM0nvPkq0HJOTuckk+KtPZKobyiMHPUnPN65VfNC+F3Ulh+B3j6+aJeM47/AMFvVrjhiKTLtjyEbu9Cq/K36MfM50rujPdb696IaznlznOPVziTnr6ID1ytu5X6zM275Gjp6habBzEAd5wg2a8JlIONh1ONlZta1gAaMBeIIxHG0d/ek8sMEU080jI4YY3yyySHlZHGwcznOJ7gOqDIVyvF+jS3IKWqUZ4K+r6TI6Wo+y9kUNiN385Wle4jZ3duN/DORWza9r/EIc/SJhoug8zmjVrMIkvXuUlp9hru2DDjHMfyIIGgOH+Di/tbsGo6xZ+9a1i/O97jv9yJwbjwVvRtkjWu0onJFZaUjOGuI4mTT2alHUmARSxvt1WzRubtg4dyOH6pyvdfginGWzz2H2YGe/sYxDjxc+MqyOlcFFvKeHNLDcbnleHAePNzZWZvAGg2YfaNObqGh2HjnifStzOB8C+KVxGPLIXm3+GZcdZiuSYj5NVOZFp8ba9y3FHEKVJuI8Br3NbyghvRrR19VNCtIwdq/v6BUWq/phwzPUZqZqWKDpo44tSirNbHKC4Ds7YAHKT4+XU93XkYONujSMbggjmGD4eC+b5vHycbUW9/dvxXrlmZRgkgDGcjC43V3drfuTsDuydMYWvPRzomtDh8l2EkjIYp53kBkEb5HEnGzRnH7Fxl8Ojj0yLcP9kNhwdneWw8vJPywnw6NWmf+fN9F8LjWSbfh/dioytit1Xv5SztGtlDwC3ldscgrqJoaNaWGvFWhEV82JboIJzHDGXAt8CuYux04zB7K8OjkrxyObkuMcvRzT3q5sSTRxMMj2vfBoRDXsJLXOnkDOYH0WzkR12raPybeVWbzS0TMef9lRQrR3bLoXxCSF9ey98XXLC0ta0fu9FymsaVdrFsNmJ7bVeESQuOP5VSHTBHV0fRy+o8MVIIKntr280kuXDI+6DytaP3r1q7dN4pqS0oZY26hSeZqM7f9xYGRyOJ/wB2/wCE9y9Dj54x5NXntPt/f8+z574xf18kxSv8PmXxFkhyP9fNfWvohkB/ShneZKUny5XhfLtSpyVbE3NCYXNkdHPCQQa87fiZvvjvb4hfRvodcfauJm9xr0Xb+PNIF7O/Z80+wqd0RQHzWKWevDy9tNFHzbN7V7WZ9OYqLD3xxSvYAZOUhgPTnOzc+WVrxadTa1wmjjnlfkzSzta97yRvu4bDwAQU/HNU3OFOII27ujqttsAGf9me2fbHouL0W5BJpPEAMjWyW9LrvgbIQO0eDktGepXft0iy2SxW9se3SXxyhlVoDnZmYWOY57wTyDOQMr5BUhlom7pk3N2ml3bNFxOxc1jyWOx5g5CzciNRFntfCIi9rYZnzET+T6G5+nfyjXhdiJm0k1Y6mR2osmMRYIznA9Fjo2KMbOGXyzRfyKlfklYHjm7QO9xmPE9QuQY8f6/zWwx/n+axzln5Pat8P1GptP8As7SHUdJmFMgeyMxdpPje/nexk7ebtMjuyuduQ1q3FP0esgtNsxi7bBlaABzOixy7LVa9YnycuucCSH7utFn/ADGBq648nVeImHncriRixWms9n10KVH+aleg+cN1O6IgbpuiIG6boiBuiIgIiIIVJehdHIXYPKdwrxYZ4WTMc0jfGxQc7lTlZZ60sLyCCf1cDqtitT+GSYZ3Dms8Md5RCadYuLZpB7oPMxuPiI7yrLK8bf66L1lQlOVORglxw0AknwA3XkZOy0rlkYMEZ8O1cOn9kH9qDWkmfJI6UOLcnbBPTu6LI23Zbj7QkeDgCtXPgpypQs4742EjMZ72b/kludr42NjOWvJLiAQNu5VzQ5zmtAyXHAHqrmOKNkTYi0EAe95n1RKqB/cpW1NSLcuh3Hew9fktMkjbBBHUd4RDLDA6Z4aM8vV58ArUMaxoa0YA6LHVi7ONufieOZ37gs6JYyPVYpYWSscx3f3+B8QtghU1nW4otRdpdevLYswwxz2i33Ia0cuRHzOO3M7BOPJRMxHk8sTYJXSmHo5pw4kbBvirmNjY2NY0e60YHifMrU9qGzhA7J+LDm5WpY4g02o4MtNnhcc8vaMAa7H6pBwVWLxbtErTWY9lwcEYIyCMEeIWjFWLLJafhGHN9Cq2DizRbGpVNNb2rXXeZtOchropZWN5jE/G7XY6Z6rogAME9RsrqvW235LjeLnP1TUuGuFGyOZX1SWW9qpa7lc6jUIeIQf656/2V10k0EIzNNFGO4yvawf4ivlXFGo8nGcV+tZhd7BpNMwSNlYY8vle4t5s433yumOnXaKotOo2utbuQVr9mqytFJDRigY7leYhA0tyyOMN9zlAx93xWo6asw1fsXySWGdpEwWoxsRkEkNzj5Kt1PUdGk1DUZfrSCOR9mSSVscnaNJBxjIBGO5YHatpMj4XS6oxoYGjYlrSwDYfCtXqXrNYr4jy714uG1eq3n74/o6vSfq2xDLqNmNtanSsO5nOldIHlgGGEkDJyT+HmvFzjSZ73NoxxxRZPLJM0vlePHlyAPTdclb1WiaGlUob9T2ce1WnRNmaMzSzvLTJnHQYwtNstcjLJoCD3iVn8Vuphpeeu/j2ebNuj7MOqk1+1fZJTv8ALbqWwYJqz448SMfsQwgZDh1acrxob7NV2p8PW3l82i9nJRleQXWNLm96MkjvZ0+eO5VOhGvY1OJrZ4XCtBYsykvHKxrG55nHorazyjiXQ7sD4iyPS7NbVpDIyMR1px2lZznOO+diMZ2C+Z+N1rfLHErX2mdx8/Ono8KemvqzP0WtiCvYjMU7XOiDmue1pILuQ8wGB1VZBSffm1O3didG2ywV60TgA+OJnR2D0K6CKo+VrXRywlpGxbzgeJAyFEtZ0LS6SxBGO90hkDB37kBfI48HJrHTWO8/o97Hy4xVmKy5Kzw7OyMuqzdvIAeaKQBhI7g0jbKz2atmLT9Oc6KSSVlR9GzGz3nNa8czHAN/VKsLFuCG3WpumY99ztPZJYXh8MsjRzOiLh0djcZUiwQTyu37v29P2r6CeBmmsbvEzClfjWSZiLxuIlXafq9aLTJq0juynrQSNYHZ+1IBHu+e6yaBWlq15bMoAdb7MxbguMQBw53lleLum1dQJkhkZXsuI7XnyY3tHeAO9brpY2BkUbsshjZE0+IYMZXLDx5nN0a99zv/AJ82jmczD+zzOGe957x8lNxXojdUiffqx5vRRck8YwPbIGDIx/6RnVp+XesP0R/ZapxDET8VCB7e4nklcNwe/fdXnbEYIJBBBG/f4qvrzyaBqsuuafVE8dmPsdYpxgCSSIO5vaK2fvj7zfvd3Xb3ph8v9H1dStHTNT03VqcN7T7DJ60wyHMzlru9sjTuHDvBC1dR4k4Z0qdtXUNVq17Lg1xie4uexrhkOkDAeUHxOFA3LVkCatUjbzz2PtMdGxwxuHNI4/kFr6nqFumI2V6wlmncI4OeRrWl52yGD3jjIytSa4x9+pd090F1k+nywh8MzHQsAkEgkkkbkcv8FoTanFVmf2Gb+rSDlklDTyRA9Y4QNgB4oOg02xLYqROnLfaY3PishgxyTRktcMHfz+a+XcYU/YOLJ5Gjli1qiy23HQ2a/wBk/A8wAfmuqrt1qCwLTrbI5rLw64zAfEGAYHMO9xVRx5izpenamzeTSNSjdKce8a1kdk7JHmBlUvG6zDXws04c9L/VzLXYPl3ZWdknmtbbqOhwR6HdS1x5g1oLnHo1oJcfkF5Uxt+izETG1gx6xWpMahwY/OzOIqQJ8OZwCyRVNTI5hRtOb1BET/3hZ36BxFcdostfT5sVdYo2nmXlj5Y43ZcQHbq+GsxeJ08X4j0eheNw+uePqUUeO/eVPzXqviRSoRBKIiAiIgIiICIiAiIg8lrXfE0Z8wsbov1VlRBrlrgd1Gf8/RbJ38FhlgZK3lJLR38veo0K+zcaA6KE5PR7/DyH71oAqydpjduR347LEdNsg7FmPHKkaYwpyO/p3reGlyY3lb6AFZYKAid2krmuLTlgwcD1RCKdctAmkHvH+bb4DxK3QoHemVCXrf8Ah5LWsx1wY5X5b77WnA+L1WwDlVluYSyYacsjy1ozs495Ui1BBGRgg7gg7Y8l6CrKVgtIhefdP82fA+BViEHor57xBp/H1LXNR1Xh6CvcpajFU9prSOjDhJXZ2YPK9zT06EHvX0IrXguUrb7kdeZkrqc7qtprN+ymDQ4xu88EfiqWpF41aOyYmY7w+WS8RfSDDlknB0/agdWMsvZ64YCPzXKa3qX0gay6BtrTb8UcDnGGGCjOxjXO2J3bnPzX3plcxSzPYHYdgNxnYdVmAkwS5zmtGSS442+a44+LhxT1Ur3XtktaNTL4Jwnp2tDinhhuqsnpx+0PtQ+3tfX7YxNPuQ84GXHYYX1TifXLcNivoWlyiG/aidZvXMB31dRB5TIGn/eP6M28T5qk+kTUtKfFw/HVtw2tTpavXtx1qkgms9m0Eu2jJxkgDf8AcqV8mpOOoXrEYOqaxYE90RnLa8TQGw1GO7wwYB36rVEbc1myjooBc6AW5sHnmvudasSE/rvmJGT5Kt12j7Brr7IpaXPGNMoVnV7cRLK8hY13MyNnu7YWbTtS0ajcrt1TUakLo5PaJ4i/LwImmURnG2ScDC55nEEWqz2Z7NiOOSzankIkeNou1Lw05x3Hb0V6TqUW8Ow0zT7Orx1oJ7VatFZimDmUKEEePZ5GOaIy7J5tsnbvVgaNy1NYhravLNFRtQudaNWj2UL4wXntSW7gZIO++FV6dq/Dghaz66qQSRS88YklETw4DDJYpNxnGzgeuFcN1/THMIl4h0kNDjI0VbMED3u/WlwDkn0S17I6IlMmlut6c+9DfrTRPfyt9s0eqS4OlER5A3ldg9Wri9Z4QlbZs2zcrZsXCwshpiNjXOYJCGMDsbeq7CXijQyWmbWaczo94gZouxY7BAeI4tyRnbPgqfVeIuH7EcDGapVhrVmTvfJI7tbU80pDnvbDFk+Q3H8KVy5IntKZpWe0uebpFrTaD7lC002LME8E0dhuIpYZPsgGBm4Occu5ycBV2qu1XSOI6zYYxdkqVdOlkrsaZmkwV2xFkrG5ILdx07lZfXhsNc/Tatmd1eNxpmdojr13NH+02XO91zm7ljRsM56qq0N+pvgvXo5JXW71hwmsc5bI5rdyObzJ3XO1bXt1Wnfn+y8T0xqrp2fSIzlb7To2qRyHGWxOyz/h5wCtS99IOqTwTwaZpFhj5WPjMtpr5nNa4cp5Y2t5c/NWVGXXHxmOKzesTO+NzHSSAH9VpPgrOpBrsTj7TDxC8TO5XmtYEbezIOQQRnPhustPh2Gtt67/AHuvrWmNTLgOF9O4kva3o754LzalW0yeWWwx8UTQ0FxbzvAHM7oO/dfTrFPSDLZihqPM0zQyNwZZjqNIPMGRSnJEjsjLiCMjC2GadalgHbafqT5efn55LpJLgctfyuOMjbCxzV7EcBFfS9Urz1oXx1bDrRLW9pu/bm2ad1tcora09o2pNcsMoijPHUEVWUvrSDEjJGWIwDyvZJ347wSD126Kvi1GpN/Nytz+qTg/gVgukvbDVuOllZW5mxRvle9sfMd8ZK0mwac08zYntPdgkfko66x5aY4WeY3FV123gVHbEb5wfLY+qrRNG3ZofjuQ2B3B3zUepVf9g5P+n+jOyTVdMnlv6DZbVtygixA8B1G1kYDpIjsHDqCPDHfvdaNxFoGm0jXtUZqWoWnvdes6gG2m3p5N3SvuAcpz4OAA6dy53tnnOAPU9VjeXSNex7gY3jD2Yy1wHQOB6hR6kT4X/YJpG8t4j8drKN0VTiDTqumSmnpnEVkwXa1fAgjsMbzMlrt6DmyBsuuvUm6HKx0DZPY54mxmRxL3MmZnJefPbdcDw/Xp1uKOGzZnlGnNsTCkxxBbDekbhkbnH7rvu+a+2lrXAtcGua7YtcAQfUFXefManUS4aKSzqM0dSi7mkc4GaXGY4Ix1Jd4nuW7Y4WtWaer1bV5srbdGeuxjI+U9oRzRvLj3ggLq44oYhyxRxxjriNjWjPo0LhtT4r1HVrdjSOEzEBATHqGtzND61UnYtrDo5/h1/eCHF6FRvakKFQlsVp3aQyNlIEjexcWOdydV9Ro6JR0atirUZZuFo5nyva0yPHcXuBwPkqzQdJ0jQW2bbDLa1O24utXrb+axMSeY47gMq1F0ve1z3Hc5d3DbuXOuGsTt6fI+I5s9K457REe3utaxtGCN1uOGKYjMjIHl8bfIOcB+xZm75OQW9wwqaXUHSHY4aOgH70N88jWNIA+8crrp5ndtah9evdWGlSaa0CQe0+3sne7s+8RdkQM+qxaxql3S6zJ62k3NTcCBJHScwPY3G7uVxyfwWJl7kDiDlx2HkvHtrsk8xB7zn9mE0NHTuPeFrsratiafTLvR1bVojWcHE4xzu9z811bXNc1rmuDmuGWlpBBB3yCFy2o1dJ1iPsdTpQW2EENMrftWZ/o5R74PzXLGjxXwiXWuHbE2oaQzLp9IvEvkiYN3GFw/aMHyKD6nt4qVz/DnFOjcS1nS0nmOzE0e1U5iBPA47ZI7x5/sV/3dVAlFHzUoCIiAiIgIiIIRCue4k4oo8PQws7N1rVLh7PT6EJ+1meTjmeR0aD1OPTyC+llhhjkllkZHFG0ukkkc1jGNHUuc7YLFBbq2q7bVaVs8DwTHJCedrwO9hHVcHDpFzWJY73F9k2n83aQaRA5zNMpg4wHtacvcO/JPqV1PtkUbI4a7I4YImhkbIwGta0dA0N2wg3Kty3ZmnY/TbVaFgHJNYfEO1PlGxxK9W7GoxOjFOiy00kCQmyyEsGdyA4HK0fbyGcrTufiK8sv8pLicnGG79/mp0NvVdUOl12WPq/UbuSA6LTYRPIwd7iC4bKlrcc8IWpBDLeloWehg1WCSs8HwJcOT/Et322RzshxDid+u3pha96HT9SiMWoVK9uI52sxtcR5h3xfmkx22nW/C+Y+N7GyRvZJG7dskTg+Mjyc0lehuvmkmhanoj33OENSlrkEvk0y28zVJts8rOb8gfxGFc6LxjFrfaadPCdP1uDmFqpLt2vL8Rrk7+ZH7eqpW1bfwzsmJjy6W1baA6KI5JGJHjp6BaIPcvPl+396kZJAaCXEgADvJ2Csq9tDnH3RuAXZyAGhu5c5x2A8VUW+OHSPkqcOadJq88OI57nN2OmxP6ECV27vl+Ko9e1Ruq3puHq9mSPSab2t121Xz2t2fORSgc3flB2OPD8bSKeKpDDWraXchgibyxRMg5GMGxwBn8+9EsR1L6T7Lh/KNFpBxADIK0ljlH9qV37lzeiycWWrPFIg1u1BI3VXOuOqQV2CadzOQvAeDj4cYXVfWM4ORp93PUfZb5Hlla1U1qktuWtpF+KW7L29kxxuf2su/vYz69FI0X0eKH/z2v8SP8Qy3FGD8o2qun0uB7s3pNTsvzn+W3rLwfkHALqPrSq1/ZTCaCYYyydhY4ZGRkHxWrqTm2hBBByvne4OJbvyN8XFBTQQ0qbS2pXggz8XYxhpd/aPX81nZ20mOzje7wwCcK1rabWgw6T7WXYkvxyjHgF6n1XT6xLQ9rnA45IgDg+GVIpzoQsPdLJptUySHL3zRsLnebid16/Ram74qOnbjG8I2x6LzLxfR7V0MXZ9rz9l9oX4En6hdjlz81Dtev74ETR4BpP7UEnhLTTv7Hp+e/EWB8sKBwfpZPvVaQ9GH+Kx/XupZzzs9CwIde1I98Q/4d00NhvB+hggmtWPkIif2lbcPDWgwEOZUiaR3iNg/MqmfrOpuGPaHN3GzWgLVn1KzGIBI+zYsW3iOlTieRLZeSWjOOjQepUDrxQ0xrSXtjDGAhzpZA2No6e9khqzcO6Pol180lEU5NHYS0NrAmN1gH3g1/Qt8cLS0rg+OwIbXFMxuT5D4tMhe5mn1fKQNOXuHfvj1XcRS06sUderFFFDE0NZHCxrI2AdzWtACCYnPrzwVK2mllTldzztMUccZA2AYPeOVOp2dRq1XyUKBvWfhZD2zIW+rnO7l69tYBk4ye5BdYevTCDCLlmnpjbmpQymwyHtJ4KURmkDuvJG1nUhfO9V44i1R76sNs6fFkj2e1FJBM7H9I9235r6UbrPy8VV6jDo2psMV/T6tqM5/n4mucM94cPeB+aaS+YPE7QHuGWno9rg9js/1gsZkPir2/wAGNrGSxwvffUkyS7TrsnaVJRj4Wvdn81zQnE0z6Nqu7T9XiOHVZBywzY74S49T6+nguFZnq12l6uS2DLi3WJrePylmMvTdeTL4rWc9zXFrgQ4bEHqPVeDJ+3C0dMa8PMjJbtO29zZ5cHZ35lN1gY4mEO72yNH54WR0obKyMj4hnPh3Befab7+y+648ce2PryVjVtd/rPZr2y8wWA0lssQ7eFw6smg+2Y5vnt+a+46ReGo6VpOoYwLlOvYOdsdowOxuvhthwE0je7bqM5yMr1Rg1h+kyape1SVum6Hp9WarRfNKBN7Q5zIGsa3DccwwfRbYnqiLPieTjjFmvSI7RLu+Ntdt3LjOEdIm5JZo+01y0w71qpAJhB8XAjm9QPvHHmlFT06rDSpxiKvCMNH3nOHV8hHVx7/4Lk+G4pIKkt6cl13U5DZlkecuLCSWj55Lj6+SvPaMd/gutauULk2icZKe0+apvaE9oKvpK59p8/zT2k+KpvaCntHmo0Ln2k+Kn2rz3VN7R5r3FMXyRNz8TgFHSO20qoHsE0u+cYystq5QjJjbE55Gxc3ADceBP5rz27a9AnOGtiJd6Abr4bxJxTqd29M2vPJDXjcWsEbiOniQsWf1rW6cU6+q1emO93b8QaLNBabxJwxmprFUmWxXiGI7cfV2GdCf1h3jzC7HhTielxNp4mYBDer8seoVSfehk3HM3O/KcHH4dy+K6NxlrOnysbYmdZrkjma85e0Zzlruq6V1n6suVuM9ABdC8hus0mfDJG8jn288E+RHmuWO+XHPTm7/AF/ytaK2jdH2gYRa1C7U1GnUvVJA+tbhbNC4d7XDOCPEdCtkLY4JREUgiKEEoihBX6zq1PRNMvapbP2NWIvDQQHSyHZkbM97jgBfMNAFq5YscU6sefU9Sc41WuHu1KnRrYwemR08vM77f0nXnXdS4d4ZjeRG97b90NJzglzGB3dsA8/MLF27WgNYAGtAawDuY3YDCvSu0wvPaz1LvxPXPeV5No+KpDYPihsrp0raXRtHxUG0fFUvtB8UFg5aM94CjQ6evJlgcepVVr/EdTRosyjtJ3/zcTTj0LltQyYjZnoG5PoN18q4gkt6lqk7/feDIIYY2ZLnHPK1rR4lZM2OMs+nM9vdeLdEbXLfpFv9p9pRrmLIy1pcHAeRVnPLpPFkUVzTpTU1+kBLWkB5JS5nvBjnDqPA/wAVv6L9FmntqRz6/ZsG1KwONao9scVfm6NfIQSXDv6D16rU1XgWzw+TqeiWJ7leueeeB4AuRRg55ozHgOA79s4/PP8AsWOJ6sXaYTGe09r94dJw7rb9aqzx24xFrGnPEGpw4xz9zbDB4O3z4EeBCzcR6u7RNHsW4cG/aeNP0tuMn2iUEF4H9UZP4LjPbnxWtK4nptEkrDFV1KKIYFuvNhrth65Hm1euJ9Ti1XiLkrydrp2gxezV3bcst1+8sn7v+HzWrHabx38+7laNT2ZuG36Vo00EtwTTeyNfPCGAEzXnb9pK5xzt+WPJdGzijS3SyS2nahMSxuGtIax0m8jnEdwzhjfADPeuGMhUdoV1Vdq3iTTA6i10l/swXS3XDd737ubCzf4Bs0nYkD8cEPEcEXsL33NSfJGLk1sRhsYmldnsYGHO0TVx/afuXl0zRjLgPUgIeVjNatW5nzTvdLYmeC5xJceY9GgnuHQLqNNqipA3m3mfh0hz08lR6FUEjvbpN2g4hHcT+sr2eeJrLDpHSFsUbZJGQ47SQOdyNY0npkrnkyRjrNp9l6UtktFK+ZVGr6qXvNWvJ9mzIle0/G7vAI7gqTtcEEddsf5rd16RvtVNr44o7LKzfbI4QAI3lxLWbd4GMlc1TuVy8/WF2/BKJ3Yjipxy1+zHTJBDvyUYsvqU64he9Ix3mtp8S2Ypr+k2ZhFEy5Rtv7azRmaHNc7rzMJ3Dh3K4aypdruu6ZI+Su0/bwP/ANqqu6Ykb1x54WkJqNjBra1p5cHHlbYElV7fL7QY/NePq3XYLDdR0sA2mYc59SWKeGdve2RrXbg9+yiIvMTtrvk4tLxbFWZj5S2eUeP+Ib+YUfZ97m/ivWI9Uz2dd9DVmgmfTp2Pjinxu59Vzh67ZVW6QNc5jstc0lr2uGHMI6hw8VT0ZnzZu/emGs/YwVWYfTjZPYnINerGZZg0+88dBGD4uO3z8lccJVH/AGvEN8A6hfafZG492tU+BoY07AuHTyA8VylpjrA0PS+h1Kz7VZI2d2LHFjW7eQeV3TZ2tDWtwGNADQNgGgYAAC7Y8evdg5XMnla+zFYj5L72s7b9EFs7nKo/afNPafNdtMK99sJ709r81RCz5qfafNNJdA2wXAnOy0tS1Orp1aSzZeWxt7h8Tj4BYIJSYwfHZcPx1amllgqtJEcUYkeN8b7k4Cz569cRRas9P2mWX6RcTER6cww5x7zjkjPet19/hnjKBteYmtqDB/JpXEdrE7u+072/sWtw59GM+p0Yb+rXJKUdpjZa1eCNr5jE4ZbJKXnAz4Y/Domr/R1qejNdf0uydRggBkljazsrkTW9XMaDyuA7/wBiyTwccd6fZlb17T2srpGXGTyaZqLQ3U67XGvNnDL0Te8HoXftWkXnf+qcEeByrwPbxBp0cT3galUaJaFkA8xczo0539Qq4Vn32OuO+yex7q92MDdltg3OPB3Ueq0UyzETGTymmC2a8Ux+ZTC7+SsP69hgHnujiX6gxg35Ggnyx4r1HG5jdNhcPe5pJHj+yBg/moBYyK1ba3MjxKQT15QS38Nlxm0TbfzfYVwTbFSk/wAupn8O7QuyvI1CZueRjZG833QcFo3VlxGHx6NwTpLXESWIIxYxsS1hDWBwHcC55VdO5raGmQvO1if2qYdxhi98+e+wW3q0psa5w1zZw3T2PAd3EmWT+C1Y53EPlObSK5N77z3n8Vu17GNYxmzGNaxg8GtGAF67ZYM9PQJla9MsNjtk7bzWvkpkoNjtvNO281r5KZKDY7bzWWtNixX/APaNWlkr0x3K+N36rgUJd1rFh40e3ydTXLW+pwFyfAHCml2Y72u6vDFOyO1LBTisYMA7Ld872u677Af6HSOeJ6IZ1Ba3I+YXPWbbKvAsVQ2jUbc1C3Vknawv5SZ3nDgN+UjqRv5LJHmS3sv71H6NuI+0pRjTmXGBzY5aAjhsREbZaGYacHuK5GtUucO6jZ0i9iSvPG4xSAfZXKzjy87QfvN+8O70XAzVr2m2gw5jmj5JYpIX5a9jt2yRPHUHuX0bStTPFejvoWnNbrWmltinMerpAMBwJ7nj3XqZrFo1KsTqdrzgi87SdUucNTP/AJJb7S/oznHYOPvSwg9P634r6SMYGF8OtTzyUaWq1WmPUNInbaYCSHMMbgJIXY+Y+ZX2XS9Qr6pp2n6jXP2NyvHO0d7ecZLT5g5B9FTHuI1PsteI3uG6iIuigoU/NPmgKFPzRB8M1qd9rj3iKZxz7G32aL+qGRsj/isvaOVfMXHizjIu+L2ycZPgJsLb5hhdqeFoZTK9R2jvErHzDxTmHirpZO0d4lemPPOzf7wWDmHivQduN+8IOlbL9jJg9IX4/urn+Gqkc3EulOlbkRST29/1omEtJ+ZBVpBJzNLc9Y3D8lraE7sde04jGZG3Yhnvd2eQAs+vtW/BNvCs4z4ts2dbmoCa23TaLyySOnOYZJ58e8XSAZwOnyXvQeN6mngxWBrns7iOV0tpl0QHoXgStBIHXGVxN7nfrOobOLn6hYGwLiSZXDAA3V5U02Q2o6sFcW9RcQWVGHMNcHpJckGwA68uf86WtFY3MorXqXVrUX6c32nS49Fk+uzZdp/sbZjMHPdh9ieCb+bDc5aBtnOMgZXiLRQzS6UunQ2pphK+K2MB4ll5Q507D4Z935BXWncI1q8j7N+261amIMxiY2Jn9lhG4aOm2Oi6VjGRMZHG1rGMHK1rBhoA8Avn+V8WrS8ej7fq9enFx+j9rvaf0/y+dHTtaGM6dd+Uef3rwdP1n/s67/yfz6r6Xk+KZd4nz3XH9+5Z/kj9XD9ir83AV9MjihbZ1YWYmyPc2tTYBHPNydXyPOeVv5rfpOjlnjr0tMoQMJzI+SIzyBo3Jc+QnPqrDiKGSR+muYC5z+1hAA+9kELc02kylDg7yvb9q89xPcPJbsGS/Mr6l539Hvcfi8bDx4trdp+bddJQjgLrEDI4om7yVwGOb3fCMArmWNnfemtVdQqW2SubFarTtNYGpzdWPecZb1+SjWNQFh5rxO+xjJ5iOj3N79+5atFtZl6p7SYhBjtHdsD2ZDmEt5u/GcdyvmvaKzXfb5O0fCcXR6ttxPmNMPEoibJpkjX875asnM8/HLGyQtikeTvkjv8AJc4/JkjkBILNvUKz1unxBHNLe1HEzJXhrbELg+INO7GhrfhGOgwFSGZmcc7c+AcM/gt/EiK4a13vT4/kzvLO419Gw/sn/Gxjv7TWn8dlhEFYOD4w6J/cYXujI9OUhee08+qmFt2yzta9K9LEHFhlirvkjBHi5gK1M7cj1DWa+8Gr3Ghu47d4lawd5HafxXS0gyapDq/G9mhBQsNPsbBWxquoR9GyMEXvhngcb58Nzxb3chIlY9oBHMyRj2FwB3bhwHXofVY7Vm9rNz26y8ueXxRMY34IYY8NZFGO5rR0/wA1EpdNPLpk/F07tOjlZRpUI4qrZs87cRMaTuc7kkq37fzXNwAM4i1tpzkMOPQFit89F1p4Whu9t5p23mtMIrpbon807fzWkhTQv6kwMbN+9c7xBWba1OCNwPLPaowOx15ZJGtOCPJWFOUhpae5YtXw2WtaH+6mpWCd8Ds5W5Oy4Wj7cfin+WdL3jbXdcryx6PoDC2SKBstudpYxsEXwRs53kMBIGwzlchpvG/Fei24odaM09Z/KXdqB2rWH78L2+6fxK67WtN0XUZL1rVpZxUgbLM5sMromjbIlfyZLnN6N2/avmbbOndvNpXtclnR7D/5HNYjMU1KV3wSYy7AB+MAkEb9enKLbktjtFYtPu7jWalOJ9fiTSS0Urz433Ww7Minl+GzHjoHfC/z8FXPLIL8cxwKurNbUtDbljsDeKTP+E+q8cJ2XwP1Hh7UBzV5u2iMexDJOj2t7sEe83fqvM9WQwahpkruaSq7smv6c3IQ+KT5+6fkoy06o6o8uvHyziyRaPMME7jHZ1BzutKqGHPc9xLj+5YRNBLptgwP5wyAwuPKR75ABO/qvGpTOk0ixqThyyai5jJfKWLETht/ZK1tIafq0c3SxeYwf2cjb8lkmkRXb7HDy5yZYrr+KszK407TdK1C1qTdSa90Gn1KNOBrHln2jz2jzken5qOJq1SjxDw0KrS2u7S4gzmPNu0zR9fwVadVhpO1cPe8SS6o7Zgz7scYbvuvWu6jFfo8MajG4k05pqsuQQRhzJQPn73+uu7H2iHx/Lnee/0nSz5051qdqDvnrghO181p2zNvnTnWr2nmnaeabS2ufzTn81q9qna+abG1zpzrV7TzTtQmx2WmWO0rsBO4G6otZe+Ph3iKuyOOQ0tWw9szOcCCyecPZ4HPf8lOkW+Rzoyds5+RW7ZjjfemrS4FXX6D6T3dzbUI5oic+SzWjV9fNbW4fPqcnttGWq/3p9NDrdRx6mrn7aH5bOb/AMStNLMmn3al2LbkeA8/rRP2cPl1+S0hTdpeqaQzleJHkR3I34IDZpXVy0cvcQV0VXT3NhjjkaQ6IPheHDBzGSzv9FMTGlLRNZ1Kyttjg1ablA9m1eI2mj7vb4DJfx91yv8A6Nbpij13h6Uku0y06esP/VrBzgejs/iub1PMdPR5iDz1LdZhPf2c2a7gfyKy6LYdp3HOjyA4j1etLRm32LsFzXeuQB81W3mJT7PsQREVlU/NQh2XNW+OeCacskD9Vjkmjc5j2VIprBDmkgjMLCPzQdMoP8Fw830l8ONJFejrNjwLKjYmn0Mz2n8lpyfSW4/zHD1s+Bs3K0P4hvMUHD6uPZuNuLIiMCSZ8g9HBko/avXat8R+K2NR1P6z1SbVpNB0ltmVjY3Ge7amBDGlvMWxta3OPLuXgX72SWVuHIc/qUJZiPnK/wDcukTpLD27P12/ihl81kua9rNOnLMDo0oYY29mNKhYCHHHxBxKxaz2Fa9yRANZNVp2gwbBpmia8taPDOcKepG9Haqe1Vd24UGwFOzbpKc/80c9/KfQ7KXNlgu1LbAAyldjnsOc4NZHWeHRyOe7qAAc+OypqNr3nMzv1Hefkra86nM7Unan2v1Fw+KkV+Gs8sl1bVphlkBedgxuDzHu5fF2W87dp2tv7OmhBof13q+pW9KdJFpstuV79Uni5Hu5n5c2lH5/rYGPLoe70/TdN0muYKcbYo/jnlkcO0ld3vmkOCSVxEfH9pnI2LTtMbUjLI46kBsNkbGXcobG74c9/T/PoNR1rSJhLp9+ta7MOhk568gDmyBvO3Pf7uV898QwcvPaIn+H6NuC+KkfVfCeuRs5z/OKOSQDyBY0qRLCS1odhzshjZGujc4juaHgE/ILlxqmltA7PWdbjx8LTDC7lHkcALcoWqt2eGTtNVvPrPLoJNRlaIIXuBbzRxx4HNgkE+axz8Mr0/8ATi3V9YdY5M77606BPIdTsPNclq/G1XTZpa0FQWpYjySPkmEUQcO5nLlxx6Ktr/SM8StM+lwdkCC51ed5e0eIDxhcq/BuR51H5rTy6ez6V7Ex8Du0aDJgvjJHwOA7vVc/ctwvsMpMkMRMTjI9jc8wA95mfPxV63UPa9OguU3Mcy3CHV5S3bJAPvDxCp4NIpRyRzO7WSYF28jyW80mzsN8+5drZ68Ok4beXocPLTU3v+EKmpSoNh7eWMPdKL1ivznnhqwQsJa+w0Yzv3eapTxRoNiOKSzVu+0FrWSRQMrdmzbBfG8jJb38pWpxZrfstrWdEpVa0MJdFBZnhD+3lawB5idk4Az1XORaXeljE9tzKVY+8HWMh72np2UPxn8PmvS4vDjJT1Mvv4+5m5fxPJOXeG0up1DiTQI9Lu1q09u5Leh7KOKaNsbagyDmV/e4Y93A28VyNTUvZY3RnTtOtB0hfz265fKM9we1wOPmvb/qqAYhjMp75bJG5H6rG7Ba77XUNDQP6oAXo4cFMEdNHl58989uvJPdYjVtFfjt9BYx3e6lcsw/g1/OF6iu8Nx5NeXiGgc5Ar2IZWA+PRh/NUbpZHeKhkc0zwyKN8kjujI2l7j6Bu67szro9UZjli4unLDj7PVdPfMDjfDiTIPyWn7FPLbks19V0GV0zg98ccwqNcfARysY0fJV8XD3EUw5m6dYa39aYNhb+MpaFkPD11mPabmk1ie6e/AXfhCXFExuO64nEkHErzKxkZuUoZGhkjJWOL4mO917MjuPerMPHl0CqW0NOP1PKddpunqN7KRtSrdsksDyW8vJHvscde5XrYKDt4o+IrI7jX0vsWH0M7wrxeK+ZWiLT7MHOO5OcLLZ+racIsXaHElaAyMiM9hlPsg5xwOZrH83+vx17cbqlmeu5/N2bhh3Tma5oeDgbdCF0i8W8ExMdpe+ZOZawk807XzVkN6CTld64W1ajFuk5neWviJ/tDZU4mwQc9N1a0pg53Zn4Zm49HDcFccnavV8lqTHiWzam+stBjwcPt0nVZM7ctiEYIJ6ZOPzXzNtC05s5azLoGPknbsDG1mzuYEr6JBGGTXtMlcY4dQJtU5P6G5GPtB4b7O9MqjuxXR7VUkoSR6hM0QSzsb9g6HmBdI2TvBGMd6z6mttx7tuOMWXF0ZJ6Zr+sf5Y9NlkndpN4Edr2HYSuzkumpuADj6sO/ouk1ENOpVZgQBcqvhePGSHDmnb+qcfJZdB4chj0OK4559pdqk/s0LRuYxH2RGOp6ZK3dX0LWYp9E7OpNMBZje4wt5hGySFzXh/pgLv7PPidT2cPqEMsmn6xSiY98lfVK92NjBn7KxG4EADuyCvUURp0tHhfs4Xa/aZIGHPJdg+i6aPQuIG6tae3TbYgs6bLE5/J7vaNka5oO/r+Kq9Z4f4okpxNh0m86T2ljgGsyWhrSc7HxwsMxMz0PpuFfFjwW5F7fb1rTtPo2hgfQ4idIyJ5OuWfja1xbiNg+8Fb8caKzVeGNVgrwtE9dov12xtaCZK+XOAAHe3mHzXAcNW+MtIl1eA0rlUWuW8eeuxzTPGAx4PP+sMfgrx3E3FzRtNI3pjnoQE4HzH+gtdY1D53NbryWt85fM6drtK8WT7zGiN2T+qMBbHbjx6+eP2rddoFQyzSufqAM0jnvZWiiazLiThoGcBbQ4UszxE6dS1p8wHM108bpIJDgkCT3Rj8V0iXJUCfuU9uPFV9uG7WDZTDI2J7nxuDvihnjOHxP8ATqPVapsTDq1w/wBeSnYuu3HinbjxVH7U8dxT2t3mm0Lztx4p2w8VR+1u809sd5psdDXtmGWN4O2cH5rq3t+s6Do43AWISyzUf+rNHu0+nUfNfNPa3dN103D2skObG8nLdjn7zfBUyR11+z5dKW1Pd0un1qGqalpmsSNYx8U0R1SOc4DPZB72AfDGV1Etc6jLJebAYxaPasY4bgHoXeZ6lclcgsV5jqdBhlZMB7bAzrMAMCZg6cze8d6vqPGUvsoLa8FogYjlOWlpG2JWdQR3jCrS0Wr1QXiYnut9U4U0y5pkEE132SQmJ75yWDmPaNeBh5HoFz2u6HpVG3oGoHXYIpKWpV5GB7Q4vHaMcWANKqp5LWtalTqTySSPlsNvWxl3LBUrkvw4ZwA44aPRV3GzsewAD3zf5hjbcDuz8kt4hFX3cbgHx3ReY/5uP+w39iKVGDUiW6dqbh1FK0R6iJy/MlO4IIGsBweZxOO/Piv03qIzp2pjxpWh/wDScvygiV59ZHvd+Z/ig1BznNYxrpHvOGNbuXFUg6rqtE0OyYvbJLzaUkgxA01mzvLO955iMKL5IrG2jj4LZr6iJn7mUabxE4MOdPj5gHe/OS5vk7AIWzHompvx22sU4fEV4XSEehOFs/Vl3f8A8YWdc/8Ak+PP/fXtulPd/O8Q2D4iKpEz8DzLHOe0/wA0fk92Ph2GI70tP5f5eHcNabMxzLGtX5M4JDY42tJH9U5Wa5X1Hs2Mlnh1irFEyGNk8Ta+oQwxt5QIJmbEgdAVI0TSj/O61rbvSWJgPyLSvX1Jw0Mf9J6uCN8+2wdR59mojNMfzK24WOfGOY/FyOosdTdFJC90tOyHOryEEOaWnDopQej296r/AGuTwPRdtPp1URWaZuutUrj2OZPOWdvRudGyycmzmu+Fx69PFcZcry0pnMlZhzHujkB7nN2W7Hfqh4mfDbDbVon8WzpVmV+paczBw+1Dz7fdDgT+SvdWnk/RKljJfxFxJqurvB+Ls62KzWnHmSqfTmMYLt5hyKlCzK0/qyyN7Fn5k/gr/Xazoo+GNPwP+itFpcw7vaLBNt5x6u3VpZ1Tw7pwxLqckYlNaQsqREZa6wBntHjwbtj/ACW5JHqD5Hvkhmc97iXOIOST5rC6xe06N5rSFtKeR8jH8gd7NM74o5BjoTuCkeo624A+1QuB3ywRkH0ICDdrUbUr2iRhjZn3nP2wFsatqktSsaGme44s5ZZm/EPEN8z4rBFqM0Qc+/agEQGCctDs+DWt3J6rFVjua9qNXTdJrtjfc5zHZ1HLW8jBzOkbGATjHTY/wbgcjLBMC57yTkklzndcnxP5rYraVq1ipe1CCpM+lTjL7Nnl5IIwTy4534BOdsDdfbdG+jXh+iY7Gquk1a4OVxNkFtVrvBsAOCPUn0C8/SQ9jNG0bQ6rWMOrarUrNhjaGN9nhPaODWtwMA8igedCrup8L8NV3/HJA609p3cOcAAYOP2rXuP4lmBi05lagw7PtzvE9oDvMLABG0nuzlXttrYpIqzSCypXgqtwP6NgB6LWAcSOXck4AG+6+H5mffJveO/d7OGkelG3yLWNCs6dr+mVZ5nWfrGarMJXEve/tJQ1/McDJznOy3NQ06WzrOouve1zSvsy9hQqFpsdi08rHTSuPJGzw/YrviKzENbq6i1vbyafHHU0aCJnayWLrHF75wzvbGflkeS1oavFjxLI2CjWfYkfPM6/bdJZlkfu58rot8n0GOmF9TgzW9GtredM2LjVy5Jm06j6d2BmgzBoxpGgQggENt2rU83/ABOZhv5KH6M9p97RuHZB/wCjtXoyf8WFsOpcV98uiO8mzT/vasLoeJW9YNLf5ttnf+84KfWv84elXg8XxM2/KWJ2nRAEDhvRQemTqV13Xv8AiWtLJbpy6bThq0dOjvW2Mnl0qWZ1qSMOa3k7WQkgbnGPFbfZcRO6xaTH3e/O53X+ySq7UItQiu6A+3YpyF1rMbKgeGxFr29S4A+itXLaZ1OkZODx6xusW3uPPaPMO/h4Fif9pLpkQb8Rk1G0+d+MZyck/uWtBVoxdl7LpVdnaydlE6Oo0CR/QBjnNx+a3YZLOoaJpEdmeaQ2+Jm15XSPOeywctyO5bNjV9Rmg41Y4NhraQyMacY42xmCdkha0NcB1wuc16veXXHjmlpiK17TrxrXfW/qiWtrFWBk8lV0LHSRwxN5mBzpJCWtHKwk/ks4p2m6iNOsylrvZ5LIezJDmtjJ2zv12TtHy6rw9YuTPNfT9AZqlpzw5+ZQXNa8jvdk5G33VLNQ0Mu0O22/M+KI6lpk09wAWCJmdo2RzevKDsNu9R6ce8qxa89te0+I+/X9P1cXxbZM2g2G5/8AOqriPPJCrdbnxqVgd/ZVM/8AIYtzjKHSq2nRQadqEl4GSMTyOYWta8H3A3YdRn8FzPEs8rNau4yA1lVhHm2BgWvjfZrMfV5/xPXqxMdtx419W0LA8U9oHiqE2nkbZ8U9rcfHphaep5a+7ceIW7TtgO5cjI3G/eFyjbbxtv12Xtl2Rjg4ZGDnonUbfSpI4tSqtc2Ts5WljmSDrDOz4JNt8dxHeCs1HU4JRLX1Kox1mqeWeJzzG6N3cWvGfccPhO65bRtcbG9rn/zTsNlaRnY94BXWWKFPUGwWIpnQzMb/ACO7DgvjB37KUH4mHvB+SyRf0renbx7S6zHVHVDoqs2l1YzqFuzRj7CLs9P0+i8yiBvxHmkc0F0jju48g8FpO401izf0ytVr1oo55Jnz8wL3Nrwx5c5xOwySMei5t2k8VMLWt0+naGcCarcZCwjPUsmHMPkVa0NLl0iC5f1GWKTUrMbYeWDmMNeFp5hBFzbknq44/idE9vLnHdF7jbWotT02o+yyvWmZcM8leq2eX7ONzm8jCR3hajeLtUsDEDuM7uSR/JKFWuCfJzGPKwcKAXuOqnRw06hcnf3gPeBGfL7wX2MDA2GPRUr3jabduz5OLPGFkl0HCWt2C4YLtV1CSM464w0RhbUOmfSVO0GLQeHaJySDdkdYeO/f3pF9P3/1lFZV8/i4a+kqUDtuJqFEEjmbp1JmQO8NdytXD6zqLqV6xpurajxZZsQPLHMsXI61aTBPK4CLJ5T3b/sX3hc5xVwlpfFFTknHY3oWn2S4we/Hn7j/ABYe8fsQfBtSstfUbXq0m1q4ndYk+1kmlfKRjne95VKXuIA8PXK6TVdK1rhqyaWsV3GJ2Ww2WZdDKwbZjeR+RwR4Kudp0dgGSnI1zTvynu9VYaMT2Oy1+B4FRG9odyvwW5wD4LNJp12Npc6PLQd+Xc/gsEsE0Ra2RjmlzQ5mQfeae8KB7lHZPbsC1wzt3hYnOHPzN6bbL2yCaVkr2BzuxAL29S1p78LxGwySNjb1ecN9T0CDaibHMNsB3eFsRRvhe2Rmxb+xVzmz15C1zXMkYcEHYgq+gZO6vBYkif2MuWtma08heOrSpgdVomrNDWxTH7M4659w+KvJdC0K842HxSQyvwTZ0+V8Ejtse/ybE+q4ONr4jzMGM93cQO5XVHW7lMYaQ5h6sk6D0KzZcV629TB594nxLtW1ZjV3ZU9O0fR4JW0Ij2sxBllkc6WeV3c6R799vDouG1kHUuJuG9LiHM43IDK3OcB0rS7Po0FWtriubsJOWGOEcvvyF3Rvlkd6j6NdJs6trdziW2x3s9MPZUc8fHZeOXLd/utznzd5bVx+teerLXX6l+isarO5fZQMDAGw2RB0RaXDSr1bUtKrRT0bF2tFct0rjq0EsrGSyhsbslrSc+P4eS/Mlajeuc/s1eSUMHvcgyB349fJffeK+BKPEJnvV5HV9ZPs4jsSvkfCGQ5HZmPOAD5Dr+fKaX9GWs2H2G6zZgpQQwubVGlPJMlh3++kzjpgbd/l3kvmmm0Bbusgnd2MTHZsF2GuAB3aA7vPT/8Axdk7StGyDBPq0OBgFtoPGB3btWDUtPrUZnafxNCad+u4ti1OOCSSvqMQxyvLmDm5sdfzx36g0vQ3gGvr+n4PQPszwH5iQLlkpN/EvR4nJw4I1em5+e1l9WV+7U9Z/vRk/sXn6qoE/aahrLx5zMZ+eCq92jRfd1jTpB3cuqtz+BT6iyMm7p5b4nVWb/mufo2/1N37ywT/AOOf/ZYnTeEmb2GWJD3mzecPx5cLx/8Ap7H8VaofWe1Ifycq/wBg4Yq76hqFQvJGIaJlvSk+BcCGj8VYRnh5rAYtD4kLdsSR0IuUjyyD+1TGG3vZmvz8X8uKPxnZjgOYEQMjhedmPrWbEUjT4jtCRn5LBqWlT6tWnfUebF6pEJiWhodeqN93nc0HHas6Ox8XXqs8lnQ8Ydp/ETen85QgwPyWA2uFeRzX/XtceAqNYB843g4V645rP8Thk5OLLTpmmp+cKrQaFi2+vQwQdY1SlQeHe64Qwv7aZ2/htn0XaarWkuajqFnkJbJO4MwNhHH9m3HyC5ftOAwQ5l3UmPG4d7K5r2np7pbLsfNAeDT8OtXGeTq9zHy5XrswLtlOzCXljXAOGHtIDmvH9dp2K1n6VUeS5+l1C4nctZIzJ/sscAqzs+F3HDdfe0HvczUB/Fe/YtBcDycSV9ugfNeZ/wB5pUjxamq6Fchmbo9F3aVZRB2zHyCOcOGJA2Vxbkd2Qev4fRPo34f1CJtziTVg/wBu1JhjqCX446pIeXYPTmPQeA7s7/O/qvTC+KVmvaa6SJzXxGS6/LHA5BaJW464KvPrXjvBNXiOe3jr7HZpTO+TCwFV132bfb1861iRuq/SNoNLm/k/DtF96wXYEbJXjtiSTtjHZriZONONqjiybWb0bh0FqpX/AHswqY65fM+uWDqb+31qF1fU5Oxj55YHYyxhzgDAASfA+q29b0GF8j7Wq0Y3Pc5xb2oedyT0Zkqgu8UV7odX0o2DU3ZauNjIntHB/klCL4su+87uG/r8yMNLutDw+H81dVtdNSGGOuasckUYjbIGEkDvLQdgT3lePT4Rjpb1LT1S315PX2tOodDHp3EpfJa5NLpSzANxYsl80UI+CFohB5WtHdn13K8vpcRtznUtI9AJ8fL3Vz7+IdSdnGoRDyEDAP4rF9eX++zVf/aiI/YVsnFkmdzp6eLmYKR09dvwXkjOIGYzPpUnoZh+0BYTJxB07LT3efaPx+ZWtVu8QXAXQw0hCzJfYmD4oGjxL3kD8F7GqRCTsmSz6lY35m6ZV5YmgdeVzxzn15VHpX+TX+8uNEf9y36MvLr7/wDeUIsg7ta55GdttiFo3YbkdzRXWbb7BdZ9z7IRsZhzchuFsh+pXxJJp2okNiIFmCzHDWnq57nFxwR5hV1g9nbqma1bvWaz2yyMga2SNnQ8oe0keq6Vx2hnzfEePaOmvVM7jzPbz8tuz+sJm0K9Brcezah7fDMHHmD8YxjyWxqfEGqatDHXsdgyEOD5GQMLBM/GOeQknK4mTXrJe8COCuQdxOx7pBnxyFhdrNg5D9RkA/8AV67G49Cd1SMWSY1trt8T4FbdXTuY99f5da+e5NgyTTO+ybXxzH+ab8MZx3LA4tZvI6NnjzOa3Pluei5iOezcyIa+r3STjDHSkfhECrSrw1xfb5TV4Vmw7o++Hgb959pc39iRx595c7fHsde2OjHq9ipJBBFHNFLIbkJMcTuZxaOvTbHRZeIKVS/c1a/UdI17Hwvu1LDQJYGlgYJI3tPK5m3X+Ku63AX0iScv/kek3wHZczRv/RRu/ar/AE/6M7RZqr9Y1gz2blEUon1osNhbzB3M7nxnGBjYd/y046RSNPn+Zyp5eT1JjXs+NvrzwEHGWHo7q0jxWJ8csMha9ha4e9hwxsdwQu71TgDjbRjI6rG3U6YOQ6t70vL196F/v/hlXmg6NQ4n0qSleqSUNc037Nnbwvjc9mCWnEgBPgfD5rqxvlT2l0bJQ045uRzh0DuuFlqM9okEOBzuB5O7J64Xf6fpVLR9Zfo3EdJ8VTVMV453s/k8kpOGFsg2BPqvWv8ABEvDUzNSpwy2qMMzJWuia580OD0eB3JocQyF0ZPLsQcEEEbjbBCtdM4j1HRpCxzO3qO/nIn9AD3syvoMvDOg8WabDrOgyMituZieMbMdKAOZkje5y+b6lHPps76V/TrUdhpIayRnKH745mEZyFTJjplr03hatrUndZfQaHEnDdtgdDf9keRkxWHcpB8MnZaOvcSaNVhf2Fr226WlsfIQ6Nh8SRsuDi0rWrz2iloV+TnPultadzf73LyrtOHvou1i3LFPr/JTptLHmrE9rrMwznkcWe60eJyT+0YI4XTOuu3T8nWc0TH8K8+inSbLYNW4htNeJNReK9UuA96FjuZ8je/Bdt/wr6csVevBVggrV4mRQQRtihjjGGMY0YDQFlwt7h5ThMIikMKMKUQat2hQ1KtJUvVobNaTPNFOwPb0IBGdwR3EEFfMda+iqSN8lrhq8YTnmFO293KPJk+/y5h819YUEIPzrcrcVaKTHq+jWA1pIM7GkscB39pHlh/FdZwp+jHFdGbS7AbDqNb3qpkDBI5hHVhHXHevrpaCC0gFpGMEZGPAjotD6m0T2iO0NNpNsx55Jo4I2Stz4OYAVOx8sdpsPCerwS6vCw0Jia8s7Yi6F8btvfIGytNZ+j7SZ4/rTQGRSRTNbYETTlhaffD4CF9JsVatuKSCzDFNC9pa+OZoexw6bhyirUq0q8FSrEyGtA3khjZkNY3rgJscDHwrw9xXpUFoVvZtUq5rTPLHszNFsWyAjcLBobKei2pOGdfga2LUXEUS6ImGSQ7cok6AnuX0sNAzgAZJJxjfzK8Phhl5DJFG8xuD2do1ruRw6ObkbFTsfLuIuDbWmslt6bFPbqty58EQ5p429dgeuFw0c+q25OyoaJfnfnlx2MpIPg4MaR+a/RuCpAx0TqkfFdJ+jzirWpYJddc3TdPa7ndA3lNmQZxgRtJAJ6ZcdvAr7Bp+n0dLp1qFGBkNWuzkjjZ3DvJJ3JPUk9fmtrClVBERBCFSiDBPWrWWdnYghmj/AFZo2Pb64cCquXhThCc80uhaU53eRUhaT82gK7RBzMnAnAsnXQ6g/sGVn/ccFgP0d8Anf6nZ8rFsfskXWogp9P4a4Z0sh1DSaMLwMCQRNfLj/wBpJl35q3xhE2QMA9fzXksYerWn5BevxUoNd1Ok7d1au4nvMMZ/aFidpWjv+PTqLv7VaA//AGrc2UoKt3D3DL/j0bS3Z681OA//AGrXdwlwc/4tA0j5U4QfyarxEHOP4I4HfnOhUBnryMcz8ORwVTa+i/gufLq0VyjL1a+pakPKfHE/Mu5TZB8qtfR9xfVa5una3U1CuPhr6xDvjwDnB4/MKrHBXH4cSNI4ZO+fhhIP4lfaEwg+O/oj9IfT6n4VH/wq/wDBSODvpEP/AO38Kt/+FD/+BX2HCIPj/wChv0jdRV4WBG4xDD++Jem8G/SVI4ZHDcOducRQ5b5jlgK+vIg+Z1PozuWpY5OJdbktxMILadEOhhJHi4gfkwHzXfafpOkaVAK+nU69WMAbQMDXOI73v+In1JW497GbuK0LGsU6+ch7sZ6D+KCi1f6PuFNavu1G1FYjnkx24qyiJkxH3njlO57yCFc6Nw9oOgQyQaXTZA2VwfK4ufJJIQMDmkkJdgdwzj8VWTcX04yQIH9T1K1pOOarRtWJO/emhZ6jwhwpq136w1HTI57XZsjL3Pma1zW9OZkbg0n5LPW4Y4UqEGvoumRkY94VYi7b+s4ErnTx/Fn/AGL/ABFR/wCECL/qX+IqdSO3ZFFEA2KNkbfCNrWj8Gr13+K4b/wgQ/8AUv8AEV6bx9E449jA/wCIpqR3CbLlIeMqspbzQYz4OVvX1zT7GPe5c+JCaFoo5W55sDPjgZ/FYW26bvhmjPz/AIqTaqf0zP7wUCZq9awGNnhilaxzXtErGvDXtOQ5vN3rIWggggEHqCAQfUFYfa6f9Mz8VHttH+nZ8ygitRoUu29kq16/bydrN7PEyISP6czwwDdZjHG4hzmMLm/CXNBI9Cd1gOpaYOtqL8So+sdM/wCtRfiUG3hFqfWWmf8AWovxK9C/p7vhsMPplBtKFg9sp/0zfxVXrMUuoQ12VL8cYjl5568peyG4zGOylki+1A79vnlBYyalpcTi2S5WDh1b2rS4HwwDnK8N1XSHO5W3a+QcHLwB4dTsqiKbU6jCyHSdKqwxtLpZoL0TIWRsA5pHBsfPgDJ6d3mq4anxVfh0950mEw2445RzymStNHK4kRvJDSzDcZyDnKkdo1zHNDmuDmkAhzTkEHvBClc9pWqTV60kepwQVTC5whjqR8kDIgcNijGd8eI2/Be5eKdIiJHvux8lAvkXMP4z0hoJLJNvMLAePNJH/m8p8w5qaHXIuQ/TzSM/7PN/ean6e6R/1eb+81TqR16LkBx3pJP+zy/3mrbi4v0uXA7OQZ8wVGh0iKvr6tRsY5HEZ6Z/yW818b/hcD6IPSKUQQilEEIpRARFCAmy8P7X7nL8+q0pvrbfs8Y8sILBFQyfpD93m+QGVgP6U9xkA+SnQ6N5kA9xoJ81VXbmrRA9lAPUNJVdni3xd/hUZ4v7i78GoK2zrPEzDs2Qb/dYVXy6/wAUgEB0oPk05V85nFZxlmf+Fi8GHinvhb68keVO4HNHW+MDuJJ/wP8ABR9d8Zf0lj8D/BdbFHxKMAws/uRqzij1jkHPFWz5tblNwPn/ANecY/r2PmHfwXput8YZGXz9fB37wvoYi1Dvjr/JrVPZX/6OD+61NwOMra1xM4tDzKcnfmB/ZhdPQu6xKB2kRI7+ZuFs9nrH3W1m+B5W5UGLXHdZmDu90NH7E2LFjpD8bQ3buKkyRN6vaPUqr9k1Q/FNn5p7Dc7yD8wqiwdaqt6yN+SxO1Co37xPoFqila29xm3mENW+M8kVf/i6qRkdqsA6RyH0Xg6pIRltd3zz+5askXEDf5uOD/ha3961nfpUM4jb8msTsN9+pXXY5KhPqCVqzC5ZB5qQ38GO/atb/wAcR0yPQM/cvWeMPF3+FSNd+iTTEn2Ujv8AxWE8LPf1hI+YW+Dxb4v/ACXrPFfi/wCWEFeOECesYHqQjuDRjZjc+oVgP0q/Wf8Aks8P6Q5AeHb9fhTcjm7HCliIEiHPpuqSfSLcbiBCRjyK+qwi7ygScmfNZwwH42sJ/shR1D4w6reZ0jdt5FeGs1pp+zbKMeAcvtBr1z1hiPqxqCCuM4hjHoxoU9SXxxsnETehsfLmU9rxF42MefMvsfYw/wBGz+6E7GH+jZ/dCbQ+PNl4hz/v/wDEtyA6y7Ad2/ns7vX1XsYf6Nn90KRHEOjGf3Qo2OIo6Zcm5e0bJg46gq7Zw/XcBzlzfHcK+x4D8ETYpRw5RH35PlhZY9DpRnZ0h9cK2RRsaA0qoP1/xXoadUH3XfMrdRBoWNKo2a1urI1/ZWoJa0pa4tdyStLHcpHessVGtFDDCGczYo2RAv3Ja1oaM4W0iDQl0rTps80IBPeCdvQdFXS8K6TISffb6YK6BE2OVfwVpjj/ADsg8sNUN4H0cfE+U+ewXVomxyv6EaJ+tL+IT9CNF/Wl/JdUibkcsOCdFH3pfyWaLhHSYiCHSnHdkLo0TcjQr6VRrY5I8nxcVuhjW9GgegUqUBERAREQEREBQpRBCKUQRup3REEIUUoIQopQRuilEEbpupRBCfJSiCPkilEEfJFKIITdSiAiIgIiIChSiCEUogKFKIChSiAoUqEEqFKhBKhSiAoUogIiIChSiAiIghFKIIRSiCERSgIiICIiAiIgKFKICIiCEUoghSoUoIUqFKCFKIgIiIIUoiCFKIgKFKIIRSiCEUoghSiIChSiAoUogKFKIChSiAoUqEEqFKhBKhSiAoUogIiIChSiAiIghFKIIRSiCERSgIiICIiAiIgIiICIiAiIghSiIIUqFKAiIgIiICIiAiIgIiICIiAiIgIiICIiAiIgIiICIiAoUqEEqFKhBKIiAiIgIiICIiAiIgIiICIiCFKIgIiICIiAiIgYTCYTCBhMJhMIGEwmEwgYTCYTCBhMJhMIGEwmEwgYTCYTCBhMJhMIGEwmEwgYTCYTCBhMJhMIGEwmEwgYTCYTCBhMJhMIGEwmEwgYTCYTCBhMJhMIGFGFOFGEE4TCYTCBhMJhMIGEwmEwgYTCYTCBhMJhMIGEwmEwgYTCYTCBhMJhMIGEwmEwgYTCYTCBhMJhMIGETCIP/9k=;clipPath=inset(15.24% 0.67% 16.09% 0.33%);shadow=1;flipH=0;textShadow=1;" parent="N3tuldMV24hy1_GBqyLN-5" vertex="1">
          <mxGeometry x="670" y="40.00000000000003" width="80" height="43.1" as="geometry" />
        </mxCell>
        <mxCell id="N3tuldMV24hy1_GBqyLN-7" value="Data Ingestion" style="rounded=0;whiteSpace=wrap;html=1;shadow=1;flipH=0;textShadow=1;" parent="N3tuldMV24hy1_GBqyLN-5" vertex="1">
          <mxGeometry x="182" y="55.1" width="120" height="40" as="geometry" />
        </mxCell>
        <mxCell id="N3tuldMV24hy1_GBqyLN-8" style="edgeStyle=orthogonalEdgeStyle;rounded=0;orthogonalLoop=1;jettySize=auto;html=1;entryX=0.5;entryY=0;entryDx=0;entryDy=0;shadow=1;textShadow=1;" parent="N3tuldMV24hy1_GBqyLN-5" source="N3tuldMV24hy1_GBqyLN-10" edge="1">
          <mxGeometry relative="1" as="geometry">
            <mxPoint x="242" y="195.1" as="targetPoint" />
          </mxGeometry>
        </mxCell>
        <mxCell id="N3tuldMV24hy1_GBqyLN-9" style="edgeStyle=orthogonalEdgeStyle;rounded=0;orthogonalLoop=1;jettySize=auto;html=1;entryX=0;entryY=0.5;entryDx=0;entryDy=0;shadow=1;textShadow=1;" parent="N3tuldMV24hy1_GBqyLN-5" source="N3tuldMV24hy1_GBqyLN-10" target="N3tuldMV24hy1_GBqyLN-29" edge="1">
          <mxGeometry relative="1" as="geometry" />
        </mxCell>
        <mxCell id="N3tuldMV24hy1_GBqyLN-48" style="edgeStyle=orthogonalEdgeStyle;rounded=0;orthogonalLoop=1;jettySize=auto;html=1;textShadow=1;" parent="N3tuldMV24hy1_GBqyLN-5" source="N3tuldMV24hy1_GBqyLN-10" edge="1">
          <mxGeometry relative="1" as="geometry">
            <mxPoint x="340" y="240" as="targetPoint" />
          </mxGeometry>
        </mxCell>
        <mxCell id="N3tuldMV24hy1_GBqyLN-49" style="edgeStyle=orthogonalEdgeStyle;rounded=0;orthogonalLoop=1;jettySize=auto;html=1;textShadow=1;" parent="N3tuldMV24hy1_GBqyLN-5" source="N3tuldMV24hy1_GBqyLN-10" edge="1">
          <mxGeometry relative="1" as="geometry">
            <mxPoint x="340" y="450" as="targetPoint" />
          </mxGeometry>
        </mxCell>
        <mxCell id="N3tuldMV24hy1_GBqyLN-10" value="Data Processing" style="rounded=0;whiteSpace=wrap;html=1;shadow=1;flipH=0;textShadow=1;" parent="N3tuldMV24hy1_GBqyLN-5" vertex="1">
          <mxGeometry x="182" y="125.6" width="118" height="39" as="geometry" />
        </mxCell>
        <mxCell id="N3tuldMV24hy1_GBqyLN-16" value="Analytics Engine" style="rounded=0;whiteSpace=wrap;html=1;shadow=1;flipH=0;textShadow=1;" parent="N3tuldMV24hy1_GBqyLN-5" vertex="1">
          <mxGeometry x="20" y="295.1" width="110" height="30" as="geometry" />
        </mxCell>
        <mxCell id="N3tuldMV24hy1_GBqyLN-17" value="Vehicle Performance Data" style="rounded=0;whiteSpace=wrap;html=1;shadow=1;flipH=0;textShadow=1;" parent="N3tuldMV24hy1_GBqyLN-5" vertex="1">
          <mxGeometry x="530" y="46.55000000000001" width="120" height="30" as="geometry" />
        </mxCell>
        <mxCell id="N3tuldMV24hy1_GBqyLN-18" value="Navigation Data" style="rounded=0;whiteSpace=wrap;html=1;shadow=1;flipH=0;textShadow=1;" parent="N3tuldMV24hy1_GBqyLN-5" vertex="1">
          <mxGeometry x="530" y="120.00000000000003" width="120" height="30" as="geometry" />
        </mxCell>
        <mxCell id="N3tuldMV24hy1_GBqyLN-19" value="Weather Data" style="rounded=0;whiteSpace=wrap;html=1;shadow=1;flipH=0;textShadow=1;" parent="N3tuldMV24hy1_GBqyLN-5" vertex="1">
          <mxGeometry x="530" y="195.1" width="120" height="30" as="geometry" />
        </mxCell>
        <mxCell id="N3tuldMV24hy1_GBqyLN-20" value="Driver Feedback" style="rounded=0;whiteSpace=wrap;html=1;shadow=1;flipH=0;textShadow=1;" parent="N3tuldMV24hy1_GBqyLN-5" vertex="1">
          <mxGeometry x="530" y="268.6" width="120" height="30" as="geometry" />
        </mxCell>
        <mxCell id="N3tuldMV24hy1_GBqyLN-21" value="Personal data" style="rounded=0;whiteSpace=wrap;html=1;shadow=1;flipH=0;textShadow=1;" parent="N3tuldMV24hy1_GBqyLN-5" vertex="1">
          <mxGeometry x="530" y="340" width="120" height="30" as="geometry" />
        </mxCell>
        <mxCell id="N3tuldMV24hy1_GBqyLN-22" value="" style="endArrow=classic;html=1;rounded=0;shadow=1;textShadow=1;" parent="N3tuldMV24hy1_GBqyLN-5" edge="1">
          <mxGeometry width="50" height="50" relative="1" as="geometry">
            <mxPoint x="242" y="95.1" as="sourcePoint" />
            <mxPoint x="242" y="125.1" as="targetPoint" />
          </mxGeometry>
        </mxCell>
        <mxCell id="N3tuldMV24hy1_GBqyLN-33" style="edgeStyle=orthogonalEdgeStyle;rounded=0;orthogonalLoop=1;jettySize=auto;html=1;entryX=0;entryY=0.5;entryDx=0;entryDy=0;shadow=1;textShadow=1;" parent="N3tuldMV24hy1_GBqyLN-5" source="N3tuldMV24hy1_GBqyLN-23" target="N3tuldMV24hy1_GBqyLN-17" edge="1">
          <mxGeometry relative="1" as="geometry">
            <Array as="points">
              <mxPoint x="410" y="211" />
              <mxPoint x="410" y="62" />
            </Array>
          </mxGeometry>
        </mxCell>
        <mxCell id="N3tuldMV24hy1_GBqyLN-34" style="edgeStyle=orthogonalEdgeStyle;rounded=0;orthogonalLoop=1;jettySize=auto;html=1;entryX=0;entryY=0.5;entryDx=0;entryDy=0;shadow=1;textShadow=1;" parent="N3tuldMV24hy1_GBqyLN-5" source="N3tuldMV24hy1_GBqyLN-23" target="N3tuldMV24hy1_GBqyLN-18" edge="1">
          <mxGeometry relative="1" as="geometry">
            <Array as="points">
              <mxPoint x="410" y="211" />
              <mxPoint x="410" y="135" />
            </Array>
          </mxGeometry>
        </mxCell>
        <mxCell id="N3tuldMV24hy1_GBqyLN-35" style="edgeStyle=orthogonalEdgeStyle;rounded=0;orthogonalLoop=1;jettySize=auto;html=1;entryX=0;entryY=0.5;entryDx=0;entryDy=0;shadow=1;textShadow=1;" parent="N3tuldMV24hy1_GBqyLN-5" source="N3tuldMV24hy1_GBqyLN-23" target="N3tuldMV24hy1_GBqyLN-19" edge="1">
          <mxGeometry relative="1" as="geometry">
            <Array as="points">
              <mxPoint x="408" y="211" />
            </Array>
          </mxGeometry>
        </mxCell>
        <mxCell id="N3tuldMV24hy1_GBqyLN-37" style="edgeStyle=orthogonalEdgeStyle;rounded=0;orthogonalLoop=1;jettySize=auto;html=1;entryX=0;entryY=0.5;entryDx=0;entryDy=0;exitX=1;exitY=0;exitDx=0;exitDy=15;exitPerimeter=0;shadow=1;textShadow=1;" parent="N3tuldMV24hy1_GBqyLN-5" source="N3tuldMV24hy1_GBqyLN-23" target="N3tuldMV24hy1_GBqyLN-21" edge="1">
          <mxGeometry relative="1" as="geometry">
            <Array as="points">
              <mxPoint x="410" y="210" />
              <mxPoint x="410" y="355" />
            </Array>
          </mxGeometry>
        </mxCell>
        <mxCell id="N3tuldMV24hy1_GBqyLN-39" style="edgeStyle=orthogonalEdgeStyle;rounded=0;orthogonalLoop=1;jettySize=auto;html=1;entryX=0;entryY=0.5;entryDx=0;entryDy=0;shadow=1;textShadow=1;" parent="N3tuldMV24hy1_GBqyLN-5" source="N3tuldMV24hy1_GBqyLN-23" target="N3tuldMV24hy1_GBqyLN-20" edge="1">
          <mxGeometry relative="1" as="geometry">
            <Array as="points">
              <mxPoint x="410" y="211" />
              <mxPoint x="410" y="284" />
            </Array>
          </mxGeometry>
        </mxCell>
        <mxCell id="N3tuldMV24hy1_GBqyLN-23" value="&lt;b&gt;RDBMS&lt;/b&gt;" style="shape=cylinder3;whiteSpace=wrap;html=1;boundedLbl=1;backgroundOutline=1;size=15;shadow=1;fillColor=#dae8fc;strokeColor=#6c8ebf;flipH=0;textShadow=1;" parent="N3tuldMV24hy1_GBqyLN-5" vertex="1">
          <mxGeometry x="195" y="195.1" width="90" height="130" as="geometry" />
        </mxCell>
        <mxCell id="N3tuldMV24hy1_GBqyLN-24" value="" style="shape=image;verticalLabelPosition=bottom;labelBackgroundColor=default;verticalAlign=top;aspect=fixed;imageAspect=0;image=https://th.bing.com/th?id=OIP.e-AAfc2kjpWT3FW_rRg1ggHaHa&amp;w=250&amp;h=250&amp;c=8&amp;rs=1&amp;qlt=90&amp;o=6&amp;dpr=2&amp;pid=3.1&amp;rm=2;shadow=1;flipH=0;textShadow=1;" parent="N3tuldMV24hy1_GBqyLN-5" vertex="1">
          <mxGeometry x="685.14" y="110.00000000000003" width="50" height="50" as="geometry" />
        </mxCell>
        <mxCell id="N3tuldMV24hy1_GBqyLN-25" value="" style="shape=image;html=1;verticalAlign=top;verticalLabelPosition=bottom;labelBackgroundColor=#ffffff;imageAspect=0;aspect=fixed;image=https://cdn2.iconfinder.com/data/icons/weather-color-2/500/weather-02-128.png;shadow=1;flipH=0;textShadow=1;" parent="N3tuldMV24hy1_GBqyLN-5" vertex="1">
          <mxGeometry x="679.47" y="180.1" width="60" height="60" as="geometry" />
        </mxCell>
        <mxCell id="N3tuldMV24hy1_GBqyLN-27" value="" style="shape=image;verticalLabelPosition=bottom;labelBackgroundColor=default;verticalAlign=top;aspect=fixed;imageAspect=0;image=data:image/jpeg,/9j/4AAQSkZJRgABAQAAAQABAAD/2wBDAAsJCQcJCQcJCQkJCwkJCQkJCQsJCwsMCwsLDA0QDBEODQ4MEhkSJRodJR0ZHxwpKRYlNzU2GioyPi0pMBk7IRP/2wBDAQcICAsJCxULCxUsHRkdLCwsLCwsLCwsLCwsLCwsLCwsLCwsLCwsLCwsLCwsLCwsLCwsLCwsLCwsLCwsLCwsLCz/wAARCAFVAdkDASIAAhEBAxEB/8QAHAABAAMBAQEBAQAAAAAAAAAAAAUGBwQDAQII/8QATRAAAgICAQMCAwQGBwQIBQIHAQIDBAAFEQYSIRMxIkFRBxRhcRUjMkJSgTNDYnKCkaEkkrHBFiU0U3Oi0eFjk7Lw8RdEJnSDhKOzw//EABoBAQADAQEBAAAAAAAAAAAAAAACAwQFBgH/xAAwEQEAAQMCAwUHBQEBAAAAAAAAAQIDEQQhMUFhBRJRgdETcaGxweHwFCIjMpFCUv/aAAwDAQACEQMRAD8A1zGMYDGMYDGMYDGMYDGMYDGMYDGMYDGMYDGMYDGMYDGMYDGMYDGMYDGMYDGMYDGMYDGMYDGMYDGMYDGMYDGMYDGMYDGMYDGMYDGMYDGMYDGMYDGMYDGMYDGMYDGMYDGMYHhZs16da1bsyCOvWhknnkbyEjjUuzED6ZQbn2ktQmrNc0ywUrLRPGsuwiO0+6y8Mtl6caN2gg8hS4P45aOrYjP0/s4OAVnalDICe0elJaiSTk/kTn84bO1Jf2OzuOWL2rdmc9zFjxI5bjk/TA/qweRzjI7RWWuaXRW257rOsoTtz790kCMckcBjGMBjGMBjGMBjGMBjGMBjGMBjGMBjGMBjGMBjGMBjGMBjGMBjGMBjGMBjGMBjGMBjGMBjGMBjGMBjGMBjGMBjGMBjGMBjGMBjGMBjGMBjGMBjPhIUEk8AAsfyHvlH6ekvdYwT7u9sb9ek9ixX12u1dmxRjiijbt9Weauyyu5/vBR58eeFCzb1FfVXVb2Y1+fy9eM5/LR8lj9Sc1nf9b7Tp611B0y8f6RihJiqXLkpFqKKeskiLIyqQxQt4JPJ48/XMl/LA/pjop+/pTphiSSNfCnn+xyn/LLDlZ6DIPSPTfB5/wBkYfzErgjLNgMYxgMYxgMYxgMYxgMYxgMYxgMYxgMYxgMYxgMYxgMYxgMYxgMYxgMYxgMYxgMYxgMYxgMYxgMYxgMYxgMYxgMYxgMYxgMYxgMYxgMYxgMYyI322OopJLHB94u27VfXa2v3dqz3bJKxo7ngBfBLefYfjgRHU1/fW7MXTXTpEewswC1sNg54j1tBnaMMrD+scghePIHnxz3JC9El+mpurunLMs1ptbdpSUo4Yv19n73Cz/qou4gA9qk8twOfJ+edZ1ex6TtP1PY2li+Ls8MfVCNEoijruSi2ayry4WBivjz8JPtxnbvKc+t2tLrHXRtMsdcU99XhHe1nWMQ33iEL7tH4P4gfh8QZp9qlNoOpUtkEfpLXVbBB4PY8YNcpyPwVf88ptCWnFcpS3oPXprPH97i5YGSAkK4UqwYHjkqeffNT+1tatvXdK7WvLHJE8tiOKSMhllhsRpMrKR8vh/1zIBgf0N09LF0/dr9L+qs2stRzXunLfILNHIWsSVJiPBYcs6Hjgjn5rxlzzFdLesbnpJHrv/150ZLFYrN7vJTjJlhPAHkJwyEfw8/x5rWn2VfcazXbOv8A0VyvHMF5DGNiOHjJHzU8g/lgSGMYwGMYwGMYwGMYwGMYwGMYwGMYwGMYwGMYwGMYwGMYwGMYwGMYwGMYwGMYwGMYwGMYwGMYwGMYwGMYwGMYwGMYwGMZ8J458gD3PPy+ZOB9yFvdUdM66U159jE9ruZPutNZLdoMvuGhqh3H8wMznrD7R4pp5NVpndqEZZb9uCT03ukeDBXkHLLF/Ew8n5cD4pM6tbnZ2R6CSR1anstXXqKtYDgD4lj47j+LFj9Tgf0VquqOmt1K9ehfR7Ufd6lWZJILK9p4b9VMFY8fPjnJvP57+z7QbXZ73XbGFHjoau3HYs2j3KhaMBxAhHuzeO4fIHz78N/QmAxjGAymfaRAZOmLM3ax+52IrXKkho3CvEkoK+eQWH+f4Zc857daC5Vt051DQ24Jq0qnjzHKhjbwfzwM26E61j21eTQb9/Xt+jKtaWceob9coQ1eRTz3Scc8fxD8R8dj0ANG3+gr4m7dbXGy0D2pPi/R0/6n0ZgrFDLXJ9InuPhx9fOC7Gle0mzuUZiyW9fZaMOhZT3Ie5JUI8+fDL+eXa59oEV/QawzRTR9Va2ZRVuxrGYWjKiOaSXv8ESryJE7SCQD8uFCE641ljSbq3q0lm/RnedhrK7OxghjteWEcZbgcEFfbz25U8k9zu9rvrSW9lKsk8cEdZOyKOJEhjLMqqsYA+Z+XzyMwLv9mRvnqeOKsD6U2vvpe+noelypPy/b9Pj881vpKsKadQ1K5511fdTxUeQQAywQi0sYP7gm9QD+eVH7O9f+humtp1I0Qe7sO6Ggjg/Esb+hDGOBz+skPB/ADNI1dFdbr6NIN3mvAiSSfOWU/FJKfxY8sfzwO3GMYDGMYDGMYDGMYDGMYDGMYDGMYDGMYDGMYDGM459nqKs8VWzsKMFmUcxQT2YYppBx+7G7Bj/lgdmMDGAxjGAxjGAxjGAxjGAxjGAxjGAxjGAxjGAxjGAxjGAxjGAOY/8AaV1nK0ljpvVy9saApt50PxSMR5qIR+6P6z6n4fABD3zqfbzUazVKrFLc1S/elnUdxpa6lH6li0FH7/BCRf2nB9lOYFq9Lu+objxayrLMzSFppXJ9GAOx+Ked/H/M/Q+2Bw06V3YWIalKvLYszMFiihUs7HxyeB7AfMnx/ll2g6Jq6HYaiTrWxHDq7iTMv3KSR1FiII4r23VAyhgW8rzzx7j9rNP6e6b0vSFFSgEl2VYY7dthzNZmdgBDEPcKTwFUfhz9czz7VeoYb9+tparK0WqZ5LbrwQbjgAxg+3wDwfxYj93A1DT7vo6ZK1DUbDWhFXsq1YXSJio5/ooX7WP8gcncwv7PNjUuNc6V2yV7FW/E8urS6hljguqpLBOCGHcPiHDjynggvmj6aTd6banQ7ayluleWxa0FwtIZAICGkoy+szykqCGQlj4B+I8cIFtxjGAxjGBiX2iambYdVbFa8apYj0Ne/FGRw98QMUkEI+bqvJ4HyiP085nn9Pb3SRbiGB0cV9pr5Ra1V0Ad9awp7gDx5MbcAOPmPxHjPbnRNPqWazfo1EpbBJWr7jWi2Ki1dggPey/7PMDG/hkIA5Dc/P4QyPOqjUmv3aFGH+muWYKsfgnh5XEYJ4+nvmow/ZppqDI2+v14InYCNY7zNNIf3lj7oI+T+SnJXX/Zn0aji6Le7evEvqcWn+5oUI5JZxDHJxx78EYE5av9PUadOhXl76PT9zVQXJEUvBWaGVIoonkUcNKGKsVXkjjzxzw1ogngsxRT15YpoJV74pYXWSORT81ZPGVWjFooxBLQjrSUNZx91suFr6TXAko712c/rJT5Jk889x+Ne7hupWg1G415hPbR6leVZIwhjRNpHCZxYCNxx6qqQ4491B93JYLLjGMBjGMBjGMBjGMBjGMBjGMBjI23udTRnjrWbBFmRDKkEMM1ib0x/WGOujsB9CR8s6aturdhjsVZklhkB7Hj9iQeCCD5BHsQR4yOYmcRL7iYdOVrf9Ryay1U1lGstnZ2YXtH1nZIKtZW7PWm7QWPJB4A49vcfvWMMDzwQeCVPBB4YfI/jlB629TUbLT9RInrQWIzoL9fuCsyS+pPE8TH2b9ofyGVaia4t1Tb/tjZZaima4ivgsWr212eeOlsa9eGzJA9mtJVkZ4LCRsqSDtk+JWXuU8cnkHwT2ntnfrmbaO5eu9QLYesgap07al1kDSK8jO7x9jO0Xj4viHHcc9dFvLNifSldjatbK7dMWxpyy8iOP0nexzVb+j9IgccAfTz35m0+pmbdE3OM7Z69cLbtnFVXd4Qum6tzUNRu70PHr09betQ8gMPUhheReQfyzMuntNqhDX2O1hTYXNnC1i1Jf5sK5kkJPcj8jnx7+/n5ZrbIrqyOqsrqVZWHKsCOCCD8sxNJtnSt9SavWXxDr9RZtCmlitHaliiXYx6/wBNJJPPA7iRyD+x/PK+0aL1VuPY1YmJ55xP+JaWq3TVPtIzGGn9MycVtjTjeV62u2D1aTSs7stZoYbKxd8nxkR95jXnzwgyfyH6dqVqen1qQGRvWhW5NLM5kmmsWR60ksrn3JJP/wBjxUuqdoydSRa/Y3pqOsTWJZqdlmWrFZsNI3qSSSRFOWTtAUF/HHPu2bJrm1a71zeYiM4j6KKaYrr7tO2fFbd9u62ipxWJIZLE1mwlSnWiIV57DgkL3N7L45Y8H8jzwYin1JvIvSn3NGglCSeOGSehPMXpGWQRRtYjnUcoWIUsD49+OPIrO+sWJem+mtsstixPQ6gsHUPdPxW6KCaVZLDOQT+rjHDfP837s96V49RltJQgsxx3HDbCWyiIKlSCWCxMsfxMTI3MajxwO/nnxwMt2/di9biiP21cfH7LqLdubdU1f2hp+MYzpMhjIJuqum0svWNw8xu0UkywWGqxyKe0q9hU9McfM93H4+MnAQRyPY+RkIqic4ng+zTMcYfcYxk3wxjGAxjGAxjGAxjGAxjGAxjGAxjI/c3n12r2NyJQ88UJSon/AHtuUiGCL/E5Vf54EFrKr7u31LujNJCLE/6G1UqLC7JQ1szJIw71KlZpPULAjyAP5StDTGoUM1xpljcvBXhr16dOJjx8Xo11HLfizH8OM6dPr01Wr1euUhvudSCuzDx3uigO/wDM8n+eNvs6un1ux2dr+hpQNKQCAZH/AGUjUn5sSFH54FI686ti0nMFWXv3DRMtKMdpSgJAUe7ID/WMOViHyHJ9n4fDmZ3ZmYlnYlmLEkknySSc6tjetbO7dv2m7rFyZ55T7Dlz+yo+g9hnHgWLpXRbbeX2/R9uKk+tjXYPcnZkSuYnXsYMoJ558j8j9POv6OjvtzsNXu9vuKc66aW/DXq6ysqwtYkQ1zM83ce4MhDrx8mH7PkNk3R282PTuwk2NelNbpmNamxjjV+PTlYFCGAKhuR8HPv5Hz5Gt9H7Zd3suqL9GhPU08g10cHrRCIzXI1lE8vYhKd37Abhv3V+ZwLtjGMBjGMBlFs6pd71juWiubLXwanW6+nek1VmSnNdtzFrKJJJGPKohHPz8jz44y9ZW6oej1ZuopeBFvqNPYU24UAza9RUsRE+5PBiYfgT/D4COaKHRSMmo19ZLcknbPfvJstvs5+F8t6dVGkIbz291hB+A7vHF+jep9q8T2ali9+y4l6okiqauNkdvii0etLMx4Pj1ZOfGaFjAg6OgWKSG1s7k+0vQ9phksLHFVrMo4Bp04gIkP48M39rID7S6mys6rSSa31Pv9ffUTVMThHWWYPHGVZiAD3lAPPzy95y36cd+s9eRmQGWtMrJ+0sleZLCEfzUYEF0j1OvUFJo7SGvuqJ9DaU5AY5EkX4fVVG4btb/Q+Pxaz5S+ta02uir9XauJBs9NKhtdo7fvmuchJIZyo5IHgj6ecsup2dTca6jsqjE17kQlTnyyH9lo2/FTyD+WB34xjAYxjAYxjAYxjAYxjAy/YXW0/U+5O0f0Pvk4t0rUxEcE9cJFGqrIfh5UDsI558c54jc2rlH7Qo9Q1hfW+4X6YiDpZlrqyV9hNAB8XIAA+R4Ib3bNQngrWYpIbEMUsUiskkcyK6MrAqQQ31zK7VHYanayxUpXG003pz02kAY7DVyBkhc88cug5hl8/EIx5B4ZeVXap0t2rUZnFXHp1babk3qItTG8cOvR6dNbTpenf0jaqX7vHO0tXbhI5EqqjxM0LWnf4O/wBTtRD/AHvPDZZvtBELaFPU/aXZU5Ih9ZIw8nH+QOVfbX9Nulg2UaxVrUwTXbqlMyJ6hDEQ2I2IAftPMZ+Y7xyF7M4p9pZt0U1ktn71r9V+vknP6wxv6bQR1TMngkAkj5+ePoBGm7FqJszMzGNp4/6nNvvTF3hvvHokaDnWbDpjZyf0cKjXWSeeEhnHIZvy5c/4R9fPhUd6U+y2sKd1jU7S/sWCBfUnp/fLIsoG9jzGXI/FBkukUc0HpWEUBoeZYlcdyqnZyVJ8/CeOD9QMr9Wexp7rQBVliiZjC8PageJzyYXjlI/y55/MfGfPaXWVzZijnTVnydO9Zp781f8AqMebWZb1OKjJsvUVqaVWuCRSO14QnqBlP4j2/PMl0FK1sYuqpX4+9bKGeCNvbm27S3mIP0EkiD/DnnJttnDpzprCqmshuumtriVZr9qAy99WtZWF3UKn055fgLx2hnE1qZamrbT0LMvFqyXi7Rw/pzWOWVp3HgKzOFB+ZYfXx2u0dTVV3LVrjMxP+b/D6ufpbMR3qq+ULf0leS7pabKSXhLQSA88rwe9Ae7z+yVH/wCMpu8tfprb7lkjjlg18U9GmJI1dS1RWM0yghvdyyj/AMMfXPfZWdrpJ9j+h+yGbcVpAn3hWaFLnLM7whfPf5LdvB4JJ4KHmCAqm3BWNeCsacbVGqPauWK7GNG49RoVqtJI7nz5C/Pnj6W6q7VdsRFHPj5fdDT000XJmueD99TXX3MnT+tqkfcNfrqtR5Yz8LW7cCmbt7TxxHGrL+bFfnli6HWNNzvF44eRZpk8e0brSJAP4fDkCtelSqV5FAiQLIIBKyq0VVUXl5FDEd8hHJ+I8KiDk9vL/Ir1+jYuNRnMFmaoimTtMjLWHPrSwqW47gACPB49Jj9FzPb1vtNVE/8AMRK6vT92x1zC19Zb+tAa+shsT9qTLPvDUDkVqfY3bHYkjPI7jwWUeSo88K3x89beV9Z091BsVkvrq1hEWpNkTxyNdkWVWjp/eP1npD4CpPtw38PiD1v6Fr2EfZ24Y9Xr0huXPUlWWfabGZvWih7FYu/HwyP+1ySOTxnF1PtJeobDWbayQamh4r15Cfjc/Evq8eCx45kH7qrx+17bKb8TPt65mM7RHTx96iq1j+KnfHGevo7emtlVp0qYWAzbBaqpFr1RjPPI0XbHxGB3dp8nz8uc07UV7FXV6ytYbungqwRSkccBlUAqOPp7fyyB6I1UtLVnYWwf0hujHcnDD4oq4XtrQf4V8kfVz9MtmXaTS/p4qnO9U5nop1F72sx02fcYxm9mMYxgMYxgMYxgMYxgMYxgMYxgMhLYXZbihSBBr6ll2dz5hrZUrVhPB/d5MrePlH/FnVtdlX1dOa1MygjuESuSqs4Rn5Y/wqAWc/RT9ODE6etbXV3NlZkmr29lzbVzB3TwoT6kbyQqCSzftOnyBCf1fJCz5jv2tb/vmp9O13HbB2Xth2n3mZeIYj8/CnuP95f4cvsfVNSBDJtkerAFbi9WH3zVTFCeTHarBipP8Lqh/P5/z5uNlNuNps9nKOHu2ZZgvPPYhPCRj+6OAPywI7LD0l05Y6m20NJO5KsQE9+cL/RVweCFJ8dzey/zPsuQtWtZuWK1WtE0tixKkMMSftPI57QBn9IdKdN1Ol9VFTjKvalYTX7AB/XTkdvC/wBhfZR/P3byFVv/AGYS17UlzpbdWdUZOVaAyTgKre6pPCwk4/Ahvzy7dO6ddDptfqhN67VkkaWbtK+rLLI0rtwST7k/PJbGAxjGAxjGAyvdWixDqW2tRO65op4ttAOeO+ODlbEZYDnh4jIp/P8ADLDnlYhhsQT15lDQ2IpIZV/iSRSjD/XA8qd6pfr1rNWQPFYr17UfPhvSnTvRivv5/wCR+mdWYrr+pq/Scdvp7bttY7+ouWq9O7qfuUj/AHKQ94SRLRMZHJLqCp47v3ePPx+u6FkMlnqLrV42+FI6NLR0Zh5+c0BJ/wAgMDamZVDMxCqoJYseAAPcknxkHY6p0McprU5/0ndCsxq6jssugVgrNNKrCGNR8y8i5nlPVXNyBNV6O2FtRIzw3usd1aKcn2Y1F7Cy+/sD7++fNrWhhEet6g30IRpD2dLdC00Xvl+E9jhQPwPDj8sD5uN51J1lbl6a0hjkhneP9JTVmLUa0KMfg+89oLLz5du0dxAVAQOZ7b0fFa0E1zo65KszUoTtNXYRewWaNiQrIGQ88Mj8g/F+/wD50vV7vqRt1runemdVU0lSGzDLcgCx2ZvTBAkbY2JOTzx4I8MDwvPPAF86pt1tNsejd3MypCmyn09tm4AFfYQMe9z9EaNWP5H64FtxgEH2xgMYxgMYxgMYxgMYxgfMpfW0QrS9ObpOPVgvrrJ1HA9erdBPYT7+GVeP7xy6ZUOvPu/3DQrbVTSff047hcMUWJ69lOSVHI8leD9cquRFVExVGYwnbz34xxyre016TR2LCNEXQwd4mhDrLCx7Qx7Cj/w+5PvnDraHqWIjYlEi1yslStDH6NdJe74X7O4kkfLzx8+ORznTTuPYp3ommax93aeoJ3TseWNGSSN5FPz8ef555wSGOWJvofP/ABzwV6u5ZiqzTPDb0+D1NFumr99Ub/Xn8XnIty/NtNnr5P8AadaYI9Vw4Ec9aL1VsRPyeziY8kc/Rc7rEWt21KpaUdy2KBswSxO8citGrGSMsnDe4cEH6ZX9rppa+0iejGfQ2sjRoiLysFluWYcD90jll/IjLbPUNOlrYI1JFOk0IA+L4fTeLgflzmu9Vb/T27lvljE88c4nz+KOI9pjnMbx15T5/JD6nW66GV7JjeSeOStDBLYmlkMCymQyMnce0cgcHgfPOSpJrbs+5F+yqmzFPBYjYOJ4I1mWNFVVB4ZTw/j58fIZK0EkEkqlH8xqw+E8cxtz/wA8itj09en2kD0VcRbNhVuMikmqpKEy+3zA4H4qMr0epivUfy1b42n3b4/PBOaKbcZxtvnz/Mea2aqeLe6PuvRR2xMslaeSRP1Vxqc/oi3ErdpAfjuHhSDzx7c5yPptVGJXCzkRkER2rlueMcSMv7E8hHjj6HJ9ayUlirRp6cEUEcECgEKkaIAqjn6e2QlxyBaf590ir+BZuwf8cl2jqqqf20bRVmMZZdLZpq3nkgTPX2O8lrTyxirTmkqtBKyK1gQAmRmVm47PmPPnwfZQudNWhBZp1oXnaG7QuWKotV2BlilhZERhwfIYCOTjn5gggjnK/sqc0m5WSuvC2IW9SQjmNGgPoF2/NPT8fM/5i004YqlDUpEvavqsGY+WeQyzku7fMnjz/wC2W6m7RZsU+x5YmOkc/v4r6aKa4jvxvvE9fzk4m0Hp25GsS0OVWaSSanSSCxJ2J3sSy8H8/OcqVIL+x6d1TlPTtX1jlh7W+KvD3TT89o4AIjMY/vv/AAeJqzNx96dnK+q0VIP8wGkV7En+H2yL6XlisbzSiKJ/vibq9JIkQDpHQrUZ6okZuOQoLqo5/aJJ92zR2ZFWpuReueOzLqaYs26qaNtmwj2GMYz1jz5jGMBjGMBjGMBjGMBjGMBjGMBnnPPBWhmsTyLHDDG8ssjnhURByxJz67pGru7KiIrM7OQqqqjksxPjgfPKyBY6q7Zw0kGijlH3IkOk2wK+TdA8EIPaDn5n1PdE4DjrVp+rNkdhdjkTSUJ+2pWkHaLk0T93bKvcQUQgF/HlwF9oOZLhI3A7Q6JK4YRl+SO7jx8II5/LnPsMMNeKKGGNY4okWOKNBwqIo4CgZ+bEFezE8M8ayROOGVxyPz/P6YEDZ0MM8du5sZRFeRXaO/09HY117sAPIdkldnJ+h5H4ZT+oOjqcENyze2Gpnhqwi5Ya1RNHYRV2YxgmfV8K7Eghe6BvOWnYnqXTyiTUWRtYe0yPp9jIBd9Ne5majbb9YxHzVu/8/PBql3rrp+dNw9itfqbRv0NLLrdtERE/6Lti01eJ0ViCwLcd0YHP54Hb9nfSFfXrJvrVazFdmksx6+K2AGrUyexXKlVbvcc8kqPB9h3edJzwqWYbtWncgJaG3BFZhZhwTHMgkXkfkc98BjGMBjGMBjGMBg4xgUjQa2LV9V9b0rIilbcfdt/ULr3Fq7TzpKrBvmjNx7/MH5+LY9YRKz0oKcU5/eeLgcfj6XB/1ys7bvh696HkQ+Lmu3dSYf8Aw4YvvAJ/nxnZv97Y1V3XwzmOhqrCAzbiaKSxGk/f2iqI08IxHxB35X8CRgdM2klvhv0ts71iM93NWk76+oQ3yZazCYj+9Mc8E6W1qI9aFlpU3CiSrp40oGdB8PFixF/tLA/P9YvOeUPVA3LmDpmtJdAbsk2VqKWDV1uB5LO/bJIw8cIgHPzZR8WTlOoKqN3SSzWJSHsWJuO+VxwPYeAP4QBwP+IRVrSUNfqnh09WvSNZ1soII+zuZFK97sPJKg8gnnyM5Z0sb4Urz1oLFbWNain1EjfrJrrxNXm9Qt8AZFLiIHwwk55HcGS15Wb0djT2zsaUDuixg3q8I5a5RiHn01/7+AeY/wCJeU8lR6YReq2p0E9LW27a2unr5iTQ7BzzLRaTuWPX3ufP7rLGx/hIP7PEV6zP9qmqt7KzH2Rz6DeazWQbGZJUWKGxsrMv3O3AOP2u5OW8+7q3zPdNdEbOfa9O6+Wy5e5VabX3CTyxlrOYwzfiV7SfzwLNjGMBjGMBjGMBjGMBnHsKFPaUrevuRh61qJoZkPgkN5BU/UHgg/UZ2Z8PywMao2tZqNfstZfuRDZV9xtKkkaLJJZsSIypHKsUYL8EfsnPy0l3tLR6jalf3ZLcUdCFvxV7jr/wyQ1emsL1Ta6cqbSxLr6EMt7eW68a1b1mWdzJHXmuREzMw7l7j3DnhhwOMts2q+zjUufvsGnWwV7uNnItu049+QLbPKf8s4dfZNFy7Vcq5z4/SMfN06dfXTRFPH88/kpcW92kcncI9DW7Yyrmxvte7gkfNIDIf/Jnjdu7fZjtazrpIQvHFCLZWl4J5+J6lELmgJvtBXUfo7WbOYMpKfcNNahRwPHCyTxxxn/ezitddU6/HdrZI2J4Iu7TRVyp+jKtx3B/w5bb7KsUR3aYx7vuqnXV1T3p3/OjPItJsJTzHDK/jx6Wp3jePykiTOuPpnYdkk/o2RLGQEh/Q26Dyc/MMD2/65cD9odFeOa+uPPv273Wtx/rnqv2j9NAqsqyKSQO6O3qpUHP4i0G/wDLl0aCInPen4eiE6qZ/wCY+PqraUOpKgJoT7CJmQdx/QWxZefpxPE//DOOb/pb5Sxah4Dd7CxotsnJ558tBWGaDV6z6Wtd3ZbkUggANBKxbk8cqIQ3jJaHaamx/RXq588cGRUb/dfg5Gvs63XOavlHo+0auuj+vzn1ZG0t2AdtmTUB28qDZv02Yf3LlXnn/FnZHesz1qdWGkJZKssszCjs9VaY97dycRrOsnjk/u/PNdzksa7VWgws0ac4b9oT14ZAfl571OUz2TanOI4+/wBVsdoXOf58GV3rqLIguw26CsSkS7OrYqq3cfi4llT0jz/fy0fZ7Q10Wv2Gzg/WT7HZ7FWmbgn0IbMiRxoR+7+9+Z/DJeTpPQiOdKKWNa8qOoOts2IIgWBALVlf7uR+BjOcvQtWKrok4aUWJblttjDKIUWtsIn+7TxwxQIqKnchIHHz/HNGk0NGkzFE7T4qdRqqr8R3oWvGMZ0WQxjGAxjGAxjGAxjGAxjGAxjIbd7iTXHWUqkKT7bcWGq62GUlYVKL3y2ZyvxenGvxMB5PgeOe5Qr3XO+K1rXTGrrT7Dd7SnLHJXqqz/dKsg7Wll7fPJH7I8e/J4BAf7oerJWhp6m9rZqu+p141m1kyivLbgiQj1dcZOEY8Lz2kr8+DwvxSNPSW9TsbG3oypffaJVXbi0AliV4+V+8VJV+FR55MZHHwjgrx5lNzpNZvKwrXo2PpuJa08JKWKsw8rLBIPIIwPfX7PX7SFp6cyyJHI0MykMk0EyeGhnik4dXHzBGduZesPUVPcJCbdSr1XHCI61qyCmu6t10fwqk4HtZj8A/P8x8S2nT9V17k41e3rSafeJ2q1O6wCWCf3qcx+Fx/Pn8+OcCes06d2NobdeKeI+e2VQwB+o58g/iMqnWNWnBpJNfEGmu7q1W0+sW2xtPHJZlXvZJJiZAqqCf2+BwPbnLpzlKg53vXNuyT3UOkqv3OvxyUbaXBzMyn25VfhYfIgYFvrwpWgr105KQQxwoW8krGoUcnPbGMBjGMBjGMBjGMBjGMCo9V9P7vYWdVudDdSrudQthYEmUejZil45jZjyB8x5Xg8/L3HzRdXQbb1qO310ut2EFg0LKWFLUpLSjuMSTH4Qx9wre/wAi/HIt+VTe149TsI+pEUGnOINf1NCR3RzU2Ppw3Cnt3QkjuPB+An6YFo4jiTgAKiAnhRwAB9AM+xyRyqrxujo3lWjYMp/IjCdvYvafh4HaQeRx8uDnBY02rsOZTC8M555npTT1JiSOO5nrMpJ/PAkc8Z4VmjMfcVbw0bj3R18qw/L/AO/fIKbpztZpk6l6mrhfIH6QjkiT8xaif/U5+61ffQnmv1FW2cfC8R7GrX7yAf3Z9eY/9Y2wKjsKoqy39aVSHX2LU3UUMaftR3tYgls0EVTyVPKWIh/DyAvj4Y3oDqCHWbnaaq2zLR31+e3p7BBEMswnkr8qT8pO3tB+qcfPxc+oqV6Sst6JY692OWvPGRJ3xQbGqS1WctwvwPyYJSQPhlBPAjzOp4Vs63pmzXi9WfXbCpsKEESCN2gt2kS5rl7lHDQWPCAk/DOn18huWMjtVt9duqcV6hKJIXIVlPwywyDy0U6e4YfMf8jyZHAYxjAYxjAYxjAZ5zzR14Z55DxHBHJNIfokalj/AMM9MheqpDF0z1Q6+/6H2CjzxwXgdef9cDENd1fFQi3dlqtmzttvsJLlgvcmrUQoPfH6iVWWVyCz8qXUfF7HPi7P7Q9jEJNbVvVqcjDt/QGvalX5A4A9WpGpP85DnH0vSjvL1dCyhmj6X2VuIkElZK0tewO38fh4/nm0aeP0ujOlF/ioa+T/AObCZP8AngYVsdZ1JXV7G0guKFKB3tuWbul8jkMxbzntoOmN31K91NWkLfc1iaczyrEAJe4LxyD9Dlu67k/2S6P4tjWi/wDlxP8A+mSH2O8CLrFvmE1fn8OLZwKDtemNxp4pZrZqlYmiV/Rl7yDKOV8FRkHmn9c/9h2f/wDMa/8A+nMwwGdlbZ7Wn2/db1uAKVYCGeVV5XyPhB48Zx4wL3S62+0rWxVmLPaqMndD96pJLE6fhNCFY/j8eWnWfa9TbiPc6uaF/ZpqDCROfqYZiGH++cz7pvqSxpLKxziSfUTOBcqcg8A+DNXD+BIP9fY/VdTv6Dp7Y6uPaVGht07MZMD9gbnuBHnv5II+LnyOCPbAsdTq/pK8qNX21Yq/HBk74gpP7shkA7T+fH88/GmU1N71lQC9sM1ihvK48nkXoTDKQT4/biY/zz+coprVGx6kLtFPC5Hcp48qeCrA+CD8wffNv6WRq200zHtVbdPq3XxxqWAig125UwxoH+LtUO4UfIYGg4xjAYxjAYxjAYxjAYxjAYxjAZTNhGZPtA0bNyVqdM7GxB5PCStMYGYD68HjJzd7ulo6ySTAzWZy6UakbKstqVR3t5Y8KijzI58KPJ+jVnUJZn6jq7G8JHt3OndxM1huY4XQW6ipFUhl+JYYweEYgF+5nIHd8QWqCa2NZrZ60IsMalaR4i6xySKYlP6tm+Du/PgfiPfPWhsqeySVq7sJYH9K1XmUx2a03H9HPE3kH6fI+4JB5LT+dTpT9ddS/wD9KZybSmEmh2lV0r7GBPQ9dwfu1iAnn7td7fPp8/st7ofPsWWUPLZtqbLxarqCnXaC7KYqU04DVbExHIiV28pN/COfPHgkjhYe10htKsTrpNs09ccMuo6kQbLXHt/ZjjaUGRB+IJyelSh1BQ2Gs2FV19RPQvVJuPUiPPKyRuPBHI7o2H0+o4Wt9P73bavaWOkuofWsW4IZZ9NfCFpNnUjDSBSPm/APHn90g+V5kDkrdaR6zT9Sx3aclLd6GNE/Rs05nhaSUiCJqrSMZDFyQSO48D2PBy29NaYaPVV6jv6tuR5LmxsH3sXbB75ZCeAfoo/BRlETpuj1Z1LPJfLtDqopG2iwyhle5buWLcev+8RfAfRRlWTtPuOOfnmqgcAD6YDGMYDGMYDGMYDGMYDGMYDPKeGCzDYrzxpJBPFJDNG/lZIpFKsjfgRnrjAz+hZu6x5+n5bU8ew6fKGjM6NNDf0Mh/VSWYVKlhH4jcqOV458gMDe4ZFmiilV43V0Vg0L+pE3I90ce4ylfaFRtw1tf1Rqz6e16elEnqKPMlOQ9kiOB7gE+Rz7M31yY6U3uo3+tW7Qjhgn7lGxrRqFaGyRyeQPcHyVPz/MEKFi8Hx8s81hhQkpFGhPzVFB/wBM9M85JI4UklldEjjVpJHkIVURQWZmY+OAMDxnerIwozAObcFjviPkNAvCSF/7J7gP5/h4y7YULGr3P3HtWSafZ1dnrjLJ6SS7WsfWiJb4RxdRTFJ/8WLn9kDuvvT7ybBLW+mV1G1Zf0fG69ph1UJYVuQfnJy0rf8AiAfuZydZalthrjYiEn3ijzJ+o5E5g7gztEVI+OMhZY/xj4/rMCm7Kex09spOtenFexpthN6XUWucPE9W4SC62YyO5G5PIJHhm/hkAbQtD1HpOo6zT6ydnMQT7zBIvZPXZ+eFlXyPkeCCR498r1EJ1ZrBdrzVq24NZdduhJXeWnsK7x8AywFo3Mbj9ZA3cCOeOfcGs0I9r09s6dmOkzbSlFZ12xr1yfT6i11NgrWqYbz95iAVnQ+WHDj3OBsGMjtVutNuoBY1lyKdeAXVWAmiPt2yxN8YI/EZI4DGMYDGMYDK91sSvSnUxHv+j5R/IkA5YcheqoTY6a6niAJY6i+ygDklkhaQD/TAx37LYIrPUGwrzL3Qz6K/DKvt3JJJCjDn8jmw2qkFDU6yhAW9GktapD6h7m9OGExr3H68DMO6d2k/R+z1e4eBbdLYUHjJjJQmNnX1kQnx6kbLwQfw9g4YbMm802/1kVrWWUmRZovXTys0DFX+GaM+R/w+hPzDL+vG/wBml/tbcj/cjlGTH2Pf0HWX93Wf/TbyC65Y/d4h9dpaP+SnJz7If+y9af3Nf/8ARawOXrj/ALDs/wDxdf8A8BmX5p/XP/Ydp/4+v/8AoGZhgMYxgMtfSPVMujllp2i8mnuspsxL8Rgl/ZFiIfX5MPmPxA4qmMCZ21Not/brQdsgmvI0HpkFZVsMsiFCPkeRxm5/dnp77oaB+DJ926rsSkDgd87153PA/Fsw7T6/Z3LGttIjGFNlrqMLu39LO0qdsEAb3ZR8TfID347h3bvJYEvVvTtUnuno6Lcy2XUHs9SaWihVT7cjjk/mPrgWfGMYDGMYDGMYDGMYDGMYDIje7utpKqTPFJYt2JPu+towHme7afwsaDzwPmx48D8T2t67bbUtPUe3ZLsS6Q1q8K99i5ZkPEdevGvlnb5D6eT4HIqjPsKlytdvR1rPW+6javqKIcNU0VIg9zu30XyZWA5dvgXx8WB+dNp7G03V+7upFt2KQrw7Ht4aq15gLK0Kw7m4r1wylh+/IxLc+mBk9x6nUG9uEkprdHVoKT+ws07S3Jh/uiDn+Wd1CpU0Wr9J53eOpFYt3Ldg8yTSsWnnsSn6sSzH88jrZkp9Nb23OO25eq3LMiScjizbT0oYGP8AZ5jj/lgS+q4/Reo49vuFPj8vRXOtlDAqQCCCCCOQQfHBBz8QRJXhggjHEcMUcUYHyVFCgZ+wyksoPleOfw59sCGZI9RIJmR31ys/YyhnfWiQjuXhfPoH3/sf3B+pgtjrK/V/Uf3ewHGp6ZjaKZ4HaKS1srio7wLLGe7sRO3v4KnluPys+52Ueo1t2+0bSvCirXgTkvYsysIoYVCgn4mKr7fP8M8entXJqdXWrTsJLkjS3NjKAP1t6y5mmbkAeOSQPHsB9MDq12s1uprR09dWirVo+SscQIBY+7MT8RJ+ZJztxjAYxjAYxjAYxjAYxjAYxjAYxjAr3WgkbpXqcR+G/Rs7H+4vBYf5c5RPs5142umkmrXbGu2uqvTV4rVNY2MlOdFmENqKUFHTuLkAjxx445+LVLlWC9Uu0pxzDbrzVZePnHMhjbj/ADzGeiLFzpnf7PTWvDfpShVsqWIUxsZqokRfbgvJAefpga5Wr76IBbWzq2Aq8Fl15hkJ+pInKf8AkGQHUs8u32Ot6PqSMBcUXeoJYiQ0OrjYfqSy+Q0x4X8j7cNk/tkuvXgFVS4S7TktRoQJJayTK8iJ3ELz7c+fIBHzyibnU39Xttxbk37x1d7YW1NBFJHr7DxQqRHA99g84RfbtiidiB+yOeQGhxT0Q71IJIy1VEWSOLgrAv7KI3b4B/hHvnzY2xRo3rgQO1eCSSKPnj1JuOI4x+LEgD88rfTmuuKtVzWStRr+a8TQyVo+729SCm7mXlvPMkzFz/And5tUkMUwjEqhljkjlQH29SM9ynj8Pcf+2BQoqWx6Ts6f4jNFPCsSFR8Ulgr61rW+/b+sPfNT8+H74/abzL3pId30/srWteP9Ia6eS/UliHcV2NICaNl7xzxKvaP7kvGS+61bbjX2df8AeWrCfjuljiildO096sgk8AggEEeQR4I45FP1M+x0ex6hq2kVrtj7rbmVFCQ3bQ71WzAo9jbVShH7sqcf1yqQ5tm/RtuGLdbMXOmt20NazFeo96myJynbNA8Q7JU8gsCA4HuFzr0vVe5o7yDpjqZq80loRtqttX4jiuxyKTEzKPhPfx2gjjz48++We1Q1250dKrWWOTXT/omWIEKyGnHNDN49QH3QcfzzHbul2Vmr0pSrWm+/U9rvdHGk8x7Fu0pPVjMLv5XvHavHIHKg8DuJwN9xlf6Y6jg6gpzFonrbOjIKu1oyAiStYBKn4W89p4bj8iPcZYMBjGMBnlPCliCxXf8AYnikhfj+GRSh/wCOeuMDDdZBTl6fhrbWrZein32PZrCFazTlqSmNdvRVR8QiDJFaX37QjcEe9bu6jf8ATcsW0oWjNRL/AOybfUyFq78kEK7oT2t9Vb/XNY0GsrWLHXOmmMsT6/qabZUpq7enYpi9EJInrv8AIjzzyCCCQQQeDwXOkdpqp5L2uuS62Ygerd1EXdRsKOfi2Or54X+0Y+9Pn6a4GVbLfbHawQQ3REzxTSzmaNBG0jyAAllX4P8AJRlr+zzqXQ6Cv1HFtLLwtsBUWv2QySj9Wk4YsYx/aGSWw6a6ijJ/S/RWq2gVSPvnTlhtfO5PJ7mih4Un/wDtsgpNJ0iir981/Xerck8m1SgsQD8Q3ZE//lwOjq3c6TYU7wo3op2knpsiqkyMVRPJ4kRfbKBluXRdAOPh63aJueDHZ0V0Mv5sjlc+N070Yvk9c0ivPuurvs3H91ecCpYy5RdO9IO4+7bfqDcLzwF03T8qs3902JeP9Mn6vSMLIxp9F3DH5cXurtsKscIHB5kqUvTcjAzSvWt25kr1IJrE8hIjhrxvLK3z+FEBbLXS6ViqzpHuBJa2IHqJoNVLG1oovkvsba8wwxj4e4kk8H2XjkW6OtZnMmvqbH78SeZdR0FXh12qjcrxxd25HlT7MCWb8Ms+o6KrxQqmyjqLVDh00+tVxriVYMrXZJf187j6u3b9FGBD9NafY25oL0TV0+7pNUqXK8A/Ruqrsfii0cUo5lkbyHnYdvk8er5Jm9TWrJ1fuI63eItLoNdrXDM8rNPesTbCSR5G8lm+EsT5PPOW5VVQoAACgAAcABQPYfgMqvRbm9Bv96T3Dd7y7PWc/tGlWIpwKfyCNx+eBbMYxgMYxgMYxgMYz8syqCzEBVBZixAAUDkkk+OBgfrOLZbHX6qnZv351gq117pXbz7+AqqPJY+wGQUvVrW3kg6a1VvdyIxje1Gy1tWjc9pH3uX4WI9z2g/nkJtenepeokSz1dttfT0lAS3np6USsO2OMkvLNYHHco7vPDD34A7ucCF03Vsu96i2WzNSS3sIIhT6T1YU+nAtgsJrM0g+FeAF9Vvc9/A8DgXCHVyLXe1Ba+9bhLt6XbX+0d73ItfaqpHEB7RxM6iNR7fmSTGdFR6PQaCPaGJYJN1bhnclw33epZsSQ1o2mf8AdRQWP48536LcV6XTVne21ZBtNjuNpVrnxK6z2ZpY4x4/hXknjwPPywObp99vsNT01qb9r7569elubdpixmOu4E0decvye9pB2c/NEb55Pb9hPN05qFI7tjtIbMwI/wD2msIvSN+RZYk/x5HaCjPrYKFWVAuy3En6RvInPZRoVlQRU4ufISPmOJR+LHO7Xc7HqDebPnmtrY10FIgntMiMLF1wD/b9OP8A/onAmbEwgQFV75ZG9OGMe8kreQPyHuT8gPwz8B0qJAs7lprEyR8geZZ5OSe0fQAE/gq/hnoIeZ2ncgsF9KIfJE924/E/P8h9Mre33EOug2HUlwf7JropamlhYjm1Zk+BpuPf4iO1P7Ks3s/gP1Y/666orU+O7X9LqmwtAjlJNtZQisnxLx+qQs/IPguv0y05XukddaoaeKS8SdntJpdvs2Pg/erZ7yhHPjsHav8Ahyw4DGMYDGMYDGMYDGMYDGMYDGMYDGMYDKF1508Zo4uotcvp7LXgLdKxrL9513kSepEeO4oPI8g8A/MDsvufCPy/n5B/PAr2oub9alX7zQhuQyRxyw3tZfM0c8Mo71kEd/slHjjx6j/nk8na4SQxFX4PAkC+ovPuOVJ/45lml6tXRdU3+lZAqaMbazUoGTnuos7HtiUn+rL+Bz7c+/Htbdr1RLp9n6F7X3a+ojiWR9mlWa5FMzLyUBgPwBfmSGJ+g/aIT7bDVJIYnvUlkB7SjWIQ/P07S3OdQIIBHsRyMq1frLpe8DJrK+y2MqtwFo6m4zcn/wCJLGsY/m4ybq2dpYYNLr/ucHkgWZ45LJHy5jg7ox/8w4Hflb20H6Uge5VhEt7VWrkMcDOU+/1o2CWancPPxcAoflIiH93zZPlnBDroIZKkvc7NAl4eeAHkuSpNLI34kjx+eBC9H2IU16asWWnNQG1Tkk5Ek+ttyPLXkK8DyvxROOPDRkePBaH2mjqyy+hPBFPWm+0CC1PE6kp6VzWp3g/PyWB/POjbR3dduzJro+PKXqXMojia7eeZbOul7h2iO36QZG+UoB/rPNhR6m3o0LtA/q7F2lebkAOWglRHWVT7Mnb2sPkV4+WBmfUWu6n6d6i1tvT3x95v1bVanPKwexd9BF7adpZAUeQAqsbEfFwn745fr03XO51Nmh/0lti7ptxEZqeySBY5K7o/pyRyRRqD8DcrIvBI9wSD8Vv646fbf6WRIF5v0GN6h7gySIp7ofhIPxjwPI8gfTMt2laaxrpJtbGLNVUrdY1msyma1W+8E1NhFKZV7HVZIx3D39j55OBttDb6Xap367Y07YA5IrzI7r/eQHuH8xnfzmf6zovozZw09kmprmjtqUN4xLNYSSnZdUJSF43B7DyeRz4K+P2uF87+q1OptPT0u46whvxrHM1PUPY2VesjjhDYhmBQA8cgGTnz9MDRMZnUXVPVOqZo74q7KBB3LLeqX+n7rLyOWf73D9z8ef6wc/XLTq+ptFtnWvDZSK6y95o2XiW0PHPwqjMrD58qxwIXbXK3TXVuv2c7dmv6kqjWXX9hDcqMPQnc/Qhuw+flz8stexBOv2YX9o0rQX8/SbjK19o2tOy6U2ZRe6XXmPZRgD92AkSnn8ELn+WRv2f9TPtNbHptsXS9B6tGvLKOBcjjTzF3H+uQftA+SB3eeG7A0BSrKjL5VgGU/gRyM+OgkUqSwB+aOyH/AHkIOc+tf1KFBj+193iR/wAHRexh4/EHOvAjJdUJAQNhs059ithXI/8Amo2eUOiELFv0ptpCf4pKycfzhgQ5MYwOOChXiC8vZmZeeDbszT+559pGK/6ZWuo4Ytn1N0RqJ0WeiBttpsKsqh4ZRFCscBkQ+DwxPuPnlxysUozb6y6hvFXCanVa/SRN5KNLYY7Cbj8QDFz+eBY4YYII44YYo4okHCRxKERR9Aq+M9Mhtv1FptO8UFiWSa/P4ra6hGbF+wxBIEcKefr5YgePfK/tJdlagWx1PcOm1ErelDpdZMZdnsnchRBNPD8ZLe3pxD2by3w4HP1n1HZsUdlqtA6Su8sWsuXVb9WLNkiNNdUIPDTtye/jwig8/F+zcdNro9TqtVrYyCtKpDAzD991Ud7/AMzyf55ndxjQt6G7sKMdGlr7en+4akdqQ6uvduyKtiUp8BmIikdz3eOQPmSdU+WAxnJc2Wp16hr+wp1FPsbdiKHn8vUIyn7T7UOkKHwVXn2UvtxUQpCv17pZuAf8IbAveM4tXsK+219HZV1kWG7Ak8azKFkVW+TBSR/rnbgM5L12nr6tm7cnSGrWjaSaWQ8BVHt7eST7AfP+fnNj9oHWe5vbCp0x0/DKlRmjZ7PfJKnxMoeQiSONSeDwCT7e54z9/wDQ/rzqeWCTrDbrBQSQSjX0WjLc/TiIeiD54DEuf8+cDisfaJ1ruLFheltHK1OOQRrKac1qcE/smZo29Jefp54+pz7PW+2Ld0Jq+2nio6+3JXrSRtHVSxOs86RdirXUyADnluSvgH35+LTKtfUaPWLHWWCpraEDyMVJ9NIkUu8jsfJPuWPPJ/nlV1e/6g6lv1HqMtDQXP0mKzLGjbKeCkYoms90nKKGd+wcIeOD/ewJ/ZbDVdN6kQoyQtDTavq6sa980zxxhIkiiX4j57eT7DnyR7iqXIOq9/Sv6xKohqUJ6+rOuM0YnkklpxzJb2VpWMZSPuSRo4w3JJBJ482PY09VX1yy1oo3++bXRwT2JWaaadJNpWjbvmkJc/h8WRHTV+lLqOtd3sbAg1lzqDZ2BN6kkPFRFiroVeEhuT2gDt8k+PPOBEdS6v750/FFBZir6ipsKUEtqabveLUayB6MLRxKfiLv6hjAHxEr+YkNRCtm5Tk2KejrdTSsPWic8w1INa8SJVJ8glPD2HB+KRAo+Gt8f4j1VnqfZRTTU3pUKS1IK1TuaM66vX7miMsaHsNxg57V9oUb5yNwLlLrtbFHBykENOnAispCpCkFc+qqEt8IUEdzf3B/MIqe1frVp9gsZG7380NDT15VP+zIQ5hWRQD4jXvnm/HuHyGTWr19fVa+lr4Cxjqx9peQ8ySuSXkmkP8AE7Es34nIzUrJtrp6isIVgMMlXQROrBkoyFWe26v7POQCPA4RVHuxyXuXaOvgaxcmEUQYKCQzM7n2jjRAWZjx4UAk4H6exEtiGr5Ms0csvA/dijKqWb8ywA/9vGZ9RWn6h6/6f6YbxrdVPDasp4KzTJB98cv+HHEf8z9fFqbYjT6zb9UbtTBYsqGgqSELJDXj7xVor5P6w8l5OP3nb5J4qn2dajY7HY3+tdp/SXZLCUQAQJHkYiWYD5IOOxPP1+g7g1XGMYDGMYDGMYDGMYDGMYDGMYDGMYDGMYDGMYGf9ddCf9ITDsdWIItsnbHY9QmOO3D7AyMqn41+R48jx+6OKlc2H2tdErEbtr73RbsRJpv9urBuPCNK4Eyn5eSOflz2+NtzwtVat2vYq2okmr2I2imikHKujfI/8sDNNV131VskglMdFY5HKsafT+8u9pHg8GKwFJ/xZbKOy3EhEkybaaPv/ozpVo+PpxZn7+MpGw1HWfQFia/07PNd6eLmaenKDMIB8xNEPPH9teD48+3x3HQdcdP76sjpIaljuWKeCyw/UyMQF5lHw9reyngefHgsAwWiN2kXlopI/PHEvZ3fn8BIz0xjAjN3rV2utt0SoPrNWbgu0fPoTxzj408g+PGVqras9O7mxWuFPul51ksS8FVeR2SCPZjtHaO89sVwfJyknhZjxeMhNhrm29SzHKY0tV7dltdOVDpGQDGFlX5xsCY5V+YJ+vICTpWY7lWrbjBVbESShW/aTuHJRvxHsfyyoVNZHX20tN0V6v6T3+tMbdqr9w3VSLbdgUee0OjoP554dJWLGuvDRSxTRVGF6Ooksnf90t15TYloMT8RIEjSRv8Avx9h+RCWx6UT7GSwAA/FCYnj3aH7zF/nw/GBmH6KsarStVgtbT1Nfs9trrVSHYW4a12amzbOPmGBgQJoAyntI8sh9/f36XkdNt1PolmJ1u8kFrT2i0rzV5pKovUmaSTlvMY5Xlj5gI/Oxb2ran2tJ9esrMu80GxmREZiwq2GoW+Rz7BDXY/gOfnzlV1F2ro7dhJ45JZNNPsNKqhvT75aNz7xSkaVgf2klnjAAZyF4VW9gGoUNis+u1lu0VhksRIJw3CrHYVGMqkk8DtKt8/lmX9bW32Vybc6uZY4OnJtdT192N6yQTbCeUSzyLK5BYRgxjgAjyT7e8vaodVbb9F2txIKVWbba+OGn2oGHqSglkqP3wggdx5lErH+GP8AZzo2PTmrr6nqyCSsJL40+02lnYWG+8W++SaWWsDO/Le0Xxcce2B57TrGvtOiN9KqGDZrVq0r9OUdrL99eOB5IxzyY2DN2EZDbbVHRpHv61YWNfUuTajqKirv3NBUtPFVuJIGDiVV9PhwQQeD7O3Pfu6tXYdMJfliqLuNRvY69exMRHHEJdgjpDYk8D0u2RefPA9/GWjRbihuH3est0vue0iYjcaqw8U68SIsbvG68oyMO0H6c/2viCT0E1GbU0JaN2a7WlWWWKzYaNpm9SRpCsvpqo7l57T458efPvLZltnV9UfZ/bt7Hp+KTY9Nzv61zXMzNLV445ZSOX8fJwD4/aB7e5p/Wdf9PbRENaxXSc8d9O/KtOyPwieXmBz9P1i/ywLnjIk7quiv6tHcI6nj001tux3eAQVkqLJCR+PqZH2+p5oEjkGsarE/PbP1DdqamDgDkntLSWf5eh/7BZvGU9tBtUl24n6oNGhau3NnYi1sMFS0yTMGDS3ZWdwFChAVVfC/7tQ2v2hwJ3q2yn2MvA7aukSXV61GHP8AS3ZSbzkeP2fTB/nme7TqHb7buSd44qxfv+6VE9KuW9+6Tgl3b+07sfxwNZobXSxXZ9N0HroLmzkVnv7m68kleNAw5lmstzPJ59gCByfHIHGWrVdPQUpzsb9mbZ7t07JNjbABRT7x1IV+CNPJ8KPmeScznoixuNDq4bNTV6y0dmz23qrsQm9uVoDIglq1WHBROH7V8knn+Lxqmr22t3NOK9QnWaB/hP7skUg8tFKh8hh8x/y8kKv1JXr/AKQovbiE9e/1Hqte8EnDJMi6u4UjIbx8TScZW7lDoy393i6f6Tk2K2I3MN2/e2NemQgHetRTI08pTz3LGvyPHPHAsv2jiGLRV7Tx90dfd6u1OoB5ZEYoQfzB4zq1lCu1rq3p21F36+C3W2utX+j9CDYh5uKzR8FeyVJShB8fLj5BV9V9l+qu+nf2Nyt6MyhoqmgeY0+38LVppJTz8/b88mouiNHp+odHe12sjahLHbpXIZzJZFeYxmeK0vrlyOe0xt5/eH1zyuPv+m7JkMiyIVksPeVHatchUKhO3qRDuSUcgGxEp917148LZ9Rv6O17Ye1q18QR2HqTvGzNC3tPWljJikiPydGI+vBPGBUOk9ZJsdJYqWuoNtFV1Ox2OuWvSnjppGK7s3DWI19dl7WB4L8D6fDn6pdPdD2a93YPN1FZowVZrsS7K5dhglqxqe6xXIKMVbg+7exB44cFqMJY2udW66KCQbA7LfoksDyROz3rVTXQxO0JUlOWkJB5Hn2856Xtnt2r9eaWLb3v0FpYFhqwTehNJKkN+CjGhmMYcJ554HHsB+YWHoO1W0ulMlSjNb3u9th4qUYkgjjqoWigaezMvYsfPeVbuPcTwOSp7ezqHqHrvVRQy27urrvLesUoodLVkml9daryxo0l3lSCzRhuI/mT47eDPVOa1bonSxBFEE+shk7gQzGvrJbsrePnyE/3sktTXrXUv2bUUFkr1BtJqjyxRuYHqztTV4iwJBX0+OcCk9Y6e3U0Wsozbjb7DZ7KehqaFN54YaQl5RmkFevHGGA7QoLFuO4H385b5qsPTWnksV/jk1ulr6vXqR5ect6acj6yuY+fyzhpRHqDqm7uZQW1nTjTanUBue2W9xxbsjuP7p4RT7HgH3XPvUm3oxbXVUrDM1bVj9O3YYAXsWrEautKrDGreWLBpW5HA9JSSAecDp6iqw1Olfub7Qa81l1qQ3REZJPXrSxyKIoUILO5XwB9fwym90Wppa8bB3qUtMqLrqP6uWxUsyAyizNDyUfZTdxaNPKQK/e3JIEvXf20pkn22ykUW6Ugg/UdlitoZ5FPGt1yt8E2xb+scgqn4KnbJDRafZbrYw6kI0V94ml2j8maHp3XWGLmuHcktcn8mZj5PPHsW7AkeiJd71LvRumaSlotMs8FKlDK5hM06nlHZvMjnn1JXbyWI+vC3m2jb609BSDpaUoXasOCL9pCCKKH/u0Pmf6kBP4wPkVWKrDW6d0kZrVqsQiuWojx9ziYd3bG3ubEnPPPy57z5KrJ03ber6b1iMIgsEPp1KFSuCZbVmQ9sdaBPJZ3P/Mn2JASvcnPZ3L3Fe4LyOePbnjK7vdvr9OLF/7m1m5WhKiadxBUqqwHwtZm+EE/wxh3Pj4fmIu/1LT6Wrf9YML/AFRs2SWTX0izN6rjtigT3KxIOFT4eW8twWcnI6r0j1F1VZh2vW1ho6ykvU0tVmRIg3ylKn4fx4JY/Nh28YFQ19Dqn7Stv972M0keqruRLLErLWgT/uKaScjvPzPnj3PJ4DbjVq16VetUrRiOvWhjghQeyRxqFVcVq1WnBFWqwxQV4VCRRQqqRoo+SqvjPfAYxjAYxjAYxjAYxjAYxjAYxjAYxjAYxjAYxjAYxjAEc5hi6p6/XG8oXC+pl2dy++itmEGo7SSlo4WikHpPFKrFGX68D+ydzyE6j0FDqPWza+0O1+TJUsKAXrWAPhkX8Pkw+Y/zAROu2mz0Smrv9Vfhgj4VLuuMuz1ioieWUAG5Gn0DBgPqMtVa1UuRLYqWIZ4G/ZkgkWRD+HKn3ypdKb3ZCeTpjqMGLfa+P9TK5Yrs6i+BPE5/aYcefr7+6kJbkr1Y5ZZkhiSaYD1HRFWSTj+Nh74HtjGfkMpLAEEqeGHI8Hjng4FX6k10sb/pqjFK08KRDYx1uDYlrwszRWa6sCpmrksyj95WaM/tjiU0+1h2lbu7ovvEQiM6xEmJ0lHfHYgLeTFIPKH8wfiQhZbKPb1tytK276a5/UTW/vGvC9zQzCXiwkManyjkcyRdw88OvDjiUJX4oN9ZYoAotVpO5TyfR2FQVz3A+36yun+eRUWvgqfaFYklBMG01Z2lFWJEKbGv2U5WVPb1Owk8/Rz9cm9Xb1m7WS2gKWWgrRWoC/xxiKV5Y3Q+OV5Ldp7flweGRkTy6ljSCXprc8IH1O4rRSSMeO2psyNdKPy5dG/wfhgTMsFa59ykcdwrWRZi+nqojw8kH6dxypSym9rPtCsgEHaXpum6DNxwURE1MZVufK+q8rfzOSibRNfQ6xsSnn9CXNlJ2uV5IkhTYIAB9TJwMq+lhlbXfZdp2Ab7ymz6juOzktwsUskTPz78vOpP938MDzN7UbXU9QiIstTZXunrVZLHAIM1eGvIsqx+PhEEkj8fTn5ZW9Zqd5S6j19+mSt29qdbuqvqFlEzWY4hYScD3X1CUlHPIWT1P6vJ/Ua1Npf6bog9tKPorRWtiiLwHksQvC/+Jo/1ZP0kf65d97TQw6/ZxR/7TobKX4CiqG+7celaiXxzw0Zbx9VH0wP1quoKOzMUfa9ezIZojBPwJI7Vf+nqvx/Wp78fNSGHI57I/ddKdB7WZ0v1acV+Tz31pVrW2LeA5WMju/mpzy6l6VbZyPstTPFV2kixCYSmUVr3ogiFpGgIkWVP6uRTzwSvkN8MRB0t9oRpvFHutVpQx5NbS1HYueAO+a3IfXLn5kufz+gQPUf2fbfTUpbOg216amgJmpT2PRl7QCe6NkKxtwPl2g+Pn+yMtZnc9zsWY+5Ykn/M5sJ6SgTsh6yjuSzO6Cv1BX2Nm3WWRm4WO1FbUiPk8eTGVPPHI/er3UfQd2hKCsdWNJmEVW1XZoqViYn4YrKTsfRkb2U95QngfBzgZ5jPaeCetNNXsRSRTwu0c0UqlHjdTwVZW88544Gy9MdJ0L/QrTSQLJtNh6t+tP4FmKSo5WvFFN+2BwnHj+M5DdP9SWKuwa9NK0SvZjonZWVWOvsoe31I4NuY+VWcKQY5uOeQQ3cvJj0npASw6ynQZGRddrtRWbu48zyVEtykcfjIB/LIDozS1hN15UsV4paE92tTMUiExukQlm44b6CROPywJfreP9I9HdQhUdStWK32SDh4/QljnIbjkeyn2P8A650a6CW1Ti3Syju2PSmqgHuSssaTWVf/APyf6ZE3NH1FptXttZqidvpLVK3VShal7NhRWaNo+KlhvgZF557W4Pjwf4pLT25aUGg0E8fp2afSFe3dQkFoniWKqq8jx7iT/LA6b9oPq9Vvo/haqaWwJA5/2WwESwh4BPHYzH81H0yF2/SHf/t3T0pieGxLZ/RxmkiqPOpKuackZDQSk8jlTwT7jjJ3UVkudJ6enKvC2unqdaRW58CWksbA8fnnJpdjJB31rakSSyai0OPPb+lK3cW7fkDKko/ngZpoYYDttptpGtGBN/ZuO18dlwQ6ivPtJTaCcKG7/u4fx7nI3S6+WXWdSwWPis7m70hr43P7ROxsffiOT8+FQnLbXoS2K+/jhaZf+kPUW01tWWME90Ww2LC4/wAXj4YarHn+1ndVhRn01x4Xkgvb/edWxokYDLr9VVNSjGoH4GJl/vYHfQuRzdVdQXpeFqaWns5pW7u5UkeSOlyF48fBUY/4vxzp19q7r+htZPD8e0v04WpAleX2O2k742Ib6NJ3N+Cn6ZVaFPZ0+jrCzCRN515toqSB0JkSvZYqxkQ+QoT1W5+XqD2yd3O5rPPp6OpkkWpUM0EFqqgmmmsLGa/oaeE/DJKq96mQ/q4+8kksO0B2TbPX9K6xdJp447dzU0YjY9SRYalPv5P3jY2D8KmQksFHxMT44B7lq1OOpuYtvs578tfX1ZUs9TdQKJIbOzsxBWWhrg4DpBFwvHK9zEJwoI5zqn1d8yanTlIYtvfMtyrrYZGsVNLAzcTbfYyt8U9oeVjZj29x5X25b3rVdft/uyQ13/6F9OTGKjAPifqPbKxBkPsGQNz5PhiSSeORGHHVr25X1N+vr0itSxPX6E0jj/Z9XU8GXb3/AAfPBDknuJJA+IkGO5avWrqKra3WGSSzLK0+22s47nktSeZJiZOe6Vv3V8hfdueO2SS19GSBrF24wk2V3sFmRee2KJOfTqwc+RGnJ4+pJb3fxyb/AKg1HTGva3dYAt3rUqxECazKPJVFPsP4j8vxJ4Iet+/pemdbLcuSejUgJPkl5rEz8v2qCeWkc8knn8SeByM0rbnqvrDaG3pq4S1GskMNuf4qOgqyfC3o9w4azIP2m7eeOQF4HcnRT6d6n69uV911O70dOnJoa+MMkjQk8gRqf2Q37zkdx48cLwU1CjQoaytFToV4q9aIHsihUBQT5LH58n5k4EF050dqNCxts0l7czcta2Vvl5mdh8ZjDE9oPn58nnyT8rRjGAxjGAxjGAxjGAxjGAxjGAxjGAxjGAxjGAxjGAxjGAxjGAxjGBD7rR0tzFCZC8F6o/r66/X4FmnOPIZD8x/Ep8H/AFWNiu1rNiHp/qqpVXZFS9KZkBpbNV+Ey0nbyso/fTnkc+OQeRasi9xptdvKUtG9GShYSwyIe2avMv7M0D8chh/7ex8hHS9M6asvrNtN5UpxDmSFd9sYagX24PdNyB/iGflOoeidTXhp667SsMW9OtS1Ei3bViZufhCwsSWb5sze/kn55Cxbrb9O2Y9B1dZeSla4j1XUMYVVbjwI7veCncPmSD+PIPeJuKHe60s8Gt6dtIVAFxJm1Upj4H9Ki15lPP4OB+A9lCamuJXipvZRozPLBA4BDrDLP8Kq7j5d3C8/Uj65Cra/R/WEtBuRB1BrEvxBj4GwpcwShV4/ej9Mnz/V/jkpagg3GsvUnki/2qu9eR6solEMrL4ZHHaeVPDDwPbMx3G/aSX7K97Kxjv1Nhd123A7R2SQSQQWVbg8eQWI/B8C/XtaZLVifUSJX2UEkc86OGSGYzJx3q6g8M3HBPawPZ8SN2qUguot7PY1c/T82tnk3e6VtdSrAiNhISQbMiljxGnHcHUuh7f2hwwj79zvqHT/AFBamuMfSn6aSZUX+lnsVbrpFDCvPlm9Zvl8ufAXke3Tuo2D2rPU29H/AF1sY1igrclo9VQ57kqxg/vH3kP1/MlwpHVlrY1oOt9VIyyWdpc6Orl4/hEtiSlzKyg+e0mBR/iyU2Et+n1PVq6bxbq1tF0vWMiqymukb7a6yh1YchBCCf7f81j+qf8AaftC6SChjXsTa9mUccPZo3bFc93P0K8flk9r64t9aw2GUlq8fUO4aTv5U+vZXSQL48f0cBYfn+GBIdN0Yam96vERJjqRaDVV2b3WCrQjHbz+fPOW10WRHRhyrqyMPqGHByv9PiT9I9Xsw+B9oCn+ENGf+GWLA80iVIY4SAyrGsZBHggDj2yOmq7Sr3S62f1gvLNQvOxicfwwWPMiH6c94/Ae4lcYETX2cGwr3Pu0LPYquYb+utBI7MTMOWikUkpyR5U8lW+TcHuHypU1VzXSVoyLOpsRtB91nDMIVXmN4CH+MdvHHafKkceOOF5OoNfsOIt3pAo3WvjbiLj4dlTDd70pgPf6xn5H247uci6HUGstJH1LriVoWGiq9T02/pKM5AjjuOvt8H7Mp48pwf6nghVurumRMklEhpN1QqvZ1Ft+BLutVXX460p9ms1wR+LKAePi/VZTHGZZYoh7ySIg/wARC5/R+0pLcP6GnkavLIxvdN7BPL1rtdS/pj2+KPyQP3kJH9WWzIrmlL9VdPkQLXXa7iKC9WhACUthBZRLsMfBI7PIlj/sSr/MNk6cZpT1POeAs3UWwiiUfupSjh13/wDyJ/nnp04sRrbOzH2FLu52sylCSCkNhqiHz+EYz70+FragNKSq/fNzalZwQVEl+xOSf88i/s9vV7vSmoMbAvV9era5PlZkkZyWJ+oYN/iwLRYsV6tee1ZlSKvXjeaaWQ8IkaDuZj+WZxr7l7dxdWdR+m0Z6h9LpbpiJye4Q8yRtLx9AS0j/T03+mcXUu52PWF0anTUdjd6ao20G0n1oXm9KnxBElkIj7B+7/veeBk9Vs9UQT1pKfQswWrWFOitvcUIIqdcAKUgjVG47uB3Hnk8fQcKF3gijggggj/YhijhTn+FFCjKX1ZYTU7GncZilaXXVGdUU9obTbilcQEj5dskoyUit/aJKFZtPoK4Puk+ztO6/mYa7L/rlT+0OTbNqH+/x69bNRkc/cZJ2/2W9HPByfWVf3kXnx9PrgTOm19k6Hpgx8q8WhDVn7iCNjuAA03v7xhnJ/vnJeFaFK5cuSlYaeqpVNFSZjyfHbNKsahSxLExIAOeSnHGcNLqPW09F0ysYE88mv0sKohb0YJJ66hVnlVGAPvwoUufkhHkc12HdNXa+5aGfmSDXKwEVqezefsSGtGSfRRi3MjlmlI7vMfbwAr+42ljqDq7X0YqE5ipJY11IWpHiqm/agMtg3mr8v2iMcGIOpPBBKhiuWKk+p6f117dOrXrBdNXr5ysf3rZSK3pJXoRRgqkLPysUaLwFTv+IHkRR1MUF7VaarJ2yUqFtJLpfslhW1x+ldzI7At3OAIICT+0XPtDkuTx6G8NUNDXRNX0Vqez0g0ki+ktmQPwwMgHI8fBEpPHLEKEbDrtlYmu6U2FbfbsRXus9jD8Y1uvkBEWtrHk9rMPhQEn4e5vYjtvNfX1KqU4YI1jr0oVhpwqPghAXs7h+PHj/wDPnn02sGpqMs03r3LMst3Z3GCobFuX4pJOAAAg/ZQfIKB8vNcudR7fqC3Pp+juz0Ym9LZb+UFqlUEfEtQDw8n0P/L41Do6s651HTSPXTtt7Vl5jqI/Cw8jkPZf5D5ge5/AHkQXR2k2HUNtusuqlE88wUaarNHxBDCp5WZIW8BR/VD838lg2TOq+znpbXyrbtpPtLxk9aSfZP3o0rHuZvRX4T58/F3fnl0HjjADGMYDGMYDGMYDGMYDGMYDGMYDGMYDGMYDGMYDGMYDGMYDGMYDGMYDGMYDGMYHHsNfr9pUno360dmtMOHjlHjn5MpHkEfIjyMokybXoIdk3rbjouZvSeKZVltarvPgfF4aL/IfkT+t0fPOWKGaOSGaNJIpUaOVJFDI6MOCrA+ODgcWpvaa/Rhs6iStJTf9j7sFRVPuVdAAQw+YIGYh9o1exrd7saSgCletDf1xweVmsxiGcqfb4mU8/kM669HddM9dz6bUbD7j97lJomwpkqWYZEM0EVlfHI94+QOQfbPx9og6rnsVbO/qwVjEqVKCUVMtWYOrPLKtgknu5A+BgDwfHt3MFp0w2O96312y3eviiWDpqPYauvIwkkrRm0YoZZ+QB6rfrHHjx3L7FfGltIBLFFx/SJK3P9wr/wCuRGq1cta/s78/9JPW1evgBA+GvTg5J8fxO7/7ozqsSEbbURBh8dTaOy/MhGqjn/X/AFwK4ukh2HVYv+qvHTmzuO8ToSZBsNfWniVXB4HY7SP7fvZO6/W/crc87iMd9HW66vxx3Fa3rzuf5tIx/lnNpCX3HXUnnt/S1GEEjx3RauoGAzs2UmpJiW5MEmocbiFVlMcvFUMWdQPJHHcrjz4b8cDl6fEhm6ilf2l21ns49giuygfn9cm1kjdnVHVmjbtkAIJRiOeGGRPTqyfo71pP27diey/w8cMzdp8fjxz/ADz02VC1Ky3dbNHX2kKhY3lDGvajB7vu1tV8lD54I8qTyPcrIErjITV7+rfsS661FJr91XUNY1tllMnbxz6taRfhkj+hH8wMm/fAZmXVXTu20+ws9VdNR+qtkSLvdYVMkdqFxxIfSHuj/wBYPcHyP7Om4wM+6bsy9XdFpEsjQ7PVzCvUsnyY7tHsnqS97A8+CiyfXlv4s4n2FK5b6f3cyx1vXv6+5fjlZEWnstc51N1ZGk8gcSwH3HiEH5ZpcccUQKxoiAksQihQSTyTwMzHd6xj1TpaQhWTS9SbVtlLHxwFsQweneibjzxIEjY+frgTVzaS9XmbSdPNMuqZ3g3e7WMrAIOOHq0C4+J39mbjgDz57gRHdHaKpbodUUBNYTQ/9JdlFDWgldDdrxLHCFmmH6z0yB5AYc/Px4b9bu++ssbWxUX7tX6b1RpayjUAih/SW2YQ1w0MYAZwoMpX5K6eAeeZfpaA0ng0MDfqOndfXj2LJ3dljbXh94kUH5hByT595R/BgfnpqtDQ6m+0GhBEkNZZNFZrxRxrHEiTVGBEaIOOARx/LLjlfMVql1HtLqUbc8F/VayIPWWHtWerLa7lcyyL8mTj/wBs7ZdlcjHwaPbzn6RHWr/rNaXAk8on2gQ+vD9354FvRb8AH2M1FqmzjP58RSAf3snpNr1Ey81elrhfn2vbDW119vfmvLN/wysdSydW2penZJtPq6hNzYUoVn2ctkSPc1lpGWUQV14HaG44Y+ePl5wI3SGlAPszVgxkh18u3srIoMhMqjWU4q4AAHe8hb8e3kk8ci+bm1DQEOwsKZmrH0dVSjbiW5s7KmJEj5B+LjlQfkGcnwPFS6Y6bv2r3SnUNyxC2vqdNaaKhWVmL+ulPs5kUr28L3yMPJ8t8uPFzTXtNszsrYRnrK9fVx8dwrRvwJZ/p6knsT8lAH7zd4Rmv0dkpOdm0ctvYyx3d7JGD6dmRR+qoxd3Lfd4h4458/42B7rktCjLPu9xZhr16kbwVGmbtWFG+KRwPnJIQAAATwoA8sQ0Vsurwbr6bpqmdxuFBEpibjX0fl3Wp1PHj5gH8OQfB/Wv6VkktQbfqa2Ntt04aBCoGtoH+GpXI4PH8RHPgHgMOcDklh3fWpUTCzqeleeTCwaPZblefBkHukJ+Q9z/AIgY7dTpUtfWhp0oI4K0K9scUShVXzyT/wCudOMBjGMBjGMBjGMBjGMBjGMBjGMBjGMBjGMBjGMBjGMBjGMBjGMBjGMBjGMBjGMBjGMBjGMDN/tQqpUj6b6lhAFzU7OvH48GSIsbCAn+yyeP75yY60gg2ev6XgA9SO71LpAvA5DxP3sxI+nb3HPx9pddJ+j9s5HLVpaNhPwb7zHET/kxzo6Pkg3PTPSNywO+WhHxFz+7PVWWh6hH17ef88C15BcyTdWEEcxa/p5SD/DJsbh5B/MVxk7kJropZLnVF9CyvZtrSrM45AjowCDwCPb1DKf/AM4HzpqLirtbZLE7Lebe6O4EH0/vDVovB/sImeHVE0sqarT1/wDtG3tdrcc8ipWKyyt8Pngn01b8GOTUEVbX04ou9Ur066o0krKqrHEnBd2Pj2HJyudPF91stn1LMjrXYfo3SpIvDLThJLzEfWRiT+R4/dwO3ZxXdTDX2WthlsCjFHDepRnmS3QReC0Knx60flk+o5X5jslKF+hsqle7RnjnrWEDxyRnkEfMEe4I9iD7Z18DKVs6l3pe7P1BqInl1FmQSdRauEDhRx52FRPkw95APf3/ALSBPbnp/U7yBIrkbrNCe+pbrsYrlWT374ZR5H5e34eMghf6v6ZPp7eGXeaZeezZ0IwdjWQewt1l/aA+bD8z5PGWyraq3q9a3VmSavYjEsMsZJV1PzH/ADH/AKZ0cDAj9ZttPt4BZ1l2vbi+HuML8tGWHIWSM/Gp/AgZIZE2+n9BcsC3JRSO6vlblNpKtsH/AMesVk/zOddSpNWHa965ZXgBfvfoFl4/tRRoT/PnA68oW52cOotWZLS/Bot3JuayuQrTQ7HUXysaMwP7U3qL4/5ZfczvranQudT9DfeCqQVY9ns9o7AlRR14jtD1B/DyHX/FgcUcM333X1b/ADIvTtex1x1XJxwJdzPG00EB7fAMY/Z+RVePllp6FryxdO07lghrm5msbq7J7epNckMitx/d7B/LIla869DdW7a0O291DQ2W4sgNyY47MBEEAYjntRO1ePz+uWbpgEdN9LgggjS6zkEcEf7NHgTHjOR7kS2oaanvsyIZ2RSCYq4JX1ZPopPhfr/hPbx7fbNQ+71akIs7e93Lr6pJC8r4aedgOViTnlz/ACHluD6a6kmsrzy2bPrWpS1rZXpu2MSyKvliCeFjQeEHsAP5sEmMht9Ua3HqCo5apuKVlfHPyeE/6Mc416t10nUGs6fjilee9SkutMGVRAvptNEkiEc8so7vfx3D6/DZGHcGX+JSP8/GBnlreVtBpuhZ7Al9DXfoOKysShpGFjUWwwUMQD+588jKW16s+0W5ZghebUdLwMUuPUYCxPyPEHrsOS5/eAHaAfIYkB651VZt7jaU+mqMLSTrY1ywqO7tDfo2tEF88nhT6hYn5fgOc2jS6qtpNXrtXXA7KkCIzgcGWU+ZJD+LHkn88D7qtNqdJUSnrasdeBfiYIOXkf8AjkkPxFvxJyRxjAYxjAYxjAYxjAYxjAYxjAYxjAYxjAYxjAYxjAYxjAYxjAYxjAYxjAYxjAYxjAYxjAYxjAYxjAg+q9dY2vTm+oV+TPNUZoVHu8kLLMsY/vdvA/PMs+zbq6tqJZtHs5BFStz+tWsSN2pWtEBWSUt7K3A8/I/3uV2/Ma+07pCOqZOpNdGFhmlC7WFF4VJZW7Vsr444Y+H/ABIP73gNkBDKCDyrAMpHkEHyCCMjK8nZtrNCIqIKutqWDGB8QktWLChifxEZyI6SoauXR6DZiuIZ5aNeeURzTJX9YL8cogVhCOTyT8GQ022L7n7R560qSVKuo08kkoMhQ14KtqwUiZCBw5bjw3nu8e/fGErs57PUtr9DUHZdZEyybK5GVKuVbgJGT7qCDx9SOf2IyLEpuLadOdO7K3TiTjXUiasbk9neOETvPPJ8nlvPn+fOc+o0N3X0IYBvNj6jokkzLX1iqJmQBvTVqpYL/CCTwAB7LnNuelrmwobGGTqLqCw0lSykVd5dfFXlkaM9iyrWqxkjnj54Dpjq6vuWl12wanW3tVik1evOkkFkAd4lqMHYEcftDkkZY7E5rCOR1JgMipM//dBvAkb+zz4P0559h4ztek9LuOk+l9hrdZV+/wBSlUtlK5as99lRfvFd54/j7iQxjYnwwHyY8zFDpbSbKlWtVt31RLr7tcFK8m3siL0nXtaJ0Hnx5VgT8iMDvGnvaSxPb6cET055XlvaSRhHA8jeTLQlPIjk+qn4T/Z45EzR2VO+r+l6sc8XAsVbKGK1Ax+UkR8/kRyD8iffK7U6J09GawtE7KgHPfHY1mxtROy8g+lYRnMbFf3SVPIPnyOWlBpbqN6n6c2Es6DiCW3X1Mrw/UKy1Fbg/PzgTeMimr9TDtEW113AHDGfVyux/HmO2i/6Z+DX6u48bbTc/jp7R/4bDAmMz3qkq2/6hQt7fZlvG4+gawRz/Pg5O2KP2g/tVt9pif4JNRLEg/xfeZGykW6/VU246hj297Xtsp9RpumYJaMb+iibjYhwSrBW5VElc4Ft6oD3dXp+najds3UEtapyvh4ddXVbFqcDjt4VQq8c+8gGWGzKmtpxrWrtKyCOtSqxeDK/b2pGDwQAOOWPyAJ+WV/X6bfWX/Sk+9kWzPClWGePXUltDXRuzJ2l1aNTJyHfiP3C/wAHA7m6V1tgN+kb262PcOCLmysxx+/niGm0UPn+5ge+u160TZv7KxFLtLgDXbRIjijjTytasHPKwp+6Pn5Y+WOQ2x3evv2p0mu163TGqk/60uSyBV2l2L9Yuurk+GReO6XgEseE44J7oDc6np23sT0t0tp9aL7Lzudm1cTpqqxHDBGk5/Wt7Dz45+RJaKwL0P0vUWpVpa1OZWijt2bLyzutWLhpQnqsUVpTwjdqjkM308BVtHNYm6rp7O3RvGwmsv722kMQnlSXaS+jBH2I/d2pCIwPn49su0m+ksxULNLWbIp96rgvchFKHiZvuwDtOe/3ceyN7ZydKILm1653p/8A3e4GrrH3BrayMQB04+THn/LO3Rq13RtFJ5aPbbaIhj7Ctt5u0fyCjAqnQNH/APib7QLdxUfYUrq0kaPuaOKOSWbuWIyDu44RVX8B+OablI6Mr9m5+0q0W8zdRPX9M/uiDvkD8/2vU/0y74DGMYDGMYDGMYDGMYDGMYDGMYDGMYDGMYDGMYDGMYDGMYDGMYDGMYDGMYDGMYDGMYDGMYDGMYDGMYDOTY0a2zo3qFkcwXK8teXj3Accdw/EeCPyzrxgZXraF1+ktxHZ2Ds3TcO7ozVOGdTPQWV4+Ukb0O3jsI5ib3988XMEtv7Q4K8srJt7X2eU4JJHaZ3S92Fu5n8nlS3/AN+01tYTrOqrVZiBreu9XYoSc8dqbSvAYVPHt8YYL+Jf8Mpejhnu7fX1JZJONhH0ZYZopHif06VFj3LIhDhl7Ph4PywN0zjayY78FZuOyzWmki/8SB07h/kwP8j9Mjk6cQE+pu+o5R+6r7OWMJ+RrhG/zJyO3egEFP77U227gtU7NawLL7C1b9CHvEUzCCw7RcdjMSO3z24HEnUNLpOGfRfdbVzYxbLYfovXa9Hlnlp2JTbiZiBwFAft9j+x+Hw82t6psai5d/T+i2Ok1uxmFuOWTutVK12U8zBpY0HCyHhuO3wxf+L4LDpOn101yzbktT7C9souL+wt9vrvJE3KKnH7MfB4Cj+AfT4Zq3Wr3a1irYXuhmTtceOR8wy8/MHgj8RgQNnrLTlkraTnebKVUMNTVsGQBuT32LRHooo+fJ5HPt9Pv6X64Qjv6PicH3+7byoxH5iaJP8Ajknp0hhrvXFevBYrymK0taGOFJJAPE4SMAcOOGH58fLJPArg6g3UKg3+kt3GSeAaMuuvrx9T6U6t/wCTPeLqWjICZNf1BBxzyJtJsyfH/gwvnXcvtr5Elsr/ANXOO2WyoJ+5v8msKP6o/wAXy+fg9yd6srqrKQVYBlIPIII5BBwIZ+qNHEjPIu3SNRyzPot4qgfUsavGVijNR2+5r7b1a4o7Dc39lBLO4j9atqKSaiuI1lIby8s0n7P7vy4y+2J4q0FizMQsVeGSeVieAqRqXYk/yzN6Gl6f2SbEdR1lNXQ6fTh5JZ5ovQtWopdrdkLwsASTKnPvz2j6+QvN/c6bWV/Xs2q4VuFrxpLGZrL+AsVdO4csfAH+vA85U+qutmrNU0mnSWxu7yxica/tsyUo3Hc4i7Phabjnt+Q9z+MXpPs/0e1t3Npa1U1HSyxiLU697Fn71KnPP32yzSd4Lfurz458/s8vdtL0p010+8smspCKeRex55Hklm7PftVpSeB9QMCo6j/9QNTVNfS9GVK8MhE0kuz2UM12zKRy81lxIjFj/dHHtnbN1r1PqKtyTqHpO9WMUEjRWqLpapeqfEYnZSQikkDn1D7+2X/K9vozsb2g0qk+lLaXb7IAgj7lrnWRI2B8/HKYh+St/DgU3URdW3NNqdDVpX9FqE9JNttLzGLY25bM4MsdSJvjXvZ24Y8+Pn+68h0XoaUuoF2DYbqtFJf2oiSvspkheBLUsSs0X7HdwPJ7R9ctO4uR1pK7ycejr6uw3lv5n0qcJRRx+JfuH9zKxMl3R/Z3q9bAjLtNpBV1kEbnhhc20heRST7EB34+nH4YHX9n59eHqu9HLNNVudSX3pzzkNJPCiRoJSwA554+nyy7ZG6PVwaXU6zVweUpwLGzAcepLz3SScf2mJP88ksBjGMBjGMBjGMBjGMBjGMBjGMBjGMBjGMBjGMBjGMBjGMBjGMBjGMBjGMBjGMBjGMBjGMBjGMBjGMBjGMCm/aFT2E+lq3ddDLLf0+zp7SuIY2kkHpEgkIPJ45DH8soPQf6Sm6g1s1yhsESukVWKaOnMYQYa9mICaQ8Bf2vP5fLNwxgM/EiJKjxuAySK0bqfZlYcEHP3jA/ESCKOOMEkRoqAt5YhRxyTn7xjA8/TX1RKPDlPTbj2ZQeRz+Xnj889MYwPhAI4PBB9wfIIyJio2NbJzrT3UGctJrn/ZhB8lqLn9kfWM/D9Oz96XxgRu3jltau3Wj5BurFTbn4WWOzIsEjHkfIMT7ZC6PVLdh2Fy8sxiu9SbTapVnRkWRYZRVqtNHIO7hVjV1HtyQfkO22YwGMYwBzjr0xDYvXJG9SzbaMM3nhIIu4RQp+A5Y/m7H5+OzGBEbDVffzYjkZTFcmpR2wQfNGsxmMA4/jbkN+Dn6Z829X71c6UDL3JW3LXXPB4Hpa+2qH/eZcmMYDGMYDGMYDGMYDGMYDGMYDGMYDGMYDGMYDGMYDGMYDGMYDGMYDGMYDGMYDGMYDGMYDGMYDGMYDGMYDGMYDGMYDGMYDGMYDGMYDGMYDGMYDGMYDGMYDGMYDGMYDGMYDGMYDGMYDGMYDGMYDGMYDGMYDGMYDGMYDGMYDGMYDGMYH/9k=;shadow=1;flipH=0;textShadow=1;" parent="N3tuldMV24hy1_GBqyLN-5" vertex="1">
          <mxGeometry x="669.99" y="255.14000000000001" width="78.95" height="56.92" as="geometry" />
        </mxCell>
        <mxCell id="N3tuldMV24hy1_GBqyLN-28" value="" style="shape=image;verticalLabelPosition=bottom;labelBackgroundColor=default;verticalAlign=top;aspect=fixed;imageAspect=0;image=data:image/jpeg,/9j/4AAQSkZJRgABAQAAAQABAAD/2wBDAAsJCQcJCQcJCQkJCwkJCQkJCQsJCwsMCwsLDA0QDBEODQ4MEhkSJRodJR0ZHxwpKRYlNzU2GioyPi0pMBk7IRP/2wBDAQcICAsJCxULCxUsHRkdLCwsLCwsLCwsLCwsLCwsLCwsLCwsLCwsLCwsLCwsLCwsLCwsLCwsLCwsLCwsLCwsLCz/wAARCAFoAS4DASIAAhEBAxEB/8QAGwABAAIDAQEAAAAAAAAAAAAAAAYHAQQFAgP/xABUEAABAwMABgQIBwsKBQQDAAABAAIDBAURBhIhMUFRE2FxgRQXIiMykZShBxVCcrHB0hYkQ1JUYmOCotHxMzRTVXN1krLT4TU2k7PwJUR0tIOj4v/EABoBAQADAQEBAAAAAAAAAAAAAAADBAUBAgb/xAArEQACAgIBAwQCAgIDAQAAAAAAAQIDBBESEyExFDJBUSJhQlIFoSMkcfD/2gAMAwEAAhEDEQA/ALbREQBERAEREAREQBEWEBlYXDuOlNjt5fGJfCahuR0VLh+DyfJnUHXtz1KJ12mV6qtZtMI6OI5HmvOTY65HjHqaFPXj2WeEVrMquvyyxJqimpmdJUTRQs/Gme1jfW4hcKq0w0ep8iOWapeOFNEdXPz5NVvqJVbyzT1DzJPLLNIdpfM90jvW4leFdhgxXuZRnnyfsRMqjTqpORSW+Fg4OqZXSE/qxho/aXLm0t0ll1tWqjhB4QQRjHYZA53vXBRWY41cfCKssm2XmRt1FyulX/OayeXZue4Y9QAWnhZRTpJeCBtvyNqxhZRdOGWlzDlhLTzBwV0IL5fqYBsNwqGtG5p1Ht9T2lc5F5lFS8rZ6jJx8PRI4NMtIYv5Q0lQP0sOofXEWj3LrU+nUBIbV2+RnN9NK2Qf4Xhp96gyKCWNVL4J45VsfktSk0l0erC1rK2OKQ/g6oGB2eWZPJ9RXYBDmgggg7QQQQewhUnsW3R3G50BDqOrnh251WvzGT1xuyz3KtPB/oy3DPf80XFyRQOg04qGarLjStlbsBmpcMkA5ujcdU9zh2KW0F2tVzbmjqY5HYy6I5ZM350bsO9ypWUzr9yL1d9dntZvoiKEnCIiAIiIAiIgCIiAImxNiAImxNiAImxEARa9XWUdDA+pq5mRQt3ued5O5rQNpPIBQC8aW11aZIKDXpKQ5aXAgVMo/OcPRHUDnr24U1VM7X28EFt8Kl+XklV20ltVrL4tY1NW3I6CBw8g8pX7QOzaepQa56Q3m6azJZuip3ZHg9OSyMj8851nd5x1LkItWrGhX+2Y9uVOz9IfVuREVoqhERAEREAREQBERAEREAREQBERAFlrnscx7HOa9h1muY4te0ji0jasIgJRa9MblS6kVeDWQDA6TIbUsHPW9F3fg9anFvuduucXS0c7JAMdIz0ZIyeEjDtCp9fSCeoppWT00skMzPQkiOq4dWeXUqVuJGfePZl6nMnDtLui6UUOsumEUxjprtqQykhrKpg1YH8B0o+Sevd2KYAggEEEEAgg5BB27MLKnXKt6ka1dsbFuJlE2JsXglCJsTYgCJsTYgCIiAIiwThAZ2rkXm/UVni8552qkGYKZjgHOH4zzwb1+pamkOkcNqYaanLJLi9oIadrKdrhsfKBx/FHfu31xNNPUSyTzyOkllcXSPecucTxP1K5j4zs/KXgoZOUq/xh5Ni4XKvuk5qKyXWIJETG5EULT8mNvDr4nitNEWuoqK0jGlJye2wiIvRwIiIAiIgCIiAIiIAiIgCIiAIiIAiIgCIiAIiLgC79j0lrLSY4Jtae35x0WcyQjnATw/NJxyxx4CLxOEZrjIkhZKt7iy5aOrpa6COppZmywyei5uzB4tcDtBHEELYVR2m711nqOlpyHRPI8IgeSI5gNmep3I49Y2Kz7dc6K6UzKmlflp8mRjsCSJ+NrJG8Csa+h1P9G3j5CuX7N1ERVy0EREAREQBR3SPSFlqiNPTlrrhK3LAQCKdh/CPHP8Ud52DbtX69Q2elL/JfVzazKSI7i4Da9/5rePq47KummnqJZZ55HSTSvL5Hu2lzjx/8+pXMbH6j5S8FDKyemuMfJ5e+SR8kkj3Pkkc58j3nWc5zjklxK8oi2EtGK3vuwiIugysLKwgCIiAIiIAiIgCIiAIiIAiIgCIiAIiIAiIgCIiAIiIAt62XOstNU2qpjnOGzxOOGTx5zqu6+R4e46KLzKKktM9Rk4vlHyXDbrjSXOljq6Z2WP2OacB8Ug9KN45j/fcVuKpbNd6mz1YmZl9PJqsq4c7JGD5TeGs3h6uOy1Keop6qCGop5BJDMxskb27nNP8A5tWJfS6n+jdx71dH9n2REVctBa1bWU1BTT1dS7VihaXOx6TjuDWjmTsC2Sq30svBr6s0UD80lE8glpyJagZa53Y3a0d54qamp2z18EF9yqhv5ONcrhU3SsmrKg+U86sbActiiBOrG3qHvO3itNEW7FKK0j56UnJ7YREXo4EREAREQBERAEREAREQBFlrXvcxjGPfJI9scbGDL3vccBrRzKntm0OpYWR1F2a2oqTh3g5200B36pA9I8ydnIcTDbdGpbkT1UStf4kADg70Mu+YC7/KCmsM4yM8jsPq3q6o4oomhkUbI2AYDY2tY0dgaML4Vdut1cwsq6WGYHjIwFw62uHlA9hVJZ/fvEuP/HvXaRToRSTSDRmS1g1lGXy0OQJGvOZKYk4Bc7i3hnhxzvUbV+uyNi3EoWVyrfGQREUhGEREAREQBERAEREAREQBSTRW9/F9QKGofiiqpBqOcdlPO44DtuwNduPXg81G0IBBB2g5BBUdlasjxZJXY65ckXYsqMaJXk19KaKofmsomgBzvSmp9zX9o9F3ceKk6wZwcJcWfRVzVkVJHB0nuxtlvc2F+rV1hdBTkb2DHlyjsG7rIVYbl1b/AHI3S51E7XZp4vMUvLomE+UPnHJ7xyXKWxjVdOH7Zh5V3Vn28IIiK0VQiIgCIiAysLKwgCIiAIiIAmxEQEr0Kt8dRWVVxlALaINhpwdwnlBc5/aG4A+cVYSiWgxZ8WVwHpNuEmt3wxYUtWFkycrXs38SKjUtBERVy0eJY4pY5IpWh8UjHRyMdtDmOGqQVT1xpTbrjX0DifveZzYnO3vicNdhPXghXIqo0zLTpDXBu9sNIH/P6IH6MK7hyam0UM6CcFI5KL5xya2Gn0uHWvotdPZjNaCIiHAiIugIiIAiIgCIiAIiIDZoK2e3VlLWwZL4H5c0HHSRnY+M9o9+OSt6lqIKunp6mB4fDPG2WNw4tcM7frVMKaaF3Zkbau2VEjWsYDVUznkABrnBskeT1kEdp5KhmVco815RoYV3GXB+GQtERXzPCIiAIiIAiIgC6FptFfeKh0NNhkceqamokBMcIO4AcXHgPXjjznHVa4gZIBIHYFbdkt0dstlFStbiTo2y1DuL55AHPce/Z2BVcm51R7eWW8ahWy7+Ec+k0N0egYBPFJVyYGs+pkfgnqjjIYPUvVTofo5MwiKnfSvwcPppXjB+Y8lnuUhRZPWs3vZsdCvWuJU95sdbZpmiUiWmlJEFQxpDXEbdR44O79vA8BylcFzoIblQ1dHIB56Nwjcfwco2seOw4/8ACqda5xLmvGJGkteOTmnBWpjX9SOn5RkZVHSluPhnpERWymSbQ65Mo6+WjldqxXAMawncKhmdUH5wyO4c1YypPHbnYRjYQRtyFMrPpmIWR093bI9rcNbWRN13Y3efYNp7Rns4rNysdt84Gnh5KiunMnaLnQ3ywTtD4rnQlp/GnjY7va8h3uWtWaT6N0TXGSvhleASIqM9PI48vN5aO8hZ/CTekjTc4pb2dSpqaekp56qoeGQQRuklcdwa0fSdwVLV9ZJcK2trZAQ6pnfLqk51Gk4azuGB3Lq3/SSsvbhEGGChjdrRwB2XPcNz5nDYTyG4de9cFaePS61uXlmXk3qztHwht5r7sfnY7fwPNfBOtXEUWjaJABJIAAyc7MAc1KbHojPXxRVlwfJT00gDoYI8NqJWEbHyOI8kHgMZ7FydGaJl0u9HTzN1oYGvrZwQMPZCWhrHA8C4tz2FW0Nyp5WQ4fjAu4mMp/nM4jNFNF2NDfi6N3N0kkz3nrLnOyuXctCaKRjpLZI6nmAJEUz3SQP6suy8duSOpTBFnq6ae9mlKitrWilpoZ6aaWnnjdHNE4skjf6TSOf0gr5qb6dULGxUd0jaA9sopKnG97HgujcesEEfrdSg4IIBG4rZpt6sORhX1dKbiZREU5CEREAREQBO3PccImFzyPAREXQEREAWVhZQGFlYWUB5JwM4zq4djng5V1QyMmihlYQWSxskYRtBa4AjCpZTnRO/wiGK01kjWSR+TRSPIDZI94hJOzWG5vMbN420M2tyipL4NDBsUJOL+SaIsZWcrJNkwSACXEAAEknYABtyqNnlbLUVMzMhss80reoPkc8fSrC0u0igp6eotVHIHVc4MVU+M5FPEdjmkjZru3Y4DlszXHYtLEg4pyfyZWZYpNRXwbDZGlpLiARvye5dOmsl/qw10FtqixwBa+VrYWEHjmYtPuXe0HslPKx96qmCRwlkht7XjLYxGdR8wB2axOQDwA61P8L1bmOL4xR5pwlNcpMreDQrSCQAzS0NOOOZJJnjuY0N/aXubQi+Mz0FRQzjhrOlhce0Frh71YuEVb1luy16KrWiqZNC9KNbyKWlcP8A5Uf1hGaFaVO2GCjjH59UMfsMKtXYmxPV2HfRw/ZW7NALyWEvuFA14xqsbHO9p7XnVP7K06jQvSiDJZDTVLQM/e9QA4/qzNb9KtVFxZVqOvDrfYpCqt9zoSBW0VTTZOqHTRkRuPJsgy33rWV6TQwVEUkM8bJYZGlskcjQ5j2ngQdiqPSK0ts9zlpo9Y08rG1FLrHJEbyRqEnb5JBHqVujI6j4vyUr8bpLkvB0dBZY475IxxGtUW+ZkfW5kjJMerJ7lZ6o2lqZ6KppaundiamlbLGTuJGwtd1EZB7Vb9ovFBeKVs9M4B7QBPA4jpYH8WuHLkdx+ivlwalzXgs4di48GdNEyNi+c08FPFJPPIyOGNpdJJI4NY0DiSVSL5GtOpWR2QRnGvPW0zGDj5GtITju96rJjyw/mneP3Lt6T3wXqtaYdYUNKHx0wcCDIXEa0rgdu3Ax1DmVwlsY0HXDTMPJmrJ7RtgggEbc7VlarHlh6jjP+y2QQQCDsKtp7KbWgiIvRwIiIAiIgCIiAIiIAiIgCIpdopo9SV0RudwjEsXSPjo6d4827ozqulkbx25DRu2Z47IrbI1x5SJaqnbLjEiMeZXBsTXyuJwGwtdI7PYwErdFnvrmF/xXXmPiTTuB/wAJ8r3K3IoYYW6kMccbPxY2tYPU0YX071Qec/iJox/x6+ZFUQ3XTO2tEcLrn0TcBsVTRyzhg5NMsZdjqysVF604r2GJ3xpqOBDm0lDLDnmC6OMO/aVsd6d6h9RHe+CJljS1rmylviXSAM6Q2i4hnPwd2t/h9L3LnuJaHEAkgHVHN3AK6L3WeAWm6VYOHx0z2xHOPOyebZ7yFVVho/DrzZ6UjLBUtnmB3GKnBmdntIA71bquc4uTXgp3UKElGL3stez0Qt1rtlFjBp6WJj+uTGs8+slb651zvNqtEYfWzhj3AmOFnlzyD8xg246zgdag1y05ulQXx26NlHFkgSODZagjtcNQeo9qz4VTte0jSndCpabLHkkiiaXyvYxg3vkc1rR2lxwuVPpLozTktkulKSN4hc6f/shyqSqq6qqcZayplmcPl1Mrn4zwGucBZgpa6q/mtHWTjh4PTzPb/ia3HvVpYaXuZUea2/wiWc7TTRYHAqZ3dbaWox+00L2zTHRV++tfH/aU1SPeGEKu26P6TP3Wev8A1mRs/wAzwvD7HpHH6douA62wl4//AFkrrxqvv/Z59Td/X/Ra9NerFVkCnuVHI47m9M1rz2NeQfcuiqHlY+J2pURyRPzgtqI3xuz2SALfobzercW+B1s8bRtEZd0kJ7Y5Mt9y8yw/6s9xzddpxLpUJ0/o9elttc0DWgmfTSEb9SYazST1FvvXztenkTy2K7QdETgeE0oc6PlmSI5cOvBPYpBd46W82G4tpZY5mS0zpqd8Lmva6SLzrQCOORjvUEYypsTkixKUbq2osqWKGpqZGxU0E08rgSI4GOkfgbzho3Lb8C0htsjJ/A7pSyNGWyxwzNIB/PiyO7K+2jlZ4Fe7RPnEck3gsvLo6gdHt7CWnuVxK5fc65a1tMo0UKyO990VO3S/S2NoYap7iNgMtEwyDv1B9C06mo0nvTm9M26VmDljG003RNduyGMYIwevCuVO9VlkRXdQRaeNKS1KbKTntV5pgXVFsr42gZLnU8jm9uswELSDmlxbnaN7TscO0b1fK06y2WyvY5lZSU8wcMZkYNcdbXjygewqSOZ9ojlhf1ZSa9MeWHq4hdbSGz/EtwdTsc59PMwT0rn+l0ZJaWOPNpGPVzXHV+MlJckZ04OL4s2wQRkHYUWsx5YebeIWwCCAQc5UqZC1oyiIunAiIugIiIAiIgCIiAw4uAOqMuxho4lx2AK4bXSNoLdbqMb6emijd1vDcuPeclVhY6Tw282qAjLBOKiUEbOjp/OkHtIA71biy86fdRNXAh2cwiIs41AiLGf/ADCAhun1Z0dFb6Jp8qqqHTvwfwcA3EdZcPUoTbLnPaZKqppmN8Llp/BoZZMOFO1zg572sIwXHAAycDG4rqaZVraq9zxscHR0UUdI0tII1xmSTvBOD81cSioa65VUVFRR9JPINY62yOKPODLK7g0e/cNq16YKNSUjGvm5W7ifOWWoqZjJK+WepneBl2vLNK87gAMuJ5BSe1aEXSsDJrjJ4DA7BELQ2SrcN/lZyxvvPUFLrFo1b7KwSgCe4ObiWqkaNYZ3shb8lvvPErbut9tNnYDVz+ecMx08Q1539YZwHWSAq88lyfGpFiGMorlaz42/RnRy3aroaGJ8zfw9V5+bPMOlzjuAXZ2NGdjWgdQAH0Ks7hpxeaouZRNjooduCA2WoI/Oe8ao7m96jdRWV1W7WqqqonceM0sj8dgcce5eVjWTe5s68quC1BF0Or7aw4fW0jDyfURA+9y9R1VHKcRVNPIT/Ryxu+gqjcNHBo7ggDRtAAPMDH0L36JfZ59c/wCpessME7SyeKOVh2FsrGvae5wwo5cNC9H6vXdTRvoZjkh1L/JZ3+VC7yPVhV7SXm90Bb4LcKpgbtDHSGSLvjky33KWWzTw5ZFdqcYJwamkB2db4SfoPcvDotr7wZ7WRVb2miO3fRu82fWkljE9IP8A3VMHFjR+lYfKb7x1rVtd3uVon6ailw1zmmaF+XQTAcHs+gjb9dw01VR10DJ6WaOeCQEB8Z1mnmCOfMFQ7SLQ2N4lrbNG1koy+aibgRycSafgHdW49R9L3DIUvwtR4sxnH86mQKVzXyTPhb0QdI+SJmtrGPLi5o1scNnBXVa6xtwt1urWkffNNFK7HB5aNYdxyqTOQSCCCCWkEYLSNhBB25HFWToHWiW2VFC5w6SiqZCxuRnoJvOAgb8AlwXvLjuHJfBHhz1Nx+yXoiLMNYIiICG6fUfSUNBWtHlUtQYn4H4OduMnvDfWq5Vz3uj+MLVc6QDL5aZ5iGPwrB0jPeAqY5LUxJbhr6MnMhqe/sL0x5YeriF5RXCizaBBGQdh3LK1mPLD1HeFsAggEHYV7T2RtaMoiL0cCIiAIiIAiIgJhoLSa9Tc65w2Qxx0cRI+VJ52THcGKe7FHtDoGRWKkkHpVUtTUSE/jGRzAO4AKQrByJcrGfQYsONSPlPPT0sUk9RI2KGIa0j37GtGQMkr6jCiendX0VnZSA+VX1DInDnFEOld7w0d67NgnkqrJZaiQkySUNOXk73ODQ0k9qjcGoKZKrE5uB01HdKr38UUOpA8CurA+On5xMA8ubu3N6yOSkLi0AlxAaASSTgADaSSVTV9ub7vc6qryehz0NID8mnYSGeva49qlx6upPv4RDk29OHbyzRggqquogpqZjpampk6OJvFznZJc48htLirdsVjpLJRiCLD6iTD6yoIAdPLj1ho3NHAdZyeBoNZ2w077zUM89WNLKMOG2KkB9IdbyM9gHNdTSm+/E9G2OnLfD6sObBx6Fg2OmI6tzevmGlS32OyXTj4IsetVQ6s/Jp6S6VttxfQW4tfX4xNKQHR0uRuwdhf1bhx5GuJZJZ5JJppHySyOL5JJHFz3uPFzjtXklzi5ziXOcS5znElznE5JJO3KwrtVUalr5KNt0rXt+BxAAc5znBrWtaXOc5xwGtA2kngprZ9BpJmMqL1LJEHAObR07g2QD9PKM4PU31r1oNZWSmS9VDA7UfJBb2uGQ1zfJkn7d7W9h5rY0o0qqKaaW2WuTUljyyrqhgvY8/gocgjI+UcbNw3ZEFlk5S6dZPVVCEOrYd5mjuiNI0B1tt7QflVIa9zu10xJ96+VTolotWMJZRsgc4eTLRPMWOvDTqHvCqmR8kz3STPfLI4kufM50jnHmXPJPvWxQ3G5W2QS0NTLA4HJa05ieBwfGfJI7lx48/Kn3O+pr8OHY6t90XuFlzO13hNAXY6drdV8OTgCdg2frDZ2ceArasN7ptIKOZs0UYqYmiKtpyNaNzZARrtDvkO27Du2jbjJrvSC0/E1zmpWa3gzwJ6Qu2noXkjUJ5tOR3da90Wyk3Cfk8X0xSVkPBr2y63G0VAqKOXVyR00L8mGdo4SNHHkRtH02rZr1Q3qm6enOrIwhlTA8gyQP5HG8H5J49owKcW5bLlWWmsiraU+UzyZIySGTxE5dG/t4Hgdq9XUKxbXk80Xut6fgmul+jjJmTXehjxURtL66Jg/l42jbK1o+W3jzHWNsKttxqbXWU9dTHLojiRmfJmhd6UTuo8ORAPBXFQ1lNcKSmrKZ2tDUMD2Z3jgWuHMHIPYqw0qs4tNxc6FurR1uvPTgDyY3A+ci7ATkdRHJQY9m10pljJr1q2BaNFV01fS01ZTu1oaiNskZ44O8EcxuPYthV9oJdCyaptErvIkD6ujzweMdLGO3Y4d6sFU7YdOTiXabOpFSPlNUU9OI3TSMjbJLFAwvONaWV4jYwdZJwF9VCPhAqKiGKxsicQRUzVbcf01MGdGe7WKmFHUMrKWkqmehUwRTt7JGB/1rjhqKl9nY2bm4/R91TF8o/ALvdKUNwxlS98Q5RS+dZjuOO5XOq209gYy50E7Rh1RRua/rMMmAfUfcrGJLU9fZWzI7r39EQ2JsRFqmSF6Y8sP5p3j615RDmjaBBAI2g8VlazHlh6jvH1hbIIIyNoK9p7I2tBERejgREQBZWEXATKzaWWe12ugoaiGudLAx4e6GOJzCXPc/yS6QHjyW/93uj/APQXL/owf6q4Vt0QmutvpK4XCOJtSxzxGaZzyzDi30hIOXJbHi9qv64h9id/rLMnGjk22a1c8jikl2OfpVpBb72y3MpI6lhppKh0nhDGNzrtaBq6j3cl17RpjZLfa7ZRSw17paWlihkMcURYXNGCWkyA47l8PF7Vf1vF7E7/AFlnxe1P9cRexO/1kbocVDfZBK9Sc0u7PpeNNbbV22upaGKtZUVMfQNfMyJjWseQHnLZCc4zjYoZQUT7lXUFvZkeFztieW72wjypHdzQVvX2ymx1NNTOqxUvlgM7i2HoQwF5Y0YL3ZzgrraBUgluldVuGW0dGI2HlJUu3juafWpVxqqcoEUudtqjMscCCnhDRqxwQRADg2OONv0ABU3eLlJdrjV1rs6kjtSnafkU7NkbfVtPWSrI0vrTR2KsDSQ+rdHRMOcHEpOv+yHKp1Fhw8zZLmz8QQWCdUE8gT6l6Xl/oP8Amu+gq+jOLftLW27Ru3OYB972llSQdxd0PTnPeVURe+RzpJHFz5HOke473PcdYk+tW8z/AJYZ/cLf/pqn27m9g+hUcXu5Mv5fZRRlFlFeKJ39D6iSDSChY1x1auOoppRwI6MzNPcW+9d/4QYWmGzVGBrtmqICebXsD/q96jOi/wDzFY/7af8A+tKpXp//ADG1f/Nf/wBlyo2dsiJerf8A15FdoiyrxRJjoLdDDVVFpkd5qqDqilB+TOwecaPnDb+qealGlVuFxs1WGtzPSDw2A8daIEuaO1uQqrpap9FV0Vaz0qSoiqN+MtY7Lh3jI71eDXRyMa5pDmSNDhyc1wyszJj07FNGpiy6lbgykaGqfRVtDWxelTTxTDHymg4c3vBI71Yn3e6P/wBBcv8Aowf6qr2403gVwuNIN1PVzxM+Y151fdhd2zaIyXighr47kyESPmY6I0pkLHRSGMjWEo5Z3cVZujXJKcyrTK2DcK0Y0qv9uvgtopI6lhpjUmTwhjG56QR41dR7uW1dm1aZ2Sittso5oa90tLSQQSGOKEsLmMDSWkyA47l8PF5Uf1xH7E7/AFk8XlR/XEfsTv8AWULdDio77ImSyFJzS7v/AO+zqfd7o/8Ak9y/6MH+qorpTe6C9zW6SkjqGCnjnZJ4QxjSS9zSNXUc7kut4vaj+uI/Ynf6y4N+sL7C+iY6rbUmqZM/LYTEGdG5oxgvdvyvVKpU1wfc5dK9wamuxxUWVhXigEREAXpr3s3bc8CvKIc0baIilIgiIgCIiAtPRT/l6zf2Mn/deu0oXY9JrBbrTbqKqqJGTwRObI1tPM8Al7nbHNaRxXS+7PRb8rl9lqPsrBsrm5tpfJ9BVbBQSb+CRIo792ei35VL7LUfZT7s9FvyqX2Wo+yvHSn9EnWr+yHabSF9+mb/AEVLSRjqBa6T613fg9ixR3ibjJXRx56o4WnHvUU0kraO43irrKR7nwSx04a5zHMOWRhhGq8A8FMPg/cDa7i3i25PJ/WgiV61NUJMoVNSyG//AE+HwgyOEFlgB8l81VMR1xsYwH9oqv1O/hCac2J3DFc3v8yVBFLi9qkQ5Xe1gnA4nqAyTwwAFMLfoFW1VO2WvrfBJJW5bBFE2WSMOH4Vzzq63MAbOaj1lY196sLHgFpuVLkHcdU6wz3gK6cKPJulBpRJMWmNm5SNMULW20W4SHVFCKISao1sCLodfV3daiI+DyAAD43qdgA/m8P71Ou5FnxsnD2s0Z1Qn7kQXxeU/wDW9T7PD+9PF5T/ANb1Ps8P712rxpVabPP4LIyeepAa6SOnDMRNdtGu55AyRtA+jO3oWq7W+8U5qaNzi1rzHKyQassTwAdV7cntG1Tu29Lk32IFVQ5cUls4Nr0Khtlwoq8XKeY0r5HiN0MTWvLo3R7XNOeOV1b/AGJl9gpYHVT6cU85m1o42PLiWFmqQ/tXZRQu2blyb7k6qgo8UuxU190YrrI1s/Sipo3ODDM1hY+Jx3CVmSMHgQfVx4CuLSJjH2K+Nc0EChneAfxmDXae4gFU6tPGsdke/wAGVk1KuX4/IIyCDuIIPerk0fmNRY7HMTkvoKYHtawNP0Km1b2izS3R2wgj/wBnG7ucS4KLMX4olwvcyv8ATCMR6Q3PA2SCll2c3QtB+hSzQB+taKxn9Fcp8dj4on/WVF9NCDpBWD8Wno2nt6PW+sLf0RvtmtFFXxV0745J6zpmNbDLINQRRszlgI3grs05ULX6FclDIe/2WOijv3Z6LflUvstR9lPuz0W/KpfZaj7KodKf0aHWr+yRKvvhB/nFk/sKv/PGu/8Adnot+VS+y1H2VENLrvbLvNa30Mr5GwRVDZdaKSPBe5hA84ByKnx65qxNor5NkHW0mRhERapkhERAFlYRAbaIilIQiIgCIiAw5ocMHuWs5pacH+K2lh7Q4YPd1LjWzqejVRenNLTgheVGSDap18Hs4Hx3Sk7dalqmjqLXRO+gKCrvaJVoor7R6xxHWMkoX53B0mHRn/EAO9QXx5VtFjHlxsTZKtPafpLZRVIG2mrGtceTJmFh94aq3V1XahFyttwouM8DhGTsAlb5bCewgKliHtc5r2lr2Ese072uacEHsUOHLceP0T5kNT5fZv2L/jlg/vGn+tXQqYsX/HLB/eNP9audQ5nuRNhe1hCiFUi+U9pLHLHfryJQ4F9T0rNb5Ub2NLSOr9yknwexy4vs2HdC59JE1x9F0rGvc4DsBGe1a/wgDFdaDjGaSYa2N+JQcZ6s+9STQ4Y0ctBx6Tah42bw6eQh3etCye6EZtdeshkhREWeaRy7/wD8Dvn931X+Qqm1cl//AOB3z+76r/IVTa0sP2sys33I8v1tV2r6WCGjm47AFeFupvA6C30mMeDUtPAe1jA0qqNG6A3K926EtzDTvFdU8QI4CHNB7Xao9fJWxW1UdDR1lZLjUpoZJ3DdnVBIaOsnAC8ZctyUUSYUdJzZU+ktQKm/XmQbQ2p6Af8A4GNh+orkL0975HvkkOXyPfI883POsV5V+C4xSM+cuUmwiIvR4CIiAIiIdCIiAIiIDbRZIc0ua4Frmktc1wwQQcEELCkIQiIugIiygMIiygPLmhwwe48lruaWnB7utbS8uaHDB9fJeWtnU9GqgLgWuY4te1zXscN7XtOs1w7DgrLgWnB/isLxr7Jf2XLZLmy7W2krBgSOb0dS0H+TqI/Je36x1EKDaaWd1HW/GcLT4NXP89gHEdVjbnqfv7crT0WvnxPXGOd5FBWFrKjO0QyDyWTDq4O6vm7bPqqakuFLPS1DGyU9RHqPGd4O0Oa4cRsIKy5bx7Nrwa0dZNWvkpu11EVJc7TVSkiKnrYJZT+KwO1XHuznuV1hzXBrmkFrgC0gggg7QQQqdvdlrLJVGGbL6eQuNLUgeTK0fJdjYHjiO8bN3ug0k0gtsLaemq/MN/k4542SiMcmF/lAdWcKxdV1kpQZWot6DcJouFFVX3aaU/lFN7Kz96fdppT+UUvszP3qt6Sws+sr/ZZlZQW64MbFXUsFTG12s1s8bXhruYyvuxkcbGMja1jGNDGNYA1rWgYAaBswqs+7TSn8opfZmfvT7tNKfyil9mZ+9PS2eB6ure9FqrCqv7tNKfyil9mZ+9Pu00o/KKb2Vn709JYd9ZWTvSiphprFdDI4A1EDqWJudr5ZRqgDuyT1BVASGgknAG/K3bhdLnc5BNX1T5SwHUB1WRRjjqsaA0dezhvUl0R0ZfVyQXe4xFtJGWy0EEgIM7xtbPI0/IG9g479wGbUIrHg3JlOyTybEoHf0PsslroHVNSzUrrhqSytcPKhhA83CesZJd1u6load3QRwU9oid5dQW1NXg7oWO82w/OIz+r1qU3S5UtqoqitqD5EYwxgIDpZT6Mbes/78FTtZV1NfVVNZUuDp6iQveRuHANb1AYA7FXoi7Z9SRZvmqodOJr8kRFpmUEREOhERAEREAREQBEWxRUVfcZ3U1FCZZWxOnc3OA1gc1mSe0jH+y42l3Z1Jt6RKdMLX4HXtrY2/e9eXOdjcypaPKH6w8r1qMq37rbobpRVFJJgdINaJ/GOVu1jx2Hf1Z5qpJoZaaaanmaWTQSOilafkvacHHVyUGJbzjxflE2ZTwnyXhnzREVwpBZWEXQFlYRAZWERAYc0OGD3HktYtLSQe7rW0sOaHDB7upeWtnpPRqqaaKaUtpWxWu5SYpxhlHUvJxDyilJ+T+KeG7dtEMc0tOD/ABWFBZWrFqRYrsdb5RLvrKOiuFNJTVcTJYJG5LXcDvDmkbQRwIKre9aH3K3GSehElbRZJ1WjNVC3k9g9IDmBnqXixaV11pEdNUB9VbwQGsLvPQD9C52zH5p7iFYtuutsusQloqhkuANdnoyxnk9h8oLO1ZjPt4NL/iyV38lLAg5xwyDwIPIhFcVxsFiuhc6ro4zMRjp4cxT9748E9+VG6n4PoSXGjuc0Y4MqoWSj/FGWH3K1DLhLz2Ks8Oa9vcgSKWu0AvoPk1ttcPzhUM92q5e4/g/u5I6W40MbeJiimlP7RaFJ6iv7IvT2/wBSHL3DDU1UzaelhlqKh3oxQML345nGwDrJAVh0mgFoiIdW1VXVkEHUaRTxHtEXl4/XUnoqC32+LoaGlhp4+LYWBut1uI2k9pUM8uK9pNDCk/f2IjYtCWxOiq710csrSHxUTCHwRkbQZ3bnEct3bvUvra2it1NLVVcrYoI95O9zjuYxo2kngFybxpTaLUJIg8VVa3YKeBw8h36aQZa3s2nqVbXS73G8TieslyGawhhZlsMLTwY3O/mTknuwII1zyHyn4LErK8ePGHk2L7fKq91QkeDHTQ6zaWDOyNp3udjZrHj6u3kIi0oxUVpGZKTk9yCIi9HkLKwsoAiIgMIiIAiIgBIAJOAAMkncAFZ2hVoNDbTWzMLaq56k2HbHx0wHmmHtyXH53UoTo3ZzernHE9pNFSalTXH5LgD5EB+eRt6geat8DAwNg4Abln5dvbgjRw6v5syobpjZulZ8bUzMyQtDa1rd74m7BLjm3cer5qmSw5ocHAgEOBBBGQQdmCCqdc3XJSRdtrVkXFlJou7pHY32mq6WFh+L6l56AjaIX7zC7s+T1dm3hLdhNWR5I+eshKuXGQREUh4CIiAIsrCAIiIDDmhwwe7qWs4FpIK2l5c0OGD/AAXlrZ1PRrL3FJLDIyaGSSKVhyySJzmPb2OacrDmuaSD/FeV418EifySah01v9KGsqOhrY2gDz7SybH9pH9bSu/T6f2p4++aGshd+iMUzfWS0+5V0iryx65fBZjk2R+dlpt020XcATNUN6nU0uf2QV4k040aYCWurJOqOmcP+4WhVeij9JX9knrLP0T6q+ECMBwora8nHkvq5WtA7Y4tb/MFGrhpNpBcg5ktUYYXZzDRgwsIPBzgS897lxk2qaNFcO6RDO+yfljA3IiKYgCIiHQiIgCysIgMosIgCIiAL1HHNNLDBBGZJ55GxQxt3vkccAfv/wBl4JABJOAASSdwA4lWJoZo86ljbeK6Mtq54yKOJ48qnp373uB3Pfx5DZxKhttVcdslpqdstI79hs8Nlt8NK0h87j01XKB/KzuA1iM7cDc3qC6yIsZtye2bkYqK0hsTYm1Nq4ejWrKOlr6eelqWa8MzdVw3EHeHNPAjeCqru1pqrRVup5sujfrPpp8YbNHnfy1h8ofURm3cLRudso7pSSUtSzySdaN7fTikG57DzHv3cVZovdT/AEVMjHVq7eSoEW7c7ZW2qqdTVLeboZWg9HPGD6TM8eY4fTpLai1JbRhyi4vTCIi6eTKwiLoCIiAIiIDy5ocCD3dS13NLTg/xW0vLmhwwe48l5aOp6NZF6c1zTg/xXleCQIm1NqHQibU2oAibU2oAibU2oAibU2oAibU2oAibU2oAiKTaM6My3d8dbWsc21MdljSCHVzgfRH6PmeO4bNq8TmoLbPcIOb4xPvojo2bhJFda6P7wicH0cTwcVcjTslcD+DafR5kch5VlBYYxjGtYxoa1rQ1rWgANAGAAAvSxrLHZLbNuqpVR0hsTYm1NqjJQiIgCIiA0rjbaK6U76arYHMOCxw2PieNz43cCFWV3stdZ59WYa9PI4iCpaMMf+a7k7mPV1W0vjUU9NVQywVETJYZBqvZIMtcFYovdT/RVvx43LfyUwikt80Vq7fr1NAH1NHtc9gBdUQDrA2uaOYGerio0DnGNx3LZrsjYtxZiWVyrfGQREUhGEREAREQBERAeXNDhg9x5LXcC04P8VtLDmhwwe7qXlrZ1PRq96LJaWnB/isLwSBERDoREQBERAEREAREQBYJABJOAN5OwBe44555YqenikmqJTqxRRNLpHnqA4czuHNWFo9oZFSOhrbuI5qtpD4aZuHU9O7eC47nPHPcOA4qK22Na7ktVMrXqJyNG9EZbh0VddY3x0Gx8NK/LZKobw6UbwzkN544HpWS1rGNYxjWtYxoa1rQA1rQMAADZhegiyLLJWPbNmqqNS0giIoyUIiIAiIgCIiAIiIAVGbzolQ15kqKQtpax2XOIGYJnfpGDcesd4KkyYXuE5Qe4sjnXGxakinK2319tl6GtgfE4nyHelFJ1xyDYfp6lqq6J6amqonwVMUc0LxhzJWhzT3FQ656EsOvJaZtTefBqlzizO/DJdrh3grSqzIy7T7GVdhSj3h3RCEWxV0VfQSdHW00sDycN6QeQ/5j25ae4rXV9NNbRQaa7MIiLpwIiIAiIgMOaHDB7upazmlpIK2l5c0OGD3dS8tbOp6NZFlzS04KwvBIFlYRDoREQBFhxa0ZJAA3knAC6ts0fvt2LXUtKY6d2Pvqr1ooMc2AjXd3N715lJRW2djFyeo9zlkgAkkADJJOwDtXZs+jN4vJZIxngtEcHwqpYfLH6CI4c7t2DrKm1o0Ls9AWT1f3/VtIcHTtAgjcOMcO0Z6zk9ilGAMepUrcv4gaFWH82HLs9htVliLaSLMzwBNUzYdUS/Ody5AABdVEWe229s0YxUVpBERcOhERAEREARQbxo6F87l7G77SeNHQvncvY3faXeLBOUUG8aOhfO5exu+0njR0L53L2N32k4sE5RQfxo6F87l7G77SeNHQvncvY3faTiwThFB/GjoXzuXsbvtJ40dC+dy9jd9pOLBOEUH8aOhfO5exu+0seNHQvncvY3faTiwTWaGGeN0U8ccsTtjmSsD2OHW12xRuu0LtFRrPo3SUUh4RnpIM/wBm85Hc4Ln+NHQvncvY3faWPGjoXzuXsbvtL3CU4PcSOdcJ9pI5VZojpDSaxjijrIxtDqV+JMdccuD6iVw5Y5qdxZURSwPGwtqI3xH9sBTHxoaF87l7G77S8SfCXoLM0slZXSMOwtkoddp7nOwrsMyxe5bKU8CD9r0Q5F2qjSf4JanWLqGuic7e6lpZYD6o3hvuXKnu3wcu209ffouQfRRygevDverMcqD8poqywbF47nyRfF9z0U29FeKw9UtnlHvbOfoWu+8WNvo1cr+ykmb/AJnKRXwfyQvGtX8TeRcz48tI+VUHr6H/APpZF7tB3yTjtgcfoK9dWH2eehZ/U6Dmhwwe7mFruBacFeWXawHGvcJYx/d9RJj1PC+4uOhjhiW8XHH6G0OaR2GSc/Qo531r5JIY1z/ifFYLmtGXOaBzJwPeulBc/gtjwaio0hqCN4dD0TD3Q4PvXZpNL/gooiHU9una8EESPt5lkyOOvK4u96gllR+FssRw5vz2I9SW+6V5AoaGrqM48qOJwi285X4Z+0pJQ6B3mfVdX1MFHGdpjh++J+zOyMe9dIfCfoUAADcQBwFG7H+ZPGjoXzuXsbvtKvPJsfZLRZhhwXu7nbtuiej1tLJG03hFQ05E9aemeDzY0jUHc0LvKDeNHQvncvY3faWfGjoXzuXsbvtKrLlJ7ZcjGMVqKJwig/jR0L53L2N32k8aOhfO5exu+0vPFnonCKD+NHQvncvY3faTxo6F87l7G77ScWCcIoP40dC+dy9jd9pY8aOhfO5exu+0nFgnKKDeNHQvncvY3faTxo6F87l7G77ScWCcooN40dC+dy9jd9pZ8aOhfO5exu+0nFgo6SN8UksMrSyaJ7o5Y3bHse06pa4cwjGPe2WRjS6OLUEj27WsLzqtDiOfBTCT4ocaYvjEtrM9vdTTz+Asp487XdK9h8JJecicHbvJ9EY1KZ1a0V8d5McbZ4rd07W+Cs6S3RV4dUiIUvAA5GNuN2wKfkzyRfLdu1uBv2j3rdgtV5qaSWvp7dWzUUWuZKmKCR8LRHkvOs0bQ35RG7ipBEZWPqZbpFa+kidVvtDBHQOhLGUVUXCNkQLTCPNamtkF2MZOc/W2RS3C30jrxDRRUMFJXinvUN0gpq6gjmM0zon00Uvl6znOAYYQTr4yAdhyYIjNFLTv6OeN0UmpDJqS+S4MlYJWOIJ+UCCOor5lzRtJAU/klqKvXmt7rVLcviPR2LR7wk21wbTxwMiuLWip830zXho855QbrY2L418cHg94GjrLG6s6eUXsgW4sbB8XQdILf4b5HQ9L4R/JjOQ3hq55yYIc6jrGVLKN9PIyrf0WrBINSQ9KxsjDgniCCO1fOSKSF745Glr2Etc0kHB7QpppNPTup+mtUtMJqY2kXp46J1XK91vp200kMpJJhbhzHNG0OGXZ1hqQuSSSV75JHFz3kuc47ySvaeweERF0BERAEREAREQDKZRFwBERdAREQBERAEREAREQBFs0MVPNVU8FQ5rI6gvp2yvf0ccMsrCyKaR27Ua4tLurK65tFjlML4bmGtkqKiEQh1NkiAPa1vSzyjD5S0OBLdXEg2+Tg8b0CPou9HZrVII//VWxB0dIXulfRuEb5A0Sl4bIHEa2WNDQSCMuw0gu9C22SWlY9lSyFzRVtbLPUQmoqXxzhrZXRNlLBGGZcW6odkbC/W2c5Aj6KRRWWzNnHS3NjoWyQiZhmpGuhieHEySvilOsNgIEZcduDg7Fqx2qic+ubJcY2shnp4oJA+lIdTyPLXVjx0m1gx6Lcu8od/eQOOikBs1jjcBLeHtLnE6kYopTCAaZpbLI2XULvOE5aSMRnec6vkW+zMoLs6WaN1bS01OGFlU3yqhzeld0bdbbnWEYw1/oHOr6R5yBwUUp+K7CK1zOiY6D42uVMALrTaop/BoZIHF7pGgsYS8khw1sYyCMLxDb9GMULpmyzB9PO17KWsg6SaSN8YFWdedoax2SGMIa4YOQd7XIEZ2ZzgZ542+vemwcBz2Ab+aIvWgY2bdg35OABlMDOcDPPAz60RNAYbt2A52nI39qzsO8DZuyN3YiJoDZyGzONg2diIiAIiIAiIgCIiAIiIAiIgCIiAIiIAiIgCIiAIiIBlP4bgiIAmzkERNAbOQ2J3DmiJoDuCbOQ2IiaBjZyHqCzsO8D1BETQP/2Q==;clipPath=inset(10.33% 5.95% 14.33% 6.35% round 50%);shadow=1;flipH=0;textShadow=1;" parent="N3tuldMV24hy1_GBqyLN-5" vertex="1">
          <mxGeometry x="683.25" y="327.5" width="53.78" height="55" as="geometry" />
        </mxCell>
        <mxCell id="N3tuldMV24hy1_GBqyLN-29" value="" style="shape=image;verticalLabelPosition=bottom;labelBackgroundColor=default;verticalAlign=top;aspect=fixed;imageAspect=0;image=data:image/jpeg,/9j/4AAQSkZJRgABAQAAAQABAAD/2wBDAAsJCQcJCQcJCQkJCwkJCQkJCQsJCwsMCwsLDA0QDBEODQ4MEhkSJRodJR0ZHxwpKRYlNzU2GioyPi0pMBk7IRP/2wBDAQcICAsJCxULCxUsHRkdLCwsLCwsLCwsLCwsLCwsLCwsLCwsLCwsLCwsLCwsLCwsLCwsLCwsLCwsLCwsLCwsLCz/wAARCAF+AX4DASIAAhEBAxEB/8QAHAABAAIDAQEBAAAAAAAAAAAAAAYHAQQFAwgC/8QAXRAAAQMCAgQFCg8NBQgDAAMAAQACAwQFBhEHEiExExdBUWEUIlNVcYGSlNLTFRYjMjZCUlR0dZGTobO0JDM0NTdyc4KVorGyw0NWYsHRJURjdqPC4fBFZIMmhPH/xAAZAQEBAQEBAQAAAAAAAAAAAAAAAQIDBAX/xAAmEQEAAgEDBQEAAgMBAAAAAAAAAQIRAxNREiExMkEiM2JSYXFC/9oADAMBAAIRAxEAPwC20REBERAREQEREBERAREQEREBERAREQEREBERAWvVV1uoWtdW1lJStecmuqp4oQ48wMhC173cWWi03W5uYH9RUsszGHc+QDJjTlyE5AqkrLh/EGPa65V9VXtY2JzW1NXUsMxMrwXNhgiaQMgOTMADLv7rXMZlF8w1FNUxtmp54ZonZ6skL2yRnLmcwkfSvRULSTXvR5iRlLPMX02tC6rjgLjBV0Upy4Vsbvbt2kbjmCM8jtsqLSRgSQ5Or5ouT1ajqh/Iwq205jx3Mpgij8GNME1OQivtACdwme6E/JMGrsU9dbqvbSVdLUDLPOnnil2fqOKxMTHlWwiIoCIiAiIgIiICIiAiIgIiICIiAiIgIiICIiAiIgIiICIiAiIgIiICIiAiIgIiICIiAiIg0Lzbo7va7nbHu1G1tNLAH5Z6jyM2Py6DkVSFrveJdH9dcKGopI/VS3h6erDxE90YLWz08rN4I5duY5Mxsv5eU1NS1LQyop4ZmA5hs0bJGg84DwQt1vjtPeEUVQUV90hYg6uq2ObR8JEK2eFrmU9PSxbep4HOz647hv2nMqdS6KcJPz4Kpu0J/wANRE8f9SMqfMjjjaGRxtYxuxrWNDWgdAGxfpJ1Jz27Cr59EVE7PqW+VTOYVNNDN8pYWLj1OifEsHX0Vwts5BzGtw9LJ3RkHDPvq6Mk7ysat4+mFG9Q6YLB10XoyYo9o6mnbcIfmiX/AMq2aXSjiqhkEN1oqWoc0jXbNFJRVP0db+4rpWrWW+23CMxV1FS1UZ9rUwxyjmzGuCruRPtBhDrZpQwpWarK1tVbpTvM7OGgz/Sw5n5WhTKkrqCviE9DVU9TCcspKaVkrdvISw71DbnowwpWa76Lqm3SnMjqaQyQZ9MU2f0OChVZgHHOH5TWWeZ1UGZkTWqV9PVho29dC4gnuBzu4nTS3icC8Bkipi16TcR2yTqS+0nVgiIbJrsNJXx5bOuaW6p77QelWTZMWYbv4DaCsaKnLN1JUjgapvL6xxyP6pKzbTmo7yIiwoiIgIiICIiAiIgIiICIiAiIgIiICIiAiIgIiFAReFXV0dDTzVVZPHBTQtL5ZZnBrGgdJ5eYcqqTEmki43GR1tw0yeCGR/BNqWMd1fVOOwNp425loPJs1vzVqtJt4E8xFjPD+HQ+OeU1Nw1c2UVK4GUcxmd61g7u3mBVYVWIcfY3qTR26OdlOHAmmtpfFBE3PYaqqJGe7lIHMF18OaMaqqLK3Esj4o3kydQRPJqJdbbnVTA7M+UA59IKtWiobfbqeOloaaGmpox1kUDAxo6TlvJ5Sdq31Vr47yjVsFHcqCz2qjuVSamup6ZsdRMXF+s7MnLWcATqjIZkbcs100WhcrxZrPD1Rc66Clj9rwruvf0RxtzeT3AVy8q30VWXfSxE3XisdvL+QVVxJazPnbBGdY99w7igF0xRii8l4r7nUuicfvELuApwObgocge/n3V2ro2smV7XHFmE7UXNrbtSNlaDnDC/h5sxyGODWcD3QFE63SzY4s22+211URmNad0dLHnzj17/AN0KnNg3ADuBF2jQr9TKwarSviaXMUtDbKUcheJqiQd8ua391ceo0gY7qN92MQ5qampYwO/qF30qLIukadY+Jl2X4qxhIXF1/u3XbwyqlYNvMGEBazr5iN+Qdebq4DaM62o2Hwlz0WumOB0mX/EzNXUvV2bq+tyrajZ3OuWzFi3GURBZfrmcuyTulHySZriInTHAl0GkbHUGQNxinA5Kmkp3fK6NrT9K7VLpavTCBW2qhnaMszTSTU7iP19dqrdFmdOs/DK7KDSpheo1W1sFfQvJyJdG2eIdOvCdb9xS23X2wXYA2650dST7SKVvCj86J2Tx8i+ZkGYc1wOTmnMOaSHA84I2rnOhX4uX1Wi+ebTjnGFo1WR3B1VTty+57iDUMyHIHuPCAdxysKz6U7HV6kV3p5bfMcgZmZz0hPOXNHCN8E91cLaNq91ymF1sVivcRiudBBUbCGSObqzR9Mcrcnj5VWl80W3CmLqrD1S6oaw67aWpeI6phG31GcZNPRnq90q2aaqo6yGOopJ4qiB+1ksD2yRu7jmkheyzW9qqpS0aQcUWCf0Ov1PUVccJDXx1YMVxhHO17x1w5tbf7pWrZcQWS/wGe2VbJdUDhoXdZUQk8ksTto7u0dJWbxh+yX6n4C50jJtUERSjrKiEnlilb1w/h0Kpb5gjE2FZxdbLU1FRTQEvbUUubK2lHNNGzY5vOQD0gLf5v/qUXfmirTC2kumrOBocQGOnqXENiroxq0sx3ATNHrHdO7uKyQ5pDSDmHAFpBBBB3EELnas18q/SIiyCIiAiIgIiICIiAiIgIiICIiAiIgc642IMSWjDlGamvkzkeCKWljINRUvHIxp5B7Zx2DunI6WLMW0GGKUZgT3Kpa7qKjByzG7hpiNojB75OwcpbVtlsOI8fXKe6XGplbRcJq1Na4ZZhp/B6Jh63Z8g3nMnJ3Ste3Vbwj8z1OMNI10bBEwCmgdrNjBe2goIydj5n5bX9OWZ5AArTwxg2y4aiEkTeqbk9mrPXTNGuc97IW7Q1vQO+Tls7NrtdttFHFQ2+nZBTRDY1o2ucRtfI47S48pJ/wDG7u2BS15ntHgwytSvuNttdM+suFVDTUzN8kzssz7loHXE8wAJUTxTpAtdiMtFQiOuurc2vYHfc1M7/wCw9vth7kHPnLeWmrreLveqk1dzq5KibaGB2yOFp26sMY60Dud9appTbvJMp9iDSnVzcLTYehNPHtaa6qY107hzxQnNregnPuBVxU1VZWTvqayomqKiT18tRI6SR36zyTl0LxReytIr4ZmRERaBERUERFAREQEREBERAREQYWVhZVG/bLxeLNN1RbK2emeSNdsbs4pANuUkTs2Ed0K0cPaUaGpMdLf4m0cxyDayAOdSPO71Vu1ze7tHcVPpzrnbTi3ky+qIpYpo45YZGSRSND45InNex7TuLXNzBC/a+c8PYrvuG5R1HLwlGXa01DUEmnfnvLOVrukd8Hcrrw5i2y4lhJpJDFWRtBqKKcgTx/4m5bHN6R38ty8d9OaNROXCxXo7t924autAio7kQ58keWrSVbztOu1vrXHnG/lHKobh7F1/wdVus16p6h9DA7UkpZvwijBPr6ZxORYd+WeR3gjlvBcHEmF7RiWlEVW3g6qIHqSsiA4aB3N0sPK0/QdoVv2xbwOpQXCgulLBW0E7J6WdutHIw/K1w3gjlB2hbSoamq8U6Oby+CaPXppjrSw6zupLhCDlwsLiNjxz5ZjccwVc9mvVrv1DFX26bXjd1sjHZCWCTLMxTM5HD/yMwc1LU6e8eFdJERYBERAREQEREBERAREQEREA91RnFuLKHDNGDk2e5VLXdQ0utkDlsM02W0MHyk7Bylu5iTENBhy2y11SdeVxMVHTg5PqZ8sw0czRvceQdJANRYfsl3x7equ5XSaQ0LJmm4zjNusd7aOmz3ZDfluHS7rulKxP6nwj0wxhi7Y1uFReLxPObeZy6qqXHKWtlG+CDkDG7iRsA60f4btpqalo4IKamijhp4GNjhiiaGsYxu4NASmpqakggpqaKOGngY2KGKJoaxjGjINaAlTU01JBPU1M0cNPAwyzSyuDWMY3eXErNrzaf9EQ/cj44mSSyPYyONjnyPe4NYxjRrFznHYAOUqoMX6RZqzh7bh+R8VJmWT17SWTVA3FtPytYefeegeu5OMsb1eIJZKKic+Cyxuyaza2StLTsknHueVre+duxsMXo09H7ZJk/wDSiIvSgiIgIiICIiAiIgIiICIiAiIgIiIMLKIgIiIC9IJ6ilmhqaaaSGogeHwywuLJGOHK0j/3+C80RF0YO0gwXbgbZenxwXM6rIKgZMgrXbgCNzZDzbjycysNfKitTA+P3A01mv0+YJbFQ3CU8u5sNU4/uu+XnXk1NLHercSsS92S2X+hlobhFrxu6+KRuQlp5QCBLE7kI/8ABzBVLkYm0c34HMyU8u47W0tzpQ7aDlnk9ufdaecO66+//dq5V9sdtv8Ab5rfXMza7r4ZWgcLTzAENliJ3EfSNnKudL47T4HpZrxbb5b4LjQSa0MubXNdskhlb66KVvI4f+dxzPRVDUVbftHV/mpqlplpZCw1UTCeCrqUkhtRBnsDhty6c2nZuvGiraO40lLW0czZqapibLDI3c5p5xyEbiORS9envHhWwiIsAiIgIiIGxNiIgbE2IiAVr1lZSW+lqq2rlbFTUsTpppHHY1rRyc5O4DlOzlWwVTWkXEc11uEeG7YXyQU1SyKdsO01dwJ1Gwty3hhOX52fuQVqleqcDlTSXvSNiVrIw+KlaCIwSTHbqBrhm9wGzhHbM+ckDc3ZdtstlBaKKlt9DGIqamYGRt3kne57zyucdpPT8nIwfhqHDVqZA4NdcKnVnuUrdutNlsjafcs3N759spGre2e0eEh+ZJI4o5ZZXsZFGx0kkkjg1jGMGbnOJ2ZDeVRWNsZz4hqHUdE9zLLA8GNuRa6skb/bSg+19wO+dvreppExga6WawW2b7igfq3GaM7Kmdp+8tI9o3l5yOZvXVwu+jp4/UpMnOiIvSgiIgIiICIiAiIgIiICIiAiIgIiICIiDCyiICIiAiIgJz7M89+xERFq4Axw4mmsF4mzJ1YbXWSu9dyNppnHl5GHvb8s7V39C+Ve+cxtBGwgjbmCrt0f4wdeaf0KuMgN1o4gYpHZA1tO3Zr/AJ7dmvz7+fLya2lj9Q3Eu5izDNJiW3Op3lkdbT60tvqCMzFKRtY479R2wO7x3tVaYJxJV4Xus9hvIfDRTVJglbKfwCtz1Q/bs1HbNbk2h27PO7N+RKrnSThUV9K6/UMRNbRRZV0bBmaijbt18h7aPf3M+YLnS0T+ZFjA5rKr3Rvik3SjNlrZdavt0QNPI92bqqjHWgkn2zNgPQQedWEsWjpnCmxNiIoGxNiIgIiICIsEtaCSQAASScgABtJJKCLY3xH6XrO98LgLjXa9LQDlY7Lr58v8AOfdI51DtGGGzNJJiWtYXNY6SG1CQZ68merLVfxa093mzXBu9TV49xhDSUbndSGXqOkcB1sNDCS6Wp5s3bXDutCvKjpKahpaWjpYxHTUsLIIWD2rGDVHf511t+K9P1HuO8oLpCxUbJQi3UUurdLjG4BzT11LSnNrpvznbWs759rtlt1uNHaLfXXKsdq09JE6V/O8+tbG3pccgO6vm663OsvNxrbnWOznq5DIWgktjYNjImZ+1aMgO50q6VOqcyTOGkiIvayIsta57mMY1z3yObHGyNpc973HJrWtG0k7gplSaNMa1ULJnx0FJrgOENZUOEwB3azYWPA7hKlrRXzIhiKd8VeMez2bxmo8ynFXjH3xZvGajzCzuV5MIIinfFXjL3xZt3vmo8wnFXjHZ90Wbxmo8wm5XkwgiKd8VeMffFm8ZqPMJxV4x98Wbxmo8wm5XkwgiKd8VeMffFm8ZqPMJxV4x98Wbxmo8wm5XkwgiKd8VeMvfFm8ZqPMJxV4y98Wbxmo8wm5XkwgiKd8VeMdv3RZvGajzCcVeMtv3RZvGajzCbleTCCIp3xV4y2/dFm8ZqPMJxV4y98Wbxmo8wm5XkwgiKd8VeMffFm8ZqPMJxV4y2fdFm8ZqPMJuV5MIIinfFXjL3xZt3vmo8wnFXjH3xZvGajzCbleTCCIp3xV4x98Wbxmo8wnFXjH3xZvGajzCbleTCCIp3xV4y98Wbxmo8wnFXjH3xZvGajzCbleTCCIp3xV4y98Wbxmo8wnFXjH3xZvGajzKbleTCCIpTd8BYts1NJVz08FTTRDWnkt8plMLeVz2Pa1+Q5SAclFlqLRPgF70lXV0FVS1lHK6KpppWzQyN9q9vOOY7iOUFeCKj6Qwzf6XEdpprhEGsm+9VsAdmYKhoGs3nyO9vQQu0QCCCAQRkc9ua+e8FYkfh27xPleRba0sp7i0nrWtJyZP3WE7eglfQjXNc1paQWkAtLciCDtBBXz9SnRLUKLxRa6zBGJaS52salLNM6tt2WfBsOeU1I/o25dx3Rsue0XSjvNuorlSOzhqog8NJzdG8bHxu6WnMHuLn4qsMeIrNWUJAFS0cPQyHL1OpjBLczzO9aeg9CrrRlfJLfcavDtbnGyskkfTMkzBhros2yQ5HdrAfK3pW/eufsC41lYCLioiIgbE2IiAoXpGvhtNhkpoX6tZdy+ihIOTmQZAzyDvHV/WHMpoqMxbUT4sxpHaqV2cUVRHZ6Yt2gBri6pm5th1u80LppxmckpVorsfU1BVX2eMCe4kwUeY2soonZEjPb17h8jRzqyD3l5UtNT0dNS0lOwMgpYY6eFg3NjjaGNC077dYLJabldJgCKWFzo2H+0md1kcffcQFmZ6pyKu0o4g6qrYLBTSeoUBbUV5adklU9ubIzlyMBzPS7/AAqt16VE89VPU1NQ8yVFRNJPO9298kji9x+UrzXvpXpjDEiIi0J3ouoKerxDU1MzWuNuoHT04dkQ2eWRsQfkeUDWy7qk15xLjSrxXVYbw2+ipzRxaxdUsYeGcImSvc50jXZAawDQB3+biaJfxvffiyH68Lo238rN6/Q1P2WBeW3tMtN7gdOXv2y+DT+ZTgNOXv2y+DB5lauN8aYlsV86gt0lK2nFFTT5TU4kdryF4PXEjmCjPGbjfs1D4m3ylK0taMxEGUw4DTl79svgweZTgNOXv2y+DB5lQ/jNxv2ah8Tb5ScZuN+zUPibfKWtu/EJlMOA05e/bL4MHmU4DTl79svgweZUP4zcb9mofE2+UnGbjfs1D4m3yk278QZTDgNOXv2y+DB5lOA05e/bL4MHmVD+M3G/ZqHxNvlJxm437NQ+Jt8pNu/EGUw4DTl79svgweZTgNOXv2y+DB5lQ/jNxv2ah8Tb5ScZuN+z0PibfKTbvxBlMOA05e/bL4MHmU4DTl79svgweZUP4zcb9nofE2+UnGbjfs1D4m3yk278QZTDgNOXv2y+DB5lOA05e/bL4MHmVD+M3G/ZqHxNvlJxm437NQ+Jt8pNu/EGUw4DTl79svgweZTgNOXv2y+DB5lQ/jNxv2ah8Tb5ScZuN+z0PibfKTbvxBlMOA05e/bL4MHmU4DTl79svgweZUP4zcb9mofE2+UnGbjfs1D4m3yk278QZTDgNOXv2y+DB5lOA05e/bL4MHmVD+M3G/ZqHxNvlJxm437NQ+Jt8pNu/EGUw4DTl79svgweZTgNOXv2y+DB5lQ/jNxv2ah8Tb5ScZuN+zUPibfKTbvxBlMOA05e/bL4MHmU4DTls+7bJt2etg8yofxm437NQ+Jt8pT7R9iS9YjhvUlzfC91JPSMh4GIRANkY5zs8j0BYvW1YzMQuX4wTiO/XasxDaL31NLVWt+RngY1rX+qPhfG5rQGkZjYchsVTYmoqe3Yhv8AR07QyngrpeBYNzGPykDB0DPIKxMA+y7SF+nl+2yqCY19leJfhv8ATYumn2vMQko+iIvQh/6VdujTEJudqfaqmTWrbQGMYXHN0tE7ZG7ut9Ye9zqkl2MM3l9hvduuQcRCyTgK1o9vSSkNkGXRscOlq5aleqCJfSapXSPaJrNfaS/UPqbK+VlS1zBkIrjTlrif1tju7rK6GPZIxj2ODmPa17HNOYc1wzBBHOuFi+zC+2C5UTW51LGdV0WzMipgBc0D84Zt/WXk07dNu7TcsV2gvdpttziyAqoWukYD97mb1sjD3HZhdPYql0UXjVludimecpAbhRtdnse3Jk7Bn+q7Luq2+8pavTMwrGxNiIsgiIg5OI7oLNZLvcs8n01K/gduWc8mUcQ8IhVnoptTqi4XS9TguFHH1JA523Wqajr5Xg84bkP111NLVz4Kis9qY78JnkrqgDsdONRgPQS7P9VSbAdsNrwxaGOblNWMNxqNwJfU9e3PuN1R3l19af8AUShVNpYvBc+12KJ2xg9EawA+2dnHCw9zrnd8K2CWtBc4gNaCXEnIADaSSvmjEFzdeb1drkXZtqqqQwg7S2njPBRN8EBXRrm2SXLWURe5kREUFjaJPxvffiyH68Lo2z8rN6/Q1P2WBc7RJ+N778WQ/XhdG2flZvX6Gp+ywLyW82aR/Sh7KT8WUX8ZVCFN9KHspPxZRfxlUIXo0/SGZERFsYRZWDkN5A7pQZRfnWZ7tvyhZGRGYII6Dn8qmYkd+y4SxLf4Jaq3U0XU0UnAmapmbCx8g2lsettOXLsXV4tca9itvjrfJX6qC9ujOz6rnDPE04ORIz62oORyUOjfKJYCJJARNCQdd2Y9Ubt3rlE2mJmB7XC319rrKmgr4TDVU7g2WMkHLMBwc1zdhBG0FaqmOkr2XXH4Lb/qQoculZzWJBERaBERAREQYWVhZQEREwCtrRD+DYm+FUH1ciqVW1oh/BsTfCqD6uRcdb0WGcA+y7SH8Im+2yqCY19leJfhv9NineAfZdpD+ETfbZVBMa+yvEvw3+mxSn8h8R9ERd0YTfsy7yIgvjRxeDdMOwU8r9aptL+oJczm4wga0Lj+r1v6qmiovRndDQYjbRvdlBd6d9OQTs6oiBliP8wH5yvMbV4NSvTaWoUVe434Px22thaW0oq47lEGjIGkqyWzxjLkHXgdxXqxzHsY9hBY9rXMIOwtIzBCrPSzbBJRWi7NaNalmfQznLaYqgazM+gEHwlJMBXI3PC9oe9xdNRsdb5szt1qY6jSe63VK1fvWLCUoiLipsRFhzmtBc45NaC5xO4ADMkoKOxo51/x1FbIyXRsnt1nZkfWgkSTHvFzs+4rwYxkbWMYAGMa1jQNwa0ZABUfgZrr1juW4yAuEbrpdna3PK4xsz7muMu4ryXXV7YhIRzG1yNrwxe52u1ZpoOooCN/CVREOY7gJPeXzvs3DkAAVt6W60tpbDbWuPq1TUVsjeTKBgjZn33FVIu+hGKpIiIu6CIiCxtEn43vvxZD9eF0bZ+Vm9foan7LAudok/G99+LIfrwujbPys3r9DU/ZYF5LebNI/pQ9lJ+LKL+MqhCm+lD2Un4sov5pVCF6NP0hmfIi6Fltkt6utttUcrYn1s3BmVwLhGxrTI9waN5AByGak9RY9FlLPUUs2J7wJqaaSCYNo3FokjcWOAIgy3g8qs3iJwIQppgNlJEzGV2lpKeqqbPZzU0bapmvE2Rwkc4lnOdUDPfv51+LhhjDMljud6w7equsZa5YGVsVZBwR1ZnNaDGSxpzGYO495emCvxRpM/5fH8k6xa3VXMDPGPd9h9A8M8n+5S+dX6xi6nr7Fge/dR0lNXXKOtZV9RRcFG9sbhqjVzJ2bcsyd6g43DvKa4i9hGjT825fzBJrFbVwrFT+TOzf8zz/AMlQobH98h/TQ/ztUyqfyZ2b/mef+SoUNj++Q/pof52pp+qfUv0ley64/Bbf9SFDlMdJXsuuPwW3/UhQ5a0/WCRERbBZa1znNa1rnOe4MY1gLnOc7YGtaNpJWFL8Dwx0Fd6aLlwcNmtbZ4jPO0udNVzRljIqNgBLpBvOW4LNrdMCKz01XSScDVU9RTy5B3B1MT4n6p3HVeAcl5K0cV3HC2N3UNHa7nFDcqMyOpXXCCSnp60TNGdOyofta4ZDLMZEnZnyVvXUFxttTJR3CllpqmPa6KZuqS3kc07iDyEEhSlsx38jVWUXvR0VdcKmGioKaWpq5jlFDC3Nx53E7g0cpJAHeW5nHeQo6Spr6uioaVrXVFZPFTQB51W68h1QXHmG8qT4mwLc8NUVPXyVlPV08krKeYxRvidDI8EtyDic2nIjPZ3NuzDDZsIPD2vguuKIz1pYS62WeUbN4++TN+QH83rtW/4yxDiOmpqSvdTMp4HtlMdJG6MTSgFokl1nO2jbkBkNu7m5Zta0THg7I4ra0Q/g2JvhVB9XIqlVtaIfwbE3wqg+rkTW9FhnAPsu0h/CJvtsqgmNfZXiX4b/AE2Kd4B9l+kP4RN9tlUExr7K8S/Df6bFmn8h8R9ERd0EREHtSVU1DV0VdCfVaKphqo8iRtieH5bOfJfUFPNFUwU9TEc4qiGKeMjcWSNDwfpXyyvoHR9XGuwpZi4kyUjJKB//APXeWN/d1V5tePErDexXb/RPDl+owM3uopJYRlmeGg9XYB3S0BQPRFX9df7Y52xwp7lC3l25wyn+RWuQCMiMwcwQdxB2FUdhDOx6QH28nKM1V1tLuQFubnx7+ctbkudO9ZhV5bE2Ii4qLk4kquo8P4gqeWK2Vhaf8boyxv0ldZRLSNPwOELyM9s5o6cfr1EZP0ArVYzMQIjohpfVsR1hG2OKgo2H87XleM+81W3zKvNE9OWWK5zn/eLtMB+bFFGwf5qw1dSc2khR2lGqM+Jm0/taG3U0OX+KVzpyfkIUFUhxrUGpxXiSTfqVvU/cFPGyD/JR5e6kYrDEiIi0CIiCxtEn43vvxZD9eF0bZ+Vm9foan7LAufok/G99+LIfrwuhbPys3r9BU/ZYF5LebNI/pQ9lJ+LKL+MqhCm+lD2Un4sov5pVCF6NP0hmfKSYE9l+G/09R9mlXKvP45vvxpX/AF711cC+y/Df6eo+zSLk3kt9Gb7tH40r+Udneke6pRYfYDpF+EW7+eJYwX+KNJv/AC//ANk6zYcvSDpF2/7xbeX/ABxL84Ly9CNJv/L/AP2Trl8n/ohY3DvKa4i9hGjT825fzBQrMZDaOTlCmuIvYRo0/NuX8wXS3tUhip/JnZv+Z5/5KhQ2P75D+mh/naplU5cWdmz/ALzz7/zKhQyMjhIdo+/Q8o921SnrImGkr2XXH4Lb/qQocpjpK9l1y+C2/wCpChy1p+sJImznRT/Rra8MXKovHotFTVNZEyDqOnrNVzOBdrcJIyN3Wk55A78u+re3TGRHLLZIKyKou12mfSYfoXhtTO0erVc28UdGDvkdyncBtK8b3eprvLAxkLKS20TDBa7fCfUaSH/N7t73HaT0BdXHdZTyXp9ut88brRaYoaahp6UNbS0z9QGYRhmwu1vXO38nIoos0jP6kNh2Hd0qQUOJH9Tx2y+0ou9pZsiZM8trqLMAa9HVeuGWXrSSDllsUfRbmIsLJt+jSgvFFHcrff520lY0S0AqKFnCsj1tUtqMpAC4EEbMhsz5VHK6+U1uhqbNhqKWjpSXQXCvlI9E7k5hLDryN9ZHzNae764g69vxfiq1W99roa8x0h4TgwY43yQiQkvEEjwS3PM/LmMiuD8vdOe35dq51pOf2HJlybkRF2BW1oh/BsTfCqD6uRVKra0Q/g2JvhVB9XIuOt6LDOAfZdpD+ETfbZVBMa+yvEvw3+mxTvAPsv0h/CJvtsqguNfZXiX4b/TYs0/kPiPIiLugiIqCt/RHVF9BiCiJ/B62CpaDyCoi1T9LFUCsXRLUFt6vNLnsntbJu6YJ2tH85XHWj8kLmVHYr/2VpFiq29a019nuGe4EODGPP0FXiqW0tQmO9WupbsMtq1c/8UE73Z/vBebS84aldKLwo5eHpKGcf21NBKP142uXuuSmxQXSm/VwxE3P77daJndybJJ/kp0q90suIsFrbsydeIc89+ymqDsW9P2gbujJgZhOhd2WruEn/WLP8lNeZRLRy0NwdYMieuFa4585q5gpbzd1S3tI+ZL1KZ7zfpjvlule89+d6562K78OuR/+7V/XOWuvox4YEREBERBY2iT8b334sh+vC6Ns/Kzev0NT9lgXO0Sfje+/FkP14XRtn5Wb1+hqfssC8lvNmkf0oeyk/FlF/GVQhTfSh7KT8WUX80qhC9Gn6QzLctdxqrRcKC50up1RRy8LGJASxwILHMcBtyIJB2qVyY0w5PJJNPgayyTzPdLNI57S6SR51nOJMOeZO1QhFZrEzmRLLpjGOrtVVZ7XY7daKSskjkrepDrOm4MhwbsY0DaBmdu7kXOw9iGfD89c4UsFZSV9P1LXUlTsjmjGeXXAHaMzyHPM97iInRGMGU09N+Ff7hWTw2eYXKxDiWW/NtlPHQUtvt1tZIyjo6Xa1hky1nF2qOYZDV/iuAiRSInJlJ7Lixlttj7PX2ahu1vFS6rp46whphld64jrHA8uWwEZnet9uMcMMc17MCWQOY4OaQ9mxw2g/eFCUU6IHRvd3rL7c6u6VYY2WoLAI4gdSONg1WMbnt2Dl5VzkRbiMdoBYIB37e7/AJLKIH0dz/RERAREQERFQREQFbWiH8GxN8KoPq5FUqtrRD+DYm+FUH1ci463osM4B9l+kP4RN9tlUExr7K8S/Df6bFO8A+y/SH8Im+2yqCY19leJfhv9NizT+Q+I+iIu6CIiAppoykMeLKdoOya310R6QA2T/JQtSzR0/VxfZ9mevFXs7mdO85rGp6yQv9VNpfi67DUwHro7nDn807L6VbKq3S9l1Phg/wDHuA7xjiXj0feGpTzDUvDYew1Ln6+028nu8AwLrbFwsHknC2FyT/8AF0g+RgC7qxPlRV7pYbnYLY7PY28Q/TTzhWEoLpSYXYXa7sd0on/KJGf5rWn7QN3Ry7WwdYtmWr1azu5Vc21S3mUK0Yv1sJ0jc/vVZXx/9Uv/AM1NeZS/tI+XK4EV1yB2EVtXn3RM4Fa66N9i4C93+HYOCulewDuTvXOX0I8MCIioIiILG0Sfje+/FkP14XRtn5Wb1+gqfssC52iT8b334sh+vC6Ns/Kzev0NT9lgXkt5s0j+lD2UO+LKP+Mqklg0cYYudlstwqZLmJ6yhgqZuCqGNZryNDjqtMZ2d9RvSh7KT8WUX8ZVtWnRvdrpbLZcY77HCytpYqlkXAzngxIM9XMSAbO4tTP4jvhPqW8VWD+zXfxqPzScVWD+y3bxqPzS4HFRev7xx/MVHnU4qL1/eOP5mo86sZ/srv8AFVg/st28aj80nFVg/st28aj80uBxUXn+8cfzNR51OKi8/wB44/majzqZ/sO/xVYP7LdvGo/NJxVYP7LdvGo/NLgcVF5/vHH8zUedWeKi9f3jj+YqPOpn+w73FVg/st28aj80s8VWD+y3bxqPzSj/ABUXn+8cfzNR51Z4qL1/eOP5io86mf7DvcVWD+y3bxqPzS1bjoywnR2+51ccl0MlNRVVRGH1TC3Xiic9usBGNmxcriovX944/mKjzqHRReSCDiKIg5ggwVGRB5PvqZ7+wrAbh3AisviiuXb2k8Uk84s8UVy7e0nikvnF33q8phWaKzOKK5dvaTxSXzicUVy7e0nikvnE3q8nSrNFZfFFcu3tJ4pJ5xOKK5dvaTxSTzib1eU6VaIrL4orl29pPFJPOJxRXLt7SeKSecTerydKtEVl8UVy7e0niknnFniiuXb2k8Ul84m9UwrNW1oh/BsTfCqD6uRRTE+B6rDFDT101ygqRPVspBHHA+MgujfJraznnm5lK9EP4Nib4VQfVvWdW0Wp2WGcA+y/SH8Im+2yqCY19leJfhv9NineAfZfpD+ETfbZVBMa+yvEvw3+mxKfyHxH0RF3QREQFLNHLQ7GFnOZ6yGvfs6KdwUTU10YxmTFcTh/YW6ulPQHakX/AHLGp6yQvZVbpfI4DDAz/t7ie8I4gVaSqTS/KeEw3Dn62G5TZd0xNz+hePS94alPsHgtwthcHf6F0h+VgK7q5WHIuBw/hyLLLUtVvBHTwDCV1VifMqKKaQoOGwjfMhm6FtLUD/8AOojJ+jNStczEFKK2x32lyzM9trGNAG9/BOLfpyVrOJiRDdE04fZLtT57YLq9wHM2WGMg/KCrF5lUOiGqyqsRUZO2Wmoqpo6YnOid/MFby1qxi8kPnfHFOaXFmI2EZCSqZUt6eHiZLn8pKjinulOkMGI6apA62utsLyf+JA98RHyaqgS9mnOawxIiItgiIgsfRJ+N778WQ/XhdC2flZvX6Cp+ywLnaJPxvffiyH68Lo2z8rN6/Q1P2WBeS3mzSP6UPZSfiyi/jKti1R6ZXW22utbqgW00sRoQJraAKfLrMhJ127nWtpRLRikgkDO2UXKOeRfq2aTbxa7fb7dDQWx8VFTxU0b5XT672xjIF2q/LPnW4zNIwjqcDp591U/P2lOB08+6qfn7Stfjcv8A2ttHhVHlpxuX/tbaPCqPLUxfiBscDp591U/P2lOB08+6qfn7Stbjcv8A2ttHhVHlpxuX/tbaPCqPLTF+IGzwOnn3VT8/aU4HTz7qp+ftK1uNy/8Aa20eFUeWs8bl/wC1to8Ko8tMX4gbHA6efdVPz9pWeB08+6qfn7StXjcv/a20eFUeWs8bl/7W2jwqjy0xfiBscDp591U/P2lOB08+6qfn7Stfjcv/AGttHhVHlpxuX/tbaPCqPLTF+IGxwOnn3VT8/aU4HTz7qp+ftK1+Ny/9rbR4VR5acbl/7W2nwqjy0xfiBscDp591U/P2lOB08+6qfn7Stfjcv/a20eFUeWnG5f8AtbaPCqPLTF+IGxwOnn3VT8/aU4HTz7qp+ftK1+Ny/wDa20eFUeWscbl/7W2jwqjy0xfiBs8Dp591U/P2lOB08+6qfn7Stbjcv/a20eFUeWnG5f8AtbaPCqPLTF+IGzwOnn3VT8/aU4HTz7qp+ftK1+Ny/wDa20+FUeWnG5f+1tp8Ko8tMX4gcrFEekplBTHE7pTQmrYIRJLRPHVPBvyOVP127WUr0Q/g2JvhVB9XIodiTHNxxNR09FV0tDBHDUtqmupjLrlzWPj1TwjiMtqmGiEg02JsiD91UG79HIl87eJI8v1gH2X6Q/hE322VQTGvsrxL8N/psU7wD7L9Ifwib7bKoJjX2V4l+G/02K0/kk+I+iIvQgiIqCsfRJT693vtVl94t0NP355g/wD7FXCuHRJSllrvlaWkdVXBkDSeVtNEDmD3XFcdacVWFlKldLEpmvttpmbTDa4xl/xJ6h4y+QBXUqOxGTd9JEdMza0XS00J5ethEbpPkOsvNpecrK66WIQU1JAN0MEMQ7jGBq9k/wBUXJRMs9hyyOwjnREFG4PJseP3292xjqi6Wh3LmMzJF8pa1XkNwVH49jksmNILrE0gSm33aPV2ZvgcI5B39Xb+crtiljmihmjcDHNGyWNw3FjwHAhddXviyQrfS1QmS3WW4tb+C1ktLIRtOpUs1m59GbfpVPr6NxfbTdcOXyka3OXqZ1RT7Mzw1ORM0DpOWXfXzjnmAecA/wCa76E5rhJZREXoQREUFjaJPxvffiyH68L9vu1tsuk2+19xlMVKxksRe2OSQ68lNCGjVjBPJzL8aJPxvffiyH68KO469l2I/hMP2eJefHVeYlfizZ8b6L6qThal0E8uQbrz2qaR+qNw1nxE5Ly9N+iXsdF+xn+ZVJotbNTK7PTfol7FRfsZ/mU9N+iXsVF+xn+ZVJomzXmTK7PTfol7HRfsZ/mU9N+iXsdF+xn+ZVJomzXkyuz036JexUX7Gf5lPTfol7FRfsZ/mVSaJs15kyuz036JexUX7Gf5lPTfol7FRfsZ/mVSaJs15kyuz036JexUX7Gf5lPTfol7FRfsZ/mVSa96WjuFdI+Kho6qqkYA57KSF8zmtPK7UBySdGseZMrl9N+iXsVF+xn+ZT036JexUX7Gf5lUvNDUU8skFRFLDNGdWSKZjo5GHfk5rgCvNNmvJldnpv0S9iov2M/zKem/RL2Ki/Yz/Mqk0TZrzJldnpv0S9iov2M/zKem/RL2Ki/Yz/Mqk0TZryZXZ6b9EvY6L9jP8ynpv0S9iov2M/zKpNE2a8mV2em/RL2Ki/Yz/Mp6b9EvYqL9jP8AMqk0TZrzJldnpv0S9iov2M/zK2KfHmjWk1xSzspw9zXPFPbaiIOI2AuEcQzVFptTZqZWto5nhqsTY5qoHF0FS41ELnAtLo5KuR7SQdo2FQnGvsrxL8N/psUp0SfjLEXwGk+tcotjX2V4l+G/02KU/kknwj6Ii7oIiKhuBJ5ASvoXAlAbfhWxRuBElRAa6TPYc6pxmGfeLQqDt9FLcq+226PPXrquClBHtRI8Bzu8Myvp+KNkMcUUYDY4mMjYByNYA0BeTXnxCwy5zWNc9xAa0FzieQNGZKpDA4feseSXJ+3Ufdbu/ZkPVS6Jn8/0K0cZ3D0NwzfqgOAkfSOpIc95kqiIBl0jPPvKGaI6DVhv9zI9fLT26EkckLTLJkenWb8i517UmVWmiIuSicyIgrfSxbOHtdsujG5uoKk08xAz9QqhlmegOA8JdrR7c/RLDFua52tNbi+2zcpHA5cH+6Wru3u2x3e03W2PyyrKWWJhO5suWtG7vOAKqnRfc30F6uFlqTqdXxuLGP2atbR5hzcuct1vBXWP1THCLn2L5txPanWa/Xi36urFHUOmpuY08/qseR6Acu90L6SVW6V7OXw2u+RN2wH0PrCOxyEvhccuQHWH6wTRtixKpUWUXvZYWURQWNol/G99+LIfrwo7jkf/AMuxJ8Ih+zxL1wLfqawX1k9Y7Uoq2B1FVSZZiEOcHslPLkCOu6DnyKyb/gGz4mrBd6e4SU0lTHGZX0zYp4KjVaGtkbtAzyyGYO3JeaZ6L5lfijUVt8UNJ2+qvE4vLTihpO31V4nF5a3vUMKkRW3xQ0nb6q8Ti8tOKGk7fVXicXlpvUMKkRW3xQ0nb6q8Ti8tOKGk7fVXicXlpvUMKkRW3xQ0nb6q8Ti8tOKGk7fVXicXlpvUMKkRW1xQ0nb6q8Ti8tR7F2BaXDFshr2XSeqfLWxUrYpII425PY95dm1xOzV+lWNWsziEwgysm3vv9LgG0S4TjlNVLcKr0ckoImSVoe1zg0auRO7UGwZ5ZchOdbLet93vVpdI+2V9TSGQASCB+TH5btdhzaSOTYtaleoTDHgqnWrBE14ZGzEclLUi4Boa2UwNLdQytZsz72/PmyUBXvV1ldX1ElVW1M1TUSZa8s73PeQNwzPIOQDILwVpXprgEU+wto/psR2eG6Pu01O+SeohdDHTxyNbwTy0dc5wO3YV3eKGk7fVXicXlrE6tY7LhUiK2+KGk7fVXicXlpxQ0nb6q8Ti8tTeoYVIitrihpO31V4nF5azxQ0nb6q8Ti8tN6hhUiK2+KGk7fVXicXlpxQ0nb6q8Ti8tN6iYVImStvihpO31V4nF5axxQ0nb6q8Ti8tN6i4c7RJ+MsRfAaT65yi2NfZXiX4Z/TYrZs9hw9gChudfU1z38KGdUVVSGsLmMzLIYYmcp27NpJ7mylLvcH3a6XO5PZqOraqWoDM8+DYTkxhPOBkCs6c5tNoJaKIi9KMIsrGYGZO4be8oJ9outRrL9UXJ7c4bTTksJBy6pqQY2ZcmxuufkV3KJaP7M6z4cohMzVq7gTcarMZOBmA4Nhz27GhvfzUs5l8/Unqs1CrdLdz1YbLaWO9e6W5VA/wRgwxfKS/wVMMFWs2nDNlp3t1Z5YOranPfwtSeGIPSAQ3vKq6pxxrj1sTOvopK5sLSMy0W6h2ucDya2TiOl/Sr3AGQAGQG4DkHMtX7VioIiLkoiIgFUfjqiqMN4tprzRN1WVcsd1pssw3qqJwE8Zy595/PV4KJ49sRvdgqhCzWrbeTXUmQ65xjHqkY/Obnl0gLpp2xIkNurqa50NDX0ztaCsp46iM8oDxnqnpG0HuL83W3U12t1wttQPUayB8LjvLHEZteOlpyI7irvRTfRJDWYfnf18BdW0GsdphefVYx+acnfrHmVorNq9FsD5craOpt9ZWUNU3VqKSeSnmHJrMOWY6DvHdWurS0p2DVfT4jp49j+Do7kANzhshmPd9Yf1VVq99LdUZYkREWgW1T3G60bSykr66nj9xT1M0TPBY4D6FqomMjo+juI+3N18dqfLWPR3Efbm6+O1PlrnopiB0fR3Efbm6+O1PlrHo7iPtzdfHany1z0TEDoejuI+3N18dqfLT0dxH25uvjtT5a56JiB0PR3Efbm6+O1Plp6O4j7c3Tx2p8tc9Za173sjjY98kj2xxsjaXPke45BjGt2kncExAkVgrcS3W+WO3i7XRzaiug4UdWVJHARu4WQka3I0FTfS5VsFNh+gDs3yVNTWPbzMjYImk90uOXcW/gzCMGFqaovt8lijrzTOL9dw4G3Uxyc5utuLz7YjuDndWmLb8cRXqqrmawpI2tpaBj9jm08ZOTiOdxJce70Lz1/d8x8X44KIi9TIiIirl0T1cctlutEXeqUlxfJkDkRFUxtLSO+HfIq0uFwxPbq+40El4uofR1U9Mc62pzyjeWg+u5RkVu4JxEzDt5bLUEi31zBSV5GZ4NuesyfIbetO/oJU7xzgs3oG/2QskrHQxvqIY3BzK6JretlgcNmvlllyEdI67zdqXnP1VW+juI+3N18dqfLT0dxH25uvjtT5a0CCCQQQQSCHAgtI2EEHbmFhd8QjoejuI+3N18dqfLT0dxH25uvjtT5a56JiB0PR3Efbm6+O1Plp6O4j7c3Xx2p8tc9ExA6Ho7iPtzdfHany09HcR9ubr47U+WueiYge1TV11Y5r6yqqalzc9V1TNJKW583CErxRFfAIiIC7+ELGb/fqCkezWpIHCtuBO7qeFwOofzzk3v9C4GYAJO4bSr30d4eNlsoqqmMtuF24OqnDh18UGXqMJz25gHWd0u6Fy1bdNSEzAAyAA2DLZsA6Aozjm9CyYer5Y36tXWDqCj90JJgQ545etbrHugc6k6o/HdzqcS4npbLbzwkdHOLbShuZa+slcGzSnLkbkG/qE8q8mnHVLTu6J7NqRXO+ysIMx9DqIu38FGQ+Z46C7VH6pVp8y0rVbqa022322mHqNHBHA05ZF5A657suVxzJ7q3VLW6pmVERFkETYmxARNibEFFYpoKvBeK6e525pbTyzm40AGYZtOVRSk820juOHMrptlwo7rQUNxpHa1PVwtmj525+uY7pacwekLlYuw9HiOz1NGA0VkX3Tb5HZdbUMByaSfauGbXd3PkVeaNsRPtdfPhy4l0cNXO8UwmzBp7g06j4XA7g/LL84f4l2n91z9hFuVtHSXCkq6KrjElNVRPhmY7lY4ZHLpG8H/RfOF+s1XYLpV2ypzPBO1qeXLIT07szHKO7uPSCF9LqI45wu3EVtMlM1oulA18tE7IAzNIzfTOPM72vMcudTSv0z3JUEiy5rmFzXtc1zXOa9rhk5rmnIgg7cwcx3lhe5kREQEREBERAREQFK9Hs1rgxTQS3B8cbRBVNpXzEBjapzQ1uZOwHLWA6VFE6OTmKlo6owPobE2FzidlPDNdqymoogH9TUrIjFLLmSJJC4ZnIbANw38qjPFFaO3Fx+ap/9FU8ddcYmhkVbWRs9zFUzMaO4A7Jfv0TvHbK4eN1HlrhGlaIxErlanFFae3Fx+ap/9FniitPbi4/NU/8Aoqq9E7xt/wBpXDxuo8tPRO8bf9pXDxuo8tXbv/kZWrxRWntxcfmqf/RY4orT24uPzVP/AKKq/RO8bf8AaVw8bqPLT0TvHbK4eN1Hlpt3/wAjK1eKO0j/AOYuPzVP/opZhvDsmHKeWjbdKyso9joIapsQFM7brcE5m0A824d/b8/eid47ZXDxuo8tfiSuuMzTHNW1kjDvbLUTPae6HOIUnStbzJlI9IBs78TV77Y+J7XxQOrHQFroureu4TVLdmeWrrdOfKoogyGxF3iMRhBERUEREBERAREQERbdtt1dd66kt1DHr1NU/UZ7mNg2ulefctG09zpSZxGZElwBho367NqqmPO12t7JqgOB1Z6j10cHNl7Z/QMvbK+1zLHZqKw2yjtlJtZAzOSQjJ08ztr5X9JPTs2DkXQkkiiZJJI5rI42Okke8gNYxo1i5xOzIBfPvbrnLUI5jTELcPWWomjflX1YdS28DeJXDrpcuZg67u5DlUK0WYfMstViOqZm2PhKS2l+0ukOyacE83rQely4N2rK7SBiunpaIvbSa5pqIkHKCijOtLVPGW9213faORXhQUVJbaKjoKSPUpqSFkELeXVYMsyec7yeUlbn8Vx9kbKJsTYuKiJsTYgIiICIiAqk0mYYdDL6ZbexzWudGLo2HrXRSggR1Tct2ZyDjz5HlJVtrznhhqIZoJ42SQzRvimjeM2vjeNVzXDmK1W3TORFMDYpbiK3cDUPaLrQNZHWA7DOzc2oaOZ3tuY91S5URebZdtH+Iqaut5caN73y0EkmZZLB/aUdQRygbOnY7YRsuSx3u33+3U9xonHUk6yWJxHCU8zfXRSAco+kbeVavWPaPCK/0jYPLzPiK1xZuAL7tTxja4D/AHpjRyj+0+XkOdUfw/8AeUL6qIBBBAIIIII3gqlseYIdaXzXm1RE2uR2vVwMGZoXuO17Wj+yP0HoOzto6v8A5lJhXyIi9SCIigIiICIiAiIgIiICIiAiIgIiICIiAiwsoCIiAiIgIiDM5AAkkgAAEkk7AABtQZa2SR8ccbHSSSPZHHHG0ue97zqtaxo2knkV84GwjHhyidU1bWuvFbG3qtwIcKeP1wpozu2bNc8p5w0LlYCwR6FiK9XeIeicjM6OnePwGN49c4H+1I382eW87LG3LxaupntDUQKq9JmKwxr8N0EmbnhrrvJHtLWnJzaUEcrthf0ZD2xClGNcWRYboQyncx92rGOFFGcnCJvrTUSN5h7Ucp6AdWEaPcLTXWr9M12DpaaOoklo2z5udWVmvm6peXb2tOeXO783IzTjEdckpbo/wsbFbzW1serdrkxr5mnfTU/rmQDPl9s/p2e1zM2RFzmZmcyoiIoCIiB3076Igd9O+iIHfTvoiDm3qz0F9t9Tba1pMUw1mPaBwkMrfWSxk+2H/jlVL0VXf9HN/mp6hhkppNXqmJuyGupNYhlRBns1hty5jm071fRXDxJhy3YloHUlUNSaPWfRVLQDJTSkZaw52nc4cvdAI6UvjtPhHRt1xoLrR01dQzNmpqhmtG9u8cha4bw4HYRyLZe1r2vY9ocx7S17XAFrmkZEEHZkVRFpu+ItHt4noa+ne6kkcHVdKHepzM9a2qo3u2Z/xyyORGbbtttyt13o4K+3zsmppxmx7dhBG9j2naHDlBCl6dPeBUeNsAy2t1RdrLE6S2HWkqaVgLpKHlLowNpi5f8AD3Norz/Pb3Qdy+qiAVWOL9HDKh09zw6xkcx1pKi3DJkUp3l1N7UOPudx5MuXtp63yyTCo0X6kjlikkiljfHLG4xyRytcyRjxva5rtoK/K9TIiIiiIiAiIgIiICIiAiIgIiICIiAiIgIiICItq3W+5XWrhobdTSVFVLtDGDY1oO18jvWho5SSkzEd5Gs1sj3sjjY98kjmxxsjaXve9xya1jW7STyBXJgjATbZwN3vUbX3PrX0tKcnR0OzY5/IZf4cm3a3p4QwLQYdYyrqzHV3hzTrT5ExUwcNrKZrvkLssz0A5KZLx6mr1doaiGdy4OJ8S2/DVvdV1GUlRLrR0NKDk+omAz7zRvceTukA5xHia14bouqKs69RKHNo6SNw4WoeB07mj2zju6SQDUVut2ItIt7nrKyVzKSN7W1dSwERUsIObaWkadmtl/HWOZO3FKZ/VvA9MPWS7Y8vVVc7rJI6hZMHV84zYJCB1tHT8wA2HLcOl228oIIKaGGnp42RQQxsiijjaGsjYwZBrQNmQXhb7fQ2ujpaChhZDS0zNSKNnIM8yXE7SSdpJ3k5rbWb26pU76d9EWQ76z31hEDvp30RAREQEREBERAREQcTEWG7XiSiNLWN1Jo9Z1HVRgcLTSEb2572n2zc8j3RmKgp6nFejm8PhljD6aY5viJcKK4RNP3yF5Gx458sxuIy3318i593tFrvVHJRXGnbNA46zeSSJ+WQkieNocOf/LYt1v09p8DxsWILTiGjFXb5s8smzwSZCemkPtJWfwO48hXV51RV3w7inAde26W2olfRNfqxV0Lc9VhI9RrovW5Hdt2HZuOwT/C2P7VfeCo67g6G6nrRG52VPUu3fc8juU+5O3mzVtT7XwjoYmwZZcSMdLI3qa4tZqxV0LRr5Dc2ZuwOb3TnzEKlb9hm+4dm1LhT+oOcRDWQaz6WUcnX5Zg9Dsj/ABX0j8i8p4IKmGWCeKOaGVpZLFMxr43tO8Oa4ZJTVtUw+WSit6/6LKOoMlTh+cUspzcaKpLnUrjvyikGb29whw7iq+6Wi82afgLpRTUr8yGukGcUvTFK3Nh7xXrpqVszMNBFlF1BERQEREBERAREQEREBERBhZRNwzOwDnQFjMDaTkOcruWXCuJMQFpt9G4UxOTqypzipW8mYeRm7uNBVr4e0cWG0GKpr8rnXsIc187AKWF2efqUBzGY53E7uRcratamFdYawJfMQGKoma6gtZ1XdVTs9VnbyinidkTn7o7O7uV02SwWWwUvUttpxG05GaVx1p53j200h2k83IM9gC6uQ6F+XuZGx73uaxjGue9ziGta1ozLnE7MgvJfUmzWH6UUxXjS2YbjdA3UqrtIzOGka7ZGHDZJUuG5vKBvPJs2tjOK9JkUImoMOvZJJtZNciNaKM7iKVrvXH/EdnNnnmOZhbR9cbxKLtiU1EdLM/hxTzPeK2uc46xfUPd17Wnu6x6BtOopEd7GXNslgxFj25TXW5VEzaEyFtRWuAGu1p/B6Jh63Z8jd+0+uuu3W632qjp6Ggp2QUtOzVjjZ8pc4naXHeSdpXtBT09LDDT08UcMELGxxRRNDGMY0ZBrWt2ZL1WLXmyiIiyCIiAiIgIiICJsTYgImxNiAibE2ICJsTYgImxNiD8yRslY+ORjHxva5kjJGhzXtcMiHA7CFV2KNGTXmWtw3qxvzL326V+URO/OlefWnoJy5iNytNMlqtpr4FJ2LH2IcPTehd/p6qqp6ctjeypBZcaUDZsc/LWHMHd53IrZtF8st8g6otlZFO0AcJGDqzQnmlid1wPeXlfMNWHEMIiuVK18jGlsNTH1lTDn2OUbcug5joVU3bAOLMOVHojYp6irhiJeyaiJiuELRyPiaeuHPq558wXT83/1KLuBBXjU0tJWQvp6unhqIJBk+KdjZI3d1rgQqmsmlOupy2mxBSGoDDqSVVK1sVS0jYeFp3ZNJ58tXuKy7Vf7Be4xJbK+CoOWbog7Unj5cnwvyePkWLUtVURvGi2wVmvLappbbOcyI9s9ITv+9vOuO87vKAXTAGMrXru6h6tgbmeGtruGOXTCcpf3SvoBFquraqYfK0jXxPdFKx8crSQ6OVrmSA8xa4ArC+nq61We5MLLhQUdU0jL7phjkI7hcMx8qitboxwXVaxgiq6Fx5aOocW+BPrhdY1+YTCi/wD/AFFadVoikGZob40jkZWUv/fE/wD7VxajRbjKHPgpLVUDk4Kokjd3xLGB9K6xq1n6mEGRSmXR7j2LP/ZIk/Q1dK7+LwvA4Ix0N9iq9vM+mPy5SLXXXkwjqKRDA+O3ZZWKpGfupaYfLnItqLR1jyXIm2xRZ9mrKYZd0NcSpuV5MImin1NopxZKQairtVO3lAknmeO82MN/eXbpdEVMNU118qH87aOnjh+R8jnn6FmdWsLhUy9aamrK2UQ0VNUVUpy9TpYnzO284YCr4odHWB6Ihxt5q5Bl19wlkm/6eYj/AHVKKelpKSNsNLBBBE31sdPGyJg7jWABc51+IMKQtWjPFtfqPrBBbIDvNS4S1GrzthiOXyvCsOzaOcKWoxyzQvuVUwgiWvydG12/NkA9T+UHuqY5BZXCdS1vK4Ya1rWta1oa1oDWhoAAA5ABsWVHr1jHC9iD21daySqbn9yUeU9RmORzWnVb+s4KtLppCxXfp/Q+xU81G2brGR0IdPcJBs2mVo60fmgZc6Rp2sLKxBjDD2HWuZVT8NW6ucdFTZPnJI2cJ7Vo6SR39yqmvvmNMfVbrfQwSNpA4HqKlcW00TSdj62c5Z5dOQ2bG8/ZsGi6uqnNq8R1DoGPdwjqOmkD6mQnaeHqNoHSBmekK1LfbbZaqaOkt1LDTU7N0cLcsz7px9cTzkklbzWnjvIiOFtHtsshhrbgY6+6tAc1zm/ctK7/AIEbhmSPdEZ8wbyzlE2LlMzM91ETYmxQETYmxARNibEBE2JsQETYmxAREQEREBERAREQEREBEWUGFjJfpYQcG94Tw1fgTX0TBUkZCrp/Uakc2cjd/cIIVb3XRhiCgkNVYqwVjYzrxsc7qWuZltAY8Hgye+3uK5u8i3W9qmFHU2ONIGHJW0l2ikma06oivEL2TEDeWVDcie6S5TG2aU8N1Woy4wVVvlPrnlvVNOOnXiGv+4p1UUtJVxOgqqeCeF4ydHURskjcOlrwQohctGmDq4vfTw1FvldmdahlIjz/AEUusz5AFrqpb2hElob1YrmGm33Kiqc9obDNG6Qd2PPWHyLoKm67RPe4XGS2XOkqdU6zRUskpZhluAfHrNz+RaIodMVh2Qi8mJm4U8zLhFkOURkv/lCbdZ8SZXkneVIN0j4/t51a+Cned2Vwt8tO7Z0xFg+hdCDS/WDLqizUj+c09Y+P6Hsd/FSdKTK38uhMuhVhHpdt5++2SsZ+jqYZP4tatgaW7Bl11rugPKG9TEfLwgU2r8GYWPkOZMuhVu7S3YfaWq6Hn1jTN/g8rWk0vUgz4OxVDtmwyVkbB+7GVdq/BlaKKnKjS9dSHdTWq3xZ+tM880+XdDAz+K0jjnSZddlBFKGvOTRbLW6Tf7l8rX/xV2rfTK8Ny41wxRha1Ziuu1FHIN8TJOGn+ah1n/Qqm9Leli/H7t9EBE7b/tOu4GMZ/wDAa4n9xdi36I5+tddLxGz3UVthLif/ANp8vq06Kx5kbtz0tWyIPZabdPUuyyE1a4U8IPOGN1nkeCoq+9aTMZOdDRtrDSPJaY7aw0lEATkWyVDiCR3ZD3FZtswBgy2Fr225tXM3I8LcXdUnMcoY/wBT/dUoYxjGtYxjWsaMmtaAGgDkAGxOqtfWBVFm0TyHUmv1eGgkONJbTtO3P1SokHy5N76si12Wy2WDqe10MFMw5a5jbnJIRszkkdm8nukroosWta3lRERZBFlYQEREBERAREQERZQYREQEREBERAREQEREBERAREQEREBERAREQERFMD8uYx4IexrhzOAI+lc+ew4cqc+Hs9slJ3mSjpyT3y3NdJFrOBHpME4Hkz1rDbx+jjMf1ZC8Do/wESSbJDt5pqoD5BJkpQidU8iLtwBgJpJFjgOezrpalw7wdIVtR4NwVF62wWw/pIGyfWZrvImZGlBabLTZdTWyghy3GGlgYR4LVuAAAADIDcBsHyBZRQEREBERAREQEREBERAREQEREBERAREQEREH/9k=;direction=south;textShadow=1;" parent="N3tuldMV24hy1_GBqyLN-5" vertex="1">
          <mxGeometry x="30" y="195.1" width="90" height="90" as="geometry" />
        </mxCell>
        <mxCell id="N3tuldMV24hy1_GBqyLN-47" style="edgeStyle=orthogonalEdgeStyle;rounded=0;orthogonalLoop=1;jettySize=auto;html=1;textShadow=1;" parent="N3tuldMV24hy1_GBqyLN-5" source="N3tuldMV24hy1_GBqyLN-30" edge="1">
          <mxGeometry relative="1" as="geometry">
            <mxPoint x="240" y="450" as="targetPoint" />
          </mxGeometry>
        </mxCell>
        <mxCell id="N3tuldMV24hy1_GBqyLN-30" value="(Data Storage)" style="rounded=0;whiteSpace=wrap;html=1;shadow=1;flipH=0;textShadow=1;" parent="N3tuldMV24hy1_GBqyLN-5" vertex="1">
          <mxGeometry x="188.5" y="340" width="103" height="30" as="geometry" />
        </mxCell>
        <mxCell id="N3tuldMV24hy1_GBqyLN-40" style="edgeStyle=orthogonalEdgeStyle;rounded=0;orthogonalLoop=1;jettySize=auto;html=1;shadow=1;textShadow=1;" parent="N3tuldMV24hy1_GBqyLN-5" source="N3tuldMV24hy1_GBqyLN-10" edge="1">
          <mxGeometry relative="1" as="geometry">
            <mxPoint x="-410" y="360" as="targetPoint" />
            <Array as="points">
              <mxPoint x="340" y="145" />
              <mxPoint x="340" y="480" />
              <mxPoint x="-410" y="480" />
            </Array>
          </mxGeometry>
        </mxCell>
        <mxCell id="N3tuldMV24hy1_GBqyLN-41" value="&lt;span&gt;Encryption&lt;/span&gt;" style="edgeLabel;html=1;align=center;verticalAlign=middle;resizable=0;points=[];rotation=90;labelBackgroundColor=#CCCCCC;fontStyle=0;textShadow=1;" parent="N3tuldMV24hy1_GBqyLN-40" vertex="1" connectable="0">
          <mxGeometry x="-0.6928" y="1" relative="1" as="geometry">
            <mxPoint as="offset" />
          </mxGeometry>
        </mxCell>
        <mxCell id="N3tuldMV24hy1_GBqyLN-43" value="Encryption" style="edgeLabel;html=1;align=center;verticalAlign=middle;resizable=0;points=[];labelBackgroundColor=#CCCCCC;textShadow=1;" parent="N3tuldMV24hy1_GBqyLN-40" vertex="1" connectable="0">
          <mxGeometry x="-0.2361" y="3" relative="1" as="geometry">
            <mxPoint x="1" y="-3" as="offset" />
          </mxGeometry>
        </mxCell>
        <mxCell id="N3tuldMV24hy1_GBqyLN-72" value="&lt;span style=&quot;color: rgba(0, 0, 0, 0); font-family: monospace; font-size: 0px; text-align: start; background-color: rgb(251, 251, 251);&quot;&gt;%3CmxGraphModel%3E%3Croot%3E%3CmxCell%20id%3D%220%22%2F%3E%3CmxCell%20id%3D%221%22%20parent%3D%220%22%2F%3E%3CmxCell%20id%3D%222%22%20value%3D%22Encryption%22%20style%3D%22edgeLabel%3Bhtml%3D1%3Balign%3Dcenter%3BverticalAlign%3Dmiddle%3Bresizable%3D0%3Bpoints%3D%5B%5D%3BlabelBackgroundColor%3D%23CCCCCC%3B%22%20vertex%3D%221%22%20connectable%3D%220%22%20parent%3D%221%22%3E%3CmxGeometry%20x%3D%221000.5384615384614%22%20y%3D%221080.0769230769229%22%20as%3D%22geometry%22%2F%3E%3C%2FmxCell%3E%3C%2Froot%3E%3C%2FmxGraphModel%3E&lt;/span&gt;" style="edgeLabel;html=1;align=center;verticalAlign=middle;resizable=0;points=[];textShadow=1;" parent="N3tuldMV24hy1_GBqyLN-40" vertex="1" connectable="0">
          <mxGeometry x="0.5137" y="3" relative="1" as="geometry">
            <mxPoint x="-1" as="offset" />
          </mxGeometry>
        </mxCell>
        <mxCell id="N3tuldMV24hy1_GBqyLN-1" style="edgeStyle=orthogonalEdgeStyle;rounded=0;orthogonalLoop=1;jettySize=auto;html=1;entryX=0.5;entryY=0;entryDx=0;entryDy=0;textShadow=1;" parent="WIyWlLk6GJQsqaUBKTNV-1" source="ttBeq1UxZRL0ylQ9z-ZB-26" target="0slJHiL-0B2PbUMmb_t5-18" edge="1">
          <mxGeometry relative="1" as="geometry" />
        </mxCell>
        <mxCell id="N3tuldMV24hy1_GBqyLN-57" style="edgeStyle=orthogonalEdgeStyle;rounded=0;orthogonalLoop=1;jettySize=auto;html=1;entryX=0;entryY=0.5;entryDx=0;entryDy=0;textShadow=1;" parent="WIyWlLk6GJQsqaUBKTNV-1" target="N3tuldMV24hy1_GBqyLN-7" edge="1">
          <mxGeometry relative="1" as="geometry">
            <mxPoint x="620" y="681" as="sourcePoint" />
            <Array as="points">
              <mxPoint x="620" y="675" />
            </Array>
          </mxGeometry>
        </mxCell>
        <mxCell id="N3tuldMV24hy1_GBqyLN-58" value="Data Ingestion" style="edgeLabel;html=1;align=center;verticalAlign=middle;resizable=0;points=[];labelBackgroundColor=#CCCCCC;textShadow=1;" parent="N3tuldMV24hy1_GBqyLN-57" vertex="1" connectable="0">
          <mxGeometry x="-0.2867" relative="1" as="geometry">
            <mxPoint x="29" y="1" as="offset" />
          </mxGeometry>
        </mxCell>
        <mxCell id="0slJHiL-0B2PbUMmb_t5-18" value="Network" style="swimlane;whiteSpace=wrap;html=1;shadow=1;textShadow=1;" parent="WIyWlLk6GJQsqaUBKTNV-1" vertex="1">
          <mxGeometry x="80" y="480" width="540" height="240" as="geometry" />
        </mxCell>
        <mxCell id="0slJHiL-0B2PbUMmb_t5-30" value="4G / 5G Network" style="rounded=0;whiteSpace=wrap;html=1;shadow=1;textShadow=1;" parent="0slJHiL-0B2PbUMmb_t5-18" vertex="1">
          <mxGeometry x="30" y="50" width="480" height="160" as="geometry" />
        </mxCell>
        <mxCell id="0slJHiL-0B2PbUMmb_t5-31" value="Satellite Communication" style="rounded=0;whiteSpace=wrap;html=1;shadow=1;fillColor=#E3E3E3;fontColor=#333333;strokeColor=#666666;gradientColor=none;textShadow=1;" parent="0slJHiL-0B2PbUMmb_t5-18" vertex="1">
          <mxGeometry x="50" y="150" width="120" height="35" as="geometry" />
        </mxCell>
        <mxCell id="zklYke0HYy3J-oZaXSR5-0" value="Mobile App" style="rounded=0;whiteSpace=wrap;html=1;shadow=1;fillColor=#E3E3E3;fontColor=#333333;strokeColor=#666666;textShadow=1;" parent="0slJHiL-0B2PbUMmb_t5-18" vertex="1">
          <mxGeometry x="370" y="150" width="120" height="35" as="geometry" />
        </mxCell>
        <mxCell id="ttBeq1UxZRL0ylQ9z-ZB-29" value="" style="fontColor=#0066CC;verticalAlign=top;verticalLabelPosition=bottom;labelPosition=center;align=center;html=1;outlineConnect=0;fillColor=#CCCCCC;strokeColor=#6881B3;gradientColor=none;gradientDirection=north;strokeWidth=2;shape=mxgraph.networks.satellite;shadow=1;textShadow=1;" parent="0slJHiL-0B2PbUMmb_t5-18" vertex="1">
          <mxGeometry x="75" y="60" width="70" height="72.5" as="geometry" />
        </mxCell>
        <mxCell id="ttBeq1UxZRL0ylQ9z-ZB-30" value="" style="image;sketch=0;aspect=fixed;html=1;points=[];align=center;fontSize=12;image=img/lib/mscae/Mobile_Engagement.svg;shadow=1;textShadow=1;" parent="0slJHiL-0B2PbUMmb_t5-18" vertex="1">
          <mxGeometry x="405" y="58.97" width="50" height="73.53" as="geometry" />
        </mxCell>
        <mxCell id="0slJHiL-0B2PbUMmb_t5-50" value="Security Layer" style="swimlane;whiteSpace=wrap;html=1;shadow=1;textShadow=1;" parent="WIyWlLk6GJQsqaUBKTNV-1" vertex="1">
          <mxGeometry x="110" y="800" width="480" height="200" as="geometry" />
        </mxCell>
        <mxCell id="0slJHiL-0B2PbUMmb_t5-51" value="Firewalls" style="rounded=0;whiteSpace=wrap;html=1;shadow=1;textShadow=1;" parent="0slJHiL-0B2PbUMmb_t5-50" vertex="1">
          <mxGeometry x="20" y="130" width="120" height="30" as="geometry" />
        </mxCell>
        <mxCell id="0slJHiL-0B2PbUMmb_t5-52" value="Encryption Modules" style="rounded=0;whiteSpace=wrap;html=1;shadow=1;textShadow=1;" parent="0slJHiL-0B2PbUMmb_t5-50" vertex="1">
          <mxGeometry x="180" y="130" width="120" height="30" as="geometry" />
        </mxCell>
        <mxCell id="0slJHiL-0B2PbUMmb_t5-53" value="Access Control" style="rounded=0;whiteSpace=wrap;html=1;shadow=1;textShadow=1;" parent="0slJHiL-0B2PbUMmb_t5-50" vertex="1">
          <mxGeometry x="340" y="130" width="120" height="30" as="geometry" />
        </mxCell>
        <mxCell id="ttBeq1UxZRL0ylQ9z-ZB-41" value="" style="image;aspect=fixed;html=1;points=[];align=center;fontSize=12;image=img/lib/azure2/networking/Azure_Firewall_Manager.svg;shadow=1;textShadow=1;" parent="0slJHiL-0B2PbUMmb_t5-50" vertex="1">
          <mxGeometry x="45" y="60" width="70" height="60" as="geometry" />
        </mxCell>
        <mxCell id="ttBeq1UxZRL0ylQ9z-ZB-44" value="" style="verticalLabelPosition=bottom;sketch=0;html=1;fillColor=#A153A0;strokeColor=#ffffff;verticalAlign=top;align=center;points=[[0,0.5,0],[0.125,0.25,0],[0.25,0,0],[0.5,0,0],[0.75,0,0],[0.875,0.25,0],[1,0.5,0],[0.875,0.75,0],[0.75,1,0],[0.5,1,0],[0.125,0.75,0]];pointerEvents=1;shape=mxgraph.cisco_safe.compositeIcon;bgIcon=mxgraph.cisco_safe.design.blank_device;resIcon=mxgraph.cisco_safe.design.encryption_offload;shadow=1;textShadow=1;" parent="0slJHiL-0B2PbUMmb_t5-50" vertex="1">
          <mxGeometry x="202.5" y="60" width="75" height="58" as="geometry" />
        </mxCell>
        <mxCell id="ttBeq1UxZRL0ylQ9z-ZB-45" value="" style="verticalLabelPosition=bottom;html=1;verticalAlign=top;align=center;strokeColor=none;fillColor=#00BEF2;shape=mxgraph.azure.access_control;shadow=1;textShadow=1;" parent="0slJHiL-0B2PbUMmb_t5-50" vertex="1">
          <mxGeometry x="367.5" y="60" width="65" height="58" as="geometry" />
        </mxCell>
        <mxCell id="ttBeq1UxZRL0ylQ9z-ZB-9" value="Physical Layer" style="swimlane;whiteSpace=wrap;html=1;shadow=1;textShadow=1;" parent="WIyWlLk6GJQsqaUBKTNV-1" vertex="1">
          <mxGeometry x="130" y="200" width="440" height="180" as="geometry" />
        </mxCell>
        <mxCell id="ttBeq1UxZRL0ylQ9z-ZB-26" value="&lt;h4&gt;&lt;span style=&quot;font-weight: normal;&quot;&gt;Vehicle Tracking Device 2&lt;/span&gt;&lt;/h4&gt;" style="rounded=0;whiteSpace=wrap;html=1;opacity=90;shadow=1;textShadow=1;fontColor=default;" parent="ttBeq1UxZRL0ylQ9z-ZB-9" vertex="1">
          <mxGeometry x="160" y="130" width="120" height="35" as="geometry" />
        </mxCell>
        <mxCell id="ttBeq1UxZRL0ylQ9z-ZB-3" value="" style="sketch=0;outlineConnect=0;fillColor=#60a917;strokeColor=#2D7600;dashed=0;verticalLabelPosition=bottom;verticalAlign=top;align=center;html=1;fontSize=12;fontStyle=0;aspect=fixed;pointerEvents=1;shape=mxgraph.aws4.iot_core_device_location;fontColor=#ffffff;shadow=1;textShadow=1;" parent="ttBeq1UxZRL0ylQ9z-ZB-9" vertex="1">
          <mxGeometry x="188" y="44" width="64" height="64" as="geometry" />
        </mxCell>
        <mxCell id="ttBeq1UxZRL0ylQ9z-ZB-5" value="" style="sketch=0;outlineConnect=0;fontColor=#ffffff;fillColor=#60a917;strokeColor=#2D7600;dashed=0;verticalLabelPosition=bottom;verticalAlign=top;align=center;html=1;fontSize=12;fontStyle=0;aspect=fixed;pointerEvents=1;shape=mxgraph.aws4.iot_core_device_location;shadow=1;textShadow=1;" parent="ttBeq1UxZRL0ylQ9z-ZB-9" vertex="1">
          <mxGeometry x="330" y="46" width="60" height="60" as="geometry" />
        </mxCell>
        <mxCell id="ttBeq1UxZRL0ylQ9z-ZB-1" value="" style="sketch=0;outlineConnect=0;fontColor=#ffffff;fillColor=#60a917;strokeColor=#2D7600;verticalLabelPosition=bottom;verticalAlign=top;align=center;html=1;fontSize=12;fontStyle=0;aspect=fixed;pointerEvents=1;shape=mxgraph.aws4.iot_core_device_location;gradientColor=none;shadow=1;textShadow=1;" parent="ttBeq1UxZRL0ylQ9z-ZB-9" vertex="1">
          <mxGeometry x="46" y="42" width="64" height="64" as="geometry" />
        </mxCell>
        <mxCell id="ttBeq1UxZRL0ylQ9z-ZB-23" value="Vehicle Tracking Device 1" style="rounded=0;whiteSpace=wrap;html=1;opacity=90;shadow=1;textShadow=1;" parent="ttBeq1UxZRL0ylQ9z-ZB-9" vertex="1">
          <mxGeometry x="18" y="130" width="120" height="35" as="geometry" />
        </mxCell>
        <mxCell id="ttBeq1UxZRL0ylQ9z-ZB-27" value="&lt;div&gt;&lt;br&gt;&lt;/div&gt;&lt;div&gt;&lt;span style=&quot;background-color: initial;&quot;&gt;Vehicle Tracking Device 3&lt;/span&gt;&lt;/div&gt;&lt;div&gt;&lt;br&gt;&lt;/div&gt;" style="rounded=0;whiteSpace=wrap;html=1;opacity=90;glass=0;shadow=1;textShadow=1;" parent="ttBeq1UxZRL0ylQ9z-ZB-9" vertex="1">
          <mxGeometry x="300" y="130" width="120" height="35" as="geometry" />
        </mxCell>
        <mxCell id="ttBeq1UxZRL0ylQ9z-ZB-10" value="Telemetry Data" style="text;html=1;align=center;verticalAlign=middle;whiteSpace=wrap;rounded=0;fillColor=#CCCCCC;shadow=1;textShadow=1;" parent="WIyWlLk6GJQsqaUBKTNV-1" vertex="1">
          <mxGeometry x="325" y="410" width="50" height="30" as="geometry" />
        </mxCell>
        <mxCell id="ttBeq1UxZRL0ylQ9z-ZB-31" style="edgeStyle=orthogonalEdgeStyle;rounded=0;orthogonalLoop=1;jettySize=auto;html=1;entryX=0.5;entryY=0;entryDx=0;entryDy=0;textShadow=1;" parent="WIyWlLk6GJQsqaUBKTNV-1" source="ttBeq1UxZRL0ylQ9z-ZB-23" target="0slJHiL-0B2PbUMmb_t5-18" edge="1">
          <mxGeometry relative="1" as="geometry">
            <Array as="points">
              <mxPoint x="208" y="460" />
              <mxPoint x="350" y="460" />
            </Array>
          </mxGeometry>
        </mxCell>
        <mxCell id="ttBeq1UxZRL0ylQ9z-ZB-20" value="Telemetry Data" style="text;html=1;align=center;verticalAlign=middle;whiteSpace=wrap;rounded=0;fillColor=#CCCCCC;shadow=1;textShadow=1;" parent="WIyWlLk6GJQsqaUBKTNV-1" vertex="1">
          <mxGeometry x="180" y="410" width="50" height="30" as="geometry" />
        </mxCell>
        <mxCell id="ttBeq1UxZRL0ylQ9z-ZB-35" style="edgeStyle=orthogonalEdgeStyle;rounded=0;orthogonalLoop=1;jettySize=auto;html=1;entryX=0.5;entryY=0;entryDx=0;entryDy=0;textShadow=1;" parent="WIyWlLk6GJQsqaUBKTNV-1" source="ttBeq1UxZRL0ylQ9z-ZB-27" target="0slJHiL-0B2PbUMmb_t5-18" edge="1">
          <mxGeometry relative="1" as="geometry">
            <Array as="points">
              <mxPoint x="490" y="460" />
              <mxPoint x="350" y="460" />
            </Array>
          </mxGeometry>
        </mxCell>
        <mxCell id="ttBeq1UxZRL0ylQ9z-ZB-19" value="Telemetry Data" style="text;html=1;align=center;verticalAlign=middle;whiteSpace=wrap;rounded=0;fillColor=#CCCCCC;shadow=1;textShadow=1;" parent="WIyWlLk6GJQsqaUBKTNV-1" vertex="1">
          <mxGeometry x="463.5" y="410" width="50" height="30" as="geometry" />
        </mxCell>
        <mxCell id="N3tuldMV24hy1_GBqyLN-51" style="edgeStyle=orthogonalEdgeStyle;rounded=0;orthogonalLoop=1;jettySize=auto;html=1;entryX=1;entryY=0.5;entryDx=0;entryDy=0;textShadow=1;" parent="WIyWlLk6GJQsqaUBKTNV-1" source="ttBeq1UxZRL0ylQ9z-ZB-63" target="zklYke0HYy3J-oZaXSR5-0" edge="1">
          <mxGeometry relative="1" as="geometry">
            <Array as="points">
              <mxPoint x="700" y="300" />
              <mxPoint x="700" y="647" />
            </Array>
          </mxGeometry>
        </mxCell>
        <mxCell id="N3tuldMV24hy1_GBqyLN-52" value="4G / 5G Network" style="edgeLabel;html=1;align=center;verticalAlign=middle;resizable=0;points=[];labelBackgroundColor=#CCCCCC;textShadow=1;" parent="N3tuldMV24hy1_GBqyLN-51" vertex="1" connectable="0">
          <mxGeometry x="-0.7096" y="-1" relative="1" as="geometry">
            <mxPoint as="offset" />
          </mxGeometry>
        </mxCell>
        <mxCell id="N3tuldMV24hy1_GBqyLN-53" value="Mobile App" style="edgeLabel;html=1;align=center;verticalAlign=middle;resizable=0;points=[];rotation=90;labelBackgroundColor=#CCCCCC;textShadow=1;" parent="N3tuldMV24hy1_GBqyLN-51" vertex="1" connectable="0">
          <mxGeometry x="0.0252" relative="1" as="geometry">
            <mxPoint y="32" as="offset" />
          </mxGeometry>
        </mxCell>
        <mxCell id="ttBeq1UxZRL0ylQ9z-ZB-63" value="End User" style="swimlane;whiteSpace=wrap;html=1;shadow=1;textShadow=1;" parent="WIyWlLk6GJQsqaUBKTNV-1" vertex="1">
          <mxGeometry x="900" y="200" width="490" height="200" as="geometry" />
        </mxCell>
        <mxCell id="ttBeq1UxZRL0ylQ9z-ZB-64" value="D&lt;span style=&quot;background-color: initial;&quot;&gt;rivers&lt;/span&gt;" style="rounded=0;whiteSpace=wrap;html=1;shadow=1;textShadow=1;" parent="ttBeq1UxZRL0ylQ9z-ZB-63" vertex="1">
          <mxGeometry x="30" y="135" width="120" height="30" as="geometry" />
        </mxCell>
        <mxCell id="ttBeq1UxZRL0ylQ9z-ZB-65" value="" style="shape=image;verticalLabelPosition=bottom;labelBackgroundColor=default;verticalAlign=top;aspect=fixed;imageAspect=0;image=data:image/jpeg,/9j/4AAQSkZJRgABAQAAAQABAAD/2wBDAAsJCQcJCQcJCQkJCwkJCQkJCQsJCwsMCwsLDA0QDBEODQ4MEhkSJRodJR0ZHxwpKRYlNzU2GioyPi0pMBk7IRP/2wBDAQcICAsJCxULCxUsHRkdLCwsLCwsLCwsLCwsLCwsLCwsLCwsLCwsLCwsLCwsLCwsLCwsLCwsLCwsLCwsLCwsLCz/wAARCAFoAU4DASIAAhEBAxEB/8QAHAABAAMAAwEBAAAAAAAAAAAAAAUGBwEDBAII/8QARRAAAQMEAAMEBgYFCQkAAAAAAAECAwQFESEGEjETQVFhBxQiMnGBFSNCUpGhYpKiseEWJDRDY3KCo8ElM0RTVHaUsrT/xAAWAQEBAQAAAAAAAAAAAAAAAAAAAQL/xAAWEQEBAQAAAAAAAAAAAAAAAAAAEQH/2gAMAwEAAhEDEQA/ANbA0NAANDQADQ0AA0NAANDQADQ0AA0NAANDQADQ0AA0NAANDQADQ0AA0NAANDQADQ0AA0NAANDQADQ0AA0NAANDQADQ0AAAAAAAAAAAAAAAAAAAAAAAAAAAAAAAAAAAAAAAAAAAAAAAAAAAAAAAAAAAAAAAAAAAAAAAAAAAAAAAAAAAAAAAAAAAAAAAAAAAAAAAAAAAAAAAAAAAAAAAAAAAAAAAAAAAAAAAAAAAAAAAAAAAAAAAAAAAAAAAAAAAAAAAAAAAAAAAAAAAAAAAAAAAAAAAAAAAAAAAAAAAAAAAAAAAAAAAAAAAAAAAAAAAAAAAAAAAAAAAAAAAAAAAAAAAAAAAAAAAAAAAAAAAAAAAAAAAAAAAAAAAAAAAAAAAAAAAAAAAAAAAAAA6ZVdIneuv3nws0CLhZY0XwV7c/vA+wcI5rvdci/BUX9xyAAAAAAAAAAAAAAAAAAAAAAAAAAAAAAAAAAAAAAAAAAAAAADz1VZR0MD6msnip4Ge9JM9GNz4JnvXuQhOJeKqHh+Ps0RKi4ys5oKZFw1qLrtJ3J0b4J1Xu71bkVzu10vFT6zcKh0siKvZs92KFF1ywxppE/Ne9VCtAuvpIpIldHZ6N1Q5NJUVnNFD8WxN+sVPjylQreMOLK5V57lLCxVXEdEjadqeXMz6z8XqQAIsdktRVTqrp6ieZy9VmmkkVf11U62tiz7aa/RRufzAA9UUNA5U5bjLTr3LJSSuRP8AFTSqv7BLUv0/HhbbxTRuXujS71FI9cd3Z17GN/Mr48gL1FePSrQNY+WkqKyBNo71anrY3Inf2tAvNjzyeul9JixvSK6WpWPRfaWmkcx6eP1FSiL+2Z/T1NXSPSSkqJ6eROjqaV8TvxjVCai4tv6MbDWupLnTt/qrrSxTp+uiI/PzUJGn0HGPClw5Wsr2QSu/qq5Fp3fDmf7C/Jyk+1zXI1zVRWuTLVRUVFRdoqKhizavgOvTlrbTWWmZ3We0TdtT8y/adTyphE+DVJGgtd9pUdPwdxJT18TcudSNk9Xn19+kqFWNfmjSkayDOqX0gXGgmbR8S2maGZMIskEbopMInvLBKvK74tf8i7W272m7Rdtb6uKdrffa1cSRr4SRuw5PmgR7wAAAAAAAAAAAAAAAAAAAAAAAAAAAAAAAAAAIPiW/QWC3OqVRslXMqw0MLlwkkuMq52N8rU278MpknDEuL7wt4vVU5j+ako1dR0iIuWq2N2HyJj7zsrnwRPAKg6ioqaueepqZXy1E71kmkkXLnOX8vgnd07jqAIoAAAAAAAAAABy1zmPa9jnMkYuWPY5Wvaqd7XN3+ZwALHS8W3LsUo7xBT3mgX3ori1Fmanesc6Irs+Cqi/6ndWW+3U9sg4r4bq7hRM9c9TWmmX66GbmVrkina5VVvkvMip4dFr1DRV1zrILfb4lmqpnI3GF7OFvVZZ3J0anVc9eiZVSavdwt9Fb6fhm2TdvQ0M7qmvrn7Wtr1VVe6JEyiMRc4x11jKNy8LTw/6QY5HR0t+RkT1w1lfE3ELl7vWI091fNNfA0Fr2Pax7HNcx7UexzVRWuaqZRUVNYMksvAF3uUEdXXVH0bFK3nhhdD2tW5q9HSMc5Gtz4LlfFEL1w3w9cbAk1O+8vrKBW/zelfTJH2D85VzH9o5cL3oiY7/jU1YwAEAAAAAAAAAAAAAAAAAAAAAAAAAAAAAERxJXutljvFYxcSx0zo4VTqk0ypDGqfBVRfkYRhEwid2ENVvkV34tqbrZrZLS09ttE8LKqoqGyPWquCNSRYWIzo2NF9pcdSrS+j3i+NVSNtunTuWOqezPykjT95FxUwWb+QfGv/Q0u+9a2LX5f6Hoi9HnF0nv/RkPTb6mR6/hHF/qFVEF/g9GNwdj1u808ad6UtK+RfgjpXon7JL03o14ej5Vqqu51LkXKp2scDF+ULEd+0CsoVUamXKiJ4quE/M4Y5si4jzIvhE1z1/BiKbnScIcIUSo6Gz0avTo+oatQ/8AWnVyk1HDDC1GQxRxsT7MTGsb+DUwEr86Kjmryua9ruvLI1zHY+DkRQbvxDaKS82ysp5o0WVkMktJJhOeGdrVc1zXYzhcYd4opg6LlEXxRF/FArkAACRs9sS6VMvbTeq22hjbVXasXTaenzhGNX/mSbaxN964XGF8dPT1FZPDTU6M7WTmXmldyQxRsTmkmmf3MYmVevgniuF9tdWwJTw2u3Ok+jKaR0qyPbySXGqVOV1ZO3uz0jb9lvn0D3VvEkywzWyxUkdrtMirEkNJH/PKpjvZT1iXb1c7vRF78Zd39dC+22Jzayqiir71GqOo6LmR1DbXYzz1b2Lh8ydzWrhvevN0hEVUVFRVRU6Kml/I48PAC88HX66VvFPNcKmSd1yo56fDlxHG6H+cMbHGnsomEf0Tv6qvXVTBeHJXQcQ8OyIqp/tKnjVf0Zswr/7G9IVNAAEAAAAAAAAAAAAADQ0NjYDQ0NjYDQ0NjYDQ0NjYDQ0NjYDQ1+4bH8AKzwf7VPxI9er+Kb4rl8VSZG5LNorPB39Ev/8A3Nfv/oLNsBoaGxsBoaGxsBoaGxv8wILiq7R2ezV0+U7edjqSjbnbp5Wq1F+DUy5fgYaiYRE8Ex+BZ+M74l5uz2Qv5qG389NTYX2ZJM/WzJ3bVMJ5NTxKyRrAAAdyTLHBLDFlvrHJ6y/7UjGO5mxf3EX2lTvXH3Ux0gAAAB7LUqpdrGqdUulux/5DD9BGA2NiyXzh2P792oPwbKj1/cb8VNNDQ2NhDQ0NjYDQ0NjYDQ0NjYDQ0NjYDQ0NjYAAAAAAAAAAAAAAH8AP4AVng7+i8RJ4cT35P89FLMVrhDUPE6fd4qvif5rVLKAAAAA+JJYomSSyvZHFGnNI+RyMYxqdVc52kA+/HpoqfG3EDbTbnUdPJi43Bj44uVfaggX2ZJvL7rfNc/ZI2+ekKjg7SnsjEqZ8K1auVHJTMXxjbpzvyTzUzaqqquuqJqqrmknqJnc0kki5cvcieCInRERMIRY6OmvDQACgAADz1jquTtgp3zuwktNCxFTtJquXsomZ/uo56r4I1ir5EpFLwxbcPZTvvda1ctluDHU1qjcmFR0dGirK/v8AfVPggHkoLRc7jFJVQsjht8WVnuNc/sKGNE/tHJly+TUU4qvomBFgoVlqn7SWvqWLEj99KSmz7DfNyq5f0U0c3G7XW6yMfXVL5GxYSCFqJHTwIiYRIoWYYmtZxnzU8IE/wZT+tcUWRuMpTuqa1/kkULkT83NNvMx9GdAr6m9XVyLyxMit0Cqmlc5Unlx8PY/E04qaAAIAAAAAAAAAAAAAAAAAAAAAAAAAAAP4AAVrhTCLxg1Ps8V3j9rs3FlKvwo5PWeOG/d4pr1/WjjUtGUAAhL1xNZLG1W1U/PVK3mjpKfD6h3grm5w1PNVQzG+cZXy888LXrRUK69XpXrzSN/tptOXzRMJ5L1IL7fOOLLae0gplSvrm5b2dO9Oxid0+um2mu9Eyuu4zK8cQXq+PzXVGYWuzHTQorKaPwwzO1TxVVUitdETCeADUAAAAAAAAAfUTJZ5W09PFLUVDvdhp2OllXP6LEVS2Wz0f8SV3JJWrDbYFxqZUnqlRfCKNeRPm/5AVBVaiKrlRETaqqoiInmqkhbrLfruqfRtvnnYqqnbvTsaVvxmkw1flk1e18DcL2xY5X0zq6pbhe2uKpKjXeLIcJEnl7OfMs7URqNRERERMIiYRETwRECVE8OWhtjtFBb8tdNGx0tU9iakqZV55HJ5Z0nkiEuAVAAAAAAAAAAAAAAAAAAAAAAAAAAAAAAH8AAM/tXEFmsdZx4twqOV8nEdU+CCJqyTzIjGtVWMb3ZTGVVE11IO88f3iu7SG2tW30y5TnaqOrHp5yJ7Lf8ADv8ASOrjuzut13fWxovqt1V9QnXDKpP96xfj7yfFfAgqSz3OsoLrc44XtobdE175XsciTvWRGKyFV68qZc5U0mMdSK8Cuc5znuc5z3Krnucquc53i5y7VfM4ACgAAABOZz44mNe+WRcRxxtc+V6rrDGMRXL+AUOHK1iKrnI1PFy4Qt9p4A4huCMlr3NtlM7C4kRJa1yeUTV5G/Nyr5F+tPBvDFp5JI6RKmqb/wATXqk8qL19hHJyN+TUCVlFs4c4kvCNfQ2+XsHYxU1eaamxnGWukTmX/C1S8Wv0a0LOWS81slW/SrT0nNT02fBz89qv4tNBwnmCpXkoLZa7ZCkFvpKeli1lsEaN5l8XuTar8VPWAEAAAAAAAAAAAAAAAAAAAAAAAAAAAAAAAAAAAAAETxDZ475a6uhdypMqdrSSORcRVMeVY7XcvR3kqlL4JuDqinu3CFy5mP7KsjpmSp7TWO5o6inXP3FXmTyVfumlGccb2qqtlfR8V2tOWSKeBatG+62dvsMld+i9Pq3/ABTxykVnT45InyQyJiSF74pEXqj43Kx35ofJKX91NNdKqtps+r3JsNziRerfWmI+RjvNr+dq/AiwocK5rUy5cJlE+a6REQ9tstd1vNStJbKdZpWqnbSOVWU9Oi/anlxhPJOq9yGr8O8FWqyrHVVCtrromF9YlbiOB3hTRLlG/Ha+adAKPY+Bb5duznree2UDsORZWI6tmb1+rhdpqL4u/VNNs/DtjsbOW30jGSuRElqZfrKqX+/K72vkmE8iWT49wKyAAAAAAAAAAAAAAAAAAAAAAAAAAAAAAAAAAAAAAAAAAAAAB1VFPT1UE9NURtkgnjfFNG9MtfG9OVUU7QBhHEdln4euDqWZznUr+aS3zLle1hV2EZr7bVXDkROuF+0TfD/AdxuXZ1V37WgoHYc2BPZrqhPPPuNXz35J1NXlpqWd1O+aCGV9NJ2tO6VjXuhkwreeNXJlFwqplDtC15aG32+200VHQU0dPTR+7HE3CZ73OXqqr3qq5PV+IAQAAAAAAAAAAAAAAAAAAAAAAAAAAAAAAAAAAAAAAAAAAAAAAAAAAAAAAAAAAAAAAAAAAAAAAAAAAAAAAAAAAAAAAAAAAAAAAAAAAAAAAAAAAAAAAAAAAAAAAAAAAAAAAAAAAAAAAAAAAAAAAAAAAAAAAAAAAAAAAAAAAAAAAAAAAAAAAAAAAAAAAAAAAAAAAAAAAAAAAAA2NjQ0A2NjQ0A2NjQ0A2NjQ0A2NjQ0A2NjQ0A2NjQ0A2NjQ0A2NjQ0A2NjQ0A2NjQ0A2NjQ0A2NjQ0A2NjQ0A2NjQ0A2NjQ0A2NjQ0A2NjQ0A2NjQ0A2NjQ0A2NjQ0AAAAAAAAAAAAAAAAAAAAAAAAAAAAAAAAAAAAAAAAAAAAAAAAAAAAAAAAAAAAAAAAAAAAAAAAAAAAAAAAAAAAAAAAAAAAAAAAAAAAAAAAAAAAAAAAAAAAAAAAAAAAAAAAAAAAAAAAAAAAAAAAAAAAAAAAAAAAAAAAAAAAAAAAB//Z;clipPath=inset(30.67% 29.14% 30.67% 28.06%);shadow=1;textShadow=1;" parent="ttBeq1UxZRL0ylQ9z-ZB-63" vertex="1">
          <mxGeometry x="59.22" y="50" width="61.55" height="60" as="geometry" />
        </mxCell>
        <mxCell id="ttBeq1UxZRL0ylQ9z-ZB-66" value="&lt;div&gt;&lt;br&gt;&lt;/div&gt;Navigator&lt;div&gt;&lt;br&gt;&lt;/div&gt;" style="rounded=0;whiteSpace=wrap;html=1;shadow=1;textShadow=1;" parent="ttBeq1UxZRL0ylQ9z-ZB-63" vertex="1">
          <mxGeometry x="185" y="135" width="120" height="30" as="geometry" />
        </mxCell>
        <mxCell id="ttBeq1UxZRL0ylQ9z-ZB-67" value="&lt;div&gt;&lt;br&gt;&lt;/div&gt;Team Members&lt;div&gt;&lt;br&gt;&lt;/div&gt;" style="rounded=0;whiteSpace=wrap;html=1;shadow=1;textShadow=1;" parent="ttBeq1UxZRL0ylQ9z-ZB-63" vertex="1">
          <mxGeometry x="340" y="135" width="120" height="30" as="geometry" />
        </mxCell>
        <mxCell id="ttBeq1UxZRL0ylQ9z-ZB-68" value="" style="shape=image;verticalLabelPosition=bottom;labelBackgroundColor=default;verticalAlign=top;aspect=fixed;imageAspect=0;image=data:image/jpeg,/9j/4AAQSkZJRgABAQAAAQABAAD/2wBDAAsJCQcJCQcJCQkJCwkJCQkJCQsJCwsMCwsLDA0QDBEODQ4MEhkSJRodJR0ZHxwpKRYlNzU2GioyPi0pMBk7IRP/2wBDAQcICAsJCxULCxUsHRkdLCwsLCwsLCwsLCwsLCwsLCwsLCwsLCwsLCwsLCwsLCwsLCwsLCwsLCwsLCwsLCwsLCz/wAARCAFoATwDASIAAhEBAxEB/8QAHAABAAIDAQEBAAAAAAAAAAAAAAUGAQMEBwII/8QARhAAAQMCAwMHCgMGBAYDAAAAAQACAwQRBRIhMUFRBhMiYXGBkQcUIzJCUnKhsdFiosEVM4KSsvBDU8LhJTRUY3OTVYPS/8QAGwEAAQUBAQAAAAAAAAAAAAAAAAEDBAUGAgf/xAA0EQACAgECBAMIAgEEAwEAAAAAAQIDBAUREiExURMyQRQiQmGBkbHRcaHBFSNDUjPh8PH/2gAMAwEAAhEDEQA/APW0REAEREAEREAEREAERNEAES6+XPYxpc9zWtG0ucAPEpN9gPorCj5sWo47iPNK78PRb/M77KPlxasfcR5Ih+EZneLvsq27U8en4t38iZXhXWdFt/JYNlySAOJ0C55K2hjvmqIr8GnMfBt1WZJZ5STJI95/E4keB0Xxs2Kqs11/8cPuT4aV/wB5fYsD8XoW+rzr/hZb+ohaXY3H7NO8/E9o+gKhUUKWsZMujS+hKjp1C67sljjcvs08Y7XuP0C+f21Vf5MP5/uotEy9Tyn8Y77DQvhJX9tVO+GHxf8AdfQxuT2qZpH4XkfUKIRC1TKXx/j9CPBofwk43G4D60Erfhc132W9mLYe7a97PjYf9N1XET8NZyY9dn9BmWm0vpui2R1FNL+7mjd1Nc2/htW1U5b4qush/dzSADYCczfB1wp9Wur/AJIfYiz0p/BItV1lQUWMzNNpomvHvRnK7wOn0UjDiNDNYCQMcfZk6J7js+atqNQx7/LLn2ZX24ltXmXI7EWLj+ys3U8jBERABERABERABERABERABERABERABERABEXyXBoLnOAABJJNgB1koA+lrlmhhbnle1jdxcdT1AbVGVWLsbdlKA86gyOvkB/CDqVDySyzOzyvc953uOzqCpMvV66fdr95/wBFlj6fOz3p8kStRjB1bTMFtfSSD5hv3UXLNPOc0sjnndmOg7BsWtFmcjNuyH78uXb0LunGqp8qCIiiEkIiJACIiACIiACIiUAiIkAIiIAIiJQOiCtq6e3NyHLp0H9Jh7ipanxanks2Yc0/jtYe/coFFPx9Qvx+UXuuzId2HVb1WzLiCHBpBBB1BFtVlVWnq6mmI5p3Rvqx2rD3blOUmI09TZpPNy+44+t8JWoxNTqyPdfKXb9FHfhWU8+qO5FhFakEyiIgAiIgAiIgAiIgAiIgAsXWVwVuIRUoLG2fUEaN3Nvvf9k1ddCmPHN7I7rrlZLhit2b6mqgpWZ5XWJ9Rg1c88AFX6uuqKokOOSIerG06drjvK0SSyzPdJK8ue46k/QL4WOzdTsyG4w5R/JosbChT70ucvwEWVhVJYhERIARZAJIa0Fzjsa0Ek9gGq7oMKrZbOeGwtP+Ybvt8I+6fposue1cWxqy6FS3m9jgQamwBJ4N1PgFYIcIo4/3meU785s3+Vq7mRQxC0cbGD8DQPorirRLZc7JJf2VtmqQXkW5WGUddJbJTy2O9wyD89l0twivdt5pva4k/IKwlZVjDRKI+ZtkOWp2vokiCGC1B9aeIdjHH53C01lBFQwtmqKpoY6emp22j/xKiVsLfa2XOvYrEqP5Rax8GH4ZTRutLNWedC221I3MPzFvgpH+k4sV5f7Z3j5WRfbGvi6k8cEl3VLO+M/oV8OwWrGyaF3aHN+6lqKpZWUdFVs9Wpp4Z29kjA9dBSPSMV/D/Yz7fkRezf8ARWn4XiLNkbX/AAPH+qy5309VF+8glb1lhI8W3Ctlkso09Dpflk0Ow1S1eZJlOuCitctJSTfvIY3Hjls7xGq4JsFiOsEjmH3X9Nvjt+arbtFuhzg1Im16nVLzLYg0XVNQVtPcvjzMHtx9Id4GvyXKqiyqdT4ZposIWRsW8XuERE0OBPH7HiiJQJOjxWSMiOpLns2B+1zR18Qpxj2SNa9jg5rhcEHQhVBdNLWTUjwWnNGT04ydD1jgVfYOrSq2hfzXfsVOVp6n79fJ9i0otFNUQ1LA+M8Mw3tPAhb1q4TU0pRe6KGUXF7PqERF2chERABERABYP6LOijsRrxTt5qI+nc3U/wCW07z18EzffCiDsm+Q5XXK2ShHqYxDEBTgwwkGcjpHaIwf1UASXEuJJJNyTqSeJKwdSSTck3JJuSeJJRYfMzJ5U+KXJeiNRjY0aI7Lr3CIigkoIi6aWjqKs3jAbEDZ0rvV7GjeV3XXO2XBBbs4nONa4pPZHMAXENaC5x2NaCSewBSdNhE0ln1BMbNuRtucPadgUrS0VNSj0bbvI6T3avPeum393WnxNGjH3r+b7ehR36lKXKrku/qaoKanpxlija3ibdJ3a7atyIr+EIwXDFbIqZScnu3uERF2IEREAF5Ry/q+fxuOmaejQ0cUZG4STEzOPhkXq9rrwnGasV2LYvVg3bNWTmM3v6JrubZ8gFzLoXmi18V7n2X5PTuQ1V5zyeo4yenRST0buoMfmZ8iFaF5z5N6u0mN0Dj6zaetjb4wvP8ASvRkq6EHUK/CyZx+e/3CIiUghERAGCuOow6kqLktyPPtxgA36xsK7UsmrKoWrhmt0dwnKt7xexWanDqqmu7LzkY9tg2D8Tdq41cbdijqvC4Zsz4bRS6k29R3aAs5l6LtvOh/R/4LjH1L4bfuV9F9yxSwPMcrC1w47COIPBfCzkouLakti5UlJboIiJDo2wTzU0gkjdY7wfVcOBVkpaqKqjzs0cNHtO1p61Vltgnlp5GyRnUbQdjhvBVpgahLGlwye8Svy8NXrij5i2otFLUxVMbZGdQc07Wu4Fb1tYTjOKlHozNyi4vhfUIiLs5CHZ4otU00cEckshs1gubbSdwHWVzKSinJ9EKk29kaK6sbSRXFjM+4ib1ja49QVbc5z3Oe5xc5xJc47STvX3UTyVEz5X7XbBua0bGhalh9QzXlWcvKun7NPh4yohz6vr+giIq0nBDYAlCbaqZw7DbZaipbd2hiicPV/E8ceHD6SsXFsyZ8EP8A8I998aI8UjTQ4W6a0tSC2I2LItjn9b+AU61rWta1oAa0AAAWAA3ABfVh1J4LbYuHXix4Yde5mb8id8t5MIiKYRwiIgAiIgAiIgDgxmr8wwnFasEh0FJO6M/9wtLWfMheEjQAdQXq3L+r5jA2U4d062shiI4xxXncfENHevKfum5Gt0Svhpc+7/BYORtV5pyjw25IZVieidw9IzO2/e0L2Vfn6Gd9LPS1TNH0s8NS09cTw/8ARe/xyMlZHKwgskYyRh4tcA4FdRZB1uvayM+6/B9IiLooAiIgAiIgAsLKeCANFRTQVMZZK2/Aj1mniCq9V0U1I6x6UZNmPA0PUetWhfEkbJGOY9oc1wIIOxVmbp8Mpb9JdyZjZcqHt1XYqCLtrqB9K7M27oHHou3tJ9l36LiWLupnTNwmtmjS1Wxtipw6BERNDp0UtVJSyiRty02Ejdzm/fgrNFKyZjJIzdrhcEKoqQw2s5iTmnn0Mhtc+w86X7CrzSs50y8Kb91/0VWfiKyPiR6osSIEWwM8FXsUqzPLzMZ9FC4g22PkGhPdsClMSqvNoCGm0st2R8Rxd3fqq0s3rOZwr2eD69f0XGnY+78WXp0CIiy5fBEXfhtF51JzsjbwRHYdkjxrbsG9PUUyvmq4dWNW2xqi5yOnC6AuyVU7dNHQMcNfjcD8v7tM2WRYIt3i4sMavgh9fmZS+6V8+KQREUsZCIiACIiACIiACxr9FlEAeZeUWrz4hhdED0aakfO4cHzvyi/c35qjqZ5UVfnuP4zMCC1lSaaO2zJTgQ6d4J71DJpvdm+wK/Dx4R+Q0Oh2HQ9i9o5I1ZrOT2DyON3xweaycc9O4w6+AK8XXpPk4qs1Ji9CT/y9VHUsG/JUMyn5tPilj1IWs18WPxL0a/X6L4iInDHBERABERABEWDpdDAyllgEFZSAfEjGSNcx7Q5jhZwOwgqt1tG+kkFrmJ9+bd/pPWrOtU8Ec8b4pBdrh3g7iFX5+FHLht8S6EvFyXRP5epUkW2ogkp5XxP2g3B3OadjgtSw0ouDcZLmjURkppNdAiIuDssGFVfPR8y83kiAAJ2uZuPaN6klUoJn08scrNrXaj3m7wrTFIyWNkjDdrwHA9q2mlZnj18EvNH8Gaz8fwp8S6MrdfU+c1D3g3jb6OP4Rv79q5URZC2yVs3OXVmhrgq4qC9AiIdBdNjhtghfUTRws2vOp91o2uVphijhjjijADGNDWjs4rgwql5mHnnj0s4a7Xa2Pa0fqf8AZSa2elYfgVeJLzSM1n5Piz4Y9EERFclcEREAERfLXscXNDhmabOG8HrCAPpERABERABaKuoZSUtZVPtkpqeaodfhGwv/AEW9VnltV+a8nq5oNn1b4aNvWJHZn/IFA7TDxLIw7s8hLnPLnv1e9xe8/iccxWE6lmx4Jk9FS2RhWrkHVeb4+ICbNr6SaHtkitMz5Byq1iuvC6vzHE8KrLkCnrad7j/2y8MffuJSoj5Vfi0zh3R7wLrKwLEabDqOxZTp56EREAFjVYe9kbXPe4NY0Xc5xsAFB1mKvkzR0pLY9QZNj3D8PAKHlZlWNHeb+g/RjzvltBfUkKzEYKa7G+km90HRvxH9FA1FXVVBvK9xBPRY3RovuDQtP99aksKpOelFQ8eiiPQv7cnHsH97Fl55WRqFqqi9k/Rf57l5GinDr45c3/8AdCYpI3w09PG8kvaxua+uu0hdCWRbGEFCKivQzsnxNthERdiHDiNJ5zCS0Dno7uYd5G9qrfdY71cbKAxWl5mUTMHo5vWtsbJv8Vm9Zw+Je0R6+pcadkbPwpdPQjURFli+C7KbEZ6aPmmtDm5nOFzsvuC40T1V9lEuOp7MatqjbHhkEREyOhdNDT+c1MbD+7Z6SX4WnQd5XMrBhEHN05lcOlOcw4hg0aP171Y6dje0XqL6LmyHmXeDU2ur6EiN3csoi3aWxlQiIlAIiIALhrYZABUwkiWMWdl2lnWOpdyG1jogCPpsQY+zZ7NdsDx6pPXwUhtFxs3dagqyn5iSwHo33LOri3uSnq56ewBzR+47/SUATqLTBUwzi7HdL2mO0cO5bkAFX+UfJ9/KBuHwOrXU1PTSyzSCOISSSvLQxti85RbXcdqsCWQd12SrkpwezRUafyf8l4gOeFdVO38/UvY0/wAMGQLubyN5HNAH7Ipz1vdM4+LnqwIk2Q/LMyJPdzf3ZXZORfI59/8AhjGHjDLPGfyvUVV+TrApmSCkqq6lc4EC72Txi492UZvzq7oUuyFjm5EPLN/c000ckNPTRSyc7JFDFG+TLl5xzGhpda527dq3LCEgAkmwGpJ0AHFJuRebe7Mrkqq2Ckb0jmkIu2Np6R6zwC4qzFgM0VKbnYZSNB8AP1UM4uc4ucSXON3FxJJPWSqHO1aNe8Keb7+haYunyn71nJG+pq6iqdmkd0R6jG3DG93Fc6JqbAAkkgADaSdAAstZZOyXFN7svoQjXHhjyRtp6d9VMyFm/V7vdYNp+ytMUTIY2RxizGNytA4Lmw+kFLD0gOek6UpHHc0dQXatjpeF7NXxSXvPr8vkZvNyfGntHogiIrcgBERABaKqBtRBLEfab0TwcNQVvWFxOCnFxl0YsZOLTRTy1zS5rhZzSWuB3EaFYUji8AjqBK0dGYXPU9uh/QqOXnuTS6LZVv0NfRZ4tan3MrCIo48EREAfccZlliiG2V7WDqvtPcraxoa1rWiwa0NAG4DRV/B4ucqnSEaQx3HxP0+6sQstdolPDU7X6v8ABntTs4rFDsNU1TRNFflUNU1TRNEAZ1WNU0TRADVNU0TRAGmpgE8TmH1trDwduUEI5XScyGHnCS3L1jbfqCsei+BFE2R8oaBI8AOdxAQBppaRlOL6OlPrPt8m9S6dU0TRADVNU0TRADVNU0TRABCsdyjazFIoc0cGWSUaF21jD3bSmL766I8dj5DlVU7ZcMFudlRUwUrM8r7e60aud1AKAq6+oq7t9SK+jGnb1vO9c0kksr3SSPLnnaXfQL4WRzdTsyPchyj+TQ42DGn3pc2ERFUFiFLYTR5yKuQdEXEA4nYX/ZcVFSuq5hHrzTbOmdwb7vaVZ2ta0Na0ANaLADQAAbAr7SMLxJ+NNcl0+b/9FPqGTwLwo9X1PrVNU0TRa4oRqmqaJogBqmqaJogBqmqaJogDhxKAzUspA6UXpW/w7fldVtXFwBBB1BFj2FVGaMxSyxH/AA3uZ3A6LLa5TtKNq9eReaXZupVv+T4REWbLoIiIAncFjy08smvpJTb4WDKP1UqFyYezJRUg3mIPPa7pLrC9Bwq/Dx4R+X5MhkS47ZS+Y1TVEUwYGqaoiAM6rGqXRADVNUulwgBqmqIgBqmqIgBqmqLTU1NPSxGWZ+Vo0Fhdzne60cUAblrlmjgYZJXZWDaT9ANqrVVjlbMSILQR6gWs6U9rjp4BRsk08pDpZpZCNhke51uy5XMlLb3eoJrfn0JmsxOWovHFmjhOh3Pf2kbOxR65A942OIW1k1yA8W3XCyudp2VNu2T4v/uxfYmZRFcCXCbkRFn9u5bp8twsta972MYMz3uDWjiSsKbwqjLGiplbZ7x6IHa1h3m+8qXh4ssm1QXT1+SI+TeqIOT6ndR0rKWBsY1eelK73nnafsulEW+rrjXFQitkjKSk5tyl1Y1TVLjil12cjVNURADVNURADVNURAAquYtHkrHOGyWNj+8dE/RWNQ2Ns0pZN95GH5OH6qp1evjxm+3Mn6fLhvS7kMiIsQacI69jbgUWQLuYOL2N8SAukt3sI3sty2xNDY4m+6xjfBoC2LGxP7uvSYraKRi293zMoo2rx3AKC4q8So43NNiznWvkH/1x3d8lAVXlBwCG4pYayrduLWNhiP8AFKQ78qXdEivFut8kWy4rH9715jV+UTGZcwpKOjpmnY6QvqJB3nI38qgKvlJylrbifFKrKbgsgcIGEcC2AN+aTiLCvRr5+bZHslTX4dRAuq6ylpwNfTzRx+AcbqBq+XPJWnuI556pwB0pIXEX+OXK35ryM3c4ucSXHa5xJce0nVYScRY1aHXHzyb/AI5F/qvKPUG4ocLjbwfWTF5/9cQH9ajqHlJyqxrF8IoX1xhhqK2ISx0cbIRzLLyvGbV+oaR629VFWbkLEJeUlK4/4FHWzDtIbGPqUibbJN2Fj49EpxhzSZ68FlAicMYEREAfL3sja97zZjGuc4ncALkqmV1ZJXTuldcMHRhZ7jPud6sGOzGOiLAdZ5GxnjlF3m3gAe1VVKIEREAEREAb4Xm+QnT2fsty4wbEHhqu+GN9RJHFGOnIdDuaNpcexZHWMTguUoLzfk0OnZHFW4zfl/B1YdR+dTXeDzMRBfcaOdtDP1P+6sgFuxaqeCOmiZFGNGjU73O3uPatyvcDEWLVt6vqVOVkO+e/ougUXyghnnwXF2QSyxTtpZJoXwvcyQSQ+mblc0g7lKLD2te1zHC7XhzXDiHCxCsCPCXDJS7HjVJyw5VUmW2IGdmnQrI2TAj4jZ/5lP0vlHqRlFdhkT+L6SZzD/JKCPzKhvYY3yRn/De+M/wuLV8pvdo3NmBjWrdw6/T8HrtLy65LVNhLNPSONtKqF2W/xxZm/MKepcQw2tAdR1lNUA/5E0bz4NN14Ig0IcNHDY5uhHYRql4ivs0Op/8Ajk1/Z+hNnFZXiFJyj5S0WUU+KVWVugZO7ziO3DLOHfKyn6Tyh41FlFXR0lS0es6Mvp5D3jM38qXiRW2aNkR5x2Z6giptL5QsBmyiqgrKRx2ksbNEP4ojm/Kp+jx7AK+wpcSo5HGwDDKI5df+3JZ3yS7lfZi3VeeLRJqNxlt6Rh3tmYfEEKRuuHFRehmPB0bvzBRM6PFjzXyExntdH+SuInBF58a4L6j/AHkV9nOxf1BfKyDYtPBzT4G66jykjmXRnZisPlBeZDhlZg7IulkaIZI6i24F8xkZf+EKg4rRcvukcUixeZg1JZI6og/lpnFv5V7ENUP97V6RtujOY+e8fpCL+nP7n57OVjiwjI8bWOBY4drXWPyWV71U0GG1rctZR0tQ3hPCyT+oFV+q5Cclai7ooJqR2utHM9rf/XJmZ8kcJc163U+U47f2eSrCvtV5OKkXNBirHjcythLTbrkhNvyKBquR/KykzE4eZ2i/TopGTfkNn/lScLLOvUMezlGS+vL8kAi+54p6ZxZUwzU7wbZamKSE+EgC+N1xYg7CuSamn05hW3yfW/b89/8A4uoy9vOxXVSVk5ETCLlJQg7KimrKe/WWCQD8pXS6kPPW+NNLsewpqiJwwIXxLJHDHJLK9rIomPkke42axjAXOcTwC+15py/5RCQuwCjfdjS12JvadC4Wc2m04aF/cOISxTYjexoi5QSY9juJzAyNo4qRsWHRO3RNl6Ujh7z9Ceqw3ayaoGDVbaPEaWV5tE/NTyk7GslsL9xylX+25dzWzET3CIi4FCIiABNgewq2YVRGnhbLIPTTMaTvyMtcNv8AMqtUlO6qqaenGx7wZLbo26vJ7vqrxomp1xnJTfVdByNkoxcV6mB3rOqInDgapw7UXxLIyGKWVx6MTHyO7GNLigNt+SPBKvWrryNhq6m3ZzrloWS4yFzzte4v73HMsJo9IgtopBFjMy+XMC7c0auPYBqpOkwDlHXZTS4VWuafVfLH5vH25py36IEnZGtbzexHLCuNL5PcfnymrqqGkadobnqJR3Nys/Mp6k8nWBxZTWVddVu3tD208R/hiGb8yXZlfZqmLX8W/wDB5eXNbq5wHxED6rqpsPxSvsKPD6ypvsMVPIWdudwDPmvZqPk7ybw/KaTC6Njxa0joxJJ/7Jbu+alQANlgLaAbEvAV1muLpXD7v/B5fhXJnyhRZDDVuwyPToy1j36f+GHM3uurgKTHqagqf2nizK4lsYAZRR0+U5265mOufBWFcGKm1FL1viH5go+Xyon/AAys9snkWx4kuq9CueKIi89NEEOw9hREoFuhdnihf70bHeLbrYuPDn56OlPusyHtYS1di9Fonx1Rl3SMbYuGbQSyInzgeKWCIgD4khgmaWTRskYdrZWte3wdooOr5H8k6zMX4bFC93t0ZfTu7fREN+Sn0QOQtnX5W0UCr8nFKSXUGJ1EfBlXFHM3+ZmRyjKfkhyrwjEsMroY6WrZS1cMzjSz5HmLNlf0JgNxPtFepLFkmyJ0dUyVFxk918wN6yi56yrpqClqqyqkEdPTROllcdzRuA4nYBvKUrSG5V8oG4DhznRFpxCqzxULCAbOA6UzgfZZcHrJA36eJuc97nve5z3vcXve8lz3vccxc4nW52lSON4vVY5iNTXz3a13QpoSbiCnaTkjHXtLus+EapMI8KG29xt0PYrfgWMsnjioap4bUxgMgkedKhoGjST7Y+fbtqCJWtxE9j0/qRUmi5RYnStbHLkqom6ATk860fhlGviCpeHlTRyvhhGH1z6iZwZFDTmOZ8rz7LGizj4JlxaO90T6y0Oe5rGNc+R5AYxgJc48AFK0OB1lRDFNWZqRzxmNP0JZmDg97TkB42v2qeo8PoqK/Mx9Nws6R5zSOHAuO7qFlwKc+E4b5lG6SaxqpQM+XURs2iMH6/7KTTwRIKEREAFH41DXVOFYnTULWGqqad9PFzj+bYOd6DnF1jsBJ2KQRB1GXC1Jeh5pSeTivdY12KQxC2rKOF0ju6SYtH5VP0nIDktBlM8dVWOH/VzuyX/8cWVviCrWspOFE2zUcmzrL7cjkpMLwmgAFFQ0tOB/kQxsP8wF/muvxREpBcnJ7tiyeKIgQIiIAKMxl1qZjfemb4AEqTUJjb9aWPgJHnvIaP1Vdqc+DFm/p9yXhx4r4oiERFgzVhP90RAE5gsl4Z4t7JMwG+zx97qWCrmEy83VBpOkzCz+IdIfqrGFt9Jt8TGiu3Iy+fXwXv58wiIrYghERABERABERAArybl3yj/aNV+yaOQGhoZT5w9h0qKtl2kX91moHE3Psgq1ctuUZwejFFSPLcSrmODHMNnU1OSWum45j6rOu59leQaDZuTtcfVnEn6BERPHARYJAtfeQANSSSbANA1JO7RXjk7yCrK4xVmOCSlozZzKFpLKucbQZ3DVjTwGvWNiRtIVLcreDYFi+PzmHD4hzUbstTWTBwpoOouGrncGjvttXrmAclsIwCO8DTPXPaG1FbOAZn7y1gGjW9Q7yTqZmmpaSjghpqSGOCnhbkiihaGMY0cAPmtyYlNscS2CIi4FCIiACIhIHDjqgAi0Q1MM5lEZ9R1tfaHvDqW9ABERABERABERABERABVvFZOcrJADpE1sQ7R0j9VYnODGue6wa1pcT1AXVRkeZHySHbI5zz2uJKz+uW7VRrXqy20yG9jn2PlERZM0AREQB9Me6N7JG+sxzXDuN1bYntkjjkabtewOHYRdVBTuD1AfE+ncelES5nHI77FX2i38FrqfxFRqdXFBWL0JVERa4oAiIgAiIgBquDFsUpMHoKqvqiebhb0WAjPNIdGRMvvcfvuXcSBe5sBqb7AvGeWPKI45X8zTPJwyic9lNbQTyeq+oPbsZ1fGV1GO7Eb2ILEK+sxOtqq+rdmnqXl7gD0WNGjY2fhaLAdnXryosEtaC5xAAFySbADiVJGzK68Ow3FMXqhR4bTOnn0MhvlhgYfbnkOgHiTuBU7yc5GYpjnN1NXzlDhTrEPc3LVVTdvoGOGjT7xHYDtXrOG4XhuEUzKPD6aOCBmtmAlz3Ha+R56Rcd5JTcp7dBUu5AcnORWG4JzdXUltbigH/MPZaKnNtRSxm9viOp6gbK2BEuEy3udhERIKEREAEWFlADVRFbWOkLoY7tYDZ5IIc/q11AUutFRSw1A6Qs/c9vrDtQBCwTPglbI3do4cWnaFPse2RrXsN2uF2nqKg56Wan9YXZsD23t38F04dUBp5hx6LrmMnc7e1IBKoiJQCIiACIiACIsIA4MVm5qlLAelOeb/AIdrvt3quruxSfnqlzQehB6MW2F21x/vguFYbVMjxsh7dFyNPgVeFSt+rCIiqyeEREogW+lnNNPFL7INn9bDofv3LQi6hNwkprqjmcFOLi+hcGkODSDcEAg8QV9KJwiqzsNM89KIXjvvZw7lLL0HGyI5FSsj6/kyN1Tqm4MIiKSNBEUZjuLQ4LhlXXyAOdG0Mp4ybc7UP6LGdl9T1A8EAVXl9yi81hdgdHJapqowa97DrDTOGkWmuaTf1fECvLuA3LbUVFTVTz1VTIZKiokfLNI7a57jcm27qG7ZuUtgHJnF+UL2vp2+b4cHFstdMwlhsdW07DbO75DjuUlJRXMbb3Iinp6qsqIqSjglqKqY+jhhF3uG9xvoGjeSQF6fyb5A0tEYa3Guaq65tnxUzelR0ztt7OHTeOJFuA3qy4JgGD4DTmChgs99jUVEpz1FQ4e1I/6AWA4KWTUrG+SOlEWRETZ0FAcqMWxDBaCGvo44JQ2riiqGTteQYpGuAIcwggg247VPqI5R0nn2B4zTgXeaWSWMW/xILTNA7SLIHqOHxY8a3W/Mq1P5R4LAVWFStI2up52PB7BIG/Vd7fKHycIGanxNpte3Mwn5iVeVixsRvAIvtRN8RrpaRjP0a+p6lJ5RMAaPR0mJPPAxwMHiZCfkour8pE+V5o8KjZlBOernc8aa6siaP6lQVvpKZ1bWUFEBrV1dPT/wvkAd8ro4mItKxa1xNb7d2e4YTLWz4bhs9aWGrnpYZp+bZkYHyNzkBpJ2Xtt3LuXy0Na0NbbK0BrewaBfScMbJpttBERAhggG4IuCLEHYQo+fDxcyU5yuBvkOjb/hO5SKdwQBpppnSsIeC2VlmyNOhB49hW5LC97C9rX6kQAREQAREQAXLW1Ipqd8ntnoRji92l+7aulVvEqrzmezDeKK7GcHO9p36BV2oZXs9La6voS8Oh32bei6nFqdTqTtJ48URFhOvM1QREsTsCQU7cSpvN6hxAtHNeRvAH2h+q4laK6mFVA9gtnb04j+Ibj1HeqwQQSCCCCQQdoI0IVtqmL7PdvHoyvwcjxa9n1RhERVJYH3HJJFIyRhs5hDh19XerRTTsqImSs3izhva4bQVVF10NWaWW5/dP0kaN3Bw7Fb6Zm+z2cEvK/6K7OxvGjxR6os4RfLXNcGuaQWuAII2EFfS2qe63M0FTOXWC8oMaZg8eGRRyxQSVL6hj52Q2e5rGsec+0AZxpx2Hdc9E0XSe3NAee4J5OKeJzKjHpmVTwQ5tFT5hSA7Rzz3We/ssB1FegMjZExkcbGMjY0MYyMBrGtAsGtaNABuX1omiG2+om2wRNE0SChE0TRABYIDgQ4AgghwOwg6FZ0WOKAPBK+lNFXYhRnbS1U8HaGPIB8LLmVn5c0vm3KCokAAbW09PVC2zNYwu+bfmqwmn1PQsazxaYz7oKyciKTzrlHSPIuyigqKx1xpmy8yz5uJ7lXF6F5N6To45XketJT0UZ6o2mV4/MEq6jGo2eHjTf0+56CsomicMIETRNEAETRNEAETRNEAETRNEAERc9VVR0sLpHWJ1Ebd73cPuuJzjCLlJ7JHUYuT4V1OTFKzmI+ZY70so1I2sYdL9p3KAX3LJJNI+WQ3e83J3dg6l8LCZ2W8q3i9PQ1OLjqiHD6+oREUAlhSNHhYqoRNI4tzOOQcWDYfquSlp3VU8cIuGk5pHe6wbfHYFamtaxrWtADWgAAbABpZXulYMb27LV7q/JVZ+S69oQfM+lBYtSZH+dMHReQJbbnHY7vU6vl7GyMex4Ba9pa4HYQdFpcvGjk1Ot/T+Slx7nRNTRT0XRV0r6SZzDcsPSjdxbw7RvXOsDZXKqbhNbNGshOM4qUejCIibOySw6vNORDKfQuPRJ/wz9lPggi42EX2qnKSoMRMFoZiTCdGuOpj7epaLTNS4Nqbny9H+ymzsLi/wBytcywIvkEGxBBBFwRrcHgvpapPcogiIlAIiIAIiIALBWUQB5/5R6S8ODVzW/u5ZqOR3VI0Ssv/K7xXnS9l5ZUnnfJ3EwBd9O2OsZpsMLw53yuvGk3JGx0azjx+Hsxpv717FyKpDS8nMKzCz6psla/rM7y9vysvHhG+Z0cMesk744GW3ulcIx9V7/TQspoKanYLMghihZ8MbQwfRLFepH1y3aEK168zaiIuzLBERABERABERABEOxaZ6iGnjdJK6wGgA1c48AFzKSguKT5CpOT2RmeaKCN8srrNb4k7gOtVmqqZaqUyP0GxjAdGN4fdZq6uWrkzu0Y393GNjR9+tc6xuo6g8h8EPKv7NHhYfgrjn5vwERFTlkEPf3bTusilMKouccKqQdBhPMgj1nD2+wblIxseWRYq4+oxfdGmHHIkMOo/NYbvHppbOk19Xg0di7Vkfqi39NUaYKEOiMnZOVknOXVhEROnBz1VNHVROjdodrHDa13EKsSxSwyPikFnNJvwI4jqVuXHXUTKqPSzZmD0bv9LupU2paf7THjh5l/ZY4WX4MuGXlf9FaRfT2Pje6OQWe02cDuXysa04vZmkT3W6CIiQU7aLEJKUhrgXw39UHVvW2/0VhhmhnYJInBzTwOo6iFUVthqJ6d+eJ+U+0NrXDg4K5wdUnj7Qs5x/tFZlYMbfehyf5LaijqTE4J7MktFLwcei74SpFa2m6F0eKt7ooLK51PhmtgiInhsIiIAIiIA1zwx1EE9PJ+7nikhf8ADI0sP1XgMsT4JJoJBaSCSSF44OjcWH6L9BLxjldS+acocWYBZk72VjOsTsDnW78y4kaDQ7eGyUO63+x8clKTzzlFgsZALIJn1r+oU7C5v5sq9pC808nFJnrcYriNIKeGkjJHtTOMr7dzW+K9MSx6EfWLOLI4eyS/yERF0U4REQAREQAWLrDnMY1z3kNaBcucQAB1kqIq8X9ZlLt3yuH9DT9VFycqrGjxWP6eo9TRO57QR3VddBSt6XSlIu2Np1PWeAVdnqJ6mTnJjc+y0eqwcAFrcXPc5zyXOcbuc7Uk8SSsLIZuoWZT26R7fs0WNhwoW/V9/wBBERVhOCIuikpZauTIzosb+9fbRo4DrO5d11yskoQW7ZxOahFyk9kfdDRvrJNbiBhHOu978APXvVla1rQGtADQAABsAG5fEMUUEccUTbMYLD7lbVuMDCjiQ2+J9TL5WS8ie/ougREViRAiIgAsFZRAHFXUMdW24s2Zo6LuP4XdSrskckT3RyNLXt2g/VW9ctXRw1bLP6L2joPA6Tf9lSahpiyP9yvlL8ljiZrp9yXl/BV0W6oppqZ+SQbScjmjouHELSshOEoScZLZo0cJKa3i+QREXJ0F202JVdPZpPOR+68m4H4XbVxInarrKZcVb2G7KoWLhmtyy0+I0c9hn5t/uSWBv1HYuy6py6Ia2sg0jldl91/Sb4FaDH1z0vj9V+iot0v1qf0ZaVlQ0WNN2Twn4ojcfyu1+a74sQoJfVmYD7snQP5ldU51F3lkVlmNbX5onUiwHNcLtII4jULN1M33I4K828o9LlqcHrgNJoZqR/xRO51l/wCZ3gvSbqp8vaU1HJ6omYPSUVRBUN49I8yQP5h4IfQnadb4eTB/T78jHICl5jAGTkdKvqqipvvLA7mWfJqtq4cKpBQYbhdGLAUtHTwnrc1gDj3m67UIYybPFtlPu2ZRF8vkijF5HsYOL3Bv1Q2l1GNtz6KLhlxTD472eZDwiaT8zYfNR82MzuuII2xj3nnO7w2KBdqONV1lv/HMlV4d1nRfcnHOaxpc9zWtG0uIAHeVG1GL08d2wDnX+8biMd+0qFlnnnOaaRzzuzHQdg2LWqPI1ucuVK2+fqWlOmRjzse/4N09VU1LrzPJA2NGjG9gWlEVFOyVj4pPdlrCEYLhitkERFwdhEvZd1Dh0lUWyPvHT8djpPg6utPU0zvlwQW7GrLI1R4pvkaaSjmq32Z0Y2n0kh2DqbxKssEEVPG2KJtmjvJPElfUcUcTGxxta1jRZrWiwC+1tMHAhix36yfV/ozWVlyyH2QREVkQwiIgAiIgAiIgAsLKIA1SwxTMdHI0Oadx+oUFWYZNBmfDeSLaRbpt7QNqsVuxFBysGrKXvLn3JNGTOh+707FNRWKqwynqLvZ6OXXVo6LviChKikqaY+lZZt9Ht1Ye9ZHK0+7G5tbrujQY+ZXdyXJ9jQiIq8mhERIAREQB9NfIw3Y9zT+FxH0W9tdiDNlTLu9Y5v6rrmROwush5ZNDcqoS8yR3DFcRG2RjviY39LL5nxGoqIpIJ46eSKQAPY+M2IBDhfpdS40UhZ2SvjY17LT14USH7Xrz/lD+D7lfDsUxI/4wHwsYPqFxIkedkvrYwWLSvhRvfV1r/WqJiOAeQPBq0Ekm5JJ4k3PzRFHnZOfmbY9GuMfKtgiIuDoIiJBQiJdAgWWte9zWMa5z3aNa0XJ8F202GVVRZzwYYjY5nA5yOpv3U5TUlNSttE3pH1nu1e7tKt8TS7b9pSW0SvyM+urlHmyPo8JDcstVZztCIhq1vxHeVLgWss+CLWY2LXjR4a1+yguundLimwiIpQyEREAEREAEREAEREAEREAEREAP72r5LQ4EOAIO0GxB8V9Ik2T6gRlRhFPLd0J5lx3DVn8qiZ6Gsp7l8ZLR7cfSb9/krSsEXVTkaTRdzj7r+X6J9OfbVyfNFORWiagop7l8QzH2mdF3i1R0uCv1MEwI92Ua/wAzfsqK7R8ivnH3l8i0r1Gqfm5EQi6pKDEIr5oHOHGKzx8tfkuUgtNnAtPBwIPgVVzqnXynHb+SfG2E/K9wiImxwIiJACIiACIhIG0jvQIEX0xksmkccj/gY4/MBdcWF4hLa7GxjjKdf5W3Kfrx7bXtCO41O6utbylscSC5IaAS47Gt1J7gpuLBYRrPK9591gyN/wD181IxU9PALRRNZxLWi57TtVtRot0+dj4V92QLNTrjygtyCgwqsmsX2hZ+PV9upo/UqWpsOpKYhzW55B7cliR2DYF2LKvsbTaKOaW77sqrsy27k3suxi393WbIisiGEREAEREAEREAEREAEREAEREAEREAEREAEREAEREAEREAF8uZG8Wexrh+IA/VESSSa2Yqe3Q534fh773p4xf3BlP5bLQ7CKA7BK34ZCf6roijSw6J+aC+w9HItj0kzWcEpjsmnHew/ovn9iQ/9RL/ACs+yImf9MxX8A57Zf8A9jIwSHfUTeDB+i+hgtIPWlnPe0fQIiFpuKvgQe2Xv4jY3CcPb7D3fHI/9LLojo6KO2SnhB45QT4lEUiGLTDywS+g1K6yXmkzoAAFgAB1IiKQMhERABERABERABERABERABERABERAH//2Q==;shadow=1;textShadow=1;" parent="ttBeq1UxZRL0ylQ9z-ZB-63" vertex="1">
          <mxGeometry x="209.89" y="50" width="61.44" height="70" as="geometry" />
        </mxCell>
        <mxCell id="ttBeq1UxZRL0ylQ9z-ZB-69" value="" style="shape=image;verticalLabelPosition=bottom;labelBackgroundColor=default;verticalAlign=top;aspect=fixed;imageAspect=0;image=data:image/jpeg,/9j/4AAQSkZJRgABAQAAAQABAAD/2wBDAAsJCQcJCQcJCQkJCwkJCQkJCQsJCwsMCwsLDA0QDBEODQ4MEhkSJRodJR0ZHxwpKRYlNzU2GioyPi0pMBk7IRP/2wBDAQcICAsJCxULCxUsHRkdLCwsLCwsLCwsLCwsLCwsLCwsLCwsLCwsLCwsLCwsLCwsLCwsLCwsLCwsLCwsLCwsLCz/wAARCAG4AaIDASIAAhEBAxEB/8QAGwABAQACAwEAAAAAAAAAAAAAAAECBwQFBgP/xABXEAABAwIDBAMJCQsKBAYDAAABAAIDBBEFITESQVFhBhNxFCIyVIGRlKHSNUJydLGztMHRFRYjMzRSYnWy4fAkNkNTVXOCkqLxJWN2kyZFg4SjwmXT8v/EABoBAQACAwEAAAAAAAAAAAAAAAABBQIDBAb/xAAtEQACAgEDAgUEAwEBAQEAAAAAAQIDEQQSMSFREzNBYXEUMoGhIkJSkUMFsf/aAAwDAQACEQMRAD8A22iKHIICbVwSOKC5OaALJAFVFUBEREAREQBFL/WiAqKAqoAiIgCqiqAiIiAqxJAVUOeVkBCb5b1RfK6AWVQBERAEREAREQBVY8d9kvp9SAqIEQBERAEREAREQBY7Qz5LI6LCxKAoJPYskGQRAEREAREQBEUKAqKeQICPqQFREQEuApr2K7O9VAEREARFUBEREARVRATTzlTgsiL8UsEBAqiIAiIgCIqgIiKEnMIATuQDeSgCqAIiIAiIgCIiAJ+5EQGN9eaXVsOatggA0REQBFVEAREQBNEJ1WOpQDN3YshogsEQBEVQEREQBFVEAUO/yKogJdTf5llbmgAQBERAEREAREQBVRVARERAEVUQBERAEREAREQBVREASwvdFM1GQZKLhVeK4RQ37rraeIj3jpAZPIxt3epdHU9NsGi2hTxVdS4aHYEUZ8sh2v8AStsapy+1GqV1cPuZ6lF4GbpziDtowUNLG3RvWySSuvx73ZHqXXSdLeksl7VUUXKKCL5Xgn1retHa/Q55a2peuTZ6eRamdj/SGTw8Tqwdbsc1nksxoXwOLY243OJ15/8Acy/UVs+hn3Rr+vh6I3BnwKLT4xXGh/5lX+kS/avszG8fjsRilad4DpdoeXbBT6GXdD6+HZm2kWrY+lHSaMi1dtgaiWGFwPqB9a58HTbGW2E0FHL2CSNx5XaSPUsJaOxcGcddVL2Nhqrx9P06oHZVVFUxc4Xsmb5jsn1Fd1S9Iej9ZYRV8LXm3eTkwuud1pQL+S60SpshyjojfXPhnaooHAgEEEHMEG4PYVVqNwREQBERAMkREAREQBEVQEREQBFVEAREQBFVEAREQFUREBUURAFVFUAUREBVERAVFEQBERAEUXwqqyjooXT1c8cMTctqQ2ueDQMyeQCLq8IhvCyzkLj1dbQ0UZmq6iKCMXzkcAXW3NGp8gXi8T6aTv24sKi6puhqagB0h/u482jyk9gXk556ipkdNUTSzTO1fK4vd5yu6rRyn1l0RwW66EekOrPbV/TenZdmG0zpjmBNU3jj7RGO/I7SF5isx7Ha64nrZWxn+ip/wMduH4OxPlK6tFYV6euvhFdZqbLOWUEb998/fDndXZtqOznz7EAFgT5BxS97h17bjwW/g0ZISTmVFSCMiohBVEWWQzOZ3D7VIGmZzJ0CmuanbqigFURFIMvC18Ljx5IbDwszuadB2hMm6+FuHBPC1148e1QDlUmI4pQkGkq54c82teXRk843XavR0PTerjLWYhTMmbkDLTWjkGepY47B84Xkc7otM6YT5RuhfZDhm2sPxrB8SA7lqmGQ6wyfg5h/gfY+a67ILSYuCCL3GYIJBBHAjNehw3pZi1BsRVB7tgFgRK7ZmYODJbZ9hB7QuC3QuPWBYVa9PpM2Wi6zDMawvFWXpZrSgd/BKA2Zv+G+Y5gldn5VwNOLwyxUlJZQVURQZFUREAVURAVFEQFRREBVERAVFEQBERAVREQFRREAVUVQBREQFUREBUURAEuvlUVFPSwyz1EjIoIml8skhsxjRvJPqWv8d6UVNa59JSCanorbLydqOoqWuG86taeGp362G6qmVrxE0XXxqWZHfYx0ro6HrIKLYqaoEtc6/wCAidpZzhqeQ868FWVtbXzOnrJnyyG9i896wE32Y2aAeRccjTTZtYWyA5AKK4qohUilu1E7X1Cqiq3/ACc4VAyudOHFBpc6bgd6huTc8FIBJJuURRQDIEaHTceBUNxr2qLMEADaz4cufYgJawBOu4fasc9+qpyJB117QiAIiikFWXg6+FuG4cygAGup0vu5lYm4OeqgDj60yURAZeFa+u48e1TPTfe1ufBAHG9gTYEmwOQG8rIEEW9+Rba5cO1AMm5DXeeHILBEUgyY58b2yRucyRhDmPYS1zSN4cM/43r1+DdMZY9inxe748mtq2N79o0/DMGvaB5DqvHIMzYLVZVCxYkbarp1PMTdMM0FRHHNDI2SKRodG+MhzXA7wQvotTYTjVdg8l4HbdO5+1PTyE9W47yzg7n5wtk4Xi1Bi0AmpXnabYTRPsJYnHc8D1HQqmu08qvguqNTG35OwREXOdQVURAVFEQFRREBVERAVFEQBERAMkyUO9RAZZJkoFUAyTJFUBMkyREAyTJE4oAuLW11Hh8D6mrlbFE0htyRtOedGMG9x3BK6uo8OpZqurkDIYtd7nOOjGDe47lrXE8VrsSqTVVTNiOJhdR0zi0xRMvnc/1hFjf6sj0U0u1+xzX3qpe59MXxeoxeR8k7nMpYXtNLTMcWtZltNlkdnd5zDTaw0359PLIZXXIFxlcAhzubrk5rF79qwaHNYMw1xDjc6km2p1KwVzCtQWEUdljm8sIqi2msKiwzOm7mgsMzpu5qE3zQAkk3KIppc7gLlAUAuIa0EuOgGZPYAs3Q1DBtPika3i5pAXZMZJTinpacsZPNH11TO8A9WwcFGTOdt9z1b6h7Glz4ahotKwa7GS1OZtVZ1ai5FVHG17JIhaKojEzG/m3yLfOvgtieVk1tYeCKoikgiy8EA++Og4KcCpx56oC8VRY5HsB+oqKKAUgjXVfRrI3Rkgky3yaM8uY10zWDWve7ZYNp1ictwG8k/wAZr7lwjjjbsatMjMwx4k8Al+V7Ai7VD9jJLuVzo4BZnfFzWh23fZk37VgdDkRmdeOnGI1v25ISSSTmSbk8TxyTNSlghvIUVUzvZCBqbLI2FwNdCeXAJkLgeU9u5YoAvvSVdXQzx1NLKY5mbxo5u9rxoWnePrzXxXIo4GVFQxjz+DaC+TXNo3ZZqJYawzKOU8o2VgWO02MQE7JiqogO6ITctvvfE46t+TRdyCDwWq46uoj6msZVvoomybFIynY0udsGxLha2zxFlsDB8VgxOna5rm9c1o6xoyBOm00Hdx4KlvpcOq4LujUKf8Zcnapkg0Rcp2DJMkRAMkyREAyTJEQDisQ42I0JOSpI4pbegKiIgIVM1klhwCAxzWSeZEAVUVQEREQBfKeeGmhmnnkbHDCx0kj3mzWtbmSV9TovA9JcaZWyvoqd4dR0kju6SHAMnmYPBcd7QbhtvfDkttVbslhGm21VxyzrsYxafFqvrpC+Gnpy2ShgcWXay5/DSNOrjbwdw7M+lkkdISc9k2Nib3tldx3ngfsSSV72hhddgIIuACbCwLrb7fxmsFeV1qCwihssc3lgjQ3yO/7VFQSPLrzCEbxpu5HgVsNRFkALXPkHFNMz5BxUzOZUgG5zKIiAia+VWxyJ36KIDtmvdUdTUQBj5mwmnqIC7ZL2EWNid/BRrXUvUyyxdRFSslbCyR7HTzSyDK5aBkurBINwSDxCElxJcSTxJufWtW02bz7VEjHdzxscHNghbGXDRzyS55HLcvioi2JYMG8hXTy7uCosMzruHBTMm6kgKKqcEAWTGPkOyxpLrE2HAbyoQQbZDmbkW4rkybEI7wAEueW+C4Obk0h36J1asW/RGSXqyFzImWjdtCQNObmkOFtS0aDO1j2818L7RJcSSSLEm9za2d0c5z3Oc43cTck78rblFKWCG8kz37siiyyOROmQP1FSx0tnwQgmayyFwD2n7EvbIa7zu7AsUARVFIIuTRTNgqGvf4Dg5jzwDt5XH/g8lFDWUSnhnbNp52GENpjURwSGWmfHKGizs9mS6sFU/D5KV7Jmipp5KirkER7wyPybTi2oN++5DiupDnAWDnAcASBmotfh5WHwbFZh5XJtrBsWp8Xo2VEVmSNPV1EV7mKQajsOrSuzF1qLCMTqMJrI6qK7mOsypiH9NFfMDdcatP1FbXpqiCrghqYHh8M0bZI3De08vlVPqKHVLpwXOmv8WPXk+yIi5jrKoiIAoT/sjickA3oABvKqIgCIiAIiIAiIgCqiqAiiq+NRUQUsE9RM7ZigjfJI7g1oubc+CYb4IfTk6LpTjH3OpBTwuArKxrmtsRtRQ6Ok7To3y8FrY2OY00t+auViNdPiVZU1k2TpXd6y9xHG3vWxt7Ba/PtXFuRor3T0+HD3KDU3O2fsRFkRlcacOCi6DmIshlmcwctk6O7U0FzpuHFQm5JPmUgHcdQePyKK7QbcuIDd9yALc1l1cpYJGwzGInKQRSFvlds29axbS5JSb4MES4IuCCDvGayybnqdw+1SQUWaO+zvmG8P0liRYk3BvnfinagO4i438RzCAKKkW53zB4qIAs22aBfPeL+95qWtmRnuHBQ570AII17Rz5qKgjMEXbu5HkiAitjlbXROwZ8Fcm5A3JGZ4cgpBch3pN/0h73kFiRsm3lRUEaHTceBUAxVQgjIpa9hxUgDPRZXFtm/fabX/wBexTS4GfE/UFP4soA0vfJRZa5HLgftU01UgioudFY2SzXMMUsoGRMUb3tBHNoIUuO+aPe+HucDwcNQscrgnD5MiQ64F75XP59uKwVVttfC3cxzUkGKJfkqMzYf7BABe+Xy2tzXq+iOMtpqj7mTG0FU8ugc45MqD70Xys/5RzXlDwGm/mppbZLgQQWkGxa4Zggha7a1ZHazbVY65qSN2+ZF0vR3FhiuHxvkcDVQEU9WP02jJ/Y4ZrulQSi4y2s9DCSnHcgiIsTMIiIAiIgCIiAImSZIAiZJkgCJkhsgC8T01xMgQYTE7wtmpq7HcD+DjPl749g4r2M88VPDPPKbRQRPlkPBrBtFafrKqWuqqqrlJ26iV0p/RBPet7ALDyLs0dW+W58I4dbbshtXLOOqiK59ykGml1QLNDjmL5D7eSCwzOm4cVLuvff6rcEAvcklFSBqNPkWJGtjuKA9t0T6P00lPFi1bE2R8xLqOKUXZFG02Ehaci42JHAWXtbC1rC1rLrcBmimwbBnR+CKOCI23Oib1bgfKCuzXn7pylNtnoaK4wgkjyHSno/TOpp8To42xz046ypZG2zZoh4Ti0ZbTdb8AV4LW546rb2LyxQ4Xi0klthtHUCx0cXMLGt8pIHlWoRkAOAH2Ky0U5Sg8+hW66EYyWPUL70lHXV8xgoqeSeVoBeGCzIwdDI91mjzr5MilmkhgiF5Z5Y4IvhyODGlbdwvDaTCqOGkp2jZZ3z3kd9LIfCkceJ/jRbNRqPCXTk1abTeM+vB4D70OkwjDxFSE69W2pu+/lZs/wCpdNUUtXRSmGrgkhmFyI5BqPzmkXaR2Erc1gurxvCoMVopoXt/DMa6SmkAG2yQC4APA6H9y5K9bLd/Lg7LNDHGYcmp9VFSCNRb7RkQorXOeqKkJ8u5OAs4lxDWtaCXOccg1oGZJXpqDodjNUxktTLDRNeL7D2macA8WtIaPOfIsJ2Rr+5myFcrOkVk83k3IeF748OxYr19R0GrmMLqbEIJni5Ec0TorjgHtc79leXqaWroppKerhfDMz3j7Zg5AtcCQQdxBUQuhZ0iyZ0zr+5HxURUXJsNdB2rYah3xMbQHEvcGRhoJc5ztA0DMrvYOinSWdgeKeGEO8ZmDHkaW2WNdZd30MwiAQuxeZofNI+SKk2gCIomHZc5l97je55L2dlW36xxltgWdGjUo7p+pqSvwXGMMbt1dKWw3t10ThJCPhOGY8oC65bqfHHIxzHta5jgWua8AtcDqCDktV9IMMbhWJTQRX7nlaKimBN9ljyQWX5EEBbdPqvFe2XJq1Ol8Jbo8HVfxmu/6M4JHjFRNNVguoaMsY5hJAnld3wjJHvWixPaF0AF177oPLCcPr4AfwkdaZHjQlssbNl3qI/wrZqpuFb2mrSwUrEpHqo4ooWNjiYyONgDWMY0Na0DcGtyXVYzgNHi0D+8YysY1xgqA0B4dua8jVp0K7hFSxlKLymXsoRaw0aVcx7HPY9pa9jnMe06tc02IssVzMTlinxLFJ4jeKWsqXxni0yEgjt1XEAJNvXuC9FF5imebklGTSA2nO5lCR4IP1E9qEi2yL2+Xmr4XwtL8eSyMTFVTiFVAO36O4n9zMThe91qWq2aapucgCe8kPwT6iVtQG60pshwIOTdHEcDw5raHRnEjiOFwF7rz0p7lqLm5LowNlx7RYqs11X90Wuht/8ANneImSZKtLQImSZIAiZJkgCJkiAIiIAiJdAERDfcoYPKdNa/qKCGhY4B9dJeQf8AIis4g9psPOtervOlNYazGasA3ipA2kj4Xjzfa3MldGr3S17K17nn9VZvsfsVBYZnTdzVAAzNrbgd6HO5v5OHYuo5iZk3KXRRQCg20t9qpG8acOCwcdlj3W8FpPqWycL6LYAyho3T0cdRPJBHJLNOXOc9z2hxAF7AcAFpuvjSss300O5tL0PKYF0gqMGLopI3TUcjtt0LSBJG46vYTlnvG/ldeuHTHo4Yy/rakOtfqzTSbd+Fx3v+pcr72ejBzOF0tz+i7f5U+9jov/ZVL/ld9qrLLKbHuaZaV1X1ramjxOPdI58YDYIYnQULHh+y4gyTPHgmQjKw3AX9WXQWW1fvY6L/ANl0v+V32r4VfRXo7JTVDYaKKnl2HGOWHaa5jwCQTnpxC316quCUUuhz2aS2bcpNZNeYZLFT4lhU8uUcVbTuedwaXhpcezXyLcIWlG6NJFy4Agdovn9S9tgPSyCOCKjxR7mmJojiqtlzmuaBk2a2YPPQ/LlrKpTSnEx0V0YZjI9ssXvZG173kBjGue9x0a1o2iSuAcbwFrOsOJ0Oza+U8ZJ7Gg39S8j0h6Ux1sMtDhu33PJlUVDmlhlYD4EYOYad5PZbPOvrpnN4SLGy+EFls8rJI18s8gB2ZZZZAN9nOJCwIO7MHQ8Qq1rnvYxoBc4gAXAHnO5L7Bc08TexvpqWkL0CWMI87nOWz2HQvCYpXT4rO0OdDI6mowbEMcADJIL789kdhXurBec6GuYcEhY0tLoqmsbJs/nGUvBPMggr0ioNRJyseT0Omio1rBF0fSXCosRw+d7WDuqkY6encPCOyNp8emjhfLjZd6vlM9kcU0j/AAI4pHv+C1pJWqEnGSaNs4qUWmaXGdrb9FlkMh2E/UEaWgAcrEjdyCxOXML0nJ5rGDZ3RKaOXAsPa0i9P1sEgG57JHfaF361XgOOTYNUSXa6WjnLe6ImkBzXDISR3Nr7iDa62BTdIMAqWB7MRpm5Als7xC9vItksVR6imUZtpF5pr4yglng7M2ste9NpY5MTo4W2L4KT8J+iZHlwB8mflXoMT6WYPRxvbSSsrKrMMZCbwtdxkkGVhyufq17U1M1XPPPO8vlnkMkjyBm48BuaNAOC3aSmW/ezTrbo7NiPibWAGnHiubheJVWFVYqoLOBbsTRuvsSx3vsm2hGoP25+l6K4DhNdh762ugbUySzzRMbLfq42RP2O9aDa5sTf7F6D72Oi/wDZVJ/lP2rot1UMuElk56tJNpTi8HDp+mWASRgzmop5AAXRvhfJn+i6IEfIunxrpeKmGSlwxksbZWlstTKA15jdkREzXPS5/ePS/ex0Y/sql/yu+1PvY6Mf2VS638F2vHVcUZ0xluwztlC+UduUarAJy4cMgEJFtkab+J5lbTPRjowWuaMMphe4JbtNd5CDda4xSkZQYjiFGxznR087mxl5u7YcA5oJ7DZWVOoja8JFbdppVLLZw0URdRymXhD9LjxUA1vkBqVkI3mMyADYDgw5i5OuTdVCdq+7Z04Hd51AITfTQaBej6HV/cuKmme78FiEfVgHTr4rvYfKLjzLzazilkp5IaiPKSnkZNGeDo3B4+Ra7YKcGmbapuE1I3Ui+NNOypp6epjN2TxMlb2PG0AvsvPPp0PRp5WQiIhIREQBERAEzsixJQEu7S+ayAsgFlUAXxqp2U1NVVL/AAKeGWd3ZG0uX2XQdLqjqMEqmg2dVSQ0rbcHO23eppWcI7pJGFktsGzWbnvke+R5u+RzpHni552ioLDM+QcVEXoksdDzTeXkpucyoqopIMo45JXhkbHPf+a3M9pXK+51cB4DLjVoe0uHaF94WvZS0scLurlrpSHy++azfZYj7n9Z1bIqhgEogbViRxcJb5EjRanPsbVBep1szXNZO1zS1zWSAh2o70rctF+R0Hxan+batTV4c6mdJJbr4Xy0spH9JstLg5bZofyOg+LU/wA21cGteVFnfoltcl8Cge+SioXvcXPfTxOe52rnFoJJXJXFw38gw74rD+wFylWlqfCsc5lHXPY4teymnc1w1a5rCQR2LgV9TWulosOoTG2prIpZpZ5W7bKami2WveGXF3EuAaNNb6Z82v8AyHEPitR825cE+7+H/qSr+kQLOJrmdIOgmH2zxGuJ0zFPu/wLMdBcPB90a7mNmn0/yL1NRMIGROLS7bnggABtYyyNjv5Lr7DRbfqbV6mr6ap9MHj/ALw8PuT90a3f72m//Wq3oPhzC4urqt/w2wZcxZmq9fewWOTioept7j6WrseUb0Jw9jCGVlVtEudtvbCTe2WjRpyt614vEqSpoa6rpKhwfLC5o2xkJGEBzHADS4IyW2YKlktLHVOtEx0XXO6xwAjYBclztLb1rvG6avxbE6uvw2iq6mjmbTiKeOF7WSbETWFzOssSMsiBZdelvlv/AJvocmroioLYuph0ZxtmEVUkdRcUVWW9a4C/UyNFhJYbtzlsyKWKZjJYnsfG8BzXsIcxwO8EZLUv3E6Rf2TXf9sfauTS0XTKhv3JSYtADq2IWYTzZct9SyvphY90ZJGNF06v4yi2jafZ6l43pX0gp+omwuikbJJL3lbJGQWRx74g4e+O/h5cuknb09qmGOohxh8ZFiwWY13wgwhdf9xOkP8AZNaOXVjL1rCrTwjLdOSM7tTOUdsItHAJsHb7bshnwXtKPoO18ET62umZO9rXPjpmRCOMnPZBeHE24rzTsE6QbJvhVcBltHqxoMzobralJV0tbC2ankD2E9W7Itex4ycyRjgHBw3ghbNVdKONjNOkpjJvxEeZ+8TDv7Qr/NTewh6CYcf/ADCu8raY/wD0XqYJRMwyAEDrJo7HjHI6M+e119f4Oa4vqbf9Hf8AS0/5PI/eJh+/Eq7/AC0/sKfeJh39o12n5tP7C9iF8RMDUvprG7YGT7W4hz3Mtblb1p9Ta/7E/S0/5Ojoaebo8+hoOt6/DayeWGCRzGsngqnh8wa8s71zX2NjYWPau4p3vdNiTXOJEdSxsYOjWmnifYeUk+VcPGfD6Pfryl+amXLpfyjFvjcf0WBa5df5M2RW17VwctERazacake98UjnuJIqq1gJ/NZUSMaPIAAFrHpCf+N4wD4zkeH4Ni2bQ/iZfjlf9JlWsekPu5jPxkfNsXfovMfwV2u8tP3Or4/wFyAyN7YAY3NvcvuC1z2tBvs8eJ0yC+ccMj2l42Q0ENbt+/PAW819M1lLLfbY0gxktINu+aPD2A7gCbf7q0ZUrpyJZjdwj2Wggh3V2sQctkEZEDcbX8y+CKrJLBDeSKqIpINk9Darr8GjhJu6imlpf8APWM9RC9IvAdBajZrMTpDpNBFUtz99E7q3eotXvwqDUR22NHoNNLdUmERQ/UtB0lv/ABkl1jl8m9UaoCoiICEnQaoBbtVA3ogCIiALxfTqazMJp9rV887m82hrGn1uXtFrvpvJt4rSx7oaJh8skjyfkC6dKs2o5NXLbUzyyqKK9KEqitr3tu17EII135oDmwTQyQtp5ZDE+N/WU8ufem97Gy+xdGwtfPUUzmNlE7oqRpDp5W6F50AXVoNy17EZ72fasqDNC9oBuTPPKTYXkeLZW3AWAW3qH8iw/wCK0/zbVpmT8XL8B+nYtzUJHceH5ixpafMaH8G3RcGuWFEsdC8uWSYb+QYd8Vh/YC5S4mG/kGHfFYf2AuWqxlojjV/5DiPxSo+bcuCfd/D/ANSVf0iBc6u/IcQ+KVPzblwL3x/Dv1JV/SIFnH1NcvQ5tf8Aiqb4/QfSGLlA5LiYh+Kpvj9B9IYuUAVh6Gxcixdbgsgib0JPO1YD8DwqA36qqqcKpphvdFJUND2E8CMj+9ehADbAAADIADIAbgvP1HuRgH6wwj6Q1ehKylwjVB5ZMlVwsOc98dWXPc4jEMQaC43s1tQ9oaOQGi5yxNiIoqsX32X8muzGoyOiAq6mJoi6QV7GCzajDKOqlA0dM2aSLbI42AHO3Jc3D3Odh+Guc4uc6jpnOc7VxMTSSVw2/wA45/1JTfSpVlFcmEnwcuicHQXboZ6oZi2YnkBXKsftXEw78lHxmt+kyrmKGZx4QC4bfdKf4hB89KuYuG33Tn+IQfPSqEGcXGb7fR79d0vzUy5dL+Pxb43H9FhXExknb6PfrylH/wAUy5VJ+Pxb43H9FgWx8I1r7jmIiLWbTi0P4mX45X/SZVrbHITJjmMusS1lVGSwX2pLsZdrcu3zLZFF+Jm+OV/0qVa26Ryf8bxVrXO72bZLswSCxpLMtwOi7tH1seCu1vlLJ1kj22DGWsNra2Wloz1DWkkjdfPcvkLHLQ8ePain8WVuiobyXMXHBFdQATpoT8hQAi98gNb/ACIQQDW+l8/sCdmXJCb6ZAZAcAopB3PRebqMdw03sJuvp3X3h8ZcB5wFtRacw6XqcRwqa9urrqU35GRoK3GFT61YmmXOhf8ABoIiLhLAluKAb92SqIAiIgCJkmSAImSIAVrHpc7ax2sH5kNKwf8Ab2vrWzitWdKDfHsU5GnH/wALV26HzPwcGu8v8nSqqLLwd2Z0/erkpQO9sd+reXNDncjXUj61jnrvV001GY7UBFVTnmNd4+sKKARdtFj+O01F3DFWFsIjMUfeMdLGy1rNkI2sty6vwc/fbhwWJ0PGx+RYyipcoyjOUM7Wbfwj3Jwb9X0fzTVTiEQxOLC+rf1slC+u6zverDGSCLZtfavnwWOD+5ODfq+i+ZauA/8AnbS/9Pz/AEpiocJyl+T0OWoR/B2teAaDEgdO5KkH/tuXiuh9dW1mKRx1MpkFLhEsUJcBthhmiNnP1PK69rX/AJDiPxSp+bcvBdCNluLTDK5w2T1SxZBbqYp1TZz3Nq2CR7uv/FU3x+g+kMXLF7LhYgQIqW5AvX4eBc6nuhmQ+VcwaLk9Edq5Km9Mk3oSeeqL/cjAP1hhH0hq9DxXnagg4RgGyQf+I4SMs72qQNV6I71nLj8s1Q5/CODhn4qs/WOJfSZFz1wMM/FVn6xxL6TIudksWbFwFi/wJPgO+RZLF/gSfAd8ihA42G+52F/EqT5pq4jf5xz/AKkpvpUq5eG+52F/EqT5pq4jb/fFPw+4tN5+6pVnH1NcvQ5eHfk3/uK36TKuWuHhpBpQQQQaitzGY/KZd65ixfJnHhBcNvunN8Qg+elXMXCBAxOYZX7ghIuc8ppVCD9DqultRNS4fRVMJaJoMSp5Ii5rXAO2JBezsl8+hs09RhtdPPI6SaXEql8j3Wu5xbHwyWPTYj7kQAkXNfAAL5+BIVj0G9yKr9Y1H7Ma68L6fPrk5Mv6nHsd7X18WHihMkcj+7K6ChZ1Zb3r5tohztojIWzXNXR9IhdvR7O3/iDDvkkXecVzSWIpnSm3Jo1rV45jGG4ljdPSVAZC6vq3Bro2SBjy83czbGV968/I+R75JJXOfJK4ySPcdovc43LiTvXNxr3Yxn49VftlcEEWsdNexXtUIximl6FBbOTk036kUVIIP8Z9iC2u7fz5BbzSABnc2AyP7lSdrI5WyaeHaoTe3AaKKAXMXvuRLk25b96ikFDthzH72PjeO1rgVutpBAI0Iv5xdaTcAGPJ0A863TAbwwHjFGf9IVXrv6lroP7H0RMkyVaWhVEyTJAETJEARVRAEVUQA/atWdKARj2Kc3U58hhYtp6rWXS1uxjtY7+shpXj/thlz5l26LzPwcGu8v8AJ0Pg9p0WKuuZ1RXBShRVFIF7Z6FZWtmPDtfZ4Dj2qeDmddw4c1OB3qAL3z9ah0PZ9SyydcjIjUfYsToew/IgNv4R7k4N+r6L5lq6+T+dtL/09P8ASmLsMI9ycG/V9F8y1cB9vvspeP3vz/SmKg/tL8non9kfwdpX/kOI/FKn5ty1BSVNTRywVNNK6KaIAse2x1FiCDkQd9wtv1/5BiPxSp+bctNt8FvY35F2aFJqSZw69tOLR6KlxvF8Vxfo/HVzNMUeIQPbFEwRsL7EbTgMyfKtljILUeCe7WCfHofrW3Fq1kVGSUVjobtFKUoNyeepwo8Sp5MRqMMDZOvgpYqp7i0CPYkdsgNN738i5v7l52mt992Lj/8AD0V/+4V6L9y5ZLGDrhJvPyavo8RxAV9NhnXXon45FJ1bgCWOFSX9445gE6j5FtA71qWkAOO0RboMZZtDgevK20d66tXFLbg5NHJyUsnBwz8VWfrLE/pMi5y4OGfiqz9ZYn9JkXPXGzuXBFi/wJPgO+RZLF/gP+A75FCBxsN9zsL+I0nzTV5LpXiNfh2KRmjl6p9ThbIpHhoLwxs0h7wnQ56/YvW4b7nYX8RpfmmrxHTcE4pRAf2eNdAOteurSpSswzk1Umqsr2PUdF7nAMHJuSYCSSbknrH6rm4liNPhlMKmdsjmGaCACJoc7bmeGN1OnFcLovb7gYPY3HUHM/3j1x+l9vuQy4uPujh3zwWppO3HubVJxqyux6HivFdLa2tw/FMKqaSYxSijnYcg5r2mQEte05EL2v2leC6dflmGfFZfnAs9Kk7EmYaptVNo8/iOL4nironVswcIr9UxjAyNl8iQ0bzzJXteg/uRU/rCo/ZYte2vroNSthdB7HCKrKw+6NRl/hZqu/VxUacRK/RycrsyOZ0j8Do7/wBQ4d8ki73iui6R+B0d/wCocO+SRd7xVXL7UWsfvf4NRY17sYz8eqv2yuBmufjXuxjPx6q/bK4AHHQa/uV/X9i+Dz1n3v5ZW2Is7wb67weSO2tN262nkUJv5NOSoItY6ctyzMDHsVQgtOf7kUgK237t3MpYanT5TyUJugMZLlr/AIJAW6oMoYBwij/ZC0uG7bo2DV8kTP8AM8BbraA0ADQAAeQWVXrn9pa//PX3MqKqKtLQIqiAiIiAIiIAiIgC1303j2MUpZf62iYP8TJHg/UtiLxfTuH8HhNSB4MlRA4/Da2Rv7JXVpJbbUcmsjupZ4ZERXZQlV8HP324cE8H4W4cE8LXwuPHt5oCZ+VFFRckAXJOgGqAZ5cQqe+BIB2s7gb8tyNa5xLWgktFzYElo4kBZzRiJ1mv2mub3r8rniQGk+RCTbWEX+5ODfq+j+Zauvf/ADupf+np/pTF8MB6QYRJhtHDUVdPTz0sEVPKyd7Y7mNuyHML8iCBfJdVJ0kw775oawEmhjon4a6fZd794lMob4WyCLac1RqqbnLp3L12wUI9ex7Gv/IcR+KVPzblptvgt+C35FszGOkODRYfVCCsgqJ6iCSGCOnkDztSNLbv2bgAam9lrMA5AXOVsuS7NDFpNs4tdNNpI7DBPdnA/j0P1rbq1HgmWM4GBr3fDcjTfkFtxadf96+Do0H2P5PO0v8AO/GP1NRfOFei+0LztKf/ABhjH6movnCvRfuXJbyvhHXVw/l//ppuSWSGummidsyQ10ksZG5zJi4eRe0Z03pDTbTqOo7sDe+ja5nUbVvC6wm+z/hXiKn8prPjNR84V8gSNMvr5HkrqdEbUslHC+VTe02j0YnlqsJhqJXB0tRU4hLIQLN2nVUhOyOHBd2ug6IW+4NDYW/CVuX/ALiRd5L+Kl/u3/slUtqSsaXcu6nmtN9jNQ5gg6EEHzLzfQq/3Cg1/KazXP8ApnL0n71hKO14M4y3RyeGwjphDTUcNLXQTukpoxFHLBsOEjGCzdsPIsd29eexrFZcXrn1Lo+rjawRQx3uWxNuRtHibkrr9q2Q0zvff2qEZEjQ8dQeavK6IQlvSKGd85xUGzaXRb+b+DfFz845cfph7kR/rHDvnguR0X/m/g3xc/OOXH6Ye5DP1jh3zwVV/wC35Ld+R+D0XHyrwPTkXrMMzsBSy3P/AKi96Tr2m68F04NqzDOHcs1x/wCostJ5qMdX5TPIk8MgL2C2F0H9yKn9YVH7Ma17fW2l7r2HRDGMPpIKmgq5mQF9Q6piklOzG8Pa0OaXnIEW38VY6uLlX0K7RyUbcs7/AKR+D0d/6hw75JF3vFeJ6S9IMPe/C4aN7Kl1HiEFfM+E3jHU3Aja+9iTc8hbmu/HSPo8aY1X3Qg2Nm5jv/KL2vsdSe/v5FVyrntj0LSNsN769jXOMi+MY0SbDu+pF+PfnJcAknLcNBwX3ranuysrarZ2RUVE0wbvaHvLgCuOryCaikyisacm0OCJfmizMDIHKx047xzTZt4V7bv0uxQEDPVXauDfyW972KATMqIiA5WHRdfiOFQ6iSupGns61pK3GtWdF4evx7DBa4gFRUuPDYjLB63BbSCqddLM0i40CxBsqIi4CxCIl+YQBERAL81LoVEBldFiFkgC6DpdT9fglW4Al1LJDVNyvk12y71Erv18aqBtTT1VM/waiGWF3ZI0tWcJbZKRhZHdFxNMqggC+/dyR0b43yRPFnxPfE8Hc5hLT8ixXol3PMvnBfrRFFIKTcZ68eXNfSnDzK3YLL2Ph3DbdozvwXza1zyA3K5Aub7Lbm13EbuK+8gii22NL3FzdlwdkdsG4eRqCDuz1WLfYyS9TJ0hjadRJIWyEEWINgWu0vwc3O4NwdcuNe5ccgXEk7tc9yEknMkniTcncopSwQ3kuSIgzyQgaq6ZanefsTTTfqfqCxQHY4J7tYJ8eh+tbcWosE92cD+Pw/WtuXyVTrvvXwXGg+x/J0NPFKOlOLTEARuwqijad5cHkk2XfXzHkXRxOk++itbnsfcWmLRuLjMQV3Y1HkXJZ6fCOyv1+Wabq2vZV1rXAhwqZ7g83kr4rnYm7bmjlPhyCYv4nZme0ErgK/h1imees6SaNndEPcCh/vaz6RIu8l/FS/3b/wBkro+iHuBQ/wB7WfSJF3kv4qX+7f8AslUFvmP5PQVeWvg890K9waf4zWfOlekXm+hXuDT/ABms+dK9J+9LvMYp8uPwaTQGxy8t944FRPsXoTzr5Np9F7fcDByAQO5zYH+8cvl0rbtYWBZxvXUG1s2uGtl2ri6+nRcn7gYN8XPzj1x+lxIwhu6+I4cCLnQzDLJUP/t+S/fk/g9FbM9q8F05/LMM+KzfOL3vHtK8F05/LML+KzfOLPSeajHV+SzyKiqAbzkPWTwV4UIA3nQevkEJvyG7khN+Q4BRAVVrXPc1jAS5x2WgbysVzcMaDVF2V2xSFg5qG8IlLLBpKWHZbVVQbIRcxRMLnNHMgFYy0rQwy08wmibk+2T2X4jVfeA1AhpjTtb19XUyNqJnN2ixwdkHZGwX1iPWPpJTsgyzTUdTsZMka1rjt2C07nybtqOotZVMt2iLcaGEURSD1/QWnLqzFKojKGCGmYbe+lJld6g3zr3y830MpeowaKYiz66aaqN9dknq2eoBekVBqJbrGz0OmjtrSCIi0HQDodVgAdOatybgLIIAiIgIRdLKogJbmqiIAhRLoDV/Sqj7jxmqIFo6wNq4+F396/1g+fmujWwumlD1+HxVrB+EoZLvP/Ils13mOyfOteq80s99a9ig1UNlrCybHI+2yL3JaL6XAvb7FiM8t507V9WSdW2Rhbdx27Frrd8QB39xnbULpbOZe5mXRxMb1TgQ7ZJaSdoPAIJcBlbPQ39S4+Z1zJ1JvfzlCSbk5k7+KKEg2UZ2/O+X96nHkoss3WHvt3NSQTXIK6aa6E/UFL2yG/In6lEBURFIPpTzy0tRTVMVutp5o5mX0JYb2PI6FbDi6ZYA6n6yU1EcwaCafqXuftWzDXAbHlJC1yG7VrajW/DiFNNL23Za8Vz3aeN3WRvp1Eql/E9PT9K3NxWevqKY9TMOqEcZBljgFtkG+RItc2K72r6ZYLHTufRmaepcw9XE6J8bWOOQMrngC3Zda6/jkn8fvWEtJXJpmyOrsjldz6zTSTyOkkI2nfmiwGd7NHBfJFkG303a8ua6kkuDlbb5Nl9D/cCh/vKz6RIu9l/FS/3b/wBkro+iFvuBQ2vbrazX4xIu8l/FS/3b/wBkrz1vmP5PRU+Uvg890L9waf4zWfOlekXm+hfuDT/Gaz50r0iXeYxT5cfg0l9tl92RNv8AhrtbdzPCDe/ABFyd1tOK+VrtuLW99cfUvpLLtgBrS29y/vr7V3bQboMhuXoDzvDPXYB0ooaOnZQ4g5zWwHZhqIY3vjLddlzQNsEaDLPkuJ0l6R02JxxUdCH9zslbNLLI0t6x7L7AY099YakkfJn5f+P9lFz/AEte/edP1U3DYbFoumODyUrHVplgqWsAlYInyNe8DMscwEZ87LyGPYscYruvax0cEMfU07H+Hs3Li99srkrqgbbst4OhV2ctq52PX2Ka9NCuW5EWamdkVCRAN5038+xCb9gyyQm/IcOCi6DmKiIpAWUcj4XskYbOYbj6wVCLZm1jpbeoo5CeDnGpoZC57mVMT3/jRTybLH9tj9S+UlY47LYY2xRRxPihYMzGH5Odf846XXF4IsVFGTkwiotv03rLZ2c3f4eayMSCwzIy3JHDJUyQ00QvLUyxwRga7Ujgz1XWJzNyvSdDaHurFXVTheLDo9oZAg1EoLWjyC58oWu2eyDZsqhvmkbDpoI6aCnp4xaOCKOFg/RY0NC+yIvPPr1PSJYWELhYnM5KkXsqEJFgEREAREQBERAEREAQoiA+U8MVRDPBKLxzRvikHFrwWlafraSahq6qjlHfwSujBsRttv3rhfiMwtyrxXTTDe9hxWFubQ2nrLfmE95J5PBPaF2aO3ZPb3OHW1b4bux4nIZC1zqfqCA3FjroD9RWKK6ZSFIsTxRW98jqND9RWOZyCgDM2A9SyyAIvrkT9SZDLzkfIFigMsncj8v71j/FkVJDt/fD1qQRUAnSyipO4abzvKAtwBZt7cd5Q99mBnvHHmFirn5VAIEWRsc9DvH2KAE5DXeToApAAvkPLyS9vB0vmePahOoGQ9ZU4oDZ3RAg4BQ2/ra36RIu8l/FS/3b/wBkrynQzEqV1CMNe8MqIJZnxseQDLHK8y3ZfUi5BC7zGMTpcMoqiad7dsxvbBFfv5pHAhrWjW3Eqgtg/FaPQUzXgp+x1vQv3Bp/jNZ88V6NeP6FYjTCifhsj2sqIppJIg4hvWslO0Sy+pBvcL0OKYnS4XSTVE0jQ8Md1EZI25pCLNa1uuuqi6EvEawTTOPhJ54NSbRytkBomVrjTQjgVjnvVBI0V+effJFUNtR5uBQC+Z0+XkEIAGp3DX9ybR+q25Cb9gyCn2WUgpA1HgnTj5VFQSOzfzCZbtP4yUAKiwzOm7mVBbU+bihz1UgbR3i4O7QDsQi1uB0PH96ioNr30OqgBRXy3VAsLnyAb0BMgLnyDircnwtD6uxQm+aiArrMBJPegXuN45WW0OjGGuw7CaZsjdmpqT3XU5Zh8gBDT8EWC8P0bww4picLXi9LRllVU3HeuIP4OP8AxHM8geK2oFWa6zqoItdDVjNjCIirS0CIiAIiIAiIgCKqIAiqICKqKoCL5VEENTDNBMzaimjdHI072uFj+5fZROBjJp3EaGbDa2ooprl0RvG8/wBJE65a8du/muItl9KcGOJUjaiBl6yja50YaM5Yjm+I88rt5j9LPWoz03+fyq901viQ9zz+pp8KfswLnRZXFtnfptcf0VNMgc95HyBY8/Uug5hprkiy8Kw36A8eRUsUBFQL5JmdFSRoNPlQENt27jv5ooqpBEVQAnTyk7ggABO7y8FciCG7vCG93MKG2gvb5SmdwdCEBEWVr5jXUj6wooBOfDfvHYsjtOJc5xJGRc4kkcgSVAPIBqUJvbcBoE5GfQE3tbLZ8GxzHO/FC5ziC5znEaFzi4jylFEx1yM+gRVANSdBrz7FIKAMicgD5zwQ55gWGmz+byUJv2DIdiaZqARFllu04cFFIIqBqTpu4kqgDU6cN5UJJzKAiKogIiqtrDaPkHFQBkLF2YO4aqG+ut9CE1zKA21zB1H1hARCTkAC5xIa1o1c4mwaO0qkeUHQ8e1ep6H4P3VUDFp2nueleW0YIylqB3plz3M0HP4K122KqO5myqt2z2I9T0dwj7k4fFFIB3XOe6Kxw/rXDwAeDR3o7Oa7pFV5+UnJ7mejjFRjtREVRQZERVRAEVRARERAEVyUyQBFNoWuEBuSgKqpkrkgImauSmSAEZLXvSvA+4pX4lSMtSVDx3S1ukErj4QG5rj6zzWwjay+c0UM8UkMrGvilY6N7HC4c1wsQQttVrqluRpuqVsdrNLfxbgi7jHcElwep2W7b6KZx7lldnbeYnn84esC66dX0JKazE89ODreJD/ZZDvsjqBYHlwKxVvlbz23rIxKcstw85PNYqk3+3eiAiqIASbaW1PBSAASbDX5Ey0Gg15oSLWH+6os7L3248UBiiuiyYx8hOyL2/jJAYA53vYrMDau61ra8D2LOKInYke38HtObbQvDBd2yN9t6+b9gPd1brtyIIuAL7htZqMk4ITfTQaBEOZuiEBRVBY5nTfxvyUgAXudw9fJCb8gNBwQk3B4aclFACqiqkAEhZWFr52/N32+xYptG9/4twQAknVRVEAROKuQzI7BxUAAAAuOl8uahJOu9No3v/tbghta4vs+sICIr/uuRTUNfWTU1NTRbc1QbMuRssAzMkltGjW6htJZZMU28I++EYXPjFY2kZdsAAfWS2yhivbvT+c7Rvn3La9PTwUsENPBGI4YWNjjY3RrWj+LrhYPhVNhFIymg755PWVEzhZ80pFi8/IBuXZiypNRd4svYvdNR4UcvkIrkmS5jrCiuSZICIrkmSAKKpkgIiZIgGSHRL2WIub30QADyBZZIiAZK5KKoCZJkiIBkiqiA4tbR0lfTzUtVGHwyjZcMwQdxaRmCNxWvcUwePC5nRS0c7qc5xVkbi4OH6QvfaG8WWyl8aiCGpifDMwPY/Ig69oPFbqrnW/Y57qFavc1DUQCFzCx4fFI3bifxG8Hmvgu/wAewiowqPZcC+lfWPdSytGTGOb4Eh0BvpuK6BXlU1OOUUVsNksMIqgF9NLXPIc1sNYAueXFDa1hp8qE7h4Py9qICKoiAXuAN4X3gBs523sbd2NF2gPe2xsS7S1781jDFtFr3i8dzkHBu0W7idQL5E2ySR7XbTI2gNc4OO4Etvo0kgc1jz0Ml06iWT+jZYNYA07JJBDTkG33DO3avknDt0KKcENkVROe69lJBFSSbckRARUAkgAXJIAA1JOQCi+9IWtqaZztBI3yXyuofRErqzlClpIHCOVk1VUubtGKE2ZGDbVyOpqaQiJsUtNUEEsZKQWSW3AgnNZymVjsTiY8MqZpmSNLniPrIT71rnG2W9TN0VUxsrpmw1FMKWUkkmdzmgta4a81py+cm/COtIIJBFiDYg6g6KLkVha6qqi2xaZn2I0J32XwW5cGhhRFkAAAT/hHHmhAAAsTv0ChuTc6oSSSTqiAioJBvx9fkUX3o6SsxCoZSUcRlndYkaMjZ+fK7c31o2orMiUm3hGEEFTVTxU1LEZZ5nERRt321JO5o3nd8uz8CwWLCKYNc4TVcrR3RPYC9sxGzfsDcpgeBUuEQnZIlq5QO6aggAvt71g3NG4LuhkFTajUOx7Y8F1ptN4a3S5AAAVRVcZ3EyTJEQDJMlVEAyUP+6qh39iAX5HyICoUGvmQGWSIiAlrlVEzQBEzTNAFVM1c0BETNM0ATimaZoBZSwVzRAfKaCCoilgmjZJDK0skY8Xa4HcQtfY50UqaEyVOHCSejF3PisXT045AZub6+3VbGTyLdVdKp5iabqY2rEjSY77Q5WvfdbtQnKw8H1ntWxsa6KUmIdZPRltLVuJc8Bv4CY/8xoGR5jzFeBrKGuw+XqKyF8UmeyTmyQcY3jIq4p1EbeOSku086ueDjKqKrec5PlX1ZESA85t8INGRdZw7zPQkXI7Fi0BwzyA0PP8ANVMj9nq3AWGy0m3fbLSXBt+AuoJRlLK07Qj8Fxc43Y0W2iDssvd1tL5r5eVFFKWCG8mWTvhbufLtU+VFkO+uT/8A3y7UBja9ydPl7EJJ8mSHP6huHJEAUVRSCIs7Ajatp7387s5cVggOW2tcWNbPDDO1uTTK07Q5XCwkq55DGG7MTIr9VHCA1rCRa45rjqrHauTLc+CIizsLbVsx73j+kpMSAAC58gUJJN76pcnMqIAirWvfJHFGySSV5AjjjaXvceTW5r2OD9DJHllRjJ2WZOZRROBJ5VEgyt+iPOVqsuhUsyNtVMrXiJ0GEYJiOMv/AJOOrpWutNVyNvGANWxD3zuzIb+B2RhmE4fhVOKekjsDnLK87U0z97pH71zo4ooo44omMjiYA1jI2hrGtGgaBkvpZU92olb8F1Rpo1dfUgFlUTNc51BEzTNAETNM0ARM0zQBEzTNALBLckzTNAETNEAREQBERAFVFUBEREARVRAEREAREQBfCqpKSshfBVQxzRPFnMkaHDtHA8CvvmiJ4IayeFxPoTK3alwmXabck01S6zhyjl+QHzryM1NVUsroauGWnkbq2ZuyT8HcfISt0Zrj1NHR1kZhqqeKaI6tlaHC/K+i7atZOPSXVHDbooy6w6M02TfLhoOHbzVBBFicxkD9RXu67oPSSbT8OqX07jn1M95ob8ASQ8ec9i8xWdHukFCXGWifJGL/AIWkJnZbmGjb87QrCGprn6lbZprIeh1XHlqosg5pu0mzhlY3DhyIOaAa3ytrz5LoXXqjnfTkgF8zkBw1PYhJPYMgAhPkA07OSiAyydrkRv49vNRREBUA3nzbygAtc6bgN6Ek5n9ykC5vfzclSL5gZ7wN/MLFXO9wUBFUyOgz1I+sIS1g2nkAagONr+dQCjIXPkHHtUJOu/iNy5dJh2LYiR3HRVEwP9IWdXCP/Uls31r0tD0Gqn2fiVY2NuphohtP7DNILeZvlWmy+uHLN9dFln2o8fk4tDQS9xAEbAXPcT+YwZnzL0OGdEcYrtmSr/kNOcyHjaqnjlHoPKfIvdYfguEYW21HSsY8izpXXfM/4Uj7u9a7Gy4LNbJ9IdCwq0KXWfU63DMFwvCWbNJDaRwtJNJ388nwnnPyBdkiLgbbeWywjFRWEgiIoMgiIgCIqgIiIgCKqIAiIgCKqIAiIgCIiAIiIAqoiAIiIAiIgCIiAIiIAiIgCqiIAhCIgOHVYXhdaCKujp5r75I2l3kd4XrXSVXQvBJs4H1VMbWaIpNtg/wyg/KvTpks42TjwzXKqEuUeBn6CVzfybEad44VELoz/mYXD/Suvl6IdJo3ENgppRxhqGgnyShq2dYIuiOstXqc0tFUzUz+j3SSMkOwupPOMxPH+h5Xz+42OjwsKxDW1hA838y27klgtn10/VI1/QQ9GzUBwjHyfcrEDw/k7x5Mws24F0jfkMJrR8NrGDzucFtywUsE+un2QWgj/pmr4+ivSh9v5FHGOM1TCPOGFxXOi6D4w/ZM9ZRQj32wJZneS+wFsNFg9ba+DNaGpcnkKfoLhrCDVVtXOQQdmPYgZl8AF3+pd3S4BgFG7bgoKcSf1kjetf8A5pLldpki0Susn9zOiNNceEQC2WXKyqZItRtCIiEhERAEREAREQBERAEREAREQBERAEREAREQBERAEREAVUVQEREQBERAERQmwugKixvcKi6AqIiAKqIgCIiAqiIgCIiAIiIAiIgCIiAKqKF1jayAqLHMrJAEREAREQBERAEREAREQBERAEREAREQBEOQKx2rjne1kBkiIgBWKpvwP+yZ80ACqmfAq5oAqpmmaAImaZoAiZpmgCh3ISeB8yAdqAAWVTNM0ARM0zQBEzTNAETNM0BFOKufAqZ8DoUBR/sqoL8Fc0ARM0zQBEzTNAETNM0AWNrlDc5WKoBCAoRM0zQBEzTNAETNM0AQpmob8CgJ6uCAn7EseaZ5ZHzIDJEF7JmgCJmmaAImaZoAiZqG/AoATqgG9QA8FlmgCJmiA0kazEPHKv0ib2k7txHxyr9Im9pSCndUOqAJBEyClmq5n7D5HBkeyLNjj74uJIHnO5djPg5FX1MMojZJUzQRRyNkkeyOlpmTzyPLd4JIa3U+RetlKuL2tL/h4aKtktybOv7sxDxys9Im9pTu3EfHKv0iX2lzBhO0asR11O8RT1FLTPjjlcyrlp6c1Mga8CzQBcAkm504quwdzaaWc1sHWx075nU4hmBaWU8dY9nWnvMmPa4cTluWPiVe3/DLZd3/AGcLu3EPHav0iX2lkavFG7JdVVzQ4bTS+WoaHDi0uOa5tPhDJQWzVT2TGjoKoRQ0sspY6smDY4nNBDiSLE2ta+a51RHVYu2kEstLSM6uKdhMc0rjLUxSymINaBZobE49th2YStrT6JY+DONdjXVvPydH3biPjlZ6RN7SnduI+OVnpE3tLmOwl7Ia+eStpmQ0oZ1LnskvVufDHUNawagkPbsg3JufzbpTYRLVModmpYyprTtQQPhnIbD1zqcyyTNGyCC0nZPZqbLZ4lWM9P8AhgoXZxn9nD7txHxyr9Im9pO7cR8cq/SJvaXZswHrI2TDEY2wTMbJSyGlmvKw00lWS6Pau2wY7I65cV1tZTGjqZIOsbKAyGVkjWlm3HNE2ZhLXZg2IuEhOqb2xXX4InC6tbpN/wDR3ZiHjlX6RN7Sd24h45V+kTe0uOqtuyPZGrxJ92fbu3EfHKv0ib2k7txHxyr9Im9pfBE2R7IeJPuz7924j45V+kTe0nduI+OVfpE3tL4qJsj2Q8Sfdn37txHxyr9Im9pXu3EfHKv0ib2lx1U2R7IeJPuz7d24j45V+kTe0nduI+OVfpE3tL4Kpsj2Q8Sfdn37sxDxyr9Im9pO7MQ8cq/SJvaXwUTZHsh4k+7Pv3biPjlX6RN7Sd24j45V+kTe0viibI9kPEn3Z9u7cR8cq/SJvaTu3EfHKv0ib2l8UTZHsh4k+7Pt3biPjlX6RN7Sd24j45V+kTe0viomyPZDxJ92ffu3EfHKv0ib2le7MQ8cq/SJvaXwUTZHsh4k+7OR3ZiHjlX6RN7Sd24j45V+kTe0uOqmyPZDxJ92fbu3EfHKv0ib2k7txHxyr9Im9pfFRNkeyHiT7s+/duI+OVfpE3tJ3biPjlX6RN7S+KibI9kPEn3Z9+7cR8cq/SJvaTu3EfHKv0ib2l8VE2R7IeJPuz7924j45V+kTe0r3biPjlZ6RN7S465mHtoH1JFcWinEbT3znN77r4hq3PwdpYyUYrOP0ZRlOT27uT592Yh45V+kTe0p3biG6sq/SJfaXNezCBiFK1wp+53RSisEEsxpo5bTFhjeTtnSM5m1yRpkkceGNhwzrmUhfJS1jpnR1E145O53OhErb36zaAJyA761srrVvhjO39I2qE3lbzhd24j45V+kTe0nduI+OVfpE3tLsCMFiZTva2lkDaSeR7S6Z0kloYura7vhaUyF5du2W6L6SQdHQY7Twt/4ZUFoY6dzXVfVEskcQbgg+CDrfPwbOjxI/wCP0ZeHP/f7Or7txHxyr9Im9pXu3EfHKz0ib2l2UkGBNdUmOWmdD3BI6LrJXmVk7WOETm7JsXPNi4WuL20XXPbTdxAsLOv2cjd3WmQkX2m+DsrJTg/6/owcJp/f+zHu3EfHKz0ib2le7cR8cq/SJfaXbTUvRyaVrYaqKCJkU+09kj2kvAZsBrX7QdvN7tve3vc/i6lwEQPZ3UBM8sljkdLtOi/kwJZKBHs2LsstL6m2ePi1/wCf0Z+Fb/r9nX924h45WekTe0ndmIeOVfpE3tLn1FLgkEGJvgqm1EwgaKZpmvsSF0DrM7wFxP4S7srbOma+rabo8wRDuumeY6TqqhxMtu62ujf1zA4WsQXtyy73S6eLD/P6I8OzON37Or7txHxyr9Im9pTu3EfHKz0iX2l2MlBgsLZeuqqoSNpqWpEHeMk/D3lMdnNILmjZDh+kTyXXVcdNDUSRU03XxRhjRNo2V2yC5zBra+izhOE3hL9GFkbILLl+zLuzEPHav0ib2kXwRbtkeyNPiT7syjkqKeVssMskUrL7L4nuZI2+Rs5pv2qieqDo3iaYPjlfPG8SO22SvO06RpvfaJzJ3oinamstGO5romfR1biLnTPdV1JfMWGVxmftSbALW7ZvnYEgcjZYd0Vedp5hkQfwj8wWNjI14BrewDgiKNkew3y7mQq69s8lS2qqRUStc2SYTSCV7TYFrng7Vshv3LBs9U0Ma2eZrWBrWBsjgGhjXMaAAdwc4D4R4oibI9hvk/UybU1rRKG1M4bM2JkoEjwJGxABgcAc9ncs+7sSLHMNZVbLp+6nATSAGfa2utOfhXzuiJsj2J8SXcj63EZHvkkq6l73uL3OdK8lzjGYSb3/ADSW9htovjI+WV23I9737LG7TySdljQ1oueAAARFKjFcIhzk+WY2KWRFJjkWSyIgyLJZEQZFksURBkWSyIgyLFLIiDIslkRBkWSxREGRYpZEQZFksiIMiyWKIgyLJZEQZFilkRBkWSyIgyLIQckRBkWKW5fx2oiAW/jilj/H1oiDIsUsiIMiyWKIgCWP8fZoiKQLa89UsiKCT6CJ5sbaoiJk27Uf/9k=;clipPath=inset(9.33% 9.3% 14.33% 9.3% round 5%);shadow=1;textShadow=1;" parent="ttBeq1UxZRL0ylQ9z-ZB-63" vertex="1">
          <mxGeometry x="365.96" y="50" width="68.08" height="67.2" as="geometry" />
        </mxCell>
        <mxCell id="N3tuldMV24hy1_GBqyLN-71" style="edgeStyle=orthogonalEdgeStyle;rounded=0;orthogonalLoop=1;jettySize=auto;html=1;entryX=0.5;entryY=0;entryDx=0;entryDy=0;textShadow=1;" parent="WIyWlLk6GJQsqaUBKTNV-1" source="0slJHiL-0B2PbUMmb_t5-30" target="0slJHiL-0B2PbUMmb_t5-50" edge="1">
          <mxGeometry relative="1" as="geometry" />
        </mxCell>
        <mxCell id="N3tuldMV24hy1_GBqyLN-76" value="Encryption" style="edgeLabel;html=1;align=center;verticalAlign=middle;resizable=0;points=[];labelBackgroundColor=#CCCCCC;textShadow=1;" parent="WIyWlLk6GJQsqaUBKTNV-1" vertex="1" connectable="0">
          <mxGeometry x="450" y="1010" as="geometry">
            <mxPoint x="-10" y="69" as="offset" />
          </mxGeometry>
        </mxCell>
        <mxCell id="N3tuldMV24hy1_GBqyLN-78" value="" style="endArrow=classic;html=1;rounded=0;entryX=0.75;entryY=1;entryDx=0;entryDy=0;exitX=0;exitY=0.5;exitDx=0;exitDy=0;textShadow=1;" parent="WIyWlLk6GJQsqaUBKTNV-1" source="N3tuldMV24hy1_GBqyLN-16" target="zklYke0HYy3J-oZaXSR5-0" edge="1">
          <mxGeometry width="50" height="50" relative="1" as="geometry">
            <mxPoint x="650" y="720" as="sourcePoint" />
            <mxPoint x="600" y="770" as="targetPoint" />
          </mxGeometry>
        </mxCell>
      </root>
    </mxGraphModel>
  </diagram>
</mxfile>
